<?xml version="1.0" standalone="no"?>
<!DOCTYPE svg PUBLIC "-//W3C//DTD SVG 20010904//EN"
 "http://www.w3.org/TR/2001/REC-SVG-20010904/DTD/svg10.dtd">
<svg version="1.0" xmlns="http://www.w3.org/2000/svg"
 width="700.000000pt" height="700.000000pt" viewBox="0 0 700.000000 700.000000"
 preserveAspectRatio="xMidYMid meet">
<metadata>
Created by potrace 1.14, written by Peter Selinger 2001-2017
</metadata>
<g transform="translate(0.000000,700.000000) scale(0.100000,-0.100000)"
fill="#000000" stroke="none">
<path d="M3474 6223 c11 -11 -16 -45 -31 -39 -11 5 -14 2 -9 -10 4 -10 -4 -30
-19 -50 -14 -18 -25 -36 -25 -41 -1 -16 -66 -113 -72 -107 -4 3 -5 -2 -4 -12
2 -10 -3 -29 -11 -43 -7 -15 -13 -32 -13 -40 0 -8 -6 -11 -15 -7 -13 5 -14 2
-4 -15 9 -17 8 -20 -2 -14 -9 6 -11 4 -6 -7 7 -20 -18 -96 -26 -77 -4 8 -4 -3
-1 -23 5 -32 3 -38 -12 -38 -15 0 -16 -2 -5 -9 12 -8 13 -14 3 -35 -9 -20 -9
-26 1 -27 6 0 3 -4 -8 -9 -11 -5 -14 -9 -6 -9 10 -1 12 -9 8 -31 -4 -16 -2
-32 4 -36 7 -4 6 -11 -2 -20 -8 -10 -8 -14 0 -14 6 0 11 -5 11 -10 0 -7 -7 -7
-22 0 l-23 11 23 -18 c22 -18 48 -85 43 -112 -1 -7 2 -11 6 -8 5 3 17 -7 27
-23 13 -24 14 -29 3 -24 -8 3 -17 2 -20 -3 -3 -5 5 -10 19 -11 24 -2 71 -40
67 -54 -2 -5 4 -8 13 -8 10 0 14 -6 11 -14 -4 -11 -1 -13 10 -9 12 5 15 2 10
-10 -3 -9 -2 -19 4 -22 5 -4 8 -3 7 2 -3 8 5 13 23 13 5 0 8 -4 5 -8 -2 -4 6
-8 19 -8 13 0 21 4 18 10 -7 11 -10 66 -4 66 2 0 10 -8 18 -17 13 -16 13 -16
4 3 -10 20 -6 34 9 34 7 0 9 -9 12 -55 1 -14 5 -25 9 -25 4 0 5 17 4 38 -2 20
-4 37 -5 37 -9 0 -6 41 3 47 9 6 8 8 -3 8 -13 0 -13 2 0 11 13 9 13 10 -2 6
-13 -5 -16 -1 -12 17 2 14 -1 23 -9 23 -7 0 -13 -8 -13 -18 0 -10 5 -15 10
-12 5 3 6 1 2 -5 -10 -16 -29 -15 -23 1 2 6 0 22 -4 34 -6 17 -5 21 6 16 8 -3
15 0 15 6 0 6 -4 11 -10 11 -5 0 -10 7 -10 15 0 8 5 15 11 15 5 0 8 -4 4 -9
-3 -5 0 -13 6 -16 5 -4 8 -13 6 -19 -3 -7 1 -13 9 -13 7 0 10 5 7 10 -3 5 1
14 8 19 11 8 10 9 -3 4 -10 -3 -20 0 -24 6 -4 6 -3 8 3 5 13 -8 11 35 -2 46
-5 5 1 5 15 2 14 -3 20 -3 14 2 -6 4 -10 16 -8 26 1 10 -2 14 -8 11 -7 -5 -8
-2 -3 6 6 9 4 11 -5 5 -9 -5 -11 -4 -6 3 5 8 2 10 -8 6 -19 -7 -21 7 -3 25 10
11 9 13 -4 8 -9 -3 -16 0 -16 8 0 8 7 11 16 7 14 -5 14 -4 1 14 -14 18 -14 18
3 5 17 -13 18 -13 15 4 -2 12 3 20 12 21 8 0 10 -1 3 -3 -7 -2 -9 -11 -6 -19
4 -11 9 -12 19 -3 8 6 14 8 14 4 0 -4 -8 -14 -17 -22 -15 -12 -15 -14 -2 -10
9 3 16 -1 16 -8 0 -8 -7 -11 -16 -7 -14 5 -14 4 -1 -13 11 -14 15 -51 16 -169
1 -83 2 -163 3 -178 l1 -27 35 20 c19 11 40 17 46 13 7 -4 9 -3 6 3 -9 14 39
57 53 48 6 -3 10 -3 9 2 -3 20 2 34 11 28 6 -3 10 -1 10 5 0 6 5 8 13 4 9 -6
9 -5 0 7 -9 11 -8 18 1 31 7 10 15 15 18 12 3 -2 8 2 12 11 4 11 2 14 -7 9 -6
-4 -1 5 13 21 14 16 19 25 13 21 -7 -4 -13 -2 -13 3 0 6 4 11 10 11 5 0 7 7 3
16 -5 13 -2 15 18 9 l24 -7 -23 20 c-13 11 -19 23 -14 26 5 3 8 17 6 31 -2 22
0 24 12 14 12 -10 13 -9 8 5 -3 9 -9 16 -13 16 -4 0 -7 16 -8 35 -1 36 0 36
20 18 15 -13 18 -13 9 -2 -6 9 -8 20 -4 24 4 5 1 5 -5 1 -14 -8 -18 6 -6 18
10 10 11 46 1 40 -5 -4 -7 -12 -4 -19 3 -8 -1 -19 -9 -25 -11 -9 -14 -8 -13 7
1 10 -2 29 -6 43 -5 19 -5 21 3 10 9 -13 12 -13 23 -1 7 8 8 11 3 8 -6 -3 -19
1 -29 9 -16 11 -17 16 -6 29 7 8 10 18 6 22 -3 3 -6 0 -6 -8 0 -12 -2 -12 -9
0 -5 8 -7 21 -3 29 3 9 1 13 -5 9 -6 -4 -13 2 -16 13 -3 11 -1 18 3 15 5 -3
12 -1 15 5 4 6 3 10 -2 9 -22 -4 -33 3 -33 20 0 11 -5 21 -10 23 -6 2 -12 13
-13 26 0 12 -5 22 -9 22 -10 0 -10 27 0 33 4 2 2 2 -5 1 -17 -4 -46 45 -40 67
3 10 2 17 -2 15 -4 -3 -13 -1 -21 4 -12 7 -12 10 3 16 9 3 17 11 17 17 0 7 -4
7 -12 -1 -17 -17 -33 -15 -18 3 11 13 10 15 -6 9 -18 -5 -18 -5 -1 9 16 13 16
15 2 21 -10 4 -14 2 -9 -5 4 -7 1 -10 -7 -7 -8 3 -13 12 -11 21 2 12 -2 15
-13 11 -11 -5 -14 -2 -8 12 5 13 3 15 -7 9 -10 -6 -12 -4 -6 11 4 10 4 15 0
11 -4 -4 -14 -1 -22 5 -14 12 -49 22 -38 11z m25 -697 c9 -11 8 -15 -5 -20
-23 -9 -24 -8 -24 14 0 23 13 26 29 6z m-6 -50 c4 -10 1 -13 -9 -9 -7 3 -14 9
-14 14 0 14 17 10 23 -5z m12 -155 c1 -12 -8 -24 -24 -30 -22 -10 -23 -9 -9 2
12 10 14 17 6 31 -8 14 -7 17 1 12 6 -4 11 -2 11 5 0 19 14 1 15 -20z"/>
<path d="M3396 6158 c4 -6 1 -14 -6 -18 -8 -5 -8 -9 4 -13 9 -4 15 -3 15 1 -4
21 2 32 14 26 6 -4 8 -3 4 1 -11 13 -38 15 -31 3z"/>
<path d="M3363 6075 c-7 -8 -9 -16 -4 -19 5 -3 12 1 15 10 8 22 4 25 -11 9z"/>
<path d="M3647 6045 c-4 -8 -2 -15 4 -15 6 0 8 -4 4 -9 -3 -5 -1 -12 4 -16 6
-3 8 6 5 22 -6 34 -10 38 -17 18z"/>
<path d="M3341 6034 c0 -11 3 -14 6 -6 3 7 2 16 -1 19 -3 4 -6 -2 -5 -13z"/>
<path d="M3305 6020 c-3 -6 1 -7 9 -4 18 7 21 14 7 14 -6 0 -13 -4 -16 -10z"/>
<path d="M3277 5973 c-8 -17 -1 -37 13 -40 10 -3 11 -2 4 4 -6 4 -10 16 -8 26
2 18 -2 23 -9 10z"/>
<path d="M3697 5944 c-8 -8 3 -34 15 -34 7 0 6 5 -1 13 -6 8 -8 17 -4 20 3 4
4 7 1 7 -2 0 -7 -3 -11 -6z"/>
<path d="M3723 5895 c-3 -9 -3 -18 -1 -21 3 -3 8 4 11 16 6 23 -1 27 -10 5z"/>
<path d="M3230 5839 c0 -5 5 -7 10 -4 6 3 10 8 10 11 0 2 -4 4 -10 4 -5 0 -10
-5 -10 -11z"/>
<path d="M3213 5805 c0 -8 4 -12 9 -9 5 3 6 10 3 15 -9 13 -12 11 -12 -6z"/>
<path d="M3776 5762 c-3 -5 1 -9 9 -9 8 0 12 4 9 9 -3 4 -7 8 -9 8 -2 0 -6 -4
-9 -8z"/>
<path d="M3210 5720 c0 -5 5 -10 10 -10 6 0 10 5 10 10 0 6 -4 10 -10 10 -5 0
-10 -4 -10 -10z"/>
<path d="M3198 5673 c7 -3 16 -2 19 1 4 3 -2 6 -13 5 -11 0 -14 -3 -6 -6z"/>
<path d="M3180 5606 c0 -2 8 -10 18 -17 15 -13 16 -12 3 4 -13 16 -21 21 -21
13z"/>
<path d="M3499 5605 c-1 -3 -2 -8 -3 -12 -1 -5 -5 -15 -10 -23 -5 -8 -5 -12
-1 -7 5 4 18 -1 29 -10 21 -18 21 -18 5 2 -9 11 -15 28 -14 38 3 15 -3 26 -6
12z"/>
<path d="M3190 5540 c0 -5 5 -10 10 -10 6 0 10 5 10 10 0 6 -4 10 -10 10 -5 0
-10 -4 -10 -10z"/>
<path d="M3790 5506 c0 -2 7 -7 16 -10 8 -3 12 -2 9 4 -6 10 -25 14 -25 6z"/>
<path d="M3206 5462 c-3 -5 1 -9 9 -9 8 0 12 4 9 9 -3 4 -7 8 -9 8 -2 0 -6 -4
-9 -8z"/>
<path d="M3190 5419 c0 -5 5 -7 10 -4 6 3 10 8 10 11 0 2 -4 4 -10 4 -5 0 -10
-5 -10 -11z"/>
<path d="M3231 5394 c0 -11 3 -14 6 -6 3 7 2 16 -1 19 -3 4 -6 -2 -5 -13z"/>
<path d="M3775 5399 c-4 -6 -5 -12 -2 -15 2 -3 7 2 10 11 7 17 1 20 -8 4z"/>
<path d="M3300 5295 c0 -5 5 -17 10 -25 5 -8 10 -10 10 -5 0 6 -5 17 -10 25
-5 8 -10 11 -10 5z"/>
<path d="M5716 5287 c3 -10 9 -15 12 -12 3 3 0 11 -7 18 -10 9 -11 8 -5 -6z"/>
<path d="M5793 5270 c-1 -11 2 -20 7 -20 4 0 7 7 6 15 -3 23 -12 26 -13 5z"/>
<path d="M1170 5259 c0 -5 5 -7 10 -4 6 3 10 8 10 11 0 2 -4 4 -10 4 -5 0 -10
-5 -10 -11z"/>
<path d="M1250 5260 c0 -5 5 -10 11 -10 5 0 7 5 4 10 -3 6 -8 10 -11 10 -2 0
-4 -4 -4 -10z"/>
<path d="M3650 5255 c-11 -13 -10 -14 4 -9 9 3 16 10 16 15 0 13 -6 11 -20 -6z"/>
<path d="M5756 5258 c3 -5 10 -6 15 -3 13 9 11 12 -6 12 -8 0 -12 -4 -9 -9z"/>
<path d="M5836 5258 c3 -4 -1 -9 -8 -9 -49 -5 -59 -7 -65 -12 -3 -4 -12 1 -20
11 -8 9 -11 11 -7 3 3 -7 1 -17 -6 -21 -16 -10 -42 -1 -34 11 9 15 -3 10 -17
-8 -10 -11 -10 -14 -1 -9 6 4 12 2 12 -3 0 -12 -13 -14 -24 -4 -11 11 -36 12
-36 1 0 -6 7 -7 16 -4 9 3 12 2 9 -5 -4 -6 -13 -8 -20 -5 -7 2 -18 -1 -25 -7
-10 -9 -12 -8 -7 5 3 10 2 20 -4 23 -5 4 -9 3 -8 -2 4 -21 -3 -31 -27 -42 -14
-6 -29 -9 -34 -6 -4 3 -13 -2 -20 -11 -11 -12 -15 -12 -21 -2 -7 10 -9 9 -9
-4 0 -10 -5 -18 -11 -18 -5 0 -7 4 -4 10 3 6 -1 7 -9 4 -9 -3 -13 -10 -10 -15
5 -8 -9 -13 -28 -10 -5 0 -8 -3 -8 -7 0 -10 -50 -37 -62 -34 -5 1 -8 -3 -8
-10 0 -6 -7 -3 -15 8 -14 18 -14 18 -8 -3 6 -27 -23 -44 -39 -22 -8 11 -9 10
-4 -4 4 -12 -14 -37 -59 -83 -36 -37 -65 -73 -65 -80 0 -16 -11 -18 -28 -4 -9
7 -9 7 -2 -2 16 -19 12 -41 -5 -34 -12 4 -13 2 -6 -12 6 -11 6 -24 0 -35 -6
-9 -8 -21 -4 -26 3 -5 1 -12 -4 -16 -5 -3 -8 -15 -6 -26 3 -15 0 -19 -10 -15
-8 3 -15 1 -15 -3 0 -5 8 -12 17 -15 14 -6 15 -9 3 -16 -19 -12 -22 -40 -4
-47 8 -3 11 -9 8 -15 -3 -5 -13 -7 -21 -4 -8 4 -11 1 -8 -5 4 -6 13 -8 21 -5
8 3 15 -1 15 -9 2 -19 3 -25 12 -52 7 -20 13 -16 79 50 39 40 68 66 63 58 -5
-9 -3 -12 6 -9 8 3 13 13 11 22 -2 11 9 22 30 31 18 8 27 14 19 15 -8 0 -3 10
15 25 15 13 30 22 33 19 3 -3 0 -9 -8 -13 -10 -7 -10 -9 1 -14 8 -3 15 0 15 6
0 7 4 21 9 31 5 15 4 17 -6 11 -8 -5 -11 -4 -6 3 4 6 14 8 23 5 10 -4 14 -2
10 4 -4 5 0 19 8 29 11 13 13 14 10 3 -4 -10 0 -16 10 -16 8 0 15 5 15 10 0 5
6 4 13 -2 8 -6 18 -7 22 -3 5 4 5 2 1 -5 -4 -7 -14 -9 -24 -6 -15 6 -15 5 -3
-10 13 -17 13 -18 -11 -21 -7 0 -13 -6 -13 -13 0 -11 -24 -42 -26 -32 0 2 -2
12 -4 22 -2 10 1 14 7 11 7 -4 8 -2 4 5 -11 18 -25 4 -22 -24 2 -15 -1 -22 -7
-18 -6 4 -8 0 -4 -9 6 -16 -19 -46 -38 -47 -5 -1 -10 -5 -10 -10 0 -27 -49
-48 -70 -31 -6 5 -17 5 -25 -2 -12 -8 -12 -9 3 -4 12 4 16 2 11 -6 -4 -6 -3
-8 2 -5 6 3 16 1 24 -5 12 -8 11 -9 -4 -4 -13 5 -17 2 -13 -8 4 -9 -13 -32
-42 -59 l-49 -46 27 -10 c51 -19 77 -24 124 -24 39 0 47 -3 42 -16 -3 -11 0
-10 10 3 8 11 25 21 36 23 19 3 20 1 8 -14 -12 -16 -12 -17 2 -6 9 7 20 9 24
5 5 -4 6 -2 2 3 -3 6 3 16 13 23 16 10 21 9 30 -6 9 -14 10 -13 4 7 -4 16 -3
21 5 17 6 -4 18 2 28 13 13 16 20 18 32 8 9 -6 13 -8 9 -3 -8 10 11 51 19 42
4 -3 13 3 21 15 8 11 20 18 28 15 7 -3 11 0 8 7 -5 14 53 107 67 107 5 0 8 3
8 8 -4 21 2 32 13 26 8 -5 9 -2 5 10 -5 11 -3 15 5 10 8 -5 9 -2 5 9 -3 10 -2
17 4 17 6 0 7 4 4 10 -3 5 3 17 15 27 11 10 20 22 20 28 0 5 -5 3 -10 -5 -6
-9 -10 -10 -10 -3 0 6 5 15 10 18 6 4 7 11 4 17 -4 7 -2 8 5 4 6 -4 9 -11 6
-16 -6 -10 21 -7 32 4 4 4 1 6 -7 4 -8 -2 -14 3 -12 10 1 6 -3 12 -10 12 -6 0
-4 7 5 18 10 10 14 22 11 25 -4 4 -2 13 4 20 7 8 13 27 15 43 2 17 7 35 11 42
4 7 4 17 1 22 -4 7 3 9 22 5 24 -5 25 -4 6 4 -13 6 -20 17 -18 28 2 10 4 18 5
18 3 0 11 41 12 63 0 12 3 22 7 22 3 0 6 13 6 30 0 25 -3 29 -19 24 -10 -4
-16 -2 -13 3 4 5 0 10 -8 10 -8 0 -12 -4 -9 -9z m-351 -426 c-3 -3 -11 0 -18
7 -9 10 -8 11 6 5 10 -3 15 -9 12 -12z"/>
<path d="M1116 5248 c5 -8 1 -9 -12 -5 -18 7 -18 6 -2 -6 13 -10 14 -17 6 -25
-8 -8 -8 -13 3 -17 10 -4 14 -21 14 -54 0 -27 3 -47 6 -45 4 2 10 -3 13 -12
11 -28 7 -35 -12 -25 -14 7 -19 6 -19 -4 0 -7 6 -11 12 -9 7 3 18 -3 26 -12
12 -15 12 -17 0 -9 -11 6 -10 2 2 -16 9 -13 17 -31 17 -41 0 -10 5 -18 11 -18
6 0 9 -7 6 -15 -4 -8 -2 -17 3 -20 5 -3 7 -12 3 -20 -3 -8 0 -15 5 -15 6 0 14
-16 18 -35 4 -22 10 -32 18 -28 6 3 8 3 4 -2 -4 -4 -1 -17 7 -27 7 -11 11 -27
8 -36 -4 -10 -2 -13 5 -8 7 4 12 1 12 -8 0 -8 6 -16 13 -19 9 -3 9 -8 -2 -21
-8 -9 -11 -19 -7 -23 3 -3 6 -1 6 5 0 7 7 12 15 12 8 0 15 -7 15 -15 0 -8 5
-15 10 -15 6 0 10 -5 10 -11 0 -6 -7 -8 -16 -5 -9 3 -12 2 -9 -4 4 -6 14 -9
22 -8 9 2 18 -3 21 -11 3 -10 0 -11 -9 -5 -12 7 -12 5 0 -9 15 -18 26 -23 16
-7 -3 6 -1 10 4 10 12 0 15 -26 4 -33 -5 -2 -3 -3 3 -1 6 1 18 -3 25 -9 10
-10 11 -9 4 3 -9 14 -9 14 5 0 23 -23 100 -74 117 -76 9 -2 21 -8 27 -15 8 -9
8 -10 -3 -4 -10 6 -12 4 -7 -4 6 -9 11 -9 22 0 11 9 15 8 20 -4 3 -9 13 -18
21 -21 13 -5 14 -4 4 8 -10 12 -9 15 8 13 11 0 17 -5 14 -10 -3 -5 4 -6 17 -2
16 5 20 4 15 -5 -6 -9 -3 -9 14 -1 12 7 26 9 31 6 6 -3 16 -3 22 1 20 12 52
12 60 0 5 -7 8 -4 8 7 0 10 8 17 20 17 24 0 27 15 4 24 -11 4 -13 12 -8 28 6
19 4 21 -7 12 -11 -8 -18 -6 -31 8 -12 12 -14 18 -5 18 6 0 3 6 -8 12 -11 6
-24 17 -28 25 -5 7 -14 11 -20 7 -7 -3 -1 4 13 16 14 12 19 19 12 15 -7 -4
-21 -1 -30 7 -15 12 -16 11 -3 -4 7 -10 9 -18 3 -18 -5 0 -13 7 -16 16 -3 8
-11 12 -17 8 -7 -4 -9 -3 -6 3 4 5 -5 16 -18 23 -19 10 -24 19 -19 34 6 19 5
20 -12 6 -10 -8 -16 -11 -12 -6 8 10 -23 47 -34 40 -5 -3 -7 0 -6 8 2 7 -3 12
-9 10 -18 -3 -16 8 5 25 15 13 15 14 0 10 -9 -3 -24 1 -35 9 -17 14 -17 15 3
5 16 -8 25 -7 33 3 6 7 10 15 8 17 -1 3 16 -13 37 -35 22 -23 43 -40 48 -38 5
1 8 -1 6 -5 -6 -11 39 -53 47 -44 4 3 5 -1 3 -9 -2 -8 2 -14 9 -13 8 2 10 -4
6 -14 -4 -10 -2 -14 4 -10 6 4 20 -3 30 -16 10 -13 23 -24 28 -25 6 -1 10 -8
10 -14 1 -7 7 -12 14 -10 7 1 15 -7 18 -18 3 -11 12 -20 20 -20 9 0 13 -6 10
-14 -4 -9 0 -13 11 -12 9 2 19 11 21 22 5 27 21 45 34 37 6 -3 7 -1 3 6 -4 6
-12 9 -17 6 -5 -4 -9 -1 -9 5 0 6 7 13 15 16 8 4 15 10 15 16 0 5 -4 7 -8 4
-4 -2 -8 19 -9 49 0 45 2 53 16 48 14 -4 14 -3 1 6 -14 10 -7 16 15 11 5 -1 6
2 2 6 -11 11 -38 14 -31 3 3 -5 0 -9 -6 -9 -6 0 -10 6 -9 13 2 13 -5 37 -24
76 -7 13 -12 33 -12 45 0 13 -11 26 -27 34 -30 14 -35 27 -15 36 6 3 1 3 -12
0 -17 -4 -22 -2 -18 7 2 8 10 13 16 11 16 -3 14 3 -6 19 -10 8 -14 9 -10 2 4
-6 3 -14 -3 -18 -12 -7 -53 19 -43 28 3 4 1 7 -5 7 -7 0 -21 9 -32 20 -12 12
-25 18 -30 15 -6 -4 -10 -2 -10 3 0 5 -20 17 -45 26 -25 10 -45 22 -45 27 0 6
-6 7 -12 3 -8 -5 -7 0 2 11 14 17 14 18 -8 6 -13 -7 -27 -9 -30 -5 -4 4 -1 9
6 11 6 3 12 9 12 14 0 5 -9 4 -20 -3 -16 -10 -24 -10 -40 0 -11 6 -29 12 -40
12 -18 0 -25 15 -21 42 0 4 -7 4 -16 1 -9 -4 -14 -2 -10 3 3 5 -3 10 -14 10
-19 0 -19 -1 -3 -13 10 -7 21 -13 26 -13 4 0 8 -4 8 -9 0 -4 -11 -6 -25 -3
-14 2 -25 8 -25 12 0 4 -11 6 -24 5 -18 -2 -23 1 -19 11 3 8 0 14 -6 14 -6 0
-11 -4 -11 -10 0 -5 -5 -10 -11 -10 -6 0 -9 6 -6 13 3 7 -3 13 -13 13 -10 0
-16 -5 -13 -10 4 -5 -1 -7 -11 -3 -10 4 -20 7 -22 7 -3 0 -3 4 0 9 3 5 -1 11
-9 14 -9 4 -12 1 -8 -9 3 -7 0 -14 -6 -14 -6 0 -11 6 -11 13 0 9 -2 9 -8 0 -5
-7 -13 -9 -21 -3 -8 4 -20 6 -28 3 -7 -3 -13 0 -13 6 0 6 -5 11 -11 11 -5 0
-7 -5 -3 -12z m739 -328 c3 -5 2 -10 -4 -10 -5 0 -13 5 -16 10 -3 6 -2 10 4
10 5 0 13 -4 16 -10z m-308 -75 c0 -8 -4 -15 -9 -15 -10 0 -11 14 -1 23 9 10
10 9 10 -8z"/>
<path d="M3330 5242 c0 -5 7 -9 15 -9 8 0 12 4 9 9 -3 4 -9 8 -15 8 -5 0 -9
-4 -9 -8z"/>
<path d="M1505 5200 c-3 -6 1 -7 9 -4 18 7 21 14 7 14 -6 0 -13 -4 -16 -10z"/>
<path d="M5496 5202 c-2 -4 -1 -14 4 -22 7 -11 9 -9 7 8 -1 24 -3 26 -11 14z"/>
<path d="M5880 5186 c0 -2 7 -7 16 -10 8 -3 12 -2 9 4 -6 10 -25 14 -25 6z"/>
<path d="M1096 5163 c-6 -14 -5 -15 5 -6 7 7 10 15 7 18 -3 3 -9 -2 -12 -12z"/>
<path d="M1594 5133 c1 -7 4 -14 7 -15 2 -2 3 -1 2 1 -2 2 4 9 13 15 13 10 13
12 -4 12 -11 0 -19 -6 -18 -13z"/>
<path d="M5879 5148 c-6 -23 -7 -48 -1 -48 4 0 8 11 8 25 0 21 -4 33 -7 23z"/>
<path d="M5376 5118 c3 -5 10 -6 15 -3 13 9 11 12 -6 12 -8 0 -12 -4 -9 -9z"/>
<path d="M5341 5113 c-1 -17 16 -25 25 -12 4 7 3 9 -4 5 -5 -3 -13 0 -15 6 -4
9 -6 10 -6 1z"/>
<path d="M1650 5099 c0 -5 5 -7 10 -4 6 3 10 8 10 11 0 2 -4 4 -10 4 -5 0 -10
-5 -10 -11z"/>
<path d="M5233 5035 c0 -7 6 -12 14 -11 19 3 21 19 2 21 -9 2 -16 -3 -16 -10z"/>
<path d="M5867 5039 c7 -7 15 -10 18 -7 3 3 -2 9 -12 12 -14 6 -15 5 -6 -5z"/>
<path d="M1115 5021 c-3 -5 -2 -12 3 -15 5 -3 9 1 9 9 0 17 -3 19 -12 6z"/>
<path d="M5200 5000 c-8 -5 -10 -10 -5 -10 6 0 17 5 25 10 8 5 11 10 5 10 -5
0 -17 -5 -25 -10z"/>
<path d="M5175 4950 c-4 -6 -11 -7 -17 -4 -7 4 -8 2 -4 -4 4 -7 3 -12 -2 -12
-6 0 -13 -8 -17 -17 -4 -11 5 -7 24 11 17 17 31 31 31 33 0 7 -9 2 -15 -7z"/>
<path d="M1158 4933 c7 -3 16 -2 19 1 4 3 -2 6 -13 5 -11 0 -14 -3 -6 -6z"/>
<path d="M1879 4893 c-13 -16 -12 -17 4 -4 9 7 17 15 17 17 0 8 -8 3 -21 -13z"/>
<path d="M5815 4900 c3 -5 8 -10 11 -10 2 0 4 5 4 10 0 6 -5 10 -11 10 -5 0
-7 -4 -4 -10z"/>
<path d="M1895 4879 c-4 -6 -5 -12 -2 -15 2 -3 7 2 10 11 7 17 1 20 -8 4z"/>
<path d="M1190 4845 c0 -5 5 -17 10 -25 5 -8 10 -10 10 -5 0 6 -5 17 -10 25
-5 8 -10 11 -10 5z"/>
<path d="M1904 4830 c0 -13 4 -16 10 -10 7 7 7 13 0 20 -6 6 -10 3 -10 -10z"/>
<path d="M1935 4840 c-3 -5 -1 -10 4 -10 6 0 11 5 11 10 0 6 -2 10 -4 10 -3 0
-8 -4 -11 -10z"/>
<path d="M1573 4818 c3 -10 1 -20 -4 -24 -16 -10 40 -63 62 -59 20 4 26 -10 9
-20 -8 -5 -7 -11 1 -21 6 -7 15 -12 19 -9 4 3 11 -2 14 -11 3 -8 10 -12 16 -9
5 3 16 3 23 -2 6 -4 15 -8 20 -9 4 -1 10 -2 13 -3 4 0 1 -8 -6 -16 -10 -12
-10 -18 0 -30 6 -8 17 -13 23 -12 7 1 13 -5 13 -13 1 -8 2 -19 3 -24 0 -5 7
-3 15 3 11 10 17 8 25 -6 6 -10 11 -13 11 -6 0 6 -5 15 -11 18 -6 4 -8 14 -4
23 3 9 3 13 -1 9 -9 -9 -35 13 -29 24 3 4 -4 6 -16 4 -15 -3 -19 0 -15 10 4
12 -9 29 -24 30 -5 0 -57 51 -62 61 -9 18 -100 106 -95 92z m41 -47 c19 -20
23 -29 13 -27 -22 3 -58 37 -51 47 7 12 7 12 38 -20z m54 -50 c-2 -5 6 -16 16
-24 15 -11 16 -16 6 -22 -9 -5 -11 -4 -6 3 4 7 2 13 -3 13 -6 1 -15 3 -21 4
-5 1 -13 3 -16 4 -4 0 -1 8 6 16 14 17 21 19 18 6z m119 -123 c14 -15 14 -21
3 -31 -10 -9 -11 -9 -6 1 9 14 -12 45 -24 37 -5 -3 -11 -2 -14 3 -10 17 24 8
41 -10z"/>
<path d="M1595 4770 c10 -11 20 -20 23 -20 3 0 -3 9 -13 20 -10 11 -20 20 -23
20 -3 0 3 -9 13 -20z"/>
<path d="M5085 4820 c-3 -6 1 -7 9 -4 18 7 21 14 7 14 -6 0 -13 -4 -16 -10z"/>
<path d="M5415 4791 c2 -9 4 -18 4 -20 1 -2 7 2 14 8 8 6 18 8 23 4 5 -4 3 -1
-3 7 -18 20 -42 21 -38 1z"/>
<path d="M5765 4800 c-3 -5 -1 -10 4 -10 6 0 11 5 11 10 0 6 -2 10 -4 10 -3 0
-8 -4 -11 -10z"/>
<path d="M5070 4796 c0 -2 8 -10 18 -17 15 -13 16 -12 3 4 -13 16 -21 21 -21
13z"/>
<path d="M1220 4780 c-9 -6 -10 -10 -3 -10 6 0 15 5 18 10 8 12 4 12 -15 0z"/>
<path d="M5053 4765 c0 -8 3 -13 5 -10 3 3 12 -1 21 -7 10 -8 9 -4 -3 10 -23
26 -23 26 -23 7z"/>
<path d="M5339 4732 c-1 -4 -1 -10 0 -14 0 -4 -13 -15 -30 -24 -17 -8 -28 -18
-25 -21 3 -4 1 -12 -5 -20 -6 -7 -9 -14 -5 -14 23 -5 32 -4 43 4 7 5 11 13 8
17 -3 4 2 13 10 20 8 7 15 9 15 5 0 -4 6 -2 14 5 8 6 12 18 10 25 -6 15 -33
28 -35 17z m25 -33 c-3 -5 -9 -7 -13 -4 -10 5 -40 -26 -38 -39 1 -5 -6 -10
-16 -12 -14 -2 -15 1 -8 10 6 7 9 16 6 19 -3 4 -2 5 1 3 10 -8 54 37 47 48 -4
6 1 5 10 -3 9 -7 14 -17 11 -22z"/>
<path d="M5696 4673 c-4 -11 -1 -11 14 -3 24 13 25 17 5 17 -8 0 -16 -6 -19
-14z"/>
<path d="M5670 4638 c0 -6 3 -8 7 -5 3 4 12 -1 20 -11 13 -15 13 -15 3 6 -11
23 -30 30 -30 10z"/>
<path d="M5212 4608 c-6 -6 -8 -18 -4 -27 5 -14 4 -14 -13 -1 -10 8 -16 10
-12 3 4 -6 1 -13 -5 -16 -7 -2 -9 -8 -5 -13 4 -5 11 -4 15 1 4 6 16 11 27 13
19 2 19 1 -2 -17 -13 -10 -23 -23 -23 -27 0 -4 15 7 34 25 34 33 38 54 11 64
-7 3 -17 1 -23 -5z m32 -30 c-3 -5 -12 -4 -20 3 -7 6 -11 15 -8 21 3 5 12 4
20 -3 7 -6 11 -15 8 -21z"/>
<path d="M5655 4611 c-3 -5 -2 -12 3 -15 5 -3 9 1 9 9 0 17 -3 19 -12 6z"/>
<path d="M1910 4556 c7 -7 13 -7 20 0 6 6 3 10 -10 10 -13 0 -16 -4 -10 -10z"/>
<path d="M5615 4559 c-11 -16 -1 -19 13 -3 7 8 8 14 3 14 -5 0 -13 -5 -16 -11z"/>
<path d="M1370 4546 c0 -2 7 -7 16 -10 8 -3 12 -2 9 4 -6 10 -25 14 -25 6z"/>
<path d="M5580 4533 c0 -19 21 -27 33 -13 9 10 9 11 -2 5 -8 -4 -17 -2 -22 6
-6 9 -9 10 -9 2z"/>
<path d="M3475 4499 c3 -3 -4 -9 -15 -12 -11 -3 -18 -2 -16 2 3 4 -5 7 -17 8
-12 0 -16 -1 -9 -4 6 -3 9 -9 6 -14 -3 -6 -12 -5 -22 3 -10 8 -13 9 -9 1 8
-12 -27 -29 -50 -25 -7 2 -13 -2 -13 -8 0 -5 -4 -10 -10 -10 -5 0 -7 8 -4 18
3 9 -1 7 -8 -6 -8 -12 -17 -19 -21 -16 -4 4 -7 3 -7 -3 0 -20 -30 -9 -31 11 0
21 -1 21 -8 1 -5 -11 -6 -24 -3 -29 3 -5 -1 -6 -8 -1 -7 4 -16 2 -21 -6 -8
-12 -11 -12 -19 1 -8 13 -10 12 -10 -4 0 -11 -3 -17 -6 -13 -4 3 -19 0 -34 -8
-22 -11 -29 -12 -33 -2 -3 9 -8 9 -18 -2 -12 -12 -12 -13 0 -6 10 6 12 4 7 -4
-6 -9 -11 -9 -22 0 -7 6 -12 15 -9 19 3 5 1 11 -4 14 -10 7 -9 -13 2 -31 8
-13 3 -18 -35 -27 -23 -5 -26 -3 -23 15 3 17 2 19 -10 9 -8 -6 -12 -17 -9 -24
3 -7 -9 -17 -31 -23 -29 -9 -37 -9 -46 5 -8 14 -9 12 -3 -7 4 -15 2 -21 -4
-17 -6 3 -14 1 -18 -5 -5 -9 -11 -6 -22 7 -14 18 -14 18 -8 -3 5 -17 3 -21
-11 -19 -10 2 -28 -4 -40 -12 -13 -8 -23 -11 -23 -7 0 4 -7 2 -15 -5 -8 -7
-15 -9 -15 -5 0 4 -7 2 -15 -5 -8 -7 -15 -9 -15 -5 0 4 -6 2 -14 -4 -11 -9
-15 -9 -19 1 -4 10 -6 10 -6 1 -1 -7 -6 -13 -12 -13 -5 0 -7 5 -3 12 4 7 3 8
-4 4 -7 -4 -12 -15 -12 -24 0 -13 -2 -13 -14 3 -8 11 -12 24 -9 29 4 5 1 6 -6
1 -9 -5 -10 -10 -2 -18 16 -16 14 -24 -6 -29 -31 -8 -38 -10 -59 -18 -13 -6
-26 -4 -33 3 -9 9 -11 8 -6 -5 4 -10 2 -19 -4 -19 -6 -1 -17 -2 -23 -3 -7 -1
-19 2 -26 7 -7 6 -15 7 -19 3 -3 -3 -1 -6 5 -6 7 0 12 -4 12 -10 0 -5 -3 -9
-7 -8 -15 3 -68 -15 -76 -26 -5 -7 -6 -3 -3 9 6 19 5 19 -8 3 -15 -21 -30 -24
-21 -5 4 6 0 4 -8 -6 -8 -10 -24 -19 -35 -22 -11 -2 -29 -8 -40 -14 -11 -6
-21 -9 -23 -8 -2 1 -20 -15 -40 -35 -21 -21 -34 -38 -31 -38 3 0 -3 -7 -14
-16 -10 -8 -13 -12 -6 -9 21 11 -3 -31 -26 -45 -15 -9 -14 -10 5 -5 21 6 21 4
12 -27 -6 -22 -6 -34 1 -36 5 -2 10 -13 10 -23 0 -11 -4 -17 -10 -14 -16 10
-11 -1 7 -16 14 -12 15 -12 9 0 -5 7 14 -10 42 -38 28 -29 60 -51 71 -51 12 0
21 -3 21 -8 0 -4 27 -8 60 -8 33 -1 60 2 60 6 0 12 36 18 53 9 10 -6 18 -5 23
2 4 7 3 9 -4 5 -6 -3 -14 -1 -18 6 -4 7 -4 10 0 6 5 -4 19 -3 32 2 14 6 24 6
24 1 0 -5 -6 -11 -12 -14 -7 -3 -3 -4 8 -4 13 1 20 6 17 13 -5 14 31 37 41 27
3 -3 6 -1 6 5 0 14 22 12 32 -3 4 -6 8 -2 8 8 0 9 4 17 9 17 5 0 17 3 27 7 11
4 15 3 11 -4 -4 -6 0 -13 8 -16 9 -4 12 -1 9 8 -9 21 33 40 54 23 13 -11 15
-11 9 5 -3 9 -3 17 0 17 4 0 16 -8 27 -17 20 -17 20 -17 7 0 -8 9 -11 21 -7
24 4 4 11 1 16 -7 8 -13 10 -12 10 3 0 9 5 17 11 17 5 0 7 -6 3 -12 -4 -7 1
-6 12 3 10 8 38 23 62 31 41 16 43 16 63 -5 l21 -22 -12 23 c-13 26 -4 45 10
22 8 -13 10 -12 10 3 0 9 6 17 13 18 24 1 49 8 55 14 3 3 11 -4 17 -16 11 -19
13 -19 18 -5 4 10 3 15 -3 11 -6 -3 -10 1 -10 9 0 19 11 20 29 4 11 -11 13
-10 8 5 -4 11 -3 16 3 12 6 -3 10 -2 10 4 0 5 8 8 18 6 9 -1 23 2 31 8 18 15
42 18 35 4 -3 -7 0 -5 8 4 7 8 21 18 31 22 23 9 60 -10 51 -25 -4 -7 -2 -8 5
-4 9 6 9 11 0 22 -18 22 6 36 59 35 12 0 22 4 22 10 0 5 5 7 10 4 6 -3 10 -1
10 5 0 6 4 9 10 5 5 -3 7 -13 4 -23 -5 -15 -5 -15 6 1 6 9 9 21 5 26 -6 11 14
9 34 -3 11 -7 13 -5 8 7 -3 10 -2 17 2 17 5 0 18 3 28 6 16 6 16 5 -2 -10 -20
-17 -20 -17 3 -6 12 6 22 16 22 21 0 6 6 9 14 6 7 -3 18 -1 24 5 14 14 46 2
36 -13 -4 -8 -3 -9 5 -5 9 6 9 11 1 21 -14 16 2 29 41 34 5 0 7 6 4 11 -3 6
-1 10 5 10 6 0 9 4 6 9 -8 12 20 34 33 27 5 -4 13 -1 17 5 4 8 3 9 -4 5 -11
-7 -17 7 -12 29 1 6 3 16 4 24 2 7 13 22 27 33 21 17 22 18 2 9 -27 -14 -36
-14 -28 -1 10 16 -25 118 -42 124 -8 3 -11 11 -7 18 4 7 4 10 -1 6 -14 -13
-45 11 -39 30 5 13 4 14 -4 3 -5 -7 -15 -10 -21 -7 -15 10 -14 29 2 20 6 -4 9
-3 4 1 -12 14 -48 14 -37 0 6 -8 -1 -10 -25 -7 -19 2 -33 7 -30 11 2 4 -2 8
-10 8 -8 0 -12 -4 -10 -8z"/>
<path d="M3634 4482 c3 -5 0 -13 -6 -15 -9 -4 -10 -6 -1 -6 17 -1 25 16 12 25
-7 4 -9 3 -5 -4z"/>
<path d="M5536 4478 c3 -5 10 -6 15 -3 13 9 11 12 -6 12 -8 0 -12 -4 -9 -9z"/>
<path d="M1496 4467 c3 -10 9 -15 12 -12 3 3 0 11 -7 18 -10 9 -11 8 -5 -6z"/>
<path d="M1555 4449 c-4 -6 -5 -12 -2 -15 2 -3 7 2 10 11 7 17 1 20 -8 4z"/>
<path d="M5285 4440 c-3 -6 1 -7 9 -4 18 7 21 14 7 14 -6 0 -13 -4 -16 -10z"/>
<path d="M5319 4433 c-12 -16 -12 -17 2 -6 9 7 20 9 24 5 5 -4 5 -1 1 6 -9 16
-11 15 -27 -5z"/>
<path d="M3146 4422 c-3 -5 1 -9 9 -9 8 0 15 4 15 9 0 4 -4 8 -9 8 -6 0 -12
-4 -15 -8z"/>
<path d="M3116 4407 c3 -10 9 -15 12 -12 3 3 0 11 -7 18 -10 9 -11 8 -5 -6z"/>
<path d="M2935 4340 c3 -5 8 -10 11 -10 2 0 4 5 4 10 0 6 -5 10 -11 10 -5 0
-7 -4 -4 -10z"/>
<path d="M2796 4307 c3 -10 9 -15 12 -12 3 3 0 11 -7 18 -10 9 -11 8 -5 -6z"/>
<path d="M2756 4285 c-9 -26 -7 -32 5 -12 6 10 9 21 6 23 -2 3 -7 -2 -11 -11z"/>
<path d="M2695 4260 c3 -5 8 -10 11 -10 2 0 4 5 4 10 0 6 -5 10 -11 10 -5 0
-7 -4 -4 -10z"/>
<path d="M3710 4240 c0 -5 5 -10 11 -10 5 0 7 5 4 10 -3 6 -8 10 -11 10 -2 0
-4 -4 -4 -10z"/>
<path d="M2560 4215 c-7 -9 -8 -15 -2 -15 5 0 12 7 16 15 3 8 4 15 2 15 -2 0
-9 -7 -16 -15z"/>
<path d="M2453 4205 c0 -8 4 -12 9 -9 5 3 6 10 3 15 -9 13 -12 11 -12 -6z"/>
<path d="M2470 4186 c0 -2 7 -6 15 -10 8 -3 15 -1 15 4 0 6 -7 10 -15 10 -8 0
-15 -2 -15 -4z"/>
<path d="M3670 4180 c0 -5 5 -10 11 -10 5 0 7 5 4 10 -3 6 -8 10 -11 10 -2 0
-4 -4 -4 -10z"/>
<path d="M2345 4160 c-3 -6 1 -7 9 -4 18 7 21 14 7 14 -6 0 -13 -4 -16 -10z"/>
<path d="M2390 4162 c0 -5 7 -9 15 -9 8 0 12 4 9 9 -3 4 -9 8 -15 8 -5 0 -9
-4 -9 -8z"/>
<path d="M2260 4115 c-11 -13 -10 -14 4 -9 9 3 16 10 16 15 0 13 -6 11 -20 -6z"/>
<path d="M2296 4118 c3 -5 10 -6 15 -3 13 9 11 12 -6 12 -8 0 -12 -4 -9 -9z"/>
<path d="M4553 4113 c12 -14 25 -19 40 -15 12 3 19 2 16 -1 -3 -4 -14 -8 -25
-10 -10 -1 -25 -6 -31 -10 -7 -5 -13 -6 -13 -2 0 3 -14 -2 -30 -10 -17 -9 -35
-13 -40 -10 -5 3 -12 0 -16 -6 -5 -8 -13 -4 -26 12 -18 22 -18 22 -9 2 14 -28
14 -30 -4 -30 -8 0 -12 4 -9 8 2 4 0 11 -6 14 -6 4 -10 3 -9 -2 5 -29 -33 -54
-48 -31 -3 7 -1 8 5 4 8 -5 10 -1 5 9 -8 22 -23 -2 -15 -24 3 -9 2 -13 -3 -9
-4 4 -14 3 -22 -4 -7 -6 -16 -8 -20 -5 -3 3 -18 0 -33 -8 -15 -8 -30 -11 -34
-8 -3 4 -6 1 -6 -6 0 -7 -7 -11 -15 -8 -8 4 -17 2 -20 -3 -4 -6 -14 -6 -26 0
-11 6 -16 16 -13 22 4 7 3 8 -5 4 -6 -4 -9 -11 -6 -16 3 -5 -3 -13 -12 -19
-10 -6 -13 -11 -7 -11 5 0 15 5 22 12 8 8 12 8 12 1 0 -23 -34 -24 -53 -1 -18
22 -18 22 -8 1 13 -27 14 -36 2 -29 -5 4 -12 0 -15 -6 -3 -7 -3 -2 0 12 l5 25
-15 -25 c-9 -14 -15 -22 -16 -18 0 4 -21 -2 -47 -13 -27 -12 -59 -23 -73 -26
-14 -2 -38 -11 -54 -19 -17 -8 -43 -17 -60 -20 -16 -3 -34 -8 -40 -12 -11 -6
-23 -10 -56 -16 -14 -2 -52 -16 -90 -33 -8 -4 -19 -7 -25 -8 -5 0 -14 -3 -20
-6 -13 -8 -70 -22 -70 -17 -1 2 -12 -4 -25 -13 -14 -9 -37 -15 -52 -15 -14 1
-24 -2 -22 -6 5 -7 -13 -12 -43 -11 -7 1 -11 -3 -8 -7 3 -4 -4 -10 -15 -13
-11 -3 -20 -1 -20 4 0 5 -4 9 -10 9 -5 0 -7 -6 -4 -13 3 -8 -2 -14 -10 -14 -8
0 -13 5 -10 11 3 6 -1 3 -9 -7 -11 -13 -16 -15 -20 -5 -4 10 -7 10 -18 -1 -12
-12 -12 -13 0 -6 10 6 12 4 7 -4 -6 -9 -11 -9 -22 0 -7 6 -12 15 -9 19 3 5 1
11 -4 14 -11 7 -9 -13 2 -32 5 -7 3 -14 -5 -16 -7 -2 -34 -11 -60 -21 -26 -9
-52 -14 -57 -11 -5 4 -11 1 -13 -4 -2 -6 -10 -12 -18 -14 -8 -1 -26 -8 -39
-15 -13 -7 -21 -9 -17 -3 3 5 -1 12 -9 15 -9 4 -12 1 -8 -9 5 -14 3 -14 -15
-3 -11 7 -18 18 -15 24 4 5 2 6 -2 2 -15 -13 -14 -36 1 -30 8 3 14 0 14 -6 0
-6 -3 -11 -7 -12 -5 0 -16 -2 -26 -4 -13 -2 -17 1 -13 11 3 9 1 12 -4 9 -6 -3
-10 -14 -10 -23 0 -12 -3 -13 -8 -5 -6 9 -13 7 -27 -9 -12 -15 -20 -18 -23
-10 -2 7 -11 12 -20 12 -13 0 -14 -2 -4 -9 10 -6 8 -10 -10 -16 -42 -13 -48
-13 -42 -2 3 7 -1 4 -9 -6 -10 -12 -17 -14 -22 -8 -3 6 -12 11 -18 11 -8 0 -8
-3 1 -9 11 -7 11 -9 -2 -14 -9 -4 -16 1 -19 11 -3 12 -5 10 -6 -6 0 -13 -5
-20 -11 -17 -6 4 -8 11 -5 16 10 15 -2 10 -16 -8 -12 -15 -12 -16 1 -8 9 5 12
5 7 -1 -5 -5 -12 -9 -15 -9 -4 0 -13 -4 -20 -9 -7 -4 -16 -5 -19 -2 -3 3 -12
1 -18 -4 -10 -8 -12 -3 -10 20 1 17 0 28 -4 25 -3 -4 -7 -15 -7 -26 -3 -37 -4
-40 -14 -34 -6 4 -8 11 -5 16 10 15 -2 10 -16 -8 -12 -14 -12 -16 0 -8 10 6
12 4 6 -5 -6 -10 -11 -9 -23 6 -14 18 -14 18 -8 -2 5 -15 2 -21 -9 -21 -10 0
-14 6 -10 16 3 10 -1 9 -11 -4 -8 -11 -20 -19 -25 -17 -5 1 -9 -3 -9 -9 0 -5
-5 -7 -10 -4 -6 4 -8 10 -6 14 3 4 -1 8 -9 8 -11 0 -12 -4 -4 -13 7 -8 7 -14
-1 -19 -5 -3 -10 -1 -10 4 0 6 -5 11 -11 11 -5 0 -8 -3 -5 -8 2 -4 -7 -12 -20
-19 -14 -6 -24 -7 -24 -1 0 5 -5 6 -10 3 -6 -4 -7 -11 -4 -17 4 -6 2 -8 -4 -4
-6 3 -9 16 -7 28 3 11 1 17 -3 14 -7 -8 -8 -12 -11 -43 -2 -17 -3 -16 -16 1
-8 10 -12 23 -8 29 3 6 1 7 -5 3 -9 -5 -9 -13 -2 -27 11 -19 0 -25 -38 -20 -7
1 -15 -5 -18 -13 -3 -9 -10 -14 -15 -11 -4 3 -13 -4 -19 -15 -6 -11 -16 -17
-22 -14 -6 4 -8 3 -4 -4 3 -6 0 -14 -8 -19 -14 -7 -16 -12 -16 -30 0 -4 -6 1
-13 12 -12 15 -15 16 -22 4 -5 -8 -5 -11 0 -7 13 12 34 -25 24 -43 -18 -35 -8
-108 23 -150 16 -22 26 -45 22 -51 -4 -7 -3 -8 4 -4 7 4 12 2 12 -3 0 -6 3
-10 8 -10 26 4 44 -4 52 -23 5 -13 9 -17 9 -11 1 13 35 13 47 1 3 -4 17 -2 31
3 18 7 30 6 41 -3 13 -11 14 -11 7 1 -6 11 -4 13 8 8 9 -3 17 -1 19 4 2 6 10
11 18 12 8 2 20 6 27 10 7 4 17 0 23 -10 11 -17 11 -17 6 0 -3 9 -1 18 4 18
19 3 25 5 47 17 12 7 26 12 30 11 4 -1 24 5 43 14 19 8 39 13 44 10 4 -3 12 0
16 7 4 7 13 9 19 5 9 -5 7 -11 -5 -19 -13 -10 -14 -15 -4 -21 8 -5 11 -4 7 2
-4 6 0 14 9 17 10 4 14 12 10 23 -4 10 -4 14 0 11 4 -4 15 -3 26 3 35 19 57
19 52 1 -3 -10 0 -8 6 4 15 27 71 49 82 31 5 -8 8 -7 8 6 0 9 5 18 10 18 6 1
16 2 23 3 6 1 18 -2 25 -7 9 -7 11 -5 6 9 -4 10 -4 16 1 12 4 -4 15 -3 22 4
11 9 17 9 24 -3 7 -11 9 -11 9 4 0 11 5 15 11 11 6 -3 15 -1 19 6 4 7 13 9 19
5 9 -5 7 -11 -6 -22 -10 -8 -11 -11 -3 -7 8 4 22 13 31 20 8 8 27 15 42 16 14
1 24 5 21 9 -2 4 -14 5 -27 3 -20 -4 -20 -4 -2 5 11 4 23 7 27 5 4 -3 9 0 13
6 3 5 11 10 17 10 6 0 5 -7 -3 -17 -12 -16 -12 -17 2 -6 9 7 19 10 23 6 4 -4
4 1 0 12 -7 19 -7 19 13 2 19 -17 21 -17 34 0 13 16 12 17 -2 5 -14 -10 -18
-10 -22 1 -3 8 4 14 21 15 14 1 28 5 31 10 9 11 31 13 31 2 0 -6 4 -10 10 -10
5 0 6 8 3 18 -6 14 -4 15 9 4 13 -10 18 -10 24 -1 5 8 3 9 -6 4 -9 -5 -11 -4
-6 4 4 6 13 10 19 9 7 -1 23 4 35 11 22 12 23 11 17 -8 -4 -14 -2 -21 6 -21 7
0 9 3 6 6 -3 4 -2 15 4 26 8 15 13 17 24 8 10 -8 19 -8 34 -1 16 9 22 8 30 -6
6 -10 11 -13 11 -7 0 19 -24 34 -40 24 -20 -13 -37 -13 -24 0 5 5 18 11 29 13
11 1 26 6 33 10 6 5 12 5 12 1 0 -3 7 -1 15 6 8 7 15 9 15 5 0 -4 7 -2 16 6
13 10 17 10 25 -2 6 -9 9 -10 9 -2 0 7 9 17 21 24 19 10 20 8 14 -10 -4 -14
-2 -21 6 -21 7 0 9 3 6 6 -11 12 13 43 28 38 8 -4 12 -11 8 -17 -3 -6 -1 -7 5
-3 6 4 9 12 6 20 -3 7 2 13 10 13 8 0 13 -5 10 -11 -3 -6 1 -3 9 6 11 14 16
15 26 5 10 -9 11 -8 5 8 -4 11 -4 17 1 13 4 -4 14 -3 22 3 7 6 13 9 13 5 0 -4
13 0 29 9 22 11 32 12 37 3 4 -6 3 -8 -4 -4 -6 3 -14 1 -18 -5 -4 -8 -3 -9 4
-5 7 4 12 0 13 -11 0 -16 1 -16 8 2 5 11 7 23 5 27 -3 4 0 9 6 13 5 3 10 -2
11 -12 0 -16 1 -16 8 2 5 11 13 21 20 21 6 1 12 2 14 4 1 1 9 3 17 5 8 2 24 6
35 10 16 5 17 5 5 -4 -12 -8 -11 -10 7 -9 14 2 19 7 15 17 -3 9 -1 12 5 8 6
-4 13 -2 15 4 3 8 11 5 23 -7 17 -17 18 -18 12 -1 -7 18 2 25 40 32 10 2 20 4
23 5 3 1 8 2 13 1 4 0 7 3 7 9 0 5 8 10 18 10 13 0 14 -2 4 -9 -11 -7 -11 -9
2 -14 9 -4 15 -3 15 1 -4 28 2 34 16 16 11 -14 14 -15 9 -2 -3 10 2 20 15 28
12 6 21 8 21 5 0 -3 15 1 34 9 26 11 37 11 46 3 10 -9 11 -9 7 -1 -4 7 0 15 9
18 8 3 12 2 9 -4 -3 -6 1 -7 9 -4 9 3 13 11 9 16 -4 7 4 9 20 6 15 -3 24 -1
21 3 -3 5 0 9 5 9 22 0 27 1 49 16 12 8 22 12 22 8 0 -4 7 -1 15 6 8 7 15 9
15 5 0 -4 7 -2 16 6 10 8 18 9 22 2 8 -12 43 -13 36 -1 -3 5 -10 5 -16 2 -7
-4 -8 -2 -4 5 4 6 13 10 19 9 7 -1 23 4 36 11 32 18 56 -3 27 -25 -11 -8 -15
-14 -9 -14 17 0 34 26 28 42 -4 10 1 17 12 21 10 2 27 8 38 12 11 4 7 -2 -10
-14 -16 -11 -27 -21 -23 -21 12 0 69 37 71 46 1 5 7 9 14 9 6 0 15 4 20 9 5 6
2 6 -7 1 -8 -5 -1 7 15 27 17 19 35 33 40 30 6 -3 4 1 -3 10 -10 12 -10 17 0
26 7 6 12 28 12 49 -1 21 4 41 10 45 7 5 4 8 -8 8 -12 0 -16 5 -12 15 19 47
19 50 2 30 -17 -20 -17 -20 -13 3 3 12 1 20 -4 16 -5 -3 -9 2 -9 11 0 9 4 13
10 10 6 -4 7 1 3 11 -5 15 -7 15 -16 -1 -9 -16 -13 -14 -39 16 -17 19 -31 32
-33 29 -2 -3 -7 -1 -12 4 -4 5 -3 6 4 2 6 -3 14 -2 17 3 7 10 -13 9 -31 -2 -6
-4 -14 -4 -17 1 -3 5 -25 7 -50 5 -40 -3 -45 -1 -40 14 4 11 3 14 -3 7 -13
-19 -48 -20 -69 -4 -18 14 -19 14 -1 -7z m-1453 -937 c0 -3 -4 -8 -10 -11 -5
-3 -10 -1 -10 4 0 6 5 11 10 11 6 0 10 -2 10 -4z"/>
<path d="M4670 4118 c0 -4 4 -8 9 -8 6 0 12 4 15 8 3 5 -1 9 -9 9 -8 0 -15 -4
-15 -9z"/>
<path d="M3557 4093 c-10 -9 -9 -23 1 -23 5 0 9 7 9 15 0 17 -1 18 -10 8z"/>
<path d="M2191 4083 c-1 -17 16 -25 25 -12 4 7 3 9 -4 5 -5 -3 -13 0 -15 6 -4
9 -6 10 -6 1z"/>
<path d="M4455 4080 c-3 -5 -1 -10 4 -10 6 0 11 5 11 10 0 6 -2 10 -4 10 -3 0
-8 -4 -11 -10z"/>
<path d="M4805 4061 c-3 -5 -2 -12 3 -15 5 -3 9 1 9 9 0 17 -3 19 -12 6z"/>
<path d="M2170 4039 c0 -5 5 -7 10 -4 6 3 10 8 10 11 0 2 -4 4 -10 4 -5 0 -10
-5 -10 -11z"/>
<path d="M2135 4020 c-3 -5 -1 -10 4 -10 6 0 11 5 11 10 0 6 -2 10 -4 10 -3 0
-8 -4 -11 -10z"/>
<path d="M3335 4020 c-3 -5 -1 -10 4 -10 6 0 11 5 11 10 0 6 -2 10 -4 10 -3 0
-8 -4 -11 -10z"/>
<path d="M4270 4020 c-13 -8 -12 -10 3 -10 9 0 17 5 17 10 0 12 -1 12 -20 0z"/>
<path d="M4306 4013 c-6 -14 -5 -15 5 -6 7 7 10 15 7 18 -3 3 -9 -2 -12 -12z"/>
<path d="M3300 4016 c0 -2 8 -10 18 -17 15 -13 16 -12 3 4 -13 16 -21 21 -21
13z"/>
<path d="M4216 3999 c2 -4 13 -7 24 -6 23 2 17 10 -10 12 -10 1 -17 -2 -14 -6z"/>
<path d="M3240 3990 c-8 -5 -10 -10 -5 -10 6 0 17 5 25 10 8 5 11 10 5 10 -5
0 -17 -5 -25 -10z"/>
<path d="M3180 3971 c0 -10 19 -25 25 -20 1 2 -3 10 -11 17 -8 7 -14 8 -14 3z"/>
<path d="M2105 3960 c-3 -6 1 -7 9 -4 18 7 21 14 7 14 -6 0 -13 -4 -16 -10z"/>
<path d="M3226 3958 c3 -5 10 -6 15 -3 13 9 11 12 -6 12 -8 0 -12 -4 -9 -9z"/>
<path d="M4026 3942 c-3 -5 1 -9 9 -9 8 0 15 4 15 9 0 4 -4 8 -9 8 -6 0 -12
-4 -15 -8z"/>
<path d="M4890 3941 c0 -6 4 -13 10 -16 6 -3 7 1 4 9 -7 18 -14 21 -14 7z"/>
<path d="M2110 3905 c-11 -13 -10 -14 4 -9 9 3 16 10 16 15 0 13 -6 11 -20 -6z"/>
<path d="M3003 3913 c-15 -5 -17 -23 -4 -23 5 0 11 7 15 15 3 8 4 15 3 14 -1
0 -8 -3 -14 -6z"/>
<path d="M3034 3909 c-3 -6 2 -18 12 -27 17 -16 17 -16 5 0 -7 9 -10 22 -6 28
3 5 4 10 1 10 -3 0 -8 -5 -12 -11z"/>
<path d="M3896 3896 c6 -15 4 -17 -6 -11 -9 6 -11 4 -5 -4 5 -9 10 -10 18 -2
8 8 7 14 -2 24 -10 10 -11 8 -5 -7z"/>
<path d="M4870 3900 c0 -5 5 -10 10 -10 6 0 10 5 10 10 0 6 -4 10 -10 10 -5 0
-10 -4 -10 -10z"/>
<path d="M3945 3890 c-3 -6 1 -7 9 -4 18 7 21 14 7 14 -6 0 -13 -4 -16 -10z"/>
<path d="M3860 3872 c0 -6 -8 -9 -17 -6 -15 5 -16 4 -3 -5 16 -11 40 3 27 16
-4 3 -7 1 -7 -5z"/>
<path d="M3735 3860 c3 -5 8 -10 11 -10 2 0 4 5 4 10 0 6 -5 10 -11 10 -5 0
-7 -4 -4 -10z"/>
<path d="M3810 3859 c0 -5 -6 -7 -12 -3 -7 4 -9 3 -5 -1 13 -15 36 -14 30 1
-6 17 -13 18 -13 3z"/>
<path d="M2836 3843 c-6 -14 -5 -15 5 -6 7 7 10 15 7 18 -3 3 -9 -2 -12 -12z"/>
<path d="M3675 3840 c3 -5 8 -10 11 -10 2 0 4 5 4 10 0 6 -5 10 -11 10 -5 0
-7 -4 -4 -10z"/>
<path d="M3766 3833 c-6 -14 -5 -15 5 -6 7 7 10 15 7 18 -3 3 -9 -2 -12 -12z"/>
<path d="M3586 3822 c-3 -5 1 -9 9 -9 8 0 12 4 9 9 -3 4 -7 8 -9 8 -2 0 -6 -4
-9 -8z"/>
<path d="M3656 3817 c3 -10 9 -15 12 -12 3 3 0 11 -7 18 -10 9 -11 8 -5 -6z"/>
<path d="M3636 3807 c3 -10 9 -15 12 -12 3 3 0 11 -7 18 -10 9 -11 8 -5 -6z"/>
<path d="M3574 3792 c3 -5 0 -13 -6 -15 -9 -4 -10 -6 -1 -6 17 -1 25 16 12 25
-7 4 -9 3 -5 -4z"/>
<path d="M3620 3791 c0 -7 -5 -9 -12 -5 -7 5 -8 3 -3 -5 5 -9 10 -10 18 -2 6
6 8 14 4 18 -4 3 -7 1 -7 -6z"/>
<path d="M2630 3780 c0 -5 5 -10 10 -10 6 0 10 5 10 10 0 6 -4 10 -10 10 -5 0
-10 -4 -10 -10z"/>
<path d="M4830 3780 c-13 -8 -12 -10 3 -10 9 0 17 5 17 10 0 12 -1 12 -20 0z"/>
<path d="M2177 3769 c7 -7 15 -10 18 -7 3 3 -2 9 -12 12 -14 6 -15 5 -6 -5z"/>
<path d="M2555 3759 c-4 -6 -4 -13 -1 -16 3 -4 6 -1 6 6 0 7 5 9 12 5 7 -4 8
-3 4 4 -9 15 -13 15 -21 1z"/>
<path d="M2590 3760 c0 -5 5 -10 11 -10 5 0 7 5 4 10 -3 6 -8 10 -11 10 -2 0
-4 -4 -4 -10z"/>
<path d="M3485 3760 c-16 -7 -17 -9 -3 -9 9 -1 20 4 23 9 7 11 7 11 -20 0z"/>
<path d="M3516 3753 c-6 -14 -5 -15 5 -6 7 7 10 15 7 18 -3 3 -9 -2 -12 -12z"/>
<path d="M3422 3735 c3 -3 16 -8 28 -10 12 -2 20 -1 16 2 -4 4 -16 8 -28 10
-12 2 -19 1 -16 -2z"/>
<path d="M2415 3700 c-3 -5 -1 -10 4 -10 6 0 11 5 11 10 0 6 -2 10 -4 10 -3 0
-8 -4 -11 -10z"/>
<path d="M4639 3673 c-13 -16 -12 -17 4 -4 16 13 21 21 13 21 -2 0 -10 -8 -17
-17z"/>
<path d="M4545 3650 c-4 -6 -10 -8 -15 -5 -5 3 -11 1 -15 -5 -4 -6 -11 -7 -17
-4 -7 4 -8 2 -4 -5 6 -9 11 -9 22 0 13 11 19 5 14 -16 -1 -5 2 -6 7 -2 4 5 8
12 8 15 0 4 4 13 8 20 5 6 6 12 3 12 -3 0 -8 -5 -11 -10z"/>
<path d="M3126 3638 c3 -4 9 -8 15 -8 5 0 9 4 9 8 0 5 -7 9 -15 9 -8 0 -12 -4
-9 -9z"/>
<path d="M3166 3638 c3 -5 10 -6 15 -3 13 9 11 12 -6 12 -8 0 -12 -4 -9 -9z"/>
<path d="M3107 3619 c7 -7 15 -10 18 -7 3 3 -2 9 -12 12 -14 6 -15 5 -6 -5z"/>
<path d="M4464 3604 c-18 -14 -18 -15 4 -4 12 6 22 13 22 15 0 8 -5 6 -26 -11z"/>
<path d="M3030 3589 c0 -5 5 -7 10 -4 6 3 10 8 10 11 0 2 -4 4 -10 4 -5 0 -10
-5 -10 -11z"/>
<path d="M4415 3580 c3 -5 8 -10 11 -10 2 0 4 5 4 10 0 6 -5 10 -11 10 -5 0
-7 -4 -4 -10z"/>
<path d="M2856 3561 c-3 -5 2 -15 12 -22 15 -12 16 -12 5 2 -7 9 -10 19 -6 22
3 4 4 7 0 7 -3 0 -8 -4 -11 -9z"/>
<path d="M4266 3543 c-6 -14 -5 -15 5 -6 7 7 10 15 7 18 -3 3 -9 -2 -12 -12z"/>
<path d="M2765 3520 c-3 -6 1 -7 9 -4 18 7 21 14 7 14 -6 0 -13 -4 -16 -10z"/>
<path d="M2806 3513 c-6 -14 -5 -15 5 -6 7 7 10 15 7 18 -3 3 -9 -2 -12 -12z"/>
<path d="M4110 3503 c0 -6 8 -17 18 -24 16 -13 16 -13 2 6 -8 11 -16 22 -17
24 -2 2 -3 0 -3 -6z"/>
<path d="M4050 3471 c0 -6 4 -13 10 -16 6 -3 7 1 4 9 -7 18 -14 21 -14 7z"/>
<path d="M2473 3425 c0 -8 4 -15 9 -15 4 0 8 4 8 9 0 6 -4 12 -8 15 -5 3 -9
-1 -9 -9z"/>
<path d="M3795 3401 c-6 -11 13 -26 22 -17 4 3 1 6 -6 6 -7 0 -9 5 -6 10 3 6
4 10 1 10 -3 0 -7 -4 -11 -9z"/>
<path d="M3834 3396 c1 -8 5 -18 8 -22 4 -3 5 1 4 10 -1 8 -5 18 -8 22 -4 3
-5 -1 -4 -10z"/>
<path d="M2375 3380 c3 -5 8 -10 11 -10 2 0 4 5 4 10 0 6 -5 10 -11 10 -5 0
-7 -4 -4 -10z"/>
<path d="M2240 3355 c-7 -8 -17 -12 -23 -8 -6 4 -7 1 -3 -6 6 -9 13 -8 27 5
10 9 19 19 19 21 0 7 -8 2 -20 -12z"/>
<path d="M3775 3360 c3 -5 8 -10 11 -10 2 0 4 5 4 10 0 6 -5 10 -11 10 -5 0
-7 -4 -4 -10z"/>
<path d="M4636 3362 c-3 -5 1 -9 9 -9 8 0 12 4 9 9 -3 4 -7 8 -9 8 -2 0 -6 -4
-9 -8z"/>
<path d="M4675 3353 c5 -19 2 -22 -22 -21 -16 1 -39 -4 -51 -11 -18 -10 -22
-9 -22 3 0 10 6 13 15 10 8 -4 15 -4 15 -1 0 3 -7 8 -15 11 -11 4 -19 -3 -25
-19 -5 -14 -13 -24 -17 -23 -10 2 -64 -12 -78 -21 -12 -7 -34 -12 -57 -14 -10
-1 -18 -5 -18 -9 0 -4 -5 -8 -11 -8 -5 0 -7 6 -4 13 4 6 -1 3 -10 -8 -14 -17
-17 -18 -25 -5 -8 12 -10 12 -10 -4 0 -11 -3 -17 -6 -13 -4 3 -19 0 -35 -8
-31 -17 -53 -20 -29 -5 12 7 10 9 -7 8 -14 -2 -19 -7 -15 -18 5 -13 3 -13 -11
-1 -9 7 -14 18 -10 24 3 6 1 7 -6 3 -9 -6 -9 -11 -1 -21 6 -7 7 -15 3 -18 -8
-4 -63 -18 -73 -19 -3 0 -14 -5 -25 -11 -11 -6 -24 -12 -30 -13 -5 -1 -22 -5
-38 -9 -24 -6 -26 -5 -21 11 5 15 4 16 -4 4 -6 -8 -9 -17 -6 -21 2 -4 -1 -11
-7 -15 -7 -4 -20 4 -31 17 -18 22 -18 22 -9 2 6 -12 8 -24 4 -26 -10 -5 -57
-16 -63 -15 -3 1 -14 -4 -26 -10 -16 -8 -24 -8 -33 1 -10 9 -11 8 -5 -7 6 -16
4 -17 -12 -8 -14 7 -24 6 -39 -4 -10 -8 -14 -14 -9 -14 6 0 15 5 22 12 8 8 12
8 12 1 0 -15 -26 -24 -47 -16 -11 4 -14 3 -9 -6 9 -14 -16 -11 -26 4 -5 6 -8
3 -8 -7 0 -12 -5 -15 -17 -11 -10 4 -14 2 -10 -4 3 -5 1 -10 -6 -10 -7 0 -21
-4 -32 -8 -18 -6 -18 -5 -2 5 9 6 17 16 17 21 0 6 -7 3 -16 -5 -8 -9 -19 -14
-24 -11 -5 3 -12 0 -16 -6 -4 -8 -3 -9 4 -5 7 4 12 2 12 -3 0 -15 -27 -14 -33
2 -3 7 -6 5 -6 -5 -1 -10 -5 -18 -10 -18 -5 0 -17 -3 -25 -6 -12 -4 -15 -2
-10 9 3 8 1 18 -5 22 -7 4 -8 0 -4 -11 4 -12 3 -15 -5 -10 -7 4 -10 2 -7 -6 3
-8 -6 -18 -25 -25 -16 -6 -30 -7 -30 -2 0 5 -4 9 -10 9 -5 0 -7 -6 -4 -13 3
-8 -2 -14 -11 -14 -8 0 -15 4 -15 9 0 5 -8 4 -17 -1 -10 -5 -22 -9 -26 -9 -5
0 -12 -4 -15 -8 -4 -4 -1 -4 6 0 6 4 12 2 12 -3 0 -15 -27 -14 -33 2 -3 7 -6
5 -6 -5 -1 -16 -13 -23 -24 -15 -2 1 -11 -4 -20 -12 -10 -7 -17 -10 -17 -6 0
4 -7 2 -15 -5 -8 -7 -21 -10 -29 -7 -8 3 -16 1 -18 -4 -2 -6 -10 -11 -18 -12
-8 -2 -20 -6 -27 -10 -6 -4 -15 -2 -19 4 -5 8 -3 9 6 4 9 -5 11 -4 6 4 -10 15
-27 4 -20 -14 4 -9 -1 -13 -13 -11 -10 2 -28 -4 -40 -12 -13 -8 -23 -11 -23
-7 0 4 -7 2 -15 -5 -8 -7 -15 -9 -15 -5 0 4 -7 2 -15 -5 -8 -6 -19 -9 -24 -6
-5 4 -13 1 -17 -5 -5 -9 -11 -6 -22 7 -13 18 -14 18 -7 -6 4 -14 4 -22 0 -18
-4 4 -17 3 -28 -3 -15 -9 -18 -8 -12 3 3 7 0 5 -8 -4 -20 -25 -30 -22 -17 5 9
17 6 16 -10 -5 -22 -28 -51 -41 -34 -15 5 7 1 4 -9 -7 -10 -11 -24 -21 -32
-22 -7 -1 -23 -5 -35 -9 -17 -5 -21 -4 -16 6 4 8 1 6 -7 -3 -14 -18 -33 -25
-23 -10 3 5 -1 9 -8 9 -7 0 -13 -7 -12 -16 1 -9 -6 -17 -14 -17 -8 -1 -18 -3
-22 -4 -5 -1 -11 -3 -15 -4 -5 -1 -14 -5 -20 -9 -14 -9 -18 5 -6 17 11 10 12
37 2 30 -5 -3 -7 -10 -4 -15 4 -5 -1 -12 -9 -15 -9 -3 -14 -10 -11 -14 3 -4
-2 -11 -11 -14 -8 -3 -13 -2 -10 2 3 5 -1 9 -8 9 -8 0 -12 -6 -9 -14 3 -7 0
-14 -6 -14 -6 -1 -17 -2 -23 -3 -7 -1 -19 2 -26 7 -7 6 -15 7 -19 3 -3 -3 -1
-6 5 -6 7 0 12 -5 12 -10 0 -6 -3 -9 -7 -8 -8 2 -81 -21 -98 -31 -5 -3 -17 -7
-26 -8 -9 -1 -29 -8 -45 -14 -16 -7 -36 -13 -44 -13 -8 -1 -21 -5 -29 -10 -10
-6 -12 -5 -7 2 4 7 2 12 -3 12 -6 0 -11 -6 -11 -14 0 -9 -10 -13 -30 -11 -16
1 -27 -1 -24 -6 3 -5 11 -6 17 -2 7 3 3 -3 -7 -16 -11 -12 -26 -19 -33 -16 -9
3 -11 0 -7 -7 5 -8 2 -9 -11 -4 -15 5 -16 4 -5 -9 10 -12 9 -15 -6 -15 -16 0
-17 -2 -4 -10 13 -9 13 -10 0 -11 -8 -1 -19 -1 -23 0 -5 1 -6 -3 -2 -9 3 -6
11 -7 17 -4 7 5 8 2 4 -5 -5 -7 -14 -10 -22 -7 -7 3 -16 1 -19 -5 -4 -5 -3 -9
2 -8 23 4 30 -4 29 -31 -1 -31 -11 -39 -19 -17 -4 9 -6 9 -6 0 -1 -6 4 -15 10
-18 7 -5 4 -14 -8 -28 -9 -12 -11 -16 -3 -10 14 13 39 19 27 7 -3 -3 3 -22 13
-41 10 -19 17 -40 16 -47 -2 -6 -1 -8 1 -3 3 4 9 7 14 7 6 0 7 -4 4 -10 -3 -5
0 -10 8 -10 15 0 32 -27 28 -43 -1 -5 3 -6 9 -2 8 5 7 12 -2 23 -12 15 -11 16
5 2 20 -15 45 -22 85 -23 18 -1 22 -5 18 -21 -4 -18 -3 -18 14 4 17 22 19 23
26 7 4 -12 10 -15 18 -8 16 13 58 2 49 -13 -4 -6 1 -5 11 3 11 9 20 11 24 5 4
-6 18 -11 31 -11 30 -2 36 -9 22 -26 -19 -23 12 -43 39 -24 11 7 17 18 12 23
-8 10 27 -15 45 -32 7 -7 9 -15 5 -20 -4 -5 0 -3 10 4 14 11 19 9 32 -10 9
-12 16 -18 16 -13 0 5 7 0 15 -12 8 -12 12 -30 9 -40 -6 -16 -5 -15 9 2 14 18
16 18 22 3 4 -9 3 -23 -1 -30 -6 -10 -5 -11 8 -1 8 7 18 10 22 6 4 -4 -3 -16
-16 -26 l-23 -18 23 11 c31 15 51 2 26 -18 -16 -13 -17 -14 -1 -9 9 4 17 2 17
-4 0 -6 4 -8 9 -5 5 3 12 -1 15 -10 3 -8 2 -12 -4 -9 -6 3 -7 -1 -4 -9 3 -9
10 -13 15 -10 9 5 29 -38 32 -68 1 -10 5 -18 10 -18 4 0 -1 -10 -13 -22 -11
-12 -20 -26 -20 -30 0 -5 -5 -6 -12 -2 -7 5 -8 3 -3 -6 6 -10 11 -9 21 4 7 10
14 16 17 14 3 -2 9 1 14 6 5 5 2 6 -6 1 -10 -6 -12 -4 -7 4 5 7 11 10 14 6 9
-8 11 -35 4 -34 -22 3 -32 -2 -26 -13 4 -7 4 -10 -1 -6 -4 4 -14 3 -21 -3 -10
-9 -15 -7 -20 5 -4 10 -17 15 -42 14 -20 -1 -31 -3 -24 -6 20 -6 13 -21 -8
-15 -11 3 -17 10 -13 17 4 6 -1 5 -10 -2 -9 -8 -22 -10 -29 -6 -7 4 -10 4 -6
-1 8 -9 -31 -42 -45 -37 -4 1 -6 -1 -6 -5 4 -25 -3 -43 -16 -43 -8 0 -15 -5
-15 -11 0 -5 5 -7 10 -4 6 3 10 2 10 -4 0 -5 -6 -12 -12 -14 -10 -4 -10 -6 0
-6 7 -1 10 -5 7 -11 -3 -5 0 -10 7 -10 9 -1 7 -5 -5 -14 -15 -11 -15 -15 -3
-19 10 -4 13 -15 10 -31 -2 -15 0 -26 6 -26 5 0 10 -4 10 -10 0 -5 -14 -7 -30
-5 -17 2 -28 0 -25 -5 3 -5 12 -7 19 -4 15 6 46 -21 46 -39 0 -6 -7 -2 -16 9
-8 10 -13 13 -9 6 4 -7 1 -21 -7 -30 -11 -15 -11 -15 2 -5 10 7 21 8 30 3 11
-7 12 -11 0 -25 -10 -12 -11 -18 -1 -28 10 -9 11 -8 5 8 -7 18 -6 18 9 6 22
-17 22 -28 0 -34 -17 -4 -17 -5 -1 -6 10 0 25 -16 34 -33 13 -25 14 -30 3 -21
-12 10 -15 8 -15 -6 0 -12 6 -17 17 -14 9 3 19 -2 22 -11 4 -10 0 -14 -14 -11
-11 2 -17 0 -14 -6 4 -5 10 -7 15 -4 14 8 52 -34 46 -50 -3 -10 0 -12 12 -8
15 6 16 5 2 -13 -8 -10 -11 -16 -6 -12 5 4 15 1 22 -7 15 -15 19 -29 6 -21 -5
3 -9 -2 -9 -10 0 -10 4 -11 11 -4 17 17 27 11 16 -9 -7 -14 -7 -22 0 -26 6 -4
9 -1 8 6 -2 6 3 14 11 17 11 3 12 -2 7 -24 -7 -28 -7 -28 8 -9 12 14 14 15 10
4 -3 -10 0 -20 7 -25 8 -5 10 -3 4 7 -7 11 -5 11 10 -1 10 -8 24 -28 30 -44 7
-16 20 -31 29 -32 9 -1 14 2 10 7 -3 5 -9 7 -14 4 -4 -3 -10 5 -13 16 -6 21
-5 21 19 -2 13 -12 24 -28 24 -35 0 -6 7 -15 16 -18 15 -6 15 -4 3 10 -9 11
-1 9 23 -7 20 -13 35 -26 33 -28 -3 -2 -10 1 -18 7 -10 8 -13 7 -13 -7 0 -15
5 -17 28 -10 22 6 28 4 28 -8 0 -9 6 -13 15 -9 8 3 24 -5 36 -17 12 -12 19
-17 15 -10 -4 7 1 9 15 6 16 -5 18 -8 7 -15 -9 -7 -5 -8 13 -4 14 3 29 2 33
-2 4 -4 13 -7 19 -7 7 0 11 -7 11 -16 -1 -9 4 -16 11 -16 8 0 11 7 7 16 -5 13
-3 14 10 3 8 -7 23 -10 32 -6 9 3 16 2 16 -4 0 -6 -6 -13 -12 -15 -10 -4 -10
-6 -1 -6 6 -1 15 4 18 9 3 6 11 10 16 10 6 0 7 -6 3 -12 -6 -10 -4 -10 8 0 14
11 18 10 27 -5 6 -10 11 -12 11 -6 0 8 12 11 33 10 38 -3 60 -15 52 -28 -4 -5
2 -6 11 -2 11 4 13 8 6 11 -7 2 -12 7 -12 11 0 9 31 8 47 -2 6 -4 14 -3 18 2
3 5 13 9 23 9 9 0 32 2 51 6 32 6 33 5 21 -11 -8 -10 -1 -5 14 10 16 16 34 26
42 23 7 -3 16 -1 19 5 4 5 11 7 16 4 5 -4 9 -1 9 6 0 9 3 9 14 0 11 -9 16 -9
22 0 5 8 3 9 -6 4 -9 -6 -11 -4 -6 4 5 7 14 10 22 7 8 -3 14 -1 14 4 0 5 9 12
20 15 11 3 27 13 36 22 13 13 17 14 24 3 6 -9 10 -7 15 9 5 17 10 20 20 11 10
-8 15 -8 21 1 4 8 3 9 -4 5 -7 -4 -12 -3 -12 3 0 18 20 23 26 6 6 -13 8 -14
15 -3 5 7 9 18 9 23 0 6 -5 3 -10 -5 -5 -8 -10 -10 -10 -4 0 6 6 17 14 23 11
9 15 9 19 -1 4 -9 6 -8 6 3 1 24 38 52 60 46 18 -4 19 -2 10 14 -9 18 -7 19
18 14 21 -5 24 -4 13 4 -12 8 -8 16 22 44 21 19 34 38 30 42 -4 5 -1 5 6 1 6
-4 12 -2 12 4 0 6 5 8 12 4 7 -5 9 -2 5 9 -4 10 4 24 21 40 15 12 28 30 30 37
2 8 9 18 15 22 7 4 8 8 3 8 -5 0 -3 7 4 15 7 9 20 13 28 10 13 -5 13 -3 1 12
-13 15 -12 16 6 9 15 -5 17 -4 8 5 -14 14 -6 42 10 32 6 -4 8 0 4 11 -5 11 -3
15 5 10 8 -5 9 -2 5 10 -6 14 -3 17 9 12 14 -5 15 -4 5 8 -9 11 -8 17 3 29 8
8 12 17 9 21 -3 3 2 16 13 28 12 14 14 18 4 13 -12 -6 -12 -5 -3 5 15 17 33 4
28 -20 -2 -11 0 -22 4 -24 7 -5 7 39 1 54 -1 3 -2 8 -1 13 0 4 -2 6 -6 6 -24
-4 -25 4 -3 17 14 8 17 13 7 10 -11 -3 -15 -2 -12 4 13 21 11 109 -2 114 -7 3
-13 12 -13 20 0 12 -10 17 -62 31 -5 2 -15 3 -24 4 -8 0 -13 5 -10 9 3 5 -1 9
-9 9 -8 0 -12 -4 -9 -9 3 -4 0 -8 -5 -8 -6 0 -11 5 -11 10 0 6 -4 10 -10 10
-5 0 -7 -8 -4 -17 4 -11 2 -14 -3 -8 -12 14 -33 17 -33 4 0 -5 -4 -7 -10 -4
-17 10 -11 24 8 20 11 -2 19 3 19 10 0 14 -14 14 -34 2 -7 -5 -17 -6 -22 -2
-6 3 -14 -3 -20 -12 -9 -15 -10 -14 -7 7 3 14 5 28 5 33 1 4 6 7 12 7 5 0 8
-4 4 -9 -3 -5 -1 -12 4 -15 5 -4 12 -2 16 4 8 13 -20 42 -31 32 -5 -4 -2 1 5
11 7 9 10 17 6 17 -5 0 0 9 11 21 10 12 18 23 17 25 -4 10 10 44 19 44 5 0 7
4 3 9 -3 5 7 19 21 30 15 12 23 21 19 21 -5 0 0 9 10 20 10 11 21 17 26 15 4
-3 10 -1 14 5 4 6 11 7 17 4 7 -4 8 -2 4 4 -4 6 -14 8 -24 5 -9 -3 1 8 23 25
22 18 46 36 53 42 6 6 12 7 12 3 0 -4 5 0 11 9 6 11 16 15 26 11 12 -5 14 -3
8 8 -8 12 -6 12 8 0 9 -7 15 -17 12 -21 -3 -5 -1 -11 4 -14 11 -7 9 13 -3 32
-4 7 -6 16 -3 18 10 10 42 11 58 3 11 -5 16 -3 16 6 0 8 -4 12 -9 9 -4 -3 -8
-1 -8 5 0 12 41 11 58 -2 9 -7 11 -6 6 7 -3 9 -2 16 4 16 6 0 19 3 29 6 16 5
16 4 -1 -10 -11 -9 -15 -16 -9 -16 7 0 19 7 27 16 15 14 17 14 32 0 14 -14 34
-14 34 0 0 3 -4 3 -9 -1 -5 -3 -12 -1 -15 4 -3 5 1 11 9 15 8 3 19 -3 24 -12
10 -16 10 -16 11 2 0 16 2 16 18 -4 17 -21 18 -21 32 -4 14 17 13 18 -1 7 -9
-7 -19 -10 -22 -6 -9 9 -9 23 1 22 4 -1 10 0 15 1 4 1 10 3 15 4 17 3 101 64
95 70 -3 3 -2 6 4 6 6 0 14 11 17 25 4 14 11 23 16 20 6 -3 10 -1 10 4 0 6 -4
11 -10 11 -6 0 -6 9 -2 23 5 12 7 32 6 45 -1 16 3 21 13 18 8 -3 11 -1 8 4 -3
6 -12 10 -19 10 -8 0 -16 9 -19 20 -3 10 -1 18 3 17 4 -1 8 3 8 8 1 6 -6 9
-14 7 -8 -2 -14 2 -14 7 0 15 -49 61 -65 61 -8 0 -15 5 -15 11 0 5 5 7 12 3 7
-4 8 -3 4 5 -6 9 -11 9 -22 0 -17 -14 -19 2 -1 21 10 12 9 12 -4 2 -9 -6 -20
-8 -24 -4 -5 4 -6 2 -2 -3 3 -7 -5 -11 -20 -10 -15 0 -28 6 -31 13 -3 10 -8 8
-18 -5 -13 -17 -13 -17 -14 0 0 9 -5 17 -11 17 -5 0 -8 -4 -5 -9 9 -14 -31
-20 -45 -7 -9 8 -10 8 -5 -1 4 -7 2 -13 -3 -13 -6 0 -11 5 -11 10 0 6 -5 10
-11 10 -5 0 -7 -4 -4 -10 3 -5 -1 -10 -10 -10 -10 0 -14 5 -10 13 4 6 -1 3
-10 -8 -9 -11 -18 -19 -20 -17 -3 1 -6 2 -7 1 -2 -1 -14 -2 -28 -3 -14 0 -31
-5 -38 -9 -7 -5 -19 -4 -27 3 -8 6 -22 10 -32 7 -14 -4 -13 -5 5 -6 12 0 22
-6 22 -13 0 -6 -3 -9 -6 -6 -3 4 -21 0 -40 -8 -19 -8 -34 -11 -34 -7 0 5 -4 2
-9 -6 -8 -12 -12 -13 -25 -1 -14 11 -16 10 -10 -3 3 -10 -2 -20 -16 -27 -18
-10 -21 -9 -15 2 3 7 0 5 -8 -4 -11 -14 -16 -15 -26 -5 -10 9 -11 8 -5 -8 4
-11 4 -17 -1 -13 -4 4 -14 0 -21 -10 -8 -10 -13 -12 -14 -4 0 6 -4 12 -10 12
-5 0 -7 -6 -4 -14 4 -9 -2 -13 -20 -11 -15 2 -24 -1 -20 -6 3 -5 11 -6 17 -3
7 3 -4 -8 -23 -25 -19 -17 -41 -31 -48 -31 -7 0 -10 -4 -7 -10 3 -5 2 -10 -4
-10 -5 0 -12 6 -14 13 -3 6 -6 2 -6 -11 -1 -13 -5 -20 -11 -17 -6 4 -7 11 -4
17 4 6 2 8 -4 5 -5 -4 -8 -16 -5 -26 6 -23 -16 -38 -29 -20 -7 10 -8 8 -5 -9
4 -16 -1 -27 -14 -35 -10 -6 -19 -17 -19 -24 0 -6 -11 -20 -25 -31 -13 -11
-21 -23 -17 -27 4 -5 -1 -5 -11 -2 -10 4 -16 3 -12 -2 7 -12 -15 -61 -27 -61
-5 0 -7 4 -4 8 2 4 0 14 -6 22 -8 12 -9 12 -4 -2 3 -10 0 -18 -6 -18 -7 0 -3
-7 8 -15 18 -14 18 -14 -6 -15 -14 -1 -19 -4 -12 -7 6 -2 12 -9 12 -14 0 -6
-5 -7 -12 -3 -8 5 -9 2 -5 -9 4 -12 1 -17 -11 -18 -10 0 -12 -3 -4 -6 9 -3 7
-12 -9 -34 -11 -16 -18 -33 -15 -37 3 -5 -2 -22 -10 -38 -9 -16 -15 -30 -15
-31 4 -15 -2 -24 -12 -20 -8 3 -14 -1 -14 -8 0 -8 7 -11 16 -8 13 5 13 3 4 -7
-6 -7 -9 -18 -7 -25 3 -7 1 -16 -5 -20 -7 -3 -8 0 -5 9 3 9 2 16 -3 16 -5 0
-9 -9 -10 -20 -1 -11 2 -20 7 -20 7 0 7 -29 0 -37 -3 -3 -6 -17 -9 -30 0 -4
-7 -1 -13 5 -10 10 -10 15 2 22 12 7 10 9 -7 7 -17 -1 -20 -5 -12 -18 13 -26
12 -28 -17 -23 -18 3 -23 1 -18 -7 5 -8 3 -9 -7 -3 -8 4 -26 7 -41 5 -16 -1
-28 2 -28 9 0 6 -5 8 -10 5 -6 -4 -8 -11 -5 -16 3 -5 -1 -6 -10 -3 -13 5 -13
9 -3 23 11 14 11 14 -3 4 -9 -7 -20 -9 -24 -5 -5 4 -5 1 -1 -5 5 -10 -3 -13
-28 -13 -20 0 -36 5 -36 11 0 5 -5 7 -10 4 -6 -4 -8 -11 -5 -16 3 -5 -1 -6
-10 -3 -13 5 -13 9 -3 23 12 15 11 15 -7 0 -22 -18 -58 -21 -52 -5 2 6 13 10
23 8 16 -2 17 -1 4 8 -12 8 -21 4 -39 -18 -14 -15 -22 -19 -18 -10 3 10 2 20
-2 23 -10 5 -26 91 -23 118 1 10 -2 16 -6 13 -5 -3 -9 0 -10 7 -1 25 -11 56
-27 87 -10 19 -12 29 -5 25 8 -5 11 -3 9 4 -3 7 -8 12 -13 11 -15 -2 -34 44
-23 58 5 7 7 15 3 19 -3 3 -6 1 -6 -6 0 -7 -4 -9 -10 -6 -5 3 -10 17 -10 31 0
13 -4 24 -9 24 -17 0 -42 32 -37 47 3 8 2 11 -3 8 -14 -8 -61 58 -57 80 2 11
1 14 -1 8 -3 -7 -9 -13 -15 -13 -5 0 -8 7 -4 15 3 8 2 14 -2 14 -20 -3 -32 3
-32 16 0 8 5 15 10 15 6 0 9 6 8 13 -2 6 3 11 10 9 8 -1 11 2 6 9 -5 9 -15 3
-31 -17 -17 -21 -23 -24 -23 -12 0 9 5 20 10 23 6 4 8 11 5 16 -4 5 0 9 7 9
10 0 9 3 -2 9 -19 13 -34 3 -21 -13 11 -13 5 -26 -10 -26 -5 0 -5 8 -2 18 6
14 4 15 -9 4 -11 -9 -18 -10 -23 -2 -4 6 -3 10 2 9 19 -3 27 2 14 10 -9 6 -10
11 -2 15 6 4 11 2 11 -4 0 -6 5 -8 10 -5 6 4 7 12 4 18 -4 7 -4 9 1 5 4 -4 16
-3 26 2 12 7 20 6 25 -2 4 -6 3 -8 -4 -4 -6 3 -13 2 -16 -3 -8 -13 22 -7 35 6
6 6 19 9 28 6 13 -4 14 -3 1 5 -10 8 -18 8 -27 0 -9 -7 -13 -7 -13 1 0 6 5 12
10 12 6 1 16 2 23 3 6 1 18 -3 26 -8 12 -9 13 -7 7 9 -4 11 -4 16 0 13 3 -4
18 -1 33 7 19 9 32 10 45 3 9 -5 20 -7 23 -4 4 3 1 6 -5 6 -7 0 -12 5 -12 12
0 6 3 8 7 5 3 -4 12 -2 20 4 9 8 17 8 26 1 8 -7 18 -7 27 -2 8 5 18 6 24 3 5
-3 6 -1 2 5 -5 9 -13 9 -29 1 -17 -9 -19 -9 -11 0 6 7 18 13 25 14 8 2 20 6
27 11 7 4 20 2 29 -6 14 -11 16 -11 11 3 -3 9 -1 16 5 17 39 4 53 9 65 22 11
13 12 11 7 -10 l-6 -25 14 24 c11 18 16 20 20 10 4 -10 6 -8 6 5 1 16 3 17 18
5 15 -12 16 -12 11 3 -7 17 7 19 31 4 11 -7 13 -5 7 10 -4 10 -4 15 0 11 4 -4
14 -2 21 5 11 9 16 9 22 -1 5 -7 12 -13 17 -14 5 -1 8 -6 6 -10 -1 -5 2 -6 8
-2 8 5 8 11 0 20 -7 8 -8 20 -4 26 5 9 10 7 15 -7 7 -18 8 -18 8 1 1 17 3 17
11 5 8 -13 10 -12 10 2 0 10 3 17 8 17 4 -1 9 0 12 1 3 1 12 3 20 5 38 8 45
11 52 20 5 6 12 5 20 -3 9 -9 9 -12 0 -12 -7 0 -12 -5 -12 -11 0 -8 4 -8 14 1
8 6 12 19 9 28 -3 9 -3 14 2 10 4 -4 14 -3 22 3 7 6 13 9 13 5 0 -3 16 1 36 9
44 18 47 18 39 3 -4 -7 0 -5 8 5 19 23 30 22 17 -2 -7 -14 -7 -22 0 -26 6 -4
9 -3 8 2 -3 12 12 53 20 54 4 0 16 3 27 5 11 3 28 5 38 5 9 0 15 4 12 10 -4 5
1 9 10 9 9 0 13 -4 10 -10 -3 -6 1 -7 9 -4 9 3 13 10 10 15 -5 8 10 13 30 10
4 -1 14 4 22 10 8 6 22 13 32 14 16 1 29 5 79 25 15 6 23 5 27 -3 2 -7 5 -4 5
6 1 10 5 16 10 13 5 -3 7 -16 5 -29 -4 -20 -4 -20 5 -2 4 11 7 23 5 27 -3 4 0
9 6 13 5 3 10 -2 11 -12 0 -16 1 -16 8 2 5 11 13 21 20 21 6 1 12 2 14 4 1 1
10 3 20 5 10 2 15 -1 11 -8 -3 -7 0 -5 8 4 7 8 21 18 30 22 13 4 16 2 12 -11
-3 -9 1 -7 8 6 8 12 17 20 20 17 4 -4 16 -1 28 5 18 10 21 9 15 -2 -3 -7 0 -5
9 6 8 10 19 15 25 11 6 -3 11 -2 11 3 0 10 51 25 87 26 12 0 20 3 17 7 -2 4 0
10 6 14 5 3 10 -2 11 -12 0 -14 2 -13 10 5 5 13 12 21 17 18 4 -2 14 -1 22 4
9 5 20 4 29 -3 12 -10 14 -9 8 7 -5 12 -3 17 5 14 11 -3 86 64 87 78 1 2 1 7
1 12 0 4 5 0 10 -8 8 -11 9 -8 4 13 -5 23 -4 26 12 21 18 -5 18 -5 0 10 -13
11 -15 16 -6 16 7 0 10 3 7 6 -3 4 -2 16 4 27 8 15 8 18 -1 12 -9 -5 -10 -1
-5 15 5 17 4 21 -6 15 -9 -6 -11 -2 -7 13 4 15 -4 33 -26 58 -35 42 -102 87
-116 79 -5 -3 -16 7 -25 22 -12 21 -14 23 -10 6z m-2102 -1264 c-17 -17 -37
-1 -22 17 8 10 15 12 23 4 7 -7 7 -13 -1 -21z m237 -399 c0 -5 -7 -7 -15 -4
-8 4 -15 8 -15 10 0 2 7 4 15 4 8 0 15 -4 15 -10z"/>
<path d="M3730 3340 c0 -5 5 -10 11 -10 5 0 7 5 4 10 -3 6 -8 10 -11 10 -2 0
-4 -4 -4 -10z"/>
<path d="M4735 3340 c3 -5 8 -10 11 -10 2 0 4 5 4 10 0 6 -5 10 -11 10 -5 0
-7 -4 -4 -10z"/>
<path d="M4540 3329 c0 -5 -4 -8 -9 -5 -5 3 -15 -2 -22 -12 -12 -15 -12 -16 1
-6 8 6 23 10 32 9 11 -2 15 2 11 11 -6 17 -13 18 -13 3z"/>
<path d="M3580 3322 c0 -5 7 -9 15 -9 8 0 12 4 9 9 -3 4 -9 8 -15 8 -5 0 -9
-4 -9 -8z"/>
<path d="M2175 3300 c-3 -5 -1 -10 4 -10 6 0 11 5 11 10 0 6 -2 10 -4 10 -3 0
-8 -4 -11 -10z"/>
<path d="M4790 3301 c0 -4 11 -18 24 -30 19 -17 26 -20 32 -9 4 7 4 10 -1 6
-9 -9 -35 9 -35 24 0 5 6 6 13 2 6 -4 8 -3 4 1 -10 11 -37 15 -37 6z"/>
<path d="M4430 3291 c0 -7 -5 -9 -12 -5 -7 5 -8 3 -3 -5 5 -9 10 -10 18 -2 6
6 8 14 4 18 -4 3 -7 1 -7 -6z"/>
<path d="M2135 3280 c3 -5 8 -10 11 -10 2 0 4 5 4 10 0 6 -5 10 -11 10 -5 0
-7 -4 -4 -10z"/>
<path d="M4355 3280 c-3 -5 -1 -10 4 -10 6 0 11 5 11 10 0 6 -2 10 -4 10 -3 0
-8 -4 -11 -10z"/>
<path d="M3493 3255 c0 -8 4 -12 9 -9 5 3 6 10 3 15 -9 13 -12 11 -12 -6z"/>
<path d="M3370 3239 c0 -5 5 -7 10 -4 6 3 10 8 10 11 0 2 -4 4 -10 4 -5 0 -10
-5 -10 -11z"/>
<path d="M4270 3245 c0 -7 30 -13 34 -7 3 4 -4 9 -15 9 -10 1 -19 0 -19 -2z"/>
<path d="M3290 3220 c0 -5 5 -10 11 -10 5 0 7 5 4 10 -3 6 -8 10 -11 10 -2 0
-4 -4 -4 -10z"/>
<path d="M766 3198 c3 -5 10 -6 15 -3 13 9 11 12 -6 12 -8 0 -12 -4 -9 -9z"/>
<path d="M2116 3198 c3 -4 9 -8 15 -8 5 0 9 4 9 8 0 5 -7 9 -15 9 -8 0 -12 -4
-9 -9z"/>
<path d="M4125 3200 c-16 -7 -17 -9 -3 -9 9 -1 20 4 23 9 7 11 7 11 -20 0z"/>
<path d="M690 3180 c0 -5 5 -10 11 -10 5 0 7 5 4 10 -3 6 -8 10 -11 10 -2 0
-4 -4 -4 -10z"/>
<path d="M836 3178 c3 -4 11 -5 19 -1 21 7 19 12 -4 10 -11 0 -18 -5 -15 -9z"/>
<path d="M6130 3180 c0 -5 5 -10 11 -10 5 0 7 5 4 10 -3 6 -8 10 -11 10 -2 0
-4 -4 -4 -10z"/>
<path d="M6230 3176 c26 -15 40 -12 40 7 0 9 -2 9 -8 0 -5 -8 -13 -9 -22 -3
-8 6 -19 10 -25 9 -5 0 1 -6 15 -13z"/>
<path d="M743 3168 c7 -20 -9 -25 -16 -5 -3 6 -6 3 -6 -8 -1 -17 -3 -17 -11
-5 -8 12 -10 12 -10 1 0 -10 -3 -11 -14 -2 -11 9 -18 8 -30 -5 -9 -9 -25 -14
-36 -11 -11 3 -18 2 -15 -3 3 -4 -2 -11 -11 -14 -12 -4 -14 -1 -9 14 4 11 2
20 -4 20 -6 0 -10 -3 -10 -7 4 -22 -4 -32 -33 -43 -18 -6 -41 -16 -50 -21 -12
-6 -18 -6 -18 1 0 5 -5 10 -11 10 -6 0 -9 -6 -6 -13 3 -8 -7 -18 -24 -24 -22
-9 -28 -8 -23 0 3 7 -1 4 -9 -5 -8 -10 -22 -18 -31 -18 -11 0 -14 -5 -10 -12
5 -7 2 -9 -8 -6 -8 4 -21 -2 -28 -12 -13 -18 -36 -18 -26 -1 3 4 -2 8 -10 8
-10 0 -11 -4 -4 -11 15 -15 12 -26 -6 -26 -9 0 -22 -7 -29 -17 -9 -13 -14 -13
-20 -3 -6 9 -4 11 5 5 9 -5 11 -4 6 4 -10 15 -27 4 -20 -13 3 -8 0 -17 -7 -22
-8 -5 -10 -3 -5 7 4 8 -2 2 -14 -13 -12 -16 -28 -28 -35 -28 -25 0 -22 -25 6
-50 15 -14 33 -26 41 -28 7 -2 18 -10 24 -17 6 -8 15 -11 19 -7 5 4 5 1 1 -5
-5 -9 0 -13 14 -13 13 0 19 -4 14 -11 -4 -7 -1 -10 7 -7 15 6 69 -21 69 -34 0
-4 9 -8 20 -8 11 0 20 -5 20 -11 0 -5 4 -7 10 -4 6 3 10 1 10 -5 0 -6 5 -8 12
-4 6 4 8 3 4 -4 -4 -6 1 -10 11 -10 27 1 73 -20 73 -33 0 -6 9 -9 20 -6 22 6
45 -17 34 -34 -5 -8 -3 -9 5 -5 7 5 10 14 7 22 -3 8 -1 14 4 14 6 0 10 -5 10
-11 0 -5 5 -7 10 -4 6 4 16 2 23 -3 7 -5 20 -8 30 -7 9 2 17 0 17 -3 0 -4 30
-8 66 -9 36 -1 72 -7 79 -13 10 -8 15 -8 21 1 4 8 3 9 -4 5 -7 -4 -12 -2 -12
3 0 7 14 9 35 6 22 -2 35 0 35 7 0 6 3 9 6 5 4 -3 21 0 40 8 24 10 34 11 38 2
2 -7 5 -6 5 4 1 17 75 54 90 45 5 -4 13 -1 17 5 4 7 3 9 -4 5 -6 -3 -13 -2
-17 4 -6 9 6 13 46 13 9 0 16 6 16 13 0 8 -4 14 -9 14 -4 0 -8 -4 -8 -8 0 -5
-7 -9 -15 -9 -10 0 -5 10 15 30 16 16 30 33 30 38 0 5 8 9 18 9 14 0 15 2 2
10 -8 5 -10 10 -5 10 6 0 12 11 13 25 1 14 -3 25 -8 25 -6 0 -10 -4 -10 -8 0
-5 -7 -9 -15 -9 -18 0 -29 27 -15 41 16 16 12 28 -9 21 -11 -3 -22 -1 -26 5
-5 8 5 11 31 10 67 -3 69 -2 50 19 -10 11 -15 25 -10 32 4 7 3 10 -2 6 -6 -3
-16 4 -24 16 -12 19 -11 20 2 10 12 -11 14 -9 13 7 -1 11 -5 23 -10 27 -4 5
-5 2 -1 -4 12 -21 -19 -15 -38 6 -12 13 -16 28 -11 43 5 20 5 21 -5 5 -11 -17
-13 -17 -37 7 -14 14 -29 24 -33 21 -4 -2 -16 2 -26 10 -10 8 -27 15 -36 15
-9 0 -24 7 -32 16 -12 12 -16 12 -17 2 0 -7 -4 -4 -9 7 -5 11 -9 15 -9 8 -1
-6 -14 -11 -31 -11 -16 1 -27 5 -24 9 2 4 0 11 -6 14 -6 4 -9 1 -8 -6 2 -6 -3
-14 -11 -17 -8 -3 -11 0 -7 7 4 6 3 11 -3 11 -5 0 -12 -6 -15 -12 -3 -9 -10
-7 -22 7 -14 17 -16 17 -11 3z m-16 -265 c-4 -3 2 -13 14 -21 25 -17 40 -7 16
11 -15 11 -14 12 12 12 16 1 27 -3 25 -7 -3 -4 0 -8 5 -8 6 0 11 4 11 10 0 11
28 9 48 -3 7 -5 12 -3 12 5 0 9 3 9 10 -2 13 -20 12 -30 -1 -30 -5 0 -7 5 -3
12 5 7 3 8 -5 3 -9 -5 -9 -11 -3 -17 15 -15 34 1 27 21 -4 14 1 18 25 18 32 0
37 -6 18 -25 -7 -7 -10 -12 -8 -13 3 0 13 -2 23 -4 10 -2 21 6 28 18 9 20 9
21 -4 4 -10 -12 -17 -14 -22 -8 -3 6 -1 11 5 11 6 0 9 4 6 9 -4 5 2 8 11 7 22
-4 24 -27 3 -43 -9 -8 -11 -12 -3 -13 6 0 14 4 18 10 3 5 13 7 23 4 10 -4 13
-2 7 3 -14 11 -18 43 -6 43 5 0 13 -5 17 -11 4 -7 10 -7 16 -1 7 7 15 6 26 -4
8 -8 21 -13 30 -9 12 4 13 3 3 -9 -7 -8 -9 -21 -5 -27 4 -8 3 -9 -4 -5 -7 4
-12 1 -12 -6 0 -9 -3 -9 -8 -2 -10 15 -244 15 -254 0 -5 -8 -8 -7 -8 1 0 7 -7
10 -17 7 -15 -5 -16 -4 -3 5 8 6 12 11 8 11 -3 0 -14 3 -23 6 -10 4 -15 2 -13
-6 2 -7 -3 -14 -10 -15 -7 -2 -8 -1 -1 2 6 3 -3 14 -21 24 -26 16 -34 39 -13
39 4 0 3 -3 0 -7z m13 -47 c0 -2 -7 -7 -16 -10 -8 -3 -12 -2 -9 4 6 10 25 14
25 6z"/>
<path d="M797 2875 c24 -22 77 -30 65 -10 -4 5 -7 15 -7 20 0 13 -26 14 -42 2
-8 -6 -18 -6 -26 -1 -7 5 -3 0 10 -11z m50 -1 c0 -10 -10 -11 -35 -5 -2 1 -1
5 2 9 8 13 33 10 33 -4z"/>
<path d="M907 2879 c3 -10 12 -20 21 -24 14 -5 14 -4 5 6 -8 8 -9 17 -3 24 6
7 3 11 -9 11 -12 0 -17 -6 -14 -17z"/>
<path d="M1029 2884 c6 -12 7 -24 4 -28 -3 -3 -1 -6 5 -6 7 0 12 5 12 11 0 5
4 8 8 5 4 -2 14 0 22 6 12 8 12 9 -2 5 -9 -3 -19 -1 -22 6 -3 8 -5 7 -5 -2 -1
-11 -5 -10 -17 5 -15 18 -15 18 -5 -2z"/>
<path d="M6300 3171 c0 -10 19 -25 25 -20 1 2 -3 10 -11 17 -8 7 -14 8 -14 3z"/>
<path d="M613 3157 c-3 -6 -1 -7 5 -3 5 3 12 1 14 -6 3 -8 6 -7 10 3 7 17 -19
22 -29 6z"/>
<path d="M946 3157 c-16 -12 -16 -13 2 -13 10 0 19 6 19 13 0 7 -1 13 -2 13
-1 0 -9 -6 -19 -13z"/>
<path d="M4055 3160 c-3 -6 1 -7 9 -4 18 7 21 14 7 14 -6 0 -13 -4 -16 -10z"/>
<path d="M6069 3163 c-1 -5 -2 -14 -3 -22 0 -7 -20 -21 -42 -30 -23 -9 -48
-22 -57 -29 -9 -8 -21 -11 -26 -7 -7 4 -8 -1 -4 -11 4 -11 2 -15 -4 -11 -5 4
-19 -1 -29 -9 -17 -14 -17 -15 -1 -10 11 3 16 2 12 -4 -3 -6 -12 -10 -20 -10
-8 0 -17 -5 -21 -12 -5 -7 -2 -9 7 -4 8 4 6 1 -3 -7 -10 -8 -15 -17 -11 -20 3
-4 2 -7 -4 -7 -6 0 -16 -13 -22 -30 -11 -33 -14 -31 67 -33 31 -1 41 -10 22
-22 -5 -3 -7 -11 -4 -19 6 -17 62 -16 69 1 3 9 0 12 -8 8 -6 -4 -3 1 7 9 11 9
15 16 10 16 -6 0 -16 -6 -23 -12 -11 -11 -12 -10 -6 1 5 9 4 12 -3 7 -6 -4 -9
-13 -5 -21 3 -8 1 -15 -5 -15 -5 0 -12 7 -16 15 -3 8 -1 15 5 15 6 0 8 4 5 8
-8 14 70 8 88 -7 14 -12 16 -12 10 3 -5 13 -1 15 17 13 13 -2 24 -8 24 -13 1
-5 6 -19 13 -31 11 -20 10 -21 -8 -18 -11 2 -20 -2 -20 -8 0 -8 -2 -9 -8 -1
-9 13 -42 14 -42 1 0 -6 -5 -6 -12 0 -16 13 -48 13 -48 1 0 -5 -6 -6 -12 -1
-21 12 -68 12 -68 0 0 -8 -3 -8 -8 -2 -4 6 -16 10 -27 11 -15 1 -21 -5 -21
-22 0 -12 4 -20 8 -18 7 5 12 -10 9 -28 0 -5 3 -8 9 -8 6 0 10 -5 10 -11 0 -5
-5 -7 -12 -3 -7 4 -8 3 -4 -4 4 -6 13 -9 20 -6 8 3 22 -11 35 -38 12 -24 20
-34 16 -23 -5 19 -4 19 9 3 7 -10 18 -18 24 -18 10 0 22 -22 22 -41 0 -4 -8
-6 -17 -3 -15 5 -15 4 -3 -4 17 -13 30 -6 31 16 0 11 3 12 6 5 2 -7 11 -13 19
-13 8 0 26 -7 39 -16 13 -9 29 -13 34 -10 5 4 12 2 15 -3 3 -5 42 -9 86 -8 49
0 86 -5 92 -11 7 -7 17 -12 23 -12 5 0 2 5 -8 11 -9 6 -15 15 -11 21 4 6 10 5
15 -3 6 -9 12 -10 17 -4 4 6 14 12 22 14 8 2 23 6 33 8 9 3 17 0 17 -6 0 -7 5
-9 10 -6 6 4 8 12 4 18 -3 7 2 3 11 -8 17 -20 17 -20 10 3 -6 21 -5 23 13 13
15 -8 23 -8 28 1 5 7 3 8 -6 3 -9 -5 -11 -4 -6 4 6 9 11 9 22 0 12 -10 13 -8
8 7 -5 18 -5 18 9 1 13 -16 15 -16 21 -2 4 11 2 14 -6 9 -7 -4 -8 -3 -4 4 9
15 39 15 52 2 7 -7 11 -6 11 4 0 8 -4 13 -9 10 -4 -3 -8 -1 -8 4 0 16 52 25
62 10 6 -9 7 -5 3 10 -6 21 -5 23 13 13 24 -13 43 -15 23 -2 -18 12 -5 32 16
24 11 -4 14 -3 9 5 -4 7 -2 12 5 12 7 0 27 12 46 26 19 14 32 20 31 12 -2 -7
-7 -17 -13 -21 -6 -5 -4 -7 5 -4 8 2 16 9 16 15 1 7 2 17 3 22 0 6 5 10 11 10
9 0 18 6 72 52 20 17 18 56 -2 43 -6 -3 -13 1 -16 9 -3 9 -11 16 -16 16 -5 0
-24 10 -41 22 -18 13 -34 23 -37 24 -21 4 -39 18 -33 27 4 6 0 8 -8 5 -9 -3
-26 3 -40 14 -13 11 -19 17 -12 14 6 -4 14 -2 17 3 7 11 -13 9 -32 -2 -8 -6
-15 0 -21 15 -6 13 -10 17 -10 9 -1 -11 -6 -10 -26 3 -14 9 -25 13 -25 10 0
-4 -9 1 -20 11 -11 10 -20 24 -20 32 0 7 -5 13 -10 13 -7 0 -7 -6 0 -20 7 -14
7 -20 0 -20 -5 0 -10 4 -10 9 0 5 -12 9 -26 9 -15 0 -30 6 -35 13 -4 7 -11 10
-14 7 -4 -4 -19 -2 -34 4 -14 6 -37 11 -51 13 -49 4 -51 5 -44 18 6 9 4 9 -7
1 -20 -15 -59 -15 -59 -1 0 8 -4 7 -9 -2 -8 -13 -12 -13 -26 -1 -13 11 -18 11
-24 1 -11 -17 -87 -20 -83 -3 1 6 0 12 -3 12 -3 0 -6 -3 -6 -7z m144 -265 c-4
-7 12 -12 30 -9 4 0 7 -4 7 -10 0 -6 -8 -8 -17 -5 -15 5 -15 4 1 -9 17 -13 21
-13 32 3 9 13 9 19 1 24 -8 5 -8 8 -1 8 20 0 23 -12 7 -36 -8 -13 -19 -21 -25
-18 -5 3 -15 1 -22 -5 -10 -8 -17 -7 -26 4 -15 18 -35 20 -24 3 4 -7 3 -8 -4
-4 -7 4 -12 2 -12 -3 0 -6 -13 1 -29 15 -41 36 -31 50 33 50 30 -1 52 -4 49
-8z"/>
<path d="M6115 2892 c-12 -12 9 -21 23 -10 13 11 15 11 10 -4 -11 -27 4 -30
30 -6 19 17 24 19 19 6 -3 -9 0 -21 7 -27 20 -17 27 -1 11 22 -11 15 -26 21
-55 22 -23 1 -43 -1 -45 -3z m65 -6 c0 -2 -8 -10 -17 -17 -16 -13 -17 -12 -4
4 13 16 21 21 21 13z"/>
<path d="M6365 3161 c-3 -5 -2 -12 3 -15 5 -3 9 1 9 9 0 17 -3 19 -12 6z"/>
<path d="M2113 3132 c-1 -22 0 -24 9 -8 6 10 6 22 2 26 -5 5 -10 -3 -11 -18z"/>
<path d="M990 3140 c-9 -6 -10 -10 -3 -10 6 0 15 5 18 10 8 12 4 12 -15 0z"/>
<path d="M3133 3135 c0 -8 4 -12 9 -9 5 3 6 10 3 15 -9 13 -12 11 -12 -6z"/>
<path d="M6396 3138 c3 -5 10 -6 15 -3 13 9 11 12 -6 12 -8 0 -12 -4 -9 -9z"/>
<path d="M6444 3131 c20 -22 26 -25 26 -13 0 4 -10 13 -22 21 -23 14 -23 14
-4 -8z"/>
<path d="M1009 3123 c-13 -16 -12 -17 4 -4 9 7 17 15 17 17 0 8 -8 3 -21 -13z"/>
<path d="M2985 3129 c-4 -6 -5 -12 -2 -15 2 -3 7 2 10 11 7 17 1 20 -8 4z"/>
<path d="M6025 3130 c-3 -6 1 -7 9 -4 18 7 21 14 7 14 -6 0 -13 -4 -16 -10z"/>
<path d="M3870 3118 c0 -4 6 -8 14 -8 8 0 17 4 20 8 2 4 -4 8 -15 8 -10 0 -19
-4 -19 -8z"/>
<path d="M5986 3118 c3 -4 9 -8 15 -8 5 0 9 4 9 8 0 5 -7 9 -15 9 -8 0 -12 -4
-9 -9z"/>
<path d="M2914 3109 c-3 -6 -3 -13 0 -16 3 -4 6 -1 6 5 0 6 7 9 15 6 8 -4 15
-4 15 -1 0 11 -30 16 -36 6z"/>
<path d="M5952 3104 c-7 -8 -8 -14 -3 -14 10 0 25 19 20 25 -2 1 -10 -3 -17
-11z"/>
<path d="M508 3103 c7 -3 16 -2 19 1 4 3 -2 6 -13 5 -11 0 -14 -3 -6 -6z"/>
<path d="M3767 3099 c7 -7 15 -10 18 -7 3 3 -2 9 -12 12 -14 6 -15 5 -6 -5z"/>
<path d="M2996 3087 c3 -10 9 -15 12 -12 3 3 0 11 -7 18 -10 9 -11 8 -5 -6z"/>
<path d="M6575 3080 c-3 -5 -1 -10 4 -10 6 0 11 5 11 10 0 6 -2 10 -4 10 -3 0
-8 -4 -11 -10z"/>
<path d="M2130 3060 c0 -5 5 -10 11 -10 5 0 7 5 4 10 -3 6 -8 10 -11 10 -2 0
-4 -4 -4 -10z"/>
<path d="M2855 3060 c3 -5 8 -10 11 -10 2 0 4 5 4 10 0 6 -5 10 -11 10 -5 0
-7 -4 -4 -10z"/>
<path d="M3710 3060 c-13 -8 -12 -10 3 -10 9 0 17 5 17 10 0 12 -1 12 -20 0z"/>
<path d="M358 3053 c7 -3 16 -2 19 1 4 3 -2 6 -13 5 -11 0 -14 -3 -6 -6z"/>
<path d="M1090 3051 c0 -6 4 -13 10 -16 6 -3 7 1 4 9 -7 18 -14 21 -14 7z"/>
<path d="M2753 3047 c-3 -6 -1 -7 5 -3 5 3 12 1 14 -6 3 -8 6 -7 10 3 7 17
-19 22 -29 6z"/>
<path d="M3625 3040 c-3 -6 1 -7 9 -4 18 7 21 14 7 14 -6 0 -13 -4 -16 -10z"/>
<path d="M2655 3020 c-4 -6 -11 -8 -16 -5 -15 10 -10 -1 7 -15 12 -11 15 -11
12 1 -2 8 3 13 10 11 8 -1 11 2 7 8 -8 13 -12 13 -20 0z"/>
<path d="M3576 3017 c3 -10 9 -15 12 -12 3 3 0 11 -7 18 -10 9 -11 8 -5 -6z"/>
<path d="M6676 3018 c3 -5 10 -6 15 -3 13 9 11 12 -6 12 -8 0 -12 -4 -9 -9z"/>
<path d="M230 3001 c0 -6 4 -13 10 -16 6 -3 7 1 4 9 -7 18 -14 21 -14 7z"/>
<path d="M4824 3002 c4 -3 14 -7 22 -8 9 -1 13 0 10 4 -4 3 -14 7 -22 8 -9 1
-13 0 -10 -4z"/>
<path d="M5836 2998 c3 -5 10 -6 15 -3 13 9 11 12 -6 12 -8 0 -12 -4 -9 -9z"/>
<path d="M4795 2981 c-3 -5 0 -13 6 -17 7 -4 9 -3 5 4 -3 5 0 13 6 15 9 4 10
6 1 6 -6 1 -14 -3 -18 -8z"/>
<path d="M3389 2963 c-13 -16 -12 -17 4 -4 16 13 21 21 13 21 -2 0 -10 -8 -17
-17z"/>
<path d="M2556 2958 c3 -5 10 -6 15 -3 13 9 11 12 -6 12 -8 0 -12 -4 -9 -9z"/>
<path d="M2236 2948 c3 -5 10 -6 15 -3 13 9 11 12 -6 12 -8 0 -12 -4 -9 -9z"/>
<path d="M2470 2939 c0 -5 5 -7 10 -4 6 3 10 8 10 11 0 2 -4 4 -10 4 -5 0 -10
-5 -10 -11z"/>
<path d="M2313 2921 c0 -11 5 -18 9 -15 4 3 5 11 1 19 -7 21 -12 19 -10 -4z"/>
<path d="M2375 2929 c-4 -6 -5 -12 -2 -15 2 -3 7 2 10 11 7 17 1 20 -8 4z"/>
<path d="M3341 2924 c0 -11 3 -14 6 -6 3 7 2 16 -1 19 -3 4 -6 -2 -5 -13z"/>
<path d="M156 2918 c3 -5 10 -6 15 -3 13 9 11 12 -6 12 -8 0 -12 -4 -9 -9z"/>
<path d="M3316 2913 c-6 -14 -5 -15 5 -6 7 7 10 15 7 18 -3 3 -9 -2 -12 -12z"/>
<path d="M4696 2913 c-6 -14 -5 -15 5 -6 7 7 10 15 7 18 -3 3 -9 -2 -12 -12z"/>
<path d="M3267 2899 c7 -7 15 -10 18 -7 3 3 -2 9 -12 12 -14 6 -15 5 -6 -5z"/>
<path d="M3195 2890 c3 -5 8 -10 11 -10 2 0 4 5 4 10 0 6 -5 10 -11 10 -5 0
-7 -4 -4 -10z"/>
<path d="M5888 2893 c20 -8 14 -25 -7 -18 -11 3 -22 2 -24 -3 -3 -4 6 -8 19
-7 33 0 52 30 21 32 -12 0 -16 -1 -9 -4z"/>
<path d="M6010 2881 c-13 -25 -16 -23 42 -25 36 -1 44 1 36 11 -5 7 -7 16 -4
21 3 5 -1 9 -8 9 -8 0 -12 -6 -9 -14 7 -18 -7 -16 -28 3 -16 14 -18 14 -29 -5z
m28 -4 c8 -10 6 -13 -11 -14 -12 0 -16 1 -9 4 6 3 10 9 6 14 -8 14 2 11 14 -4z"/>
<path d="M1153 2875 c0 -8 4 -12 9 -9 5 3 6 10 3 15 -9 13 -12 11 -12 -6z"/>
<path d="M4616 2881 c-3 -4 4 -7 14 -6 27 2 33 10 10 12 -11 1 -22 -2 -24 -6z"/>
<path d="M4547 2866 c-4 -10 -1 -13 8 -9 8 3 12 9 9 14 -7 12 -11 11 -17 -5z"/>
<path d="M3073 2845 c-3 -9 -3 -18 -1 -21 3 -3 8 4 11 16 6 23 -1 27 -10 5z"/>
<path d="M4515 2849 c-4 -6 -5 -12 -2 -15 2 -3 7 2 10 11 7 17 1 20 -8 4z"/>
<path d="M153 2825 c0 -8 4 -15 9 -15 4 0 8 4 8 9 0 6 -4 12 -8 15 -5 3 -9 -1
-9 -9z"/>
<path d="M2870 2816 c0 -2 8 -10 18 -17 15 -13 16 -12 3 4 -13 16 -21 21 -21
13z"/>
<path d="M4398 2803 c7 -3 16 -2 19 1 4 3 -2 6 -13 5 -11 0 -14 -3 -6 -6z"/>
<path d="M190 2790 c8 -5 20 -10 25 -10 6 0 3 5 -5 10 -8 5 -19 10 -25 10 -5
0 -3 -5 5 -10z"/>
<path d="M6790 2790 c-9 -6 -10 -10 -3 -10 6 0 15 5 18 10 8 12 4 12 -15 0z"/>
<path d="M2840 2780 c-8 -5 -10 -10 -5 -10 6 0 17 5 25 10 8 5 11 10 5 10 -5
0 -17 -5 -25 -10z"/>
<path d="M4233 2755 c0 -8 4 -12 9 -9 5 3 6 10 3 15 -9 13 -12 11 -12 -6z"/>
<path d="M250 2740 c0 -5 5 -10 11 -10 5 0 7 5 4 10 -3 6 -8 10 -11 10 -2 0
-4 -4 -4 -10z"/>
<path d="M1130 2741 c0 -6 4 -13 10 -16 6 -3 7 1 4 9 -7 18 -14 21 -14 7z"/>
<path d="M4179 2748 c-6 -21 -5 -37 2 -32 5 3 7 9 4 14 -3 5 5 11 17 13 l23 4
-22 2 c-13 0 -23 0 -24 -1z"/>
<path d="M310 2731 c0 -5 7 -12 16 -15 14 -5 15 -4 4 9 -14 17 -20 19 -20 6z"/>
<path d="M4121 2724 c0 -11 3 -14 6 -6 3 7 2 16 -1 19 -3 4 -6 -2 -5 -13z"/>
<path d="M5870 2726 c0 -2 7 -7 16 -10 8 -3 12 -2 9 4 -6 10 -25 14 -25 6z"/>
<path d="M2710 2710 c0 -5 5 -10 11 -10 5 0 7 5 4 10 -3 6 -8 10 -11 10 -2 0
-4 -4 -4 -10z"/>
<path d="M367 2687 c-3 -8 1 -14 8 -14 7 0 11 6 8 14 -3 7 -6 13 -8 13 -2 0
-5 -6 -8 -13z"/>
<path d="M3970 2675 c5 -7 6 -16 2 -21 -4 -5 -3 -5 2 -1 15 12 15 34 0 34 -9
0 -11 -4 -4 -12z"/>
<path d="M4025 2680 c3 -5 8 -10 11 -10 2 0 4 5 4 10 0 6 -5 10 -11 10 -5 0
-7 -4 -4 -10z"/>
<path d="M395 2660 c-3 -5 -1 -10 4 -10 6 0 11 5 11 10 0 6 -2 10 -4 10 -3 0
-8 -4 -11 -10z"/>
<path d="M436 2662 c-3 -5 1 -9 9 -9 8 0 12 4 9 9 -3 4 -7 8 -9 8 -2 0 -6 -4
-9 -8z"/>
<path d="M2550 2666 c0 -2 7 -6 15 -10 8 -3 15 -1 15 4 0 6 -7 10 -15 10 -8 0
-15 -2 -15 -4z"/>
<path d="M2470 2656 c0 -2 8 -10 18 -17 15 -13 16 -12 3 4 -13 16 -21 21 -21
13z"/>
<path d="M6536 2647 c3 -10 9 -15 12 -12 3 3 0 11 -7 18 -10 9 -11 8 -5 -6z"/>
<path d="M1066 2642 c-3 -5 1 -9 9 -9 8 0 12 4 9 9 -3 4 -7 8 -9 8 -2 0 -6 -4
-9 -8z"/>
<path d="M2414 2638 c-4 -7 -4 -10 1 -6 4 4 15 2 24 -5 14 -11 14 -10 2 6 -16
20 -18 21 -27 5z"/>
<path d="M3870 2641 c0 -6 4 -13 10 -16 6 -3 7 1 4 9 -7 18 -14 21 -14 7z"/>
<path d="M3805 2629 c-4 -6 -5 -12 -2 -15 2 -3 7 2 10 11 7 17 1 20 -8 4z"/>
<path d="M455 2620 c-3 -5 -1 -10 4 -10 6 0 11 5 11 10 0 6 -2 10 -4 10 -3 0
-8 -4 -11 -10z"/>
<path d="M535 2609 c-4 -6 -5 -12 -2 -15 2 -3 7 2 10 11 7 17 1 20 -8 4z"/>
<path d="M2352 2600 c-7 -12 -18 -17 -29 -14 -14 5 -15 4 -4 -4 17 -12 51 5
51 25 0 18 -3 16 -18 -7z"/>
<path d="M2405 2610 c-3 -6 1 -7 9 -4 18 7 21 14 7 14 -6 0 -13 -4 -16 -10z"/>
<path d="M4630 2616 c0 -2 8 -10 18 -17 15 -13 16 -12 3 4 -13 16 -21 21 -21
13z"/>
<path d="M6011 2604 c0 -11 3 -14 6 -6 3 7 2 16 -1 19 -3 4 -6 -2 -5 -13z"/>
<path d="M600 2600 c-9 -6 -10 -10 -3 -10 6 0 15 5 18 10 8 12 4 12 -15 0z"/>
<path d="M3726 2602 c-3 -5 1 -9 9 -9 8 0 12 4 9 9 -3 4 -7 8 -9 8 -2 0 -6 -4
-9 -8z"/>
<path d="M4716 2602 c-3 -5 1 -9 9 -9 8 0 12 4 9 9 -3 4 -7 8 -9 8 -2 0 -6 -4
-9 -8z"/>
<path d="M634 2588 c-4 -7 -4 -10 1 -6 4 4 15 2 24 -5 14 -11 14 -10 2 6 -16
20 -18 21 -27 5z"/>
<path d="M910 2590 c-9 -6 -10 -10 -3 -10 6 0 15 5 18 10 8 12 4 12 -15 0z"/>
<path d="M6354 2586 c1 -8 5 -18 8 -22 4 -3 5 1 4 10 -1 8 -5 18 -8 22 -4 3
-5 -1 -4 -10z"/>
<path d="M696 2582 c-3 -5 10 -8 29 -8 37 1 37 8 0 13 -13 2 -26 0 -29 -5z"/>
<path d="M2235 2581 c-3 -5 -2 -12 3 -15 5 -3 9 1 9 9 0 17 -3 19 -12 6z"/>
<path d="M4577 2579 c7 -7 15 -10 18 -7 3 3 -2 9 -12 12 -14 6 -15 5 -6 -5z"/>
<path d="M6436 2578 c3 -5 10 -6 15 -3 13 9 11 12 -6 12 -8 0 -12 -4 -9 -9z"/>
<path d="M3670 2571 c0 -5 5 -13 10 -16 6 -3 10 -2 10 4 0 5 -4 13 -10 16 -5
3 -10 2 -10 -4z"/>
<path d="M4417 2573 c-10 -9 -9 -23 1 -23 5 0 9 7 9 15 0 17 -1 18 -10 8z"/>
<path d="M4678 2573 c7 -3 16 -2 19 1 4 3 -2 6 -13 5 -11 0 -14 -3 -6 -6z"/>
<path d="M6033 2565 c0 -8 4 -12 9 -9 5 3 6 10 3 15 -9 13 -12 11 -12 -6z"/>
<path d="M6244 2558 l-19 -23 23 19 c21 18 27 26 19 26 -2 0 -12 -10 -23 -22z"/>
<path d="M913 2555 c0 -8 4 -12 9 -9 5 3 6 10 3 15 -9 13 -12 11 -12 -6z"/>
<path d="M4440 2566 c0 -2 8 -10 18 -17 15 -13 16 -12 3 4 -13 16 -21 21 -21
13z"/>
<path d="M3560 2546 c0 -2 7 -7 16 -10 8 -3 12 -2 9 4 -6 10 -25 14 -25 6z"/>
<path d="M4279 2538 c-5 -18 -6 -38 -1 -34 7 8 12 36 6 36 -2 0 -4 -1 -5 -2z"/>
<path d="M3490 2499 c0 -5 5 -7 10 -4 6 3 10 8 10 11 0 2 -4 4 -10 4 -5 0 -10
-5 -10 -11z"/>
<path d="M3389 2483 c-13 -16 -12 -17 4 -4 9 7 17 15 17 17 0 8 -8 3 -21 -13z"/>
<path d="M4159 2478 c-5 -18 -6 -38 -1 -34 7 8 12 36 6 36 -2 0 -4 -1 -5 -2z"/>
<path d="M3149 2403 c-13 -16 -12 -17 4 -4 16 13 21 21 13 21 -2 0 -10 -8 -17
-17z"/>
<path d="M3230 2406 c0 -2 7 -7 16 -10 8 -3 12 -2 9 4 -6 10 -25 14 -25 6z"/>
<path d="M2115 2390 c-3 -6 1 -7 9 -4 18 7 21 14 7 14 -6 0 -13 -4 -16 -10z"/>
<path d="M4067 2376 c-3 -8 -16 -13 -31 -12 -14 2 -23 0 -21 -5 9 -13 45 -6
62 13 9 10 11 18 6 18 -6 0 -13 -6 -16 -14z"/>
<path d="M3096 2358 c3 -5 10 -6 15 -3 13 9 11 12 -6 12 -8 0 -12 -4 -9 -9z"/>
<path d="M4874 2339 c-3 -6 -2 -15 3 -20 5 -5 9 -1 9 11 0 23 -2 24 -12 9z"/>
<path d="M2130 2280 c0 -5 5 -10 11 -10 5 0 7 5 4 10 -3 6 -8 10 -11 10 -2 0
-4 -4 -4 -10z"/>
<path d="M3097 2209 c7 -7 15 -10 18 -7 3 3 -2 9 -12 12 -14 6 -15 5 -6 -5z"/>
<path d="M3883 2195 c0 -8 4 -12 9 -9 5 3 6 10 3 15 -9 13 -12 11 -12 -6z"/>
<path d="M3117 2179 c7 -7 15 -10 18 -7 3 3 -2 9 -12 12 -14 6 -15 5 -6 -5z"/>
<path d="M3850 2180 c-9 -6 -10 -10 -3 -10 6 0 15 5 18 10 8 12 4 12 -15 0z"/>
<path d="M4788 2183 c7 -3 16 -2 19 1 4 3 -2 6 -13 5 -11 0 -14 -3 -6 -6z"/>
<path d="M4750 2165 c0 -8 4 -15 8 -15 5 0 9 7 9 15 0 8 -4 15 -9 15 -4 0 -8
-7 -8 -15z"/>
<path d="M2310 2150 c-13 -8 -12 -10 3 -10 9 0 17 5 17 10 0 12 -1 12 -20 0z"/>
<path d="M2250 2146 c0 -2 7 -7 16 -10 8 -3 12 -2 9 4 -6 10 -25 14 -25 6z"/>
<path d="M3155 2141 c-3 -5 -2 -12 3 -15 5 -3 9 1 9 9 0 17 -3 19 -12 6z"/>
<path d="M2476 2125 c4 -8 10 -15 16 -15 5 0 6 -5 2 -12 -5 -7 -3 -8 5 -4 9 6
8 13 -5 27 -21 23 -25 24 -18 4z"/>
<path d="M4595 2120 c3 -5 8 -10 11 -10 2 0 4 5 4 10 0 6 -5 10 -11 10 -5 0
-7 -4 -4 -10z"/>
<path d="M2614 2056 c1 -8 5 -18 8 -22 4 -3 5 1 4 10 -1 8 -5 18 -8 22 -4 3
-5 -1 -4 -10z"/>
<path d="M2664 2052 c3 -5 0 -13 -6 -15 -9 -4 -10 -6 -1 -6 17 -1 25 16 12 25
-7 4 -9 3 -5 -4z"/>
<path d="M3765 2040 c-3 -5 -1 -10 4 -10 6 0 11 5 11 10 0 6 -2 10 -4 10 -3 0
-8 -4 -11 -10z"/>
<path d="M4345 2040 c-3 -6 1 -7 9 -4 18 7 21 14 7 14 -6 0 -13 -4 -16 -10z"/>
<path d="M2675 2020 c-3 -5 -1 -10 4 -10 6 0 11 5 11 10 0 6 -2 10 -4 10 -3 0
-8 -4 -11 -10z"/>
<path d="M3210 2026 c0 -2 7 -7 16 -10 8 -3 12 -2 9 4 -6 10 -25 14 -25 6z"/>
<path d="M4294 2019 c-3 -6 -2 -15 3 -20 5 -5 9 -1 10 11 2 22 -2 25 -13 9z"/>
<path d="M2698 1997 c-3 -19 -2 -25 4 -19 6 6 8 18 6 28 -3 14 -5 12 -10 -9z"/>
<path d="M3750 2000 c0 -5 5 -10 11 -10 5 0 7 5 4 10 -3 6 -8 10 -11 10 -2 0
-4 -4 -4 -10z"/>
<path d="M4260 1960 c-9 -6 -10 -10 -3 -10 6 0 15 5 18 10 8 12 4 12 -15 0z"/>
<path d="M3270 1951 c0 -7 -5 -9 -12 -5 -7 5 -8 3 -3 -5 5 -9 10 -10 18 -2 6
6 8 14 4 18 -4 3 -7 1 -7 -6z"/>
<path d="M3282 1904 c10 -10 20 -16 22 -13 3 3 -5 11 -17 18 -21 13 -21 12 -5
-5z"/>
<path d="M4194 1904 c-18 -14 -18 -15 4 -4 12 6 22 13 22 15 0 8 -5 6 -26 -11z"/>
<path d="M3710 1900 c0 -5 7 -7 15 -4 8 4 15 8 15 10 0 2 -7 4 -15 4 -8 0 -15
-4 -15 -10z"/>
<path d="M4194 1875 c-4 -8 -11 -12 -17 -8 -6 3 -7 1 -3 -5 10 -16 14 -15 26
8 6 11 8 20 5 20 -3 0 -8 -7 -11 -15z"/>
<path d="M3290 1871 c0 -6 4 -13 10 -16 6 -3 7 1 4 9 -7 18 -14 21 -14 7z"/>
<path d="M2796 1861 c-3 -5 2 -15 12 -22 15 -12 16 -12 5 2 -7 9 -10 19 -6 22
3 4 4 7 0 7 -3 0 -8 -4 -11 -9z"/>
<path d="M2835 1840 c-3 -5 -1 -10 4 -10 6 0 11 5 11 10 0 6 -2 10 -4 10 -3 0
-8 -4 -11 -10z"/>
<path d="M4156 1842 c-3 -5 1 -9 9 -9 8 0 12 4 9 9 -3 4 -7 8 -9 8 -2 0 -6 -4
-9 -8z"/>
<path d="M3297 1823 c-3 -5 -1 -17 3 -27 6 -17 7 -18 13 -3 3 9 2 17 -4 17 -6
0 -7 5 -4 10 3 6 4 10 1 10 -3 0 -7 -3 -9 -7z"/>
<path d="M2853 1793 c4 -6 -3 -22 -14 -37 -13 -17 -15 -24 -6 -20 21 8 39 51
25 60 -6 4 -8 3 -5 -3z"/>
<path d="M4134 1784 c1 -7 6 -17 11 -21 4 -5 5 -2 0 6 -6 11 -4 13 8 8 10 -3
17 -3 17 2 0 5 -9 11 -19 14 -12 3 -18 0 -17 -9z"/>
<path d="M3310 1755 c0 -8 2 -15 4 -15 2 0 6 7 10 15 3 8 1 15 -4 15 -6 0 -10
-7 -10 -15z"/>
<path d="M3660 1756 c0 -2 9 -6 20 -9 11 -3 18 -1 14 4 -5 9 -34 13 -34 5z"/>
<path d="M3323 1735 c-7 -8 -9 -16 -4 -19 5 -3 12 1 15 10 8 22 4 25 -11 9z"/>
<path d="M3475 1740 c-3 -5 -1 -10 4 -10 6 0 11 5 11 10 0 6 -2 10 -4 10 -3 0
-8 -4 -11 -10z"/>
<path d="M3620 1731 c0 -10 19 -25 25 -20 1 2 -3 10 -11 17 -8 7 -14 8 -14 3z"/>
<path d="M3566 1713 c-6 -14 -5 -15 5 -6 7 7 10 15 7 18 -3 3 -9 -2 -12 -12z"/>
<path d="M3591 1714 c0 -11 3 -14 6 -6 3 7 2 16 -1 19 -3 4 -6 -2 -5 -13z"/>
<path d="M2653 1690 c-1 -11 2 -20 7 -20 4 0 7 7 6 15 -3 23 -12 26 -13 5z"/>
<path d="M4317 1689 c7 -7 15 -10 18 -7 3 3 -2 9 -12 12 -14 6 -15 5 -6 -5z"/>
<path d="M2614 1640 c0 -13 4 -16 10 -10 7 7 7 13 0 20 -6 6 -10 3 -10 -10z"/>
<path d="M4385 1600 c-3 -6 1 -7 9 -4 18 7 21 14 7 14 -6 0 -13 -4 -16 -10z"/>
<path d="M2599 1493 c-13 -16 -12 -17 4 -4 9 7 17 15 17 17 0 8 -8 3 -21 -13z"/>
<path d="M4310 1311 c0 -6 4 -13 10 -16 6 -3 7 1 4 9 -7 18 -14 21 -14 7z"/>
<path d="M4245 1240 c-3 -5 -1 -10 4 -10 6 0 11 5 11 10 0 6 -2 10 -4 10 -3 0
-8 -4 -11 -10z"/>
<path d="M4230 1200 c0 -5 5 -10 11 -10 5 0 7 5 4 10 -3 6 -8 10 -11 10 -2 0
-4 -4 -4 -10z"/>
<path d="M4205 1160 c-3 -6 1 -7 9 -4 18 7 21 14 7 14 -6 0 -13 -4 -16 -10z"/>
<path d="M2720 1140 c8 -5 20 -10 25 -10 6 0 3 5 -5 10 -8 5 -19 10 -25 10 -5
0 -3 -5 5 -10z"/>
<path d="M4175 1140 c-3 -5 -1 -10 4 -10 6 0 11 5 11 10 0 6 -2 10 -4 10 -3 0
-8 -4 -11 -10z"/>
<path d="M4149 1083 c-13 -16 -12 -17 4 -4 16 13 21 21 13 21 -2 0 -10 -8 -17
-17z"/>
<path d="M4108 1048 c-10 -10 -14 -18 -9 -18 10 0 36 29 30 34 -2 1 -12 -6
-21 -16z"/>
<path d="M4155 1049 c-4 -6 -5 -12 -2 -15 2 -3 7 2 10 11 7 17 1 20 -8 4z"/>
<path d="M4095 1001 c-3 -5 -2 -12 3 -15 5 -3 9 1 9 9 0 17 -3 19 -12 6z"/>
<path d="M4001 967 c-8 -10 -7 -14 4 -14 8 0 12 4 9 8 -2 4 2 10 8 12 8 4 9 6
2 6 -6 1 -17 -5 -23 -12z"/>
<path d="M2896 947 c3 -10 9 -15 12 -12 3 3 0 11 -7 18 -10 9 -11 8 -5 -6z"/>
<path d="M3990 936 c0 -2 8 -10 18 -17 15 -13 16 -12 3 4 -13 16 -21 21 -21
13z"/>
<path d="M3835 840 c-3 -5 -1 -10 4 -10 6 0 11 5 11 10 0 6 -2 10 -4 10 -3 0
-8 -4 -11 -10z"/>
<path d="M3867 839 c7 -7 15 -10 18 -7 3 3 -2 9 -12 12 -14 6 -15 5 -6 -5z"/>
<path d="M3215 789 c-4 -6 -5 -12 -2 -15 2 -3 7 2 10 11 7 17 1 20 -8 4z"/>
<path d="M3706 783 c-6 -14 -5 -15 5 -6 7 7 10 15 7 18 -3 3 -9 -2 -12 -12z"/>
<path d="M3673 783 c4 -3 -1 -12 -11 -20 -15 -13 -15 -13 6 -3 19 9 23 30 5
30 -4 0 -3 -3 0 -7z"/>
<path d="M3730 779 c0 -5 5 -7 10 -4 6 3 10 8 10 11 0 2 -4 4 -10 4 -5 0 -10
-5 -10 -11z"/>
<path d="M3548 753 c6 -2 9 -10 6 -15 -4 -7 -2 -8 5 -4 13 9 5 26 -12 25 -9 0
-8 -2 1 -6z"/>
<path d="M3415 740 c-3 -5 -1 -10 4 -10 6 0 11 5 11 10 0 6 -2 10 -4 10 -3 0
-8 -4 -11 -10z"/>
</g>
</svg>
