<svg version="1.1" viewBox="0 0 1920 1435" xmlns="http://www.w3.org/2000/svg"><path d="m1704 0c-40.14 0-72.7 32.56-72.7 72.69 0 19.65 7.83 37.48 20.52 50.56l-38.74 38.72-86.75-86.74 7.204-7.201-21.88-5.86 5.861 21.88 7.21-7.209 86.75 86.74-39.55 39.54h-72.34v2.272h19.12v6.648h2.272v-6.648h8.627v6.648h2.272v-6.648h8.633v6.648h2.272v-6.648h8.633v6.648h2.272v-6.648h9.407v6.588l-34.75 34.74h-21.32v21.31l-28.39 28.38c0.1203-1.122 0.1974-2.255 0.1974-3.409 0-17.53-14.24-31.77-31.78-31.77-8.359 0-15.95 3.259-21.63 8.545l-54.52-54.5h-121.3v-10.19l-19.62 11.32 19.62 11.33v-10.19h120.4l53.86 53.83c-5.288 5.674-8.553 13.26-8.553 21.62 0 17.54 14.25 31.77 31.79 31.77 0.2824 0 0.5627-0.0105 0.8432-0.0185 0.4061 0.843 0.9566 1.633 1.656 2.332 3.336 3.334 8.748 3.334 12.08 0 1.978-1.977 2.782-4.682 2.414-7.25 6.905-4.385 12-11.36 13.92-19.55l29.06-29.04v47.04h59.9v-71.53h-35.37l41.34-41.32h1.108v6.648h2.27v-6.648h8.633v6.648h2.272v-6.648h8.633v6.648h2.272v-6.648h8.634v6.648h2.272v-6.648h9.413v6.648h2.272v-6.648h8.627v6.648h2.272v-6.648h8.633v6.648h2.272v-6.648h8.633v6.648h2.272v-6.598l28.29 28.28c-7.349 7.743-11.87 18.2-11.87 29.71 0 11.51 4.521 21.96 11.87 29.7l-9.108 9.105c-0.7027-0.4222-1.522-0.6641-2.402-0.6641-2.579 0-4.67 2.091-4.67 4.672 0 2.58 2.092 4.67 4.67 4.67 2.581 0 4.672-2.089 4.672-4.67 0-0.8783-0.2402-1.702-0.6623-2.404l9.106-9.105c7.744 7.348 18.2 11.87 29.71 11.87 23.84 0 43.19-19.34 43.19-43.17s-19.35-43.18-43.19-43.18c-11.51 0-21.96 4.522-29.71 11.87l-20.08-20.07h1.086v-6.65h8.634v6.65h2.27v-6.65h9.411v6.65h2.272v-6.65h8.633v6.65h2.272v-6.65h8.634v6.65h2.268v-6.65h8.633v6.65h2.274v-6.65h8.631v6.65h2.275v-6.65h8.625v6.65h2.274v-6.65h9.411v6.65h2.272v-6.65h8.633v6.65h2.275v-6.65h23.01v-2.272h-132.7l-39.55-39.54 38.73-38.72c13.09 12.69 30.93 20.51 50.58 20.51 40.14 0 72.7-32.55 72.7-72.69-1e-4 -40.13-32.57-72.69-72.7-72.69zm1.135 2.301c9.405 0.1491 18.37 2.123 26.53 5.611l-5.349 12.07c-6.528-2.769-13.68-4.344-21.18-4.491zm-2.268 0.01053-0.01 0.00211v13.19c-6.388 0.1257-12.51 1.294-18.22 3.352l-4.716-12.33c7.173-2.61 14.89-4.083 22.94-4.211zm-25.07 5.027 4.72 12.33c-6.796 2.762-12.95 6.782-18.15 11.79l-9.343-9.343c6.503-6.301 14.22-11.36 22.77-14.79zm55.95 1.509c7.142 3.33 13.62 7.822 19.22 13.23l-9.314 9.368c-4.457-4.283-9.6-7.853-15.25-10.52zm-29.74 8.893c30.37 0 54.96 24.59 54.96 54.95 0 30.35-24.59 54.94-54.96 54.94-14.78 0-28.17-5.828-38.05-15.3l38.85-38.84-1.606-1.604-38.85 38.84c-9.478-9.872-15.31-23.26-15.31-38.03 0-30.36 24.6-54.95 54.97-54.95zm50.57 5.946c6.315 6.514 11.38 14.24 14.81 22.8l-12.34 4.717c-2.76-6.8-6.789-12.95-11.8-18.15zm-101.2 0.04527 9.351 9.349c-4.277 4.455-7.865 9.579-10.53 15.23l-12.09-5.395c3.333-7.135 7.854-13.59 13.26-19.18zm-311.5 11.59-21.88 5.385 6.69 6.89-697.5 697.2c-14.36-14.53-34.29-23.54-56.31-23.54-43.72 0-79.19 35.46-79.19 79.17 0 22.01 9.025 41.94 23.56 56.3l-60.74 60.73c-7.752-7.346-18.22-11.86-29.73-11.86-23.86 0-43.25 19.37-43.25 43.24 0 11.51 4.513 21.96 11.86 29.73l-53.79 53.78v-459.8l-2.338 0.0781v24.54h-22.21v2.338h22.21v32.72h-22.21v2.338h22.21v30.38h-22.21v2.338h22.21v30.38h-22.21v2.336h22.21v30.38h-22.21v2.338h22.21v32.72h-22.21v2.338h22.21v30.38h-22.21v2.338h22.21v30.38h-22.21v2.334h22.21v30.38h-22.21v2.338h22.21v30.38h-22.21v2.338h22.21v32.72h-22.21v2.338h22.21v30.38h-22.21v2.334h22.21v30.38h-22.21v2.338h22.21v30.38h-22.21v2.338h22.21v2.825l-87.4 87.38c-22.98-22.58-54.47-36.51-89.23-36.51-34.75 0-66.25 13.94-89.23 36.51l-28.63-28.62c2.069-2.443 3.321-5.6 3.321-9.051 0-7.745-6.282-14.02-14.03-14.02-7.747 0-14.02 6.276-14.02 14.02 0 7.742 6.277 14.02 14.02 14.02 3.452 0 6.609-1.253 9.053-3.323l28.63 28.62c-22.58 22.98-36.52 54.48-36.52 89.21 0 70.32 57.05 127.4 127.4 127.4 34.75 0 66.23-13.94 89.23-36.51l1.106 1.106 1.653-1.653-1.106-1.106c22.56-22.98 36.52-54.46 36.52-89.21 0-34.74-13.94-66.24-36.52-89.21l85.75-85.73v24.26h-22.21v2.336h22.21v30.37h-22.21v2.34h22.21v32.72h-22.21v2.338h22.21v30.38h-22.21v2.338h22.21v30.38h-22.21v2.334h22.21v30.38h-22.21v2.338h22.21v30.38h-22.21v2.338h22.21v30.38h-22.21v2.334h22.21v32.72h-22.21v2.336h22.21v30.38h-22.21v2.338h22.21v30.37h-22.21v2.34h22.21v38.56h2.338v-399.3l55.44-55.43c7.752 7.346 18.21 11.87 29.73 11.87 11.51 0 21.98-4.516 29.73-11.86l74.98 74.97h176.5v-2.338h-175.7l-74.3-74.28c7.347-7.751 11.86-18.21 11.86-29.73 0-11.51-4.515-21.98-11.86-29.73l68-67.99c12.29 11.33 28.7 18.25 46.72 18.25 38.06 0 68.95-30.88 68.95-68.93 0-18.02-6.927-34.42-18.25-46.71l386.3-386.1 101.8 101.8h168.3v10.19l19.62-11.33-19.62-11.33v10.19h-167.4l-101.1-101.1 316.9-316.8 7.346 7.569zm297.3 9.664 12.09 5.397c-2.767 6.526-4.37 13.67-4.516 21.16h-13.21c0.1499-9.42 2.137-18.38 5.635-26.56zm131 3.617c2.61 7.171 4.07 14.9 4.198 22.94h-13.2c-0.1243-6.387-1.286-12.52-3.342-18.22zm-136.6 25.21h13.21c0.1243 6.381 1.311 12.5 3.364 18.21l-12.34 4.715c-2.607-7.171-4.1-14.88-4.228-22.92zm127.6 0h13.19c-0.1499 9.422-2.131 18.39-5.631 26.56l-12.06-5.387c2.77-6.525 4.347-13.68 4.494-21.17zm-110.2 20.33c2.758 6.8 6.789 12.94 11.79 18.15l-9.339 9.337c-6.303-6.508-11.36-14.22-14.79-22.78zm-302.7 1.121c-30.24 0-54.77 24.53-54.77 54.75 0 30.22 24.53 54.74 54.77 54.74s54.77-24.52 54.77-54.74c0-30.22-24.53-54.75-54.77-54.75zm407.5 1.793 12.06 5.383c-3.337 7.141-7.836 13.63-13.26 19.22l-9.333-9.36c4.285-4.454 7.859-9.594 10.53-15.24zm-406.4 0.5058c6.814 0.1452 13.32 1.572 19.25 4.073l-3.811 8.527c-4.774-1.989-9.984-3.136-15.44-3.278zm-2.275 0.0021v9.323c-4.621 0.1198-9.058 0.9593-13.21 2.422l-3.332-8.716c5.184-1.852 10.75-2.905 16.54-3.029zm-18.66 3.837 3.336 8.716c-4.941 2.041-9.418 4.975-13.24 8.595l-6.602-6.598c4.74-4.538 10.32-8.194 16.5-10.71zm42.26 1.168c5.127 2.428 9.789 5.667 13.84 9.545l-6.599 6.604c-3.247-3.081-6.968-5.669-11.05-7.626zm-22.46 6.557c22.6 0 40.9 18.29 40.9 40.89 0 22.59-18.29 40.89-40.9 40.89-22.6 0-40.9-18.29-40.9-40.89 0-22.6 18.29-40.89 40.9-40.89zm37.89 4.591c4.541 4.739 8.196 10.32 10.71 16.5l-8.714 3.327c-2.043-4.94-4.978-9.41-8.6-13.23zm-75.8 4e-3 6.597 6.596c-3.082 3.246-5.673 6.964-7.63 11.05l-8.516-3.806c2.429-5.125 5.668-9.785 9.549-13.84zm354 0.183c4.452 4.284 9.594 7.853 15.25 10.52l-5.392 12.06c-7.136-3.334-13.62-7.834-19.2-13.25zm79.27 2e-3 9.332 9.356c-6.503 6.295-14.22 11.34-22.77 14.77l-4.726-12.34c6.802-2.758 12.95-6.782 18.16-11.79zm-61.93 11.45c6.528 2.77 13.68 4.352 21.18 4.499v13.2c-9.424-0.1498-18.4-2.143-26.57-5.644zm41.69 1.156v2e-3l4.724 12.34c-7.179 2.61-14.9 4.071-22.95 4.199v-13.2c6.388-0.1248 12.52-1.289 18.23-3.343zm-423.5 3.117 8.531 3.812c-1.989 4.772-3.138 9.982-3.28 15.44h-9.32c0.1451-6.812 1.571-13.32 4.074-19.25zm97.83 2.714c1.852 5.182 2.906 10.74 3.029 16.53h-9.326c-0.1199-4.616-0.9623-9.05-2.425-13.2zm-6.299 18.8v2e-3h9.326c-0.1446 6.812-1.575 13.31-4.078 19.24l-8.529-3.808c1.99-4.774 3.137-9.982 3.278-15.44zm-95.64 4e-3h9.32c0.1197 4.618 0.9637 9.058 2.427 13.21l-8.724 3.327c-1.851-5.181-2.902-10.74-3.025-16.53zm317.3 14.02 37.95 37.93h-75.86zm-304.7 1.301c2.042 4.939 4.976 9.416 8.602 13.23l-6.602 6.598c-4.542-4.739-8.2-10.32-10.72-16.5zm78.84 2.182v6e-3l8.524 3.808c-2.43 5.126-5.675 9.785-9.553 13.83l-6.6-6.598c3.082-3.246 5.671-6.964 7.628-11.05zm-9.248 12.65 0.01 6e-3 6.599 6.6c-4.74 4.539-10.33 8.198-16.51 10.71l-3.33-8.716c4.94-2.042 9.418-4.979 13.23-8.601zm-59.39 0.0105c3.247 3.081 6.966 5.666 11.05 7.626l-3.807 8.517c-5.127-2.429-9.795-5.667-13.84-9.543zm13.12 8.552c4.774 1.989 9.984 3.136 15.44 3.278v9.325c-6.82-0.1449-13.32-1.571-19.26-4.073zm30.92 0.8554v4e-3l3.33 8.716c-5.183 1.851-10.75 2.899-16.54 3.023v-9.325c4.618-0.1201 9.06-0.9558 13.21-2.418zm450.4 12.56v110.2h2.272v-110.2zm17.5 0v110.2h2.272v-110.2zm17.5 0v110.2h2.274v-110.2zm17.49 0v110.2h2.274v-110.2zm17.5 0v110.2h2.272v-110.2zm17.5 0v110.2h2.272v-110.2zm17.5 0v110.2h2.274v-110.2zm-352.7 2.097h4.313l-4.313 4.312zm91.19 0h5.462v5.459zm56.43 17.12h0.011c10.9 0 20.79 4.256 28.12 11.19l-1.16 1.158c-7.039-6.642-16.52-10.72-26.96-10.72-10.43 0-19.92 4.08-26.96 10.72l-1.158-1.158c7.331-6.934 17.22-11.19 28.11-11.19zm0.011 3.896c9.819 0 18.74 3.817 25.36 10.05l-25.36 25.35-25.36-25.35c6.625-6.228 15.54-10.05 25.36-10.05zm-93.02 1.197v11.35c-13.04 0.5791-23.54 11.06-24.12 24.1h-11.35v2.27h11.35c0.5793 13.04 11.07 23.53 24.12 24.11v11.35h2.274v-11.35c13.04-0.5793 23.53-11.07 24.11-24.11h11.36v-2.27h-11.36c-0.578-13.04-11.07-23.53-24.11-24.1v-11.35zm63.33 7.694v6e-3l1.158 1.158c-6.649 7.037-10.73 16.52-10.73 26.95s4.083 19.91 10.73 26.95l-1.158 1.158c-6.935-7.329-11.19-17.21-11.19-28.11s4.26-20.78 11.19-28.11zm59.45 6e-3c6.935 7.329 11.19 17.22 11.19 28.11 0 22.6-18.3 40.9-40.92 40.9-10.9 0-20.79-4.256-28.11-11.19l1.158-1.16c7.039 6.642 16.52 10.73 26.96 10.73 21.69 0 39.3-17.6 39.3-39.28 0-10.43-4.09-19.91-10.73-26.95zm-56.69 2.755 25.36 25.35-25.36 25.36c-6.23-6.624-10.06-15.53-10.06-25.35 0-9.817 3.826-18.73 10.06-25.36zm53.94 0c6.23 6.624 10.06 15.54 10.06 25.36 0 20.46-16.56 37.01-37.02 37.01-9.819 0-18.74-3.825-25.36-10.05zm-120 3.164c0.017-6.1e-4 0.034 6.1e-4 0.049 0v4.748c-9.174 0.5663-16.53 7.918-17.09 17.08h-4.751c0.5717-11.79 10-21.23 21.79-21.83zm2.324 0c11.81 0.5738 21.26 10.02 21.84 21.83h-4.747c-0.5648-9.166-7.922-16.53-17.09-17.09zm-2.272 7.024v14.81h-14.82c0.5544-7.938 6.876-14.25 14.82-14.81zm2.272 0c7.939 0.5552 14.26 6.875 14.81 14.81h-14.81zm-112.9 0.7299h16.77l-3.416 3.413h-13.36zm19.99 0h35.37v3.413h-38.78zm-19.99 5.685h11.08l-3.724 3.724h-7.36zm14.3 0h41.06v3.724h-44.78zm-14.3 5.996h5.09l-3.724 3.724h-1.366zm8.298 0h47.06v3.724h-50.78zm-70.57 2.831c16.31 0 29.51 13.19 29.51 29.5 0 2.106-0.2335 4.156-0.6519 6.138l-15.14 15.13c-3.347-2.56-8.158-2.316-11.22 0.7443-2.039 2.038-2.829 4.85-2.375 7.489-0.041 1.7e-4 -0.082 2e-3 -0.1233 2e-3 -16.31 0-29.51-13.2-29.51-29.51 0-7.743 3.002-14.76 7.873-20.02l20.83 20.83 1.606-1.608-20.83-20.83c5.262-4.871 12.28-7.871 20.03-7.871zm151.1 1.834v2e-3h4.749c0.5653 9.172 7.922 16.52 17.1 17.09v4.748c-11.81-0.5722-21.27-10.02-21.85-21.84zm7.029 2e-3h14.82v14.81c-7.939-0.5559-14.27-6.873-14.82-14.81zm17.09 0h14.81c-0.5544 7.938-6.874 14.26-14.81 14.81zm17.08 0h4.758c-0.5725 11.81-10.03 21.26-21.84 21.84v-4.744c9.174-0.5651 16.52-7.92 17.09-17.09zm-127.7 1.324h53.05v3.724h-55.36v-1.417zm-2.305 5.992h55.35v3.724h-55.35zm0 5.996h55.35v3.724h-55.35zm0 5.994h55.35v3.722h-55.35zm0 5.996h55.35v3.722h-55.35zm0 5.996h55.35v3.72h-55.35zm0 5.992h55.35v3.724h-55.35zm-34.75 1.077c-2.217 5.693-6.144 10.53-11.16 13.87-0.2654-0.5953-0.6085-1.164-1.016-1.698zm34.75 4.914h55.35v3.724h-55.35zm0 5.996h55.35v1.394h-55.35zm-168.6 35.97c-27.88 0-50.51 22.62-50.51 50.49 0 27.88 22.63 50.49 50.51 50.49 27.88 2e-5 50.51-22.62 50.51-50.49 0-27.87-22.63-50.49-50.51-50.49zm0 2.268c26.65 0 48.24 21.58 48.24 48.22 0 26.65-21.59 48.22-48.24 48.22-26.65 0-48.24-21.57-48.24-48.22 0-26.65 21.58-48.22 48.24-48.22zm40.05 6.46v2e-3zm0 2e-3 -1.176 1.23c10.67 10.22 17.31 24.61 17.31 40.54 0 31.03-25.15 56.16-56.19 56.16-15.94 0-30.32-6.636-40.55-17.3l-1.236 1.176c10.54 10.98 25.38 17.83 41.78 17.83 31.96 0 57.89-25.92 57.89-57.87 0-16.4-6.842-31.23-17.83-41.77zm-40.05 10.84c-17.07 0-30.93 13.86-30.93 30.92s13.86 30.92 30.93 30.92c17.07 2e-5 30.94-13.86 30.94-30.92s-13.87-30.92-30.94-30.92zm0 2.27c15.84 0 28.66 12.82 28.66 28.65h-57.32c0-15.83 12.82-28.65 28.66-28.65zm-1340 224.9v175.3h210.4v-175.3zm561 1.223v34.28h2.336v-34.28zm13.48 0v34.28h2.34v-34.28zm13.49 0v34.28h2.336v-34.28zm13.48 0v34.28h2.34v-34.28zm13.48 0v34.28h2.338v-34.28zm13.48 0v34.28h2.336v-34.28zm13.48 0v34.28h2.34v-34.28zm-639.6 1.112h8.666v170.6h-8.666zm11 0h15.66v170.6h-15.66zm18.01 0h15.66v170.6h-15.66zm18 0h15.66v170.6h-15.66zm18.01 0h15.66v170.6h-15.66zm18.01 0h15.66v170.6h-15.66zm18 0h15.66v170.6h-15.66zm18.01 0h15.66v170.6h-15.66zm17.99 0h15.66v170.6h-15.66zm18 0h15.66v170.6h-15.66zm18.01 0h15.66v170.6h-15.66zm18.01 0h14.73v170.6h-14.73zm173.6 32.72v158.9h72.46v-158.9zm2.336 2.334h9.347v23.75h-9.347zm11.69 0h9.351v23.75h-9.351zm11.69 0h9.351v23.75h-9.351zm11.69 0h9.349v23.75h-9.349zm11.69 0h9.351v23.75h-9.351zm11.69 0h9.355v23.75h-9.355zm-58.43 26.1h9.349v23.77h-9.349zm11.69 0h9.351v23.77h-9.351zm11.69 0h9.351v23.77h-9.351zm11.69 0h9.347v23.77h-9.347zm11.69 0h9.349v23.77h-9.349zm11.69 0h9.355v23.77h-9.355zm-58.43 26.1h9.347v23.75h-9.347zm11.69 0h9.351v23.75h-9.351zm11.69 0h9.351v23.75h-9.351zm11.69 0h9.347v23.75h-9.347zm11.69 0h9.351v23.75h-9.351zm11.69 0h9.353v23.75h-9.353zm-58.43 26.1h9.347v23.75h-9.347zm11.69 0h9.351v23.75h-9.351zm11.69 0h9.351v23.75h-9.351zm11.69 0h9.347v23.75h-9.347zm11.69 0h9.351v23.75h-9.351zm11.69 0h9.355v23.75h-9.355zm144.9 10.11-0.0105 0.0105c21.55 0 41.02 8.823 55.06 23.03l-5.98 5.979c-12.51-12.68-29.87-20.54-49.09-20.54-38.08 0-68.95 30.88-68.95 68.93 0 19.21 7.87 36.58 20.55 49.08l-5.983 5.979c-14.22-14.04-23.04-33.51-23.04-55.05 0-42.77 34.66-77.42 77.43-77.42zm-0.0105 10.82c18.58 0 35.36 7.6 47.44 19.86l-17.37 17.36c-7.64-7.816-18.28-12.67-30.08-12.67-23.23 0-42.07 18.84-42.07 42.06 0 11.78 4.861 22.44 12.68 30.08l-17.37 17.36c-12.25-12.08-19.86-28.87-19.86-47.43 0-36.81 29.8-66.61 66.62-66.61zm-203.3 5.173h9.349v23.75h-9.349zm11.69 0h9.351v23.75h-9.351zm11.69 0h9.351v23.75h-9.351zm11.69 0h9.347v23.75h-9.347zm11.69 0h9.351v23.75h-9.351zm11.69 0h9.355v23.75h-9.355zm193.9 16.37c10.9 11.86 17.57 27.68 17.57 45.06 0 36.79-29.82 66.6-66.62 66.6-17.39 0-33.2-6.658-45.07-17.56l17.39-17.39c7.402 6.475 17.08 10.41 27.68 10.41 23.23 0 42.08-18.84 42.08-42.07 0-10.6-3.934-20.28-10.41-27.68zm-252.3 9.732h9.347v23.77h-9.347zm11.69 0h9.349v23.77h-9.349zm11.69 0h9.351v23.77h-9.351zm11.69 0h9.347v23.77h-9.347zm11.69 0h9.351v23.77h-9.351zm11.69 0h9.353v23.77h-9.353zm245.5 18.26-20.18 11.65 20.18 11.65zm-140.4 17.07h40.42l-28.44 28.43c-7.391-7.213-11.98-17.28-11.98-28.43zm43.71 0h35.75c0 21.96-17.78 39.74-39.74 39.74-9.965 0-19.06-3.669-26.03-9.717zm-417.6 26.93v36.25c-39.72 0.6208-71.81 32.71-72.44 72.42h-36.25v2.334h36.25c0.6209 39.72 32.71 71.79 72.44 72.42v36.25h2.336v-36.25c39.73-0.6209 71.8-32.71 72.44-72.42h36.25v-2.334h-36.25c-0.621-39.72-32.71-71.79-72.44-72.42v-36.25zm0 38.59v18.7c-28.1 0.6152-50.79 23.29-51.4 51.39h-18.71c0.6192-38.46 31.64-69.46 70.09-70.07zm2.336 0c38.46 0.6192 69.47 31.64 70.09 70.08h-18.7c-0.6152-28.1-23.3-50.78-51.4-51.39zm-2.336 21.03v49.04h-49.05c0.6127-26.83 22.21-48.43 49.05-49.04zm2.336 0c26.84 0.6134 48.44 22.21 49.05 49.04h-49.05zm265.2 20.94 2e-3 2e-3c10.88 0 20.76 4.245 28.08 11.16l-57.82 57.81c-6.921-7.325-11.17-17.2-11.17-28.08 0-22.59 18.3-40.89 40.9-40.89zm29.73 12.82c6.921 7.325 11.17 17.2 11.17 28.08 0 10.88-4.252 20.75-11.17 28.08l-28.08-28.08zm-367.4 17.62h18.71c0.6153 28.1 23.3 50.78 51.4 51.39v18.7c-38.46-0.6193-69.47-31.64-70.09-70.08zm21.04 0h49.05v49.04c-26.84-0.6126-48.44-22.21-49.05-49.04zm51.39 0h49.05c-0.6127 26.83-22.21 48.43-49.05 49.04zm51.42 0h18.69c-0.6192 38.46-31.64 69.46-70.09 70.07v-18.7c28.1-0.6151 50.78-23.29 51.4-51.37zm213.8 12.11 28.08 28.08c-7.324 6.918-17.2 11.17-28.08 11.17-10.88 0-20.76-4.249-28.08-11.17zm-264.2 137.4h6e-3c34.12 0 65.02 13.67 87.58 35.81l-6.622 6.621c-20.88-20.45-49.44-33.08-80.96-33.08-31.52 0-60.1 12.63-80.98 33.08l-6.62-6.621c22.56-22.14 53.47-35.81 87.58-35.81zm6e-3 11.68c30.89 0 58.87 12.36 79.33 32.39l-79.33 79.31-79.33-79.31c20.44-20.03 48.44-32.39 79.33-32.39zm3.973 18.77-0.0946 2.334c3.075 0.1241 6.144 0.4041 9.191 0.8368l0.329-2.313c-3.123-0.4437-6.272-0.73-9.425-0.8575zm-9.456 0.076c-3.15 0.1767-6.296 0.514-9.413 1.01l0.3702 2.303c3.038-0.483 6.101-0.8064 9.172-0.9787zm28.17 2.58-0.5532 2.266c2.989 0.7337 5.935 1.62 8.833 2.654l0.7876-2.202c-2.973-1.061-6.003-1.964-9.067-2.718zm-46.84 0.3701c-3.054 0.8-6.068 1.757-9.022 2.866l0.8226 2.19c2.88-1.081 5.817-2.014 8.794-2.794zm-65.08 3.968 6.622 6.621c-20.46 20.88-33.08 49.43-33.08 80.96 0 63.87 51.82 115.7 115.7 115.7 31.52 0 60.09-12.63 80.96-33.08l6.618 6.617c-22.56 22.14-53.47 35.81-87.58 35.81-69.07 0-125-55.97-125-125 0-34.11 13.67-65.01 35.81-87.57zm178.5 0c22.14 22.56 35.81 53.46 35.81 87.57 0 34.11-13.67 65.01-35.81 87.57l-6.618-6.617c20.46-20.88 33.08-49.43 33.08-80.94 0-31.51-12.63-60.08-33.1-80.94zm-48.74 1.99-0.9933 2.116c2.78 1.314 5.491 2.771 8.125 4.361l1.209-2.001c-2.702-1.631-5.487-3.129-8.341-4.478zm-82.36 0.6601c-2.831 1.395-5.586 2.94-8.261 4.612l1.236 1.982c2.609-1.632 5.304-3.132 8.064-4.491zm-39.11 5.609 160.3 160.3c-20.44 20.03-48.44 32.39-79.33 32.39-62.62 0-113.4-50.73-113.4-113.4 0-30.88 12.36-58.88 32.4-79.31zm162 0c20.02 20.44 32.4 48.43 32.4 79.31s-12.36 58.86-32.4 79.31l-79.33-79.31zm-24.3 3.495-1.401 1.869c2.465 1.846 4.84 3.81 7.105 5.891l1.579-1.721c-2.325-2.137-4.758-4.149-7.282-6.039zm-114.6 0.915c-2.498 1.928-4.9 3.987-7.192 6.158l1.614 1.692c2.233-2.117 4.574-4.121 7.009-6.002zm128.5 11.86-1.738 1.556c2.051 2.291 3.987 4.693 5.799 7.18l1.89-1.38c-1.858-2.548-3.844-5.006-5.952-7.357zm-142.2 1.133c-2.063 2.386-4.016 4.874-5.83 7.456l1.915 1.341c1.769-2.517 3.67-4.943 5.684-7.271zm153.4 14.14-2.015 1.184c1.557 2.654 2.979 5.386 4.259 8.184l2.126-0.9726c-1.312-2.871-2.771-5.673-4.368-8.395zm-164.2 1.312c-1.555 2.746-2.969 5.573-4.236 8.461l2.141 0.9418c1.236-2.818 2.613-5.577 4.13-8.254zm172.1 15.87-2.211 0.7568c0.9958 2.91 1.837 5.873 2.532 8.87l2.281-0.5243c-0.713-3.074-1.581-6.116-2.602-9.1zm-179.7 1.437c-0.9717 3.002-1.788 6.051-2.449 9.138l2.281 0.4894c0.6451-3.008 1.445-5.984 2.392-8.912zm183.9 16.98-2.318 0.294c0.3927 3.052 0.6308 6.125 0.7157 9.199l2.34-0.065c-0.0876-3.155-0.3356-6.299-0.7383-9.427zm-187.9 1.495c-0.3545 3.136-0.5496 6.293-0.5902 9.446l2.338 0.033c0.04031-3.078 0.2282-6.157 0.5738-9.214zm186.2 17.23c-0.212 3.069-0.5773 6.13-1.1 9.162l2.301 0.3969c0.5366-3.109 0.9117-6.245 1.129-9.393zm-184.1 1.468-2.336 0.2035c0.2684 3.144 0.6976 6.274 1.283 9.376l2.299-0.4338c-0.571-3.022-0.9844-6.078-1.246-9.144zm180.9 16.7c-0.8187 2.964-1.794 5.888-2.912 8.753l2.176 0.8492c1.147-2.939 2.146-5.941 2.986-8.983zm-177.6 1.417-2.238 0.6579c0.8897 3.029 1.936 6.006 3.126 8.928l2.161-0.8801c-1.162-2.85-2.184-5.754-3.05-8.706zm170.9 15.76c-1.397 2.741-2.929 5.411-4.596 7.996l1.962 1.264c1.709-2.652 3.29-5.393 4.722-8.204zm-163.9 1.306-2.067 1.094c1.478 2.787 3.094 5.502 4.847 8.128l1.945-1.297c-1.709-2.557-3.285-5.206-4.726-7.924zm153.9 14.19c-1.911 2.41-3.95 4.722-6.094 6.927l1.674 1.631c2.2-2.261 4.292-4.631 6.252-7.104zm-143.7 1.149-1.808 1.478c2.002 2.44 4.124 4.779 6.359 7.005l1.653-1.657c-2.181-2.172-4.253-4.446-6.205-6.826zm130.9 12.07c-2.353 1.984-4.802 3.85-7.342 5.586l1.318 1.933c2.605-1.781 5.117-3.698 7.529-5.732zm-117.8 0.9416-1.479 1.807c2.444 1.998 4.988 3.873 7.622 5.613l1.287-1.947c-2.567-1.697-5.05-3.526-7.43-5.474zm102.6 9.475c-2.696 1.479-5.475 2.821-8.308 4.022l0.9131 2.151c2.905-1.23 5.752-2.603 8.518-4.123zm-87.23 0.6991-1.092 2.066c2.791 1.47 5.654 2.805 8.582 3.985l0.8761-2.167c-2.852-1.15-5.644-2.45-8.366-3.884zm70.25 6.485c-2.94 0.9094-5.923 1.668-8.94 2.274l0.4607 2.29c3.094-0.6211 6.159-1.399 9.172-2.332zm-53.17 0.4235h-2e-3l-0.656 2.239c3.029 0.8859 6.109 1.615 9.213 2.186l0.4216-2.297c-3.026-0.5564-6.025-1.267-8.977-2.13zm35.1 3.22c-3.061 0.306-6.137 0.4538-9.217 0.4544-2.588 0-5.174-0.1065-7.749-0.3248l-0.2015 2.336c2.644 0.2245 5.302 0.3278 7.951 0.329 3.154 0 6.31-0.1519 9.452-0.4666z"/></svg>
