<svg version="1.1" viewBox="0 0 1920 958" xmlns="http://www.w3.org/2000/svg"><g><path d="m930.8 0c-54.55 0-107.2 19.72-148.3 55.55-2.384 2.089-4.767 4.25-6.707 6.141-1.263 1.108-2.463 2.289-3.627 3.453-2.441 2.371-4.734 4.809-7.027 7.258-2.123 2.266-4.192 4.617-6.386 7.144-1.848 2.202-3.678 4.489-5.187 6.451-1.298 1.539-2.514 3.15-3.565 4.632-3.041 4.009-5.828 7.968-8.319 11.79h-14.49v-39.56c0-6.719-5.498-12.18-12.26-12.18h-19.36c0.7268-3.07 1.001-5.326 1.064-5.862l1.529-13.29-13.17 2.275c-17.69 3.07-25.22 10.23-28.25 16.87h-40.8c-6.758 0-12.26 5.46-12.26 12.18v16.2c-5.721-1.68-10.36-2.258-11.25-2.357l-13.27-1.489 2.304 13.17c4.12 23.53 13.82 32.33 22.22 35.34v84.42h-75.66c-6.039-13.03-24.01-18.71-35.58-20.05l-13.33-1.54 2.325 13.21c3.958 22.47 12.97 31.49 21.08 34.87v145.5c0 0.734 0.069 1.462 0.1963 2.161l-4.878 4.869 14.95 5.293c3.033 1.073 6.056 1.613 8.99 1.613 2.949 0 5.796-0.5335 8.484-1.592l31.87 0.1445v87.75h-28.66c2.349-15.19-0.172-28.9-7.544-40.91-18.31-29.79-60.06-36.89-61.83-37.18l-5.136-0.8271-275.9 283.2-2.852 3.443c-17.26 16.9-25.66 43.27-22.05 70.24 2.145 15.72 8.274 30.47 17.52 42.39l-74.58 83.21h156.6c-7.443 18.87 19.85 22.74 29.21 0h232.6l-16.72 49.38c-7.073 19.61 17.73 22.21 23.06 8.147l19.5-57.52h209.6l10.26 64.31c3.354 16.03 26.47 10.5 24.23-3.67l-9.662-60.64h214.1l2.625 6.575c5.299 13.83 25.52 9.027 23.46-6.575h66.76c2.025 1.468 4.506 2.305 7.13 2.305 2.959 0.042 5.275-0.7474 7.11-2.305h761.4l-403.2-403.4v-210.5h-60.42v64.91l-34.84-34.87v31.06l-37.32-37.33v37.54l-39.01-39.03v35.14l-33.66-33.65v180.3c-0.6302-6.691-5.056-11.98-11.54-13.83l-7.864-73.25 3.348-1.437-8.091-47.28-8.794-2.719c-2.328-0.6917-4.723-1.403-7.058-2.285 0 0-49.19-18.67-71.83-27.27 9.686-25.43 14.58-52.28 14.58-79.97 0-31.51-6.305-61.93-18.76-90.4-16.51-37.75-43.05-70.33-76.75-94.22-38.29-27.1-83.38-41.43-130.4-41.43zm-868.6 239.2 2.325 13.2c11.39 64.97 39.39 78.6 60.89 78.6 6.991 0 12.85-1.565 16.52-2.884l1.075-0.3928 4.237 4.27 2.356-6.627 7.172-2.564-4.609-4.632 0.4032-1.127c5.157-14.5 4.062-28.32-3.183-39.96-18.15-29.16-68.23-35.7-73.88-36.36zm1796 0-13.31 1.53c-5.644 0.6564-55.72 7.205-73.88 36.36-7.245 11.64-8.34 25.46-3.183 39.96l0.4021 1.127-4.609 4.632 7.161 2.564 2.366 6.627 4.247-4.259 1.064 0.3827c3.675 1.32 9.533 2.89 16.52 2.884 17.59 0 48.9-10.21 60.9-78.6zm-1781 206.8c-31.26 0-65.19 26.66-66.62 27.8l-10.49 8.333 10.95 7.692c24.58 17.26 46.35 26 64.69 26v0.0106c27.77 0 39.68-19.07 43.52-27.27l0.4651-0.9925h6.107l-3.079-6.472 3.152-6.751-6.366-0.0212-0.5169-1.075c-8.472-17.83-22.94-27.25-41.81-27.25zm1767 2.502c-27.77 0-39.68 19.07-43.52 27.27l-0.4657 0.9925-6.107-0.0106 3.079 6.482-3.152 6.751 6.366 0.0106 0.5186 1.086c8.472 17.83 22.94 27.24 41.81 27.24 31.26 0 65.19-26.65 66.62-27.79l10.5-8.333-10.96-7.702c-24.58-17.26-46.35-26-64.69-26zm-590.4 28.79v3.102h-0.4655c0.2962-0.9758 0.3544-2.052 0.4655-3.102zm-1107 154.9-4.299 4.342-1.013-0.3621c-3.675-1.32-9.533-2.884-16.52-2.884-17.59 0-48.9 10.21-60.9 78.6l-2.304 13.2 13.3-1.53c5.644-0.6493 55.7-7.201 73.87-36.37 7.259-11.65 8.357-25.48 3.193-40.02l-0.3825-1.075 4.588-4.611-7.13-2.554zm1625 0-2.398 6.751-7.13 2.543 4.588 4.601-0.3809 1.086c-5.164 14.53-4.066 28.38 3.193 40.03 18.17 29.16 68.22 35.7 73.87 36.36l13.3 1.53-2.315-13.2c-11.39-64.97-39.39-78.6-60.89-78.6-6.984 0-12.84 1.565-16.52 2.884l-1.003 0.3621z" fill="#fff"/><path d="m926.8 10.19c-48.62 0.9681-96.95 17.78-134.2 49.83-65.88 53.39-93.85 147.5-68.61 228.3 24.55 85.52 106.7 150.1 195.6 153.4 5.596 10.22 11.19 20.43 16.79 30.65 4.55-8.306 9.091-16.61 13.64-24.92 10.03-15.43 37.1-7.022 52.51-17.68 84.7-28.59 145.4-114.4 144.1-203.8 0.6158-71.89-37.56-142.1-97.98-181-35.9-24.21-79.02-35.69-121.9-34.83zm-72.84 122c36.32 1.633 68.98 20.61 98.41 40.42 34.08 23.57 64.39 52.12 93.3 81.66 6.524 7.366 13.74 18.45 8.402 28.4-5.164 13.61-27.08 1.414-29.66 5.94 4.37 14.62-11.06 27.35-24.88 25.02-7.987-2.62-9.901-2.093-7.908 6.7 4.07 14.71-16.11 11.09-20.5 13.31 2.28 12.6-15.9 11.92-24.53 11.86-29.28-2.22-51.08-24.81-68.99-45.94-25.71-32.17-62.84-51.97-91.27-81.3-5.17-10.19 7.633-18.91 11.88-27.66 15.78-21.91 34.58-41.65 55.75-58.41zm343.6 358.2-730 2e-3 -196.3 218.9c5.903 9.232 10.03 20.21 11.66 32.28 5.093 37.87-16.47 72.03-48.17 76.3-16.92 2.276-33.31-4.441-45.69-16.95l-65.55 73.08h152.8l164.8-216.2c0.4233-0.5575 1.089-0.8774 1.787-0.8774h67.61l30.04-44.57c0.4164-0.6211 1.112-0.9927 1.859-0.9927h80.19l6.512-19.19c1.016-2.999 2.449-5.749 4.061-8.363h-12.64c-1.241 0-2.252-1.013-2.252-2.255 0-1.242 1.011-2.253 2.252-2.253h13.5c0.6693 0 1.232 0.3199 1.643 0.7855 7.675-9.866 19.56-15.97 32.56-15.97h15.13c12.98 0 24.6 5.946 32.21 15.44 0.9135 0.2848 1.654 0.9943 1.654 2.005 0 0.097-0.0911 0.1545-0.1035 0.2482 3.483 4.994 6.027 10.73 7.047 17.13l1.984 12.43h115.3c1.009 0 1.895 0.6666 2.17 1.634l12.59 43.93h296.7c1.457-0.9938 2.886-1.997 4.566-2.915 0.4101-0.2249 0.8611-0.3192 1.293-0.2794 0.7199 0.066 1.395 0.4802 1.766 1.169 0.3713 0.6729 0.2537 1.388-0.07 2.026h31.22c0.5132 0 1.014 0.1787 1.416 0.4963l49.47 40.27c0.7408 0.6 1.028 1.598 0.7032 2.501-0.3175 0.8963-1.167 1.489-2.119 1.489h-68.07c0.2243 0.4968 0.2999 1.067 0.1131 1.624-0.312 0.9458-1.191 1.54-2.129 1.54-0.2328 1e-4 -0.4802-0.0357-0.7128-0.1133-2.762-0.9198-5.335-1.955-7.791-3.05h-165.1l55.06 95.86h378.8c0.7736-3.49 5.094-6.44 11.12-7.939l-80.11-97.88-62.6 40.21c-0.3758 0.2398-0.8024 0.3615-1.219 0.3615-0.7339 0-1.451-0.3701-1.881-1.034-0.6703-1.045-0.3811-2.433 0.6718-3.111l62.17-39.93-126-153.9c-0.9562 0.0939-1.949 0.1586-2.893 0.2579-0.085 5e-3 -0.1653 0.0215-0.25 0.0215v-0.01c-1.129 0-2.11-0.8493-2.23-2.007-0.1242-1.214 0.7453-2.282 1.953-2.441zm5.807 2e-3 32.08 39.18c2.714-0.253 5.406-0.5258 8.154-0.7347 1.262-0.0915 2.326 0.844 2.418 2.079 0.09 1.242-0.837 2.316-2.078 2.407-1.703 0.1282-3.358 0.3095-5.053 0.4553l124.4 151.9 13.53-8.684c-7.411-3.946-11.96-8.838-11.96-14.54 0-16.09 36.12-25.73 71.28-25.86l78.17-50.29c1.044-0.6701 2.442-0.3624 3.111 0.682 0.6773 1.045 0.3736 2.438-0.6719 3.101l-72.65 46.73c32.93 1.225 64.68 10.55 64.68 25.63 0 16.2-36.59 25.88-71.96 25.88-20.43 0-41.25-3.242-55.2-9.088l-15.47 9.936 81.4 99.45c1.26-0.1229 2.562-0.1856 3.895-0.1856 11.17 0 20.23 4.542 20.23 10.13 0 5.59-9.06 10.13-20.23 10.13-8.818 0-16.31-2.828-19.09-6.763h-377.2l40.7 70.88c0.2027 0.3509 0.1433 0.7368 0.1445 1.116h742.3l-383.4-383.6zm99.62 29.25c11.18 0 20.23 4.532 20.23 10.12 6e-4 5.596-9.053 10.13-20.23 10.13-10.02 0-18.33-3.642-19.95-8.426-0.6058-0.4053-1.069-0.9952-1.064-1.778 0-0.8034 0.4815-1.384 1.115-1.778 1.739-4.705 9.986-8.272 19.9-8.272zm-32.31 7.92h0.053c1.22 0 2.214 0.9812 2.242 2.202 0 1.242-0.9525 2.278-2.201 2.306-4.48 0.0915-8.998 0.2407-13.41 0.4455h-0.1229c-1.193 0-2.186-0.9348-2.242-2.142-0.058-1.242 0.9037-2.297 2.139-2.347 4.458-0.2186 9.018-0.373 13.55-0.4651zm-54.03 4.146c1.228-0.1694 2.362 0.685 2.531 1.913 0.1694 1.228-0.6945 2.363-1.922 2.532-4.472 0.6211-8.931 1.312-13.25 2.067-0.1323 0.0212-0.2658 0.041-0.3927 0.041-1.072 0-2.021-0.776-2.211-1.87-0.2117-1.221 0.6026-2.383 1.83-2.595 4.367-0.7552 8.883-1.461 13.41-2.089zm-26.73 4.653c1.22-0.261 2.405 0.523 2.666 1.737 0.2593 1.221-0.5142 2.413-1.736 2.667-4.395 0.9387-8.78 1.961-13.04 3.048-0.1852 0.0476-0.3766 0.0723-0.5586 0.0723-1.001 0-1.916-0.6825-2.17-1.706-0.3084-1.193 0.414-2.417 1.611-2.728 4.317-1.108 8.77-2.146 13.23-3.091zm-26.31 6.74c1.185-0.36 2.448 0.3152 2.801 1.501 0.3667 1.193-0.306 2.452-1.498 2.812-4.324 1.313-8.605 2.708-12.71 4.176-0.247 0.091-0.5002 0.1348-0.7539 0.1348-0.9241 0-1.785-0.5714-2.109-1.489-0.4164-1.172 0.1915-2.458 1.355-2.874 4.176-1.489 8.521-2.926 12.92-4.26zm-23.88 9.17c0.5328 0.2179 0.9789 0.6345 1.219 1.21 0.4798 1.143-0.066 2.467-1.209 2.947-4.176 1.75-8.256 3.619-12.14 5.532-0.3174 0.1626-0.6705 0.2384-1.002 0.2384-0.8254 0-1.626-0.4622-2.014-1.253-0.5503-1.122-0.096-2.467 1.012-3.017 3.972-1.962 8.149-3.853 12.41-5.645 0.5715-0.24 1.194-0.2281 1.727-0.01zm-24.44 11.89c0.5574 0.1448 1.061 0.5071 1.375 1.043 0.6279 1.073 0.2659 2.446-0.8065 3.082-3.117 1.828-5.92 3.725-8.68 5.614 4.232 1.857 6.912 4.573 6.912 7.609 0 5.597-9.063 10.13-20.24 10.13-11.17 0-20.24-4.535-20.24-10.13 0-5.59 9.068-10.12 20.24-10.12 2.848 0 5.552 0.2954 8.01 0.8266 0.1002-0.1074 0.093-0.2728 0.2168-0.3615 3.499-2.52 7.375-5.032 11.5-7.453 0.5397-0.3176 1.158-0.3831 1.715-0.2384zm-447.1 4.414c-15.78 0-29.8 10.05-34.88 25.01l-6.014 17.74h94.25l-1.871-11.72c-0.9489-5.939-3.356-11.26-6.676-15.83h-11.56c-1.242 0-2.254-1.013-2.254-2.255 0-1.242 1.012-2.253 2.254-2.253h7.687c-6.676-6.601-15.75-10.69-25.81-10.69zm-209.6 10.69h13.49c1.249 0 2.252 1.011 2.252 2.253 0 1.242-1.003 2.255-2.252 2.255h-13.49c-1.249 0-2.252-1.013-2.252-2.255 0-1.242 1.003-2.253 2.252-2.253zm26.98 0h13.5c1.242 0 2.242 1.011 2.242 2.253 0 1.242-1.001 2.255-2.242 2.255h-13.5c-1.242 0-2.242-1.013-2.242-2.255 0-1.242 1.001-2.253 2.242-2.253zm26.99 0h13.49c1.242 0 2.244 1.011 2.244 2.253 0 1.242-1.003 2.255-2.244 2.255h-13.49c-1.249 0-2.254-1.013-2.254-2.255 0-1.242 1.005-2.253 2.254-2.253zm26.98 0h13.5c1.249 0 2.242 1.011 2.242 2.253 0 1.242-0.9935 2.255-2.242 2.255h-13.5c-1.242 0-2.242-1.013-2.242-2.255 0-1.242 1.001-2.253 2.242-2.253zm26.99 0h13.5c1.242 0 2.242 1.011 2.242 2.253 0 1.242-1 2.255-2.242 2.255h-13.5c-1.242 0-2.254-1.013-2.254-2.255 0-1.242 1.012-2.253 2.254-2.253zm26.99 0h13.48c1.242 0 2.254 1.011 2.254 2.253 0 1.242-1.012 2.255-2.254 2.255h-13.48c-1.249 0-2.254-1.013-2.254-2.255 0-1.242 1.005-2.253 2.254-2.253zm53.96 0h13.49c1.242 0 2.254 1.011 2.254 2.253 0 1.242-1.012 2.255-2.254 2.255h-13.49c-1.242 0-2.254-1.013-2.254-2.255 0-1.242 1.012-2.253 2.254-2.253zm26.98 0h13.5c1.242 0 2.252 1.011 2.252 2.253 0 1.242-1.01 2.255-2.252 2.255h-13.5c-1.235 0-2.242-1.013-2.242-2.255 0-1.242 1.008-2.253 2.242-2.253zm53.97 0h13.5c1.242 0 2.254 1.011 2.254 2.253 0 1.242-1.012 2.255-2.254 2.255h-13.5c-1.242 0-2.252-1.013-2.252-2.255 0-1.242 1.01-2.253 2.252-2.253zm26.98 0h13.5c1.242 0 2.252 1.011 2.252 2.253 0 1.242-1.01 2.255-2.252 2.255h-13.5c-1.234 0-2.242-1.013-2.242-2.255 0-1.242 1.008-2.253 2.242-2.253zm26.99 0h13.49c1.235 0 2.244 1.011 2.244 2.253 0 1.242-1.01 2.255-2.244 2.255h-13.49c-1.242 0-2.244-1.013-2.244-2.255 0-1.242 1.003-2.253 2.244-2.253zm26.99 0h13.49c1.242 0 2.252 1.011 2.252 2.253 0 1.242-1.01 2.255-2.252 2.255h-13.49c-1.242 0-2.252-1.013-2.252-2.255 0-1.242 1.01-2.253 2.252-2.253zm26.98 0h13.5c1.242 0 2.242 1.011 2.242 2.253 0 1.242-1.001 2.255-2.242 2.255h-13.5c-1.235 0-2.242-1.013-2.242-2.255 0-1.242 1.008-2.253 2.242-2.253zm26.99 0h13.49c1.242 0 2.244 1.011 2.244 2.253 0 1.242-1.003 2.255-2.244 2.255h-13.49c-1.242 0-2.254-1.013-2.254-2.255 0-1.242 1.012-2.253 2.254-2.253zm26.98 0h13.5c1.242 0 2.252 1.011 2.252 2.253 0 1.242-1.01 2.255-2.252 2.255h-13.5c-1.242 0-2.252-1.013-2.252-2.255 0-1.242 1.01-2.253 2.252-2.253zm26.99 0h13.48c1.242 0 2.254 1.011 2.254 2.253 0 1.242-1.012 2.255-2.254 2.255h-13.48c-1.242 0-2.254-1.013-2.254-2.255 0-1.242 1.012-2.253 2.254-2.253zm26.98 0h13.5c1.242 0 2.254 1.011 2.254 2.253 0 1.242-1.012 2.255-2.254 2.255h-13.5c-1.242 0-2.252-1.013-2.252-2.255 0-1.242 1.01-2.253 2.252-2.253zm26.98 0h13.5c1.242 0 2.252 1.011 2.252 2.253 0 1.242-1.01 2.255-2.252 2.255h-13.5c-1.242 0-2.242-1.013-2.242-2.255 0-1.242 1.001-2.253 2.242-2.253zm26.99 0h13.48c1.242 0 2.254 1.011 2.254 2.253 0 1.242-1.012 2.255-2.254 2.255h-13.48c-1.242 0-2.254-1.013-2.254-2.255 0-1.242 1.012-2.253 2.254-2.253zm26.98 0h13.5c1.242 0 2.242 1.011 2.242 2.253 0 1.242-1.001 2.255-2.242 2.255h-13.5c-1.242 0-2.252-1.013-2.252-2.255 0-1.242 1.01-2.253 2.252-2.253zm26.98 0h13.5c1.241 0 2.254 1.011 2.254 2.253 0 1.242-1.013 2.255-2.254 2.255h-13.5c-1.242 0-2.242-1.013-2.242-2.255 0-1.242 1.001-2.253 2.242-2.253zm-508.7 36.56-27.67 41.07h91.21l13.93-41.07zm82.21 0-13.93 41.07h117l-6.553-41.07zm101.1 0 6.551 41.07h118.1l-11.77-41.07zm710 25.32c-18.38 0-35.64 2.41-48.58 6.792-12 4.072-18.88 9.383-18.88 14.58 0 5.195 6.879 10.51 18.88 14.58 12.94 4.39 30.2 6.804 48.58 6.804 18.38 0 35.63-2.414 48.57-6.804 12.01-4.065 18.9-9.383 18.9-14.58 0-5.195-6.894-10.5-18.9-14.58-12.94-4.382-30.19-6.792-48.57-6.792zm-224.9 1.116h0.092c1.22 0.026 2.191 1.037 2.191 2.265 0 1.242-1 2.243-2.242 2.243h-0.072c-4.536 0-9.071 0.2006-13.49 0.6097-0.063 0.01-0.133 0.01-0.2071 0.01-1.15 0-2.136-0.8743-2.242-2.046-0.1111-1.235 0.8028-2.328 2.037-2.441 4.564-0.4166 9.245-0.6409 13.93-0.6409zm14.01 0.6312c4.748 0.4446 9.413 1.113 13.86 1.995 1.22 0.2397 2.024 1.427 1.777 2.648-0.2063 1.066-1.15 1.808-2.201 1.808-0.1482 0-0.2954-0.015-0.4434-0.041-4.296-0.8469-8.805-1.492-13.4-1.923-1.234-0.1128-2.148-1.208-2.035-2.45 0.1112-1.228 1.186-2.142 2.449-2.036zm-41.36 1.933c1.048 0 1.981 0.757 2.192 1.819 0.238 1.214-0.5568 2.401-1.777 2.648-4.599 0.8963-8.999 2.042-13.06 3.39-0.2328 0.078-0.4702 0.1036-0.7032 0.1036v0.01c-0.9453 0-1.818-0.5967-2.129-1.55-0.3953-1.179 0.2477-2.445 1.426-2.833 4.24-1.412 8.817-2.603 13.6-3.535 0.1523-0.031 0.3055-0.0528 0.4551-0.0528zm67.93 3.496c0.2916-0.023 0.5924 0.0167 0.8887 0.1133 4.811 1.602 9.191 3.472 13.02 5.561 1.094 0.6 1.491 1.978 0.8986 3.072-0.4074 0.7482-1.185 1.157-1.975 1.157-0.365 0-0.7384-0.0839-1.084-0.2677-3.598-1.969-7.718-3.735-12.28-5.252-1.178-0.3954-1.825-1.657-1.438-2.843 0.2974-0.884 1.087-1.47 1.963-1.54zm184.3 4.072c11.17 0 22.5 3.474 22.5 10.12 0 6.641-11.32 10.12-22.5 10.12-11.17 0-22.49-3.481-22.49-10.12 0-6.648 11.31-10.12 22.49-10.12zm0 4.498c-11.64 0-17.99 3.711-17.99 5.624 0 1.906 6.352 5.624 17.99 5.624 11.64 0 17.99-3.718 17.99-5.624 0-1.913-6.35-5.624-17.99-5.624zm-992.9 4.508-72.62 95.3 72.01-0.2482 64.08-95.05zm68.88 0-66.44 98.56c-0.4164 0.6211-1.119 0.9927-1.859 0.9927l-76.65 0.2697-85.95 112.8h251.5l72.13-212.6zm97.47 0-72.12 212.6h225.3l-33.95-212.6zm123.8 0 5.705 35.75h123.3l-10.25-35.75zm123.4 0 10.25 35.75h120.9l-51.74-35.75zm87.31 0 48.59 33.58c0.2751 0.1906 0.5123 0.4358 0.6816 0.725l0.8262 1.446h161.4c0-0.3719-0.07-0.745 0.1232-1.094 0.3702-0.6837 1.048-1.093 1.768-1.159 0.4319-0.039 0.8712 0.0448 1.281 0.2697 1.272 0.6975 2.69 1.337 4.092 1.983h71.24l-43.95-35.75h-36.7c-1.88 1.381-3.546 2.812-4.908 4.311-0.4444 0.48-1.05 0.723-1.664 0.723-0.5431 0-1.08-0.1929-1.518-0.5882-0.9172-0.8399-0.9858-2.258-0.1464-3.175 0.4028-0.4425 0.9742-0.8375 1.416-1.27zm331.6 0.5979c0.575 0.029 1.142 0.2724 1.562 0.7347 3.93 4.334 5.92 8.996 5.92 13.84v0.2052c0 1.228-1.022 2.202-2.242 2.202h-0.053c-1.241-0.021-2.229-1.064-2.201-2.306v-0.1016c0-3.698-1.603-7.329-4.764-10.82-0.8323-0.9175-0.7589-2.343 0.1562-3.183 0.4619-0.4164 1.046-0.6095 1.621-0.5804zm-134.2 12.29c1.249 0 2.254 0.9647 2.254 2.214v0.0703c0 3.67 1.586 7.297 4.711 10.76 0.8325 0.9246 0.7603 2.343-0.164 3.175-0.4302 0.388-0.9665 0.5784-1.51 0.5784-0.6137 0-1.22-0.2477-1.664-0.7347-3.901-4.319-5.869-8.961-5.869-13.78 0-1.242 1.008-2.284 2.242-2.284zm133.9 12.48c0.575-0.026 1.153 0.1702 1.611 0.5901 0.9169 0.8399 0.9822 2.256 0.1446 3.173-2.9 3.162-6.787 6.098-11.56 8.696-0.3387 0.1837-0.7047 0.2677-1.064 0.2677h-0.012c-0.7972 0-1.564-0.4299-1.973-1.178-0.5926-1.094-0.1952-2.446 0.8984-3.039 4.331-2.364 7.836-4.98 10.4-7.775 0.4164-0.4587 0.984-0.7091 1.559-0.7347zm-23.81 13.63c1.038-0.1174 2.058 0.5023 2.398 1.54 0.3968 1.179-0.249 2.438-1.426 2.833-4.24 1.397-8.819 2.586-13.61 3.525-0.145 0.026-0.2953 0.041-0.4356 0.041-1.047 0-2-0.7499-2.211-1.819-0.2328-1.214 0.5642-2.396 1.777-2.636 4.607-0.8963 8.999-2.034 13.06-3.382 0.1471-0.048 0.2952-0.0852 0.4434-0.1016zm-511.8 1.251 27.52 172.4h232.7l-45-113.1h-72.69c-1.002 0-1.879-0.655-2.16-1.622l-16.53-57.68zm128.5 0 15.71 54.81h72.52c0.9242 0 1.742 0.5627 2.088 1.417l46.22 116.1h85.71l-41.58-72.4c-0.593-0.391-1.002-1.024-1.023-1.778l-56.39-98.18zm315.4 2.14c0.1487-1e-3 0.3032 0.011 0.455 0.041 4.31 0.8469 8.823 1.504 13.41 1.935 1.242 0.1127 2.148 1.204 2.027 2.439-0.1059 1.172-1.083 2.048-2.232 2.048-0.069 0-0.1435 5.3e-4 -0.2071-0.01-4.747-0.4304-9.418-1.115-13.87-1.997-1.221-0.2397-2.005-1.415-1.766-2.636 0.2085-1.068 1.136-1.812 2.18-1.819zm40.98 1.985c1.234-0.0851 2.33 0.8058 2.449 2.048 0.1057 1.228-0.8127 2.326-2.047 2.439-4.529 0.4166-9.192 0.6214-13.85 0.6214h-0.1132c-1.242 0-2.252-1.008-2.252-2.243 0-1.249 1.01-2.255 2.252-2.255h0.1132c4.522 0 9.053-0.2002 13.45-0.6097zm427.5 42.73s11.26 14.08 0.8379 19.01l0.01-8.033c0-0.3849-0.3207-0.7035-0.7032-0.7035-0.3968 0-0.6868 0.2623-0.703 0.6937v8.084c-2.258-1.054-8.988-5.563 0.5584-19.05zm43.9 17.92s-2.076 17.85-12.96 14.02l5.746-5.655c0.2698-0.2715 0.2698-0.7118 0-0.9829-0.275-0.2763-0.673-0.2939-0.9922 0l-5.768 5.696c-0.846-2.33-2.394-10.23 13.97-13.08zm-87.73 0.2071s18.01 2.056 14.15 12.85l-5.715-5.686c-0.2698-0.272-0.7186-0.2715-0.9922 0-0.2805 0.2761-0.2963 0.654 0 0.9712l5.756 5.727c-2.348 0.8385-10.32 2.372-13.2-13.86zm-1214 10.07c12.61 0 22.49 5.447 22.49 12.38 0 6.945-9.874 12.38-22.49 12.38-12.61 0-22.5-5.43-22.5-12.38 0-6.93 9.883-12.38 22.5-12.38zm516.7 0.5686c12.61 0 22.49 5.427 22.49 12.37 0 6.945-9.873 12.38-22.49 12.38-12.61 0-22.5-5.43-22.5-12.38 0-6.938 9.883-12.37 22.5-12.37zm741.6 3.226c1.387 0.1082 2.644 1.019 3.111 2.409 0.6228 1.854-0.3825 3.859-2.254 4.477l-21.41 7.081c-1.876 0.5484-3.997-0.8207-4.516-2.233-0.6185-1.851 0.3811-3.86 2.252-4.477l21.41-7.082c0.4671-0.1545 0.9418-0.2119 1.404-0.1759zm-1258 0.7035c-10.6 0-17.99 4.159-17.99 7.879 0 3.734 7.387 7.867 17.99 7.867 10.6 0 17.99-4.133 17.99-7.867 0-3.719-7.388-7.879-17.99-7.879zm516.7 0.5686c-10.6 0-17.99 4.147-17.99 7.867 0 3.726 7.387 7.879 17.99 7.879s17.99-4.152 17.99-7.879c0-3.72-7.389-7.867-17.99-7.867zm-271 1.127h4.496l-2.252 21.37zm1034 4.682c1.387 0.108 2.642 1.019 3.109 2.409 0.6218 1.855-0.3827 3.858-2.252 4.477l-42.81 14.15h-0.012c-1.851 0.4214-3.476-0.2522-4.516-2.232-0.6243-1.855 0.3842-3.858 2.254-4.477l42.82-14.16c0.4679-0.1546 0.9444-0.2021 1.406-0.1661zm0.01 14.16c1.386 0.1078 2.643 1.027 3.111 2.419 0.6238 1.852-0.3961 3.858-2.264 4.477l-33.07 10.93c3.79 2.901 6.373 7.278 6.873 12.25h7.326c0.8979-8.928 8.508-15.92 17.74-15.92 1.966 0 3.576 1.585 3.576 3.535 0 1.955-1.605 3.537-3.576 3.537-5.291 0-9.683 3.842-10.54 8.85h3.398c1.367 0.2541 1.838 1.024 1.736 2.202-1.501 7.784-9.47 14.42-16.01 14.61-6.951 0-12.27-3.924-14.77-9.657-0.6661-1.545-1.086-3.213-1.231-4.963-0.095-1.148 0.6277-2.166 1.727-2.19h3.41c-0.8501-5.013-5.247-8.84-10.54-8.84-1.753 0-3.246-1.265-3.523-2.978-0.2858-1.714 0.7375-3.366 2.398-3.918l42.81-14.16c0.4668-0.1548 0.9424-0.2119 1.404-0.1759zm28.6 3.234v2e-3c2.847 0.096 6.672 1.38 11.77 4.93 0 0-14.21 11.17-19.17 0.8285l8.102 0.0313c0.3863 0 0.7032-0.3193 0.7032-0.7035 0-0.3912-0.2671-0.6773-0.7032-0.6937l-8.142-0.0195c0.6644-1.4 2.695-4.535 7.439-4.375zm-99.79 0.0117c2.64 0.028 5.093 1.161 6.644 4.393l-8.102-0.0293c-0.3916 0-0.7012 0.3076-0.7012 0.6917 0 0.3912 0.255 0.6776 0.6915 0.6937l8.142 0.0195c-1.063 2.24-5.599 8.919-19.2-0.5471 0 0 6.715-5.282 12.52-5.221z" fill="#00a5b2"/><path d="m1054 282.7c-5.742 9.909-18.61 6.896-27.57 4.291-0.9806-0.2821-1.94-0.5858-2.892-0.9105 2.518 6.783 2.144 13.95-3.81 20.57-5.77 6.38-15.22 8.201-23.38 6.557-1.982-0.4023-3.859-1.009-5.679-1.793 0.9101 4.708 1.136 9.549 0.5855 14.37-0.2751 2.548-1.622 5.272-4.43 5.83-5.502 1.115-10.96 1.292-16.28 0.6211 0.3455 0.9387 0.6843 1.906 0.9665 2.901 1.002 3.437-1.213 6.437-4.31 7.594-15.36 5.752-32.22 2.506-46.48-4.785-22.26-11.38-37.16-32.44-54.12-50.51-3.407-3.649-6.906-7.157-10.57-10.46-0.7266-0.6564-1.467-1.306-2.215-1.976-22.08-19.42-47.05-35.48-67.55-56.72-0.4021-0.4304-0.7478-0.9034-1.03-1.405-0.8324-1.475-1.122-3.232-0.7689-4.877 0.1481-0.6422 0.3878-1.285 0.7477-1.884 0.3106-0.515 0.6279-1.03 0.9454-1.532 1.143-1.87 2.328-3.72 3.52-5.569 9.319 7.263 18.71 14.43 28.14 21.52 17.2 12.92 34.46 26.09 52.63 37.62 8.74 5.547 17.9 10.54 27.7 13.92 2.815 0.9669 5.728 2.04 8.564 0.5293 1.594-0.8399 3.033-2.174 4.896-2.371 1.418-0.1625 2.97 0.3245 3.936 1.277 4.614-8.166 11.77-14.65 20.42-18.36 0.91-0.3954 1.82 0.2329 1.637 1.263-2.561 14.6 11.68 26.75 8.55 41.41-0.8113 3.825-3.365 7.065-4.085 10.89-0.8535 4.524 2.441 7.566 6.702 7.997 9.086 0.9034 12.75-9.168 14.33-16.32 0.1058-0.4727 0.6137-0.8187 1.072-0.8187 5.263 0.0212 11.94-0.3742 15.6-4.771 2.737-3.324 3.033-10-1.58-11.86-1.03-0.4092-1.072-1.75 0-2.153 4.959-1.835 9.629-4.298 14.12-7.051 8.825-5.406 17.04-11.83 26.21-16.64 4.494-2.364 9.157-4.143 14.03-5.569 3.21-0.9458 6.363-1.877 9.319-3.254 2.547 2.647 4.959 5.371 7.153 8.237 4.924 6.444 9.502 16.36 4.959 24.2" fill="#302e30" opacity=".1"/><path d="m1070 189.1c-6.491 19.42-19.73 36.77-37.16 47.58-9.743 0.6295-15.18-11.17-23.01-15.9-16.78-14.78-33.84-29.27-50.91-43.7-6.444-2.737-11.69 6.1-17.49 8.231-18.63 12.51-41.36 23.07-64.22 17.6-6.606-2.432-21.86-6.106-16.99-15.88 6.989-13.63 23.18-16.73 35.91-22.63 20.18-7.892 26.36-33.15 46.99-40.26 10.88-4.18 22.38 0.1927 31.98 5.499 8.191 4.473 17.88 3.484 26.42 0.6511 9.587-2.23 10.47 11.51 17.32 16.7 13.87 15.56 30.22 29.91 49.88 37.52 2.359-0.0317 1.613 3.23 1.287 4.595" fill="#ccc"/><path d="m1084 179.9s-56.22-23.62-76.46-69.75c8.994 7.884 48.13-60.54 48.13-60.54 31.96 22.63 57.51 53.76 73.35 90.08z" fill="#302e30"/><path d="m852.1 122.5c-11.24 4.524-19.4 14.09-27.71 22.55-18.11 19.75-34.29 41.17-49.87 62.94-17.14-13.71-34.27-27.43-51.41-41.14 11.32-40.01 34.57-76.51 65.95-103.8 21.02 19.8 42.03 39.61 63.05 59.41z" fill="#00a5b2" style="mix-blend-mode:multiply"/><path d="m1216 575.5 217.7 15.85 6.794 23.58-240.2-22.95z" fill="#00a5b2" style="mix-blend-mode:multiply"/><path d="m686.7 43.63c-19.9 3.492-22.25 11.98-21.74 17h-48.97c-1.242 5e-5 -2.253 1.001-2.253 2.243v31.8c-8.529-6.432-22.37-8.023-22.37-8.023 4.599 26.24 15.85 29.12 22.37 28.38v103.1h-93.54c0.3836-16.71-28.9-20.1-28.9-20.1 4.348 24.81 14.63 28.72 21.26 28.45v153.6c0 1.235 0.9905 2.244 2.232 2.244l1.953 0.0104-0.5994 0.5996c4.846 1.721 8.803 1.23 12.03-0.548l43.97 0.1861v194.4c0 1.242 1.011 2.254 2.253 2.254s2.253-1.012 2.253-2.254v-140.3h39.35c1.242 0 2.253-1.012 2.253-2.254v-48.64c22.25 7.254 26.53-29.76 26.53-29.76-14.8 2.594-22.59 7.179-26.53 11.95v-94.68h28.11c1.242 0 2.253-1.012 2.253-2.254v-48.37h15.74c1.242 0 2.242-1.001 2.242-2.243v-38.25h20.24c1.242 0 2.253-1.001 2.253-2.243 0-1.249-1.011-2.254-2.253-2.254h-20.24v-60.74h46.11v28.12c0 1.235 1.001 2.243 2.242 2.243h62.96c1.242 0 2.253-1.008 2.253-2.243 0-1.242-1.011-2.254-2.253-2.254h-60.71v-25.87h70.84c1.242 0 2.253-1.015 2.253-2.264 0-1.235-1.011-2.243-2.253-2.243h-70.84v-49.5c0-1.242-1.011-2.243-2.253-2.243h-34.27c4.832-6.55 6.035-17 6.035-17zm-11.69 10.93c0.2851-0.0106 0.5694 0.088 0.7853 0.2998 0.4164 0.4166 0.4164 1.09 0 1.499l-4.278 4.27h-2.986l5.777-5.769c0.063-0.0561 0.1289-0.1128 0.2066-0.1551 0.1535-0.0899 0.3252-0.1373 0.4961-0.1447zm-56.77 10.57h22.26c-3.802 15.18 21.77 18.13 21.77 18.13-1.672-9.538-4.488-15.04-7.523-18.13h12.84c2.941 0.9494 5.445 0.8344 7.575 0h37.52v47.25h-48.35c-1.242 0-2.242 1.008-2.242 2.243v63h-15.75c-1.242 0-2.253 1.005-2.253 2.254v38.24h-25.86v-106.9l0.961 0.9615c1.846-5.21 1.153-9.397-0.961-12.75zm24.12 0h2.966l5.725 5.748c0.056 0.0566 0.1024 0.129 0.1447 0.2068 0.2471 0.4023 0.1905 0.9364-0.155 1.282-0.4164 0.4092-1.072 0.4092-1.488 0zm-35.37 35.34c0.3519 0 0.7033 0.1348 0.9714 0.4032l5.777 5.81v3.898l-7.73-7.754c-0.077-0.0847-0.1487-0.1772-0.1963-0.2688-0.3244-0.5294-0.2446-1.226 0.2067-1.685 0.2714-0.2684 0.6195-0.4032 0.9713-0.4032zm41.61 81.65h13.5v36h-13.5zm-141.7 29.71c0.3518 0 0.7033 0.142 0.9713 0.4135l6.025 6.048c-0.8055 0.342-1.364 1.146-1.364 2.078v0.4549l-6.614-6.637c-0.077-0.0847-0.1488-0.1772-0.1964-0.2688-0.3243-0.5293-0.2446-1.223 0.2067-1.675 0.2714-0.2716 0.6195-0.4135 0.9714-0.4135zm10.13 10.78h1.157l0.9301 0.9305c0.1116-0.3139 0.2169-0.624 0.31-0.9305h94.3v46.13h-39.35c-1.242 0-2.253 1.001-2.253 2.244v66.98c-6.33-5.775-18.37-7.165-18.37-7.165 3.836 21.88 13.71 22.54 18.37 21.53v25.76l-38.85-0.1654c6.712-8.487 8.37-22.83 8.37-22.83-13.49 2.366-20.78 6.498-24.6 10.83v-140.3c0.068-0.0212 0.1536-0.0475 0.2171-0.0723l-0.2171-0.2171zm101.2 0h25.86v46.13h-25.86zm-543.8 28.01c1.746 9.96 3.885 18.56 6.304 25.97 1.21 3.706 2.484 7.121 3.823 10.26 1.34 3.135 2.741 5.993 4.185 8.602 1.444 2.609 2.93 4.966 4.454 7.092 1.522 2.124 3.085 4.02 4.661 5.707 9.464 10.14 19.66 12.79 27.85 12.73 2.73-0.0199 5.239-0.3412 7.42-0.7857 2.181-0.4445 4.038-1.015 5.467-1.53l-27.97-28.07c-0.1974-0.2119-0.3622-0.4219-0.496-0.6617-0.3986-0.6528-0.5442-1.406-0.4547-2.14 3.7e-4 -3e-3 -3.7e-4 -7e-3 0-0.0104 0.091-0.7306 0.4165-1.44 0.9714-1.995 0.6666-0.667 1.539-1.003 2.408-1.003s1.734 0.3359 2.397 1.003l27.79 27.91c1.162-3.276 1.91-6.38 2.304-9.336 9e-3 -0.0688 0.0118-0.1382 0.0206-0.2068 0.3713-2.903 0.3965-5.653 0.1137-8.261-9e-3 -0.0798-0.0218-0.1582-0.031-0.2378-0.2998-2.584-0.8992-5.033-1.757-7.34-0.0245-0.0658-0.0475-0.1308-0.0723-0.1964-0.8746-2.307-2.002-4.48-3.348-6.524-0.0409-0.0622-0.0826-0.1242-0.124-0.1861-1.361-2.038-2.937-3.938-4.681-5.728-0.0223-0.0229-0.0397-0.0495-0.062-0.0723-0.0305-0.0312-0.0623-0.0619-0.093-0.093-1.773-1.801-3.715-3.483-5.787-5.045-4.214-3.179-8.95-5.88-13.84-8.168-4.887-2.287-9.924-4.162-14.73-5.686-4.802-1.524-9.372-2.699-13.33-3.588-7.917-1.776-13.39-2.409-13.39-2.409zm1771 0s-87.56 10.12-68.79 63.07l27.78-27.9c1.326-1.334 3.472-1.334 4.805 0 1.115 1.115 1.312 2.84 0.5165 4.146-0.1323 0.2398-0.3001 0.4499-0.4958 0.6617l-27.96 28.07c11.42 4.122 50.18 11.64 64.15-68.04zm-1269 22.62h37.1v158.9h-37.1v-110.2c14.94 3.431 17.87-21.84 17.87-21.84-9.262 1.625-14.73 4.332-17.87 7.268zm832.1 6.751v79.06l-34.83-34.83v31.05l-37.35-37.36v37.53l-38.99-39.02v35.19l-33.69-33.7v165.7h185.3v-203.6zm-329.4 10.06c-0.5368 2e-3 -1.1 0.1308-1.695 0.4239-1.474 0.727-3.101 2.731-3.214 4.27-0.1974 2.696 1.99 3.997 4.671 4.166 0.2397 0.0159 0.4736 0.1117 0.8267 0.1964v64.41h-25.59v13.76h49.93v-13.51h-22.54v-61.69c1.136 0.734 2.061 1.261 2.914 1.882 36.68 26.76 73.34 53.53 110.1 80.25 1.996 1.454 2.8 2.991 2.8 5.49 0.2751 25.37 0.6841 50.74 1.044 76.11v3.35c-0.8961 0.2049-1.478 0.3239-2.056 0.4652-3.549 0.854-5.438 3.314-5.105 6.617 0.3016 3.084 2.596 5.292 6.045 5.355l39.72 0.0413c4.247-0.0423 6.954-2.508 6.954-6.079 0-3.564-2.692-5.868-6.996-6.038-1.213-0.0476-2.411-0.1053-3.886-0.1757-3.16-29.54-6.305-58.87-9.486-88.61 0.4391-0.1906 1.377-0.6152 2.873-1.272-1.89-11.12-3.81-22.37-5.694-33.42-3.372-1.08-7.05-2.078-10.59-3.412-41.02-15.54-82.01-31.11-123-46.76-1.46-0.5576-2.955-1.683-3.844-2.947-1.162-1.643-2.531-2.855-4.154-2.864zm19.89 14.17 74.52 29.67c-1.03 0.5225-1.855 0.418-2.666 0.2275-12.49-3.014-24.85-6.77-37.49-8.881-14.37-2.4-23.31-13.17-34.95-19.73 0.1974-0.4304 0.3917-0.8546 0.5892-1.292zm-2.15 2.171v5.035c-1.975-1.482-3.435-2.587-5.446-4.104 2.307-0.3954 3.781-0.6483 5.446-0.9305zm-514.3 4.642c0.2857-0.0106 0.5751 0.0985 0.7957 0.3102 0.409 0.4166 0.409 1.09 0 1.499l-6.965 6.937v-2.978l5.477-5.459c0.056-0.0561 0.1363-0.1128 0.2067-0.1551 0.1534-0.0926 0.3143-0.1476 0.4857-0.155zm520.7 0.1137v4.901c-1.82-1.32-3.206-2.331-5.167-3.743 2.152-0.487 3.516-0.798 5.167-1.158zm1.715 0.4342c1.714 1.2 2.97 2.084 4.692 3.298-1.82 0.4939-3.055 0.8305-4.692 1.282zm22.04 13.95c8.476 1.383 16.63 3.339 24.78 5.293 19.44 4.658 39.07 8.711 57.35 17.27 2.766 1.299 4.995 2.889 5.064 6.079 0.1587 6.67 0.062 13.35 0.062 20.2-3.697 1.278-9.624 0.8629-5.364 8.302-0.4603-0.0704-0.9143-0.1393-1.364-0.2171-26.84-18.97-53.69-37.95-80.53-56.92zm31 0c13.38 4.778 26.76 9.562 40.15 14.34-6.025 0.1202-34.08-9.985-40.15-14.34zm-33 1.416v5.004c-1.961-1.433-3.463-2.528-5.777-4.229 2.49-0.3388 4.055-0.5425 5.777-0.7754zm1.798 0.0827c1.898 1.334 3.425 2.416 5.725 4.032-2.533 0.4092-4.039 0.6518-5.725 0.9202zm7.244 5.149c2.138 1.51 3.849 2.719 6.149 4.342-2.568 0.4378-4.3 0.7335-6.149 1.044zm-1.633 0.2998v4.911c-1.982-1.475-3.37-2.508-5.394-4.011 2.307-0.3811 3.751-0.6242 5.394-0.8994zm9.207 5.056c2.18 1.51 3.977 2.763 6.552 4.549-2.772 0.5929-4.562 0.9759-6.552 1.406zm-1.695 0.4756v4.787c-1.785-1.299-3.204-2.333-5.25-3.815 2.208-0.4166 3.655-0.6823 5.25-0.9718zm-574.5 3.37c0.2703 0 0.5461 0.1053 0.7543 0.3101l5.642 5.676v2.988l-7.141-7.175c-0.057-0.0561-0.1127-0.1186-0.155-0.1964-0.2471-0.4092-0.1905-0.9393 0.155-1.292 0.2048-0.2048 0.4735-0.3101 0.7441-0.3101zm635.2 1.933c9.312 0.8681 11.12 1.628 11.12 4.528-3.76-1.532-7.436-3.025-11.12-4.528zm-50.65 0.1034c2.095 1.447 3.759 2.604 6.355 4.404-2.582 0.6493-4.38 1.105-6.355 1.613zm-1.808 0.093v5.448c-2.025-1.588-3.532-2.765-5.549-4.353 2.384-0.4727 3.891-0.7714 5.549-1.096zm65.79 3.319h6.107v5.221c-5.559 0.4801-6.912-0.7464-6.107-5.221zm-55.14 2.833c2.335 1.666 4.226 3.011 6.583 4.683-2.554 0.6564-4.431 1.145-6.583 1.696zm-297.6 0.3722c-1.017 0.1436-2.068 1.261-3.885 2.947l0.031 126.2c3.326 3.899 4.476 3.291 7.554-0.0207l-0.01-126.3c-1.69-2.218-2.672-3.049-3.689-2.905zm354.9 3.701c0.381 0.0106 0.7455 0.0207 1.127 0.0207v20.84c-0.3811-0.0317-0.7456-0.0615-1.127-0.0827zm-50.25 2.016v6.058c-2.152-1.588-3.873-2.846-6.314-4.652 2.744-0.6069 4.55-1.011 6.314-1.406zm1.829 0.1344c2.258 1.602 4.104 2.907 6.706 4.756-2.828 0.6705-4.717 1.116-6.706 1.582zm7.182 5.955c-0.1058 2.103-0.1884 3.846-0.3101 6.338-2.264-1.687-3.895-2.897-6.138-4.57 2.561-0.6987 4.304-1.182 6.448-1.768zm1.436 0.093c2.364 1.757 4.196 3.119 6.552 4.87-2.582 0.5646-4.344 0.9584-6.975 1.53 0.1481-2.216 0.2592-3.958 0.4232-6.4zm46.34 3.629c0.6212 2.95 1.251 5.898 1.922 9.067-2.843-0.6493-2.846-0.647-1.922-9.067zm-37.85 2.45c2.434 1.687 4.382 3.04 7.316 5.066-3.048 0.5646-5.129 0.9521-7.316 1.354zm-1.416 0.1344c-0.1111 2.202-0.1989 3.902-0.3206 6.224-2.378-1.75-4.097-3.032-6.51-4.818 2.779-0.5717 4.622-0.9545 6.83-1.406zm88.46 0.7547h10.23v10.24h-10.23zm19.44 0h10.24v10.24h-10.24zm19.45 0h10.24v10.24h-10.24zm19.45 0h10.24v10.24h-10.24zm19.46 0h10.23v10.24h-10.23zm19.45 0h10.23v10.24h-10.23zm19.45 0h10.23v10.24h-10.23zm-862.4 0.4652c0.3741-0.0159 0.7513 0.1107 1.033 0.3929 0.5361 0.5434 0.5361 1.418 0 1.954l-6.19 6.172-3.896-0.0206 8.143-8.106c0.085-0.0847 0.1697-0.1592 0.2687-0.2068 0.1957-0.1191 0.4164-0.176 0.6407-0.1861zm317.8 0.9305c-1.549 0.2631-3.092 2.323-3.958 5.49l0.1033 82.1c3.47 5.622 5.616 3.71 7.792-0.155l0.041-82.15c-0.8756-4.012-2.43-5.546-3.978-5.283zm-215.6 0.8064c0.3969-0.0159 0.7955 0.1298 1.095 0.4342 0.5714 0.5717 0.5714 1.496 0 2.068l-11.43 11.37v-4.115l9.362-9.336c0.085-0.0915 0.1801-0.1605 0.2791-0.2171 0.2116-0.127 0.4545-0.1962 0.6923-0.2068zm250 1.696c-0.8855 0.0203-1.82 0.8364-3.71 2.192l-0.4341 80.16c1.968 7.214 5.758 4.136 7.864-0.0104l-0.2893-79.74c-1.709-1.839-2.545-2.615-3.431-2.595zm-68.78 0.0827c-0.9955 0.0876-2.005 1.235-3.834 3.164l-0.1653 79.3c2.154 6.868 5.74 4.04 7.864 0.031l-0.1033-79.31c-1.785-2.3-2.766-3.272-3.761-3.184zm382.9 1.561v6.772c-2.638-1.955-4.71-3.489-7.419-5.5 2.991-0.5082 5.078-0.8625 7.419-1.272zm1.716 0.2171c2.596 1.814 4.713 3.31 7.584 5.314-3.033 0.8046-5.179 1.384-7.584 2.026zm8.949 6.245c2.264 1.616 4.232 3.01 6.2 4.415-0.085 0.2541-0.1682 0.497-0.2476 0.7444-2.984-0.1556-5.962-0.316-9.673-0.5066 1.524-1.913 2.543-3.184 3.721-4.652zm-428.3 1.985c-1.834 0.0649-3.514 2.13-3.514 5.934v54.63c1.451 8.024 6.357 6.069 7.947 0.1034v-54.62c-0.6111-4.178-2.599-6.113-4.433-6.048zm51.98 0.3722c-1.509 0.1336-3.056 1.988-4.082 5.045v55.53c1.7 7.812 6.343 5.296 7.947-0.2068v-55.07c-0.8832-3.84-2.355-5.427-3.865-5.293zm390 1.075c1.051 28.28 2.101 56.56 3.152 84.88h-7.895c1.242-28.46 2.466-56.63 3.679-84.8zm5.312 0.9615c0.2011 0 0.3916-5e-3 0.5995 0 2.961 27.91 5.925 55.84 8.928 84.22-2.128 0-3.746-0.1857-5.291 0.0413-3.638 0.5364-4.55-1.025-4.63-4.497l-2.8-75.12c1.066-0.607 2.266-0.9159 2.79-1.685 0.4974-0.7411 0.2974-1.955 0.4031-2.957zm-23.3 1.603c5.157 0.2752 9.883 0.5311 14.98 0.8064-1.037 27.5-2.057 54.49-3.079 81.59h-10.74c-0.3968-27.47-0.7709-54.71-1.168-82.4zm72.96 2.481h10.23v10.25h-10.23zm19.44 0h10.24v10.25h-10.24zm19.45 0h10.24v10.25h-10.24zm19.45 0h10.24v10.25h-10.24zm19.46 0h10.23v10.25h-10.23zm19.45 0h10.23v10.25h-10.23zm19.45 0h10.23v10.25h-10.23zm-357 1.034v27.38h113.8v-27.38zm-136.2 2.037c-1.438 0.173-2.889 1.803-3.906 4.508 0.021 13.12 0.076 26.05 0 38.25 1.992 6.84 4.784 4.605 7.73 0.1964 0.3032-12.9 0.3032-25.8 0-38.7-0.9614-3.148-2.386-4.433-3.824-4.26zm-102.8 3.257c-1.365 0.3159-2.724 2.111-3.927 4.477v31.63c2.144 7.504 5.936 4.466 7.916-0.0826l-0.01-31.63c-1.241-3.547-2.613-4.71-3.978-4.394zm-34.33 5.48c-1.314 0.206-2.48 1.582-2.997 2.595l-1.044 22.28c1.992 6.803 4.763 4.654 7.73 0.2378l0.186-20.7c-1.101-3.657-2.561-4.621-3.875-4.415zm171.4 0.3205c-0.9568 0.2406-1.922 1.741-3.72 3.836-0.4947 7.225-0.1818 14.34-0.186 21.08 2.133 6.801 5.746 4.005 7.75-0.0723 0.026-7.037 0.2082-14.09-0.1653-21.11-1.774-2.954-2.722-3.973-3.679-3.732zm-239.9 0.4136c-0.974 0.1885-2.001 1.604-3.927 3.536-0.4391 7.022-0.405 14.1-0.01 21.12 3.146 4.932 4.688 3.058 7.513-0.1861 0.4651-7.055 0.2413-14.13 0.021-20.65-1.702-2.975-2.622-4.014-3.596-3.825zm34.56 2.822c-0.9893 0.1375-2.066 1.406-3.968 3.257l-0.031 16.14c3.237 4.558 4.693 3.328 7.451-0.1344v-15.75c-1.559-2.659-2.462-3.653-3.451-3.515zm188.3 2.161c-1.133 0.2258-2.251 1.423-3.679 3.029-0.5487 4.033-0.1259 8.368 0 12.02 2.878 4.687 4.496 3.244 7.461 0.2895 0.4921-4.136 0.4937-8.412 0-12.54-1.502-2.282-2.649-3.028-3.782-2.802zm-239.8 0.672c-0.9805 0.1535-2.013 1.303-3.803 2.998-0.4269 3.639-0.1238 7.681-0.021 11.09 2.95 4.561 4.483 3.098 7.327 0.0723 0.5063-3.663 0.4587-7.485 0-11.18-1.594-2.298-2.523-3.141-3.503-2.988zm68.22 0.8374c-0.9526 0.2024-1.922 1.663-3.865 3.836-0.5926 1.009-0.188 2.643-0.1033 3.991-0.8555 9.868 7.614 9.772 7.854 0.4548 0-1.92 0.4464-3.504-0.1033-4.57-1.894-2.858-2.83-3.914-3.782-3.712zm530.9 1.458h10.23v10.24h-10.23zm19.44 0h10.24v10.24h-10.24zm19.45 0h10.24v10.24h-10.24zm19.45 0h10.24v10.24h-10.24zm19.46 0h10.23v10.24h-10.23zm19.45 0h10.23v10.24h-10.23zm19.45 0h10.23v10.24h-10.23zm-682.3 0.0827c-4.219 4.441-3.142 8.631-0.9404 12.32 0.6209 0.5928 4.101-0.2938 4.185-0.8374 0.5005-3.268 0.6385-6.643 0.2997-9.925-0.066-0.5717-2.465-1.56-3.544-1.561zm239.9 0.2068c-0.4513-5e-3 -0.8273 0.0633-1.023 0.2275-3.931 4.524-2.45 7.222 0.093 11.43 0.7971 0.6352 4.383-0.396 4.474-1.003 0.4444-3.134 0.4144-6.416-0.072-9.543-0.063-0.4341-2.118-1.094-3.472-1.117zm-291 0.5789c-1.686 2.506-3.528 4.061-3.358 5.345 0.1762 1.369 2.268 2.494 3.524 3.722 1.305-1.327 3.345-2.511 3.648-4.042 0.2117-1.094-1.908-2.646-3.813-5.025zm368.7 11.8v27.52h129.2v-27.52zm248 7.806h10.23v10.25h-10.23zm19.44 0h10.24v10.25h-10.24zm19.45 0h10.24v10.25h-10.24zm19.45 0h10.24v10.25h-10.24zm19.46 0h10.23v10.25h-10.23zm19.45 0h10.23v10.25h-10.23zm19.45 0h10.23v10.25h-10.23zm-116.7 20.49h10.23v10.24h-10.23zm19.44 0h10.24v10.24h-10.24zm19.45 0h10.24v10.24h-10.24zm19.45 0h10.24v10.24h-10.24zm19.46 0h10.23v10.24h-10.23zm19.45 0h10.23v10.24h-10.23zm19.45 0h10.23v10.24h-10.23zm-370.4 4.022v27.39h140.8v-27.39zm-940.8 1.096c-28.25-0.2954-60.91 25.61-60.91 25.61 66.19 46.45 88.28 13.73 93.45 2.729l-39.61-0.0826c-0.2894 0-0.5658-0.0423-0.8267-0.1138-1.488-0.3599-2.563-1.714-2.563-3.288 0-1.892 1.516-3.412 3.4-3.412l39.38 0.093c-7.546-15.85-19.48-21.4-32.32-21.54zm1768 2.512c-23.09-0.7849-32.93 14.58-36.16 21.45l39.61 0.0827c0.291 0 0.5572 0.0422 0.827 0.1137 1.481 0.36 2.563 1.717 2.563 3.298 0 1.884-1.516 3.401-3.4 3.401l-39.37-0.093c24.15 50.72 93.22-4.073 93.22-4.073-24.82-17.42-43.44-23.71-57.29-24.18zm-1720 184.8c-16.38-0.1196-40.8 10.58-51.28 70.34 0 0 87.59-10.12 68.8-63.08l-27.79 27.92c-1.326 1.334-3.472 1.334-4.805 0-1.115-1.115-1.314-2.84-0.5167-4.146 0.1339-0.2398 0.2987-0.45 0.496-0.6617l27.97-28.07c-2.857-1.03-7.427-2.276-12.89-2.316zm1669 0c-5.459 0.042-10.02 1.285-12.88 2.316l27.96 28.07c0.1957 0.2117 0.3635 0.4219 0.4958 0.6617 0.7974 1.306 0.6005 3.031-0.5165 4.146-1.333 1.334-3.479 1.334-4.805 0l-27.78-27.91c-18.77 52.95 68.79 63.07 68.79 63.07-10.48-59.76-34.9-70.46-51.28-70.34z" fill="#6da42b"/><path d="m1211 584.4c-0.1799 0-0.4233 0.072-0.6301 0.217-1.799 1.256-3.566 2.525-5.167 3.908-0.3439 0.3032-0.4921 0.6107-0.2486 0.7236 0.111 0.048 0.2222 0.061 0.4233 0.042 0.4444-0.042 0.9866-0.324 1.374-0.6204 1.756-1.376 3.108-2.664 4.412-3.97 0.1958-0.1943 0.069-0.3038-0.164-0.2996zm5.156 0.4859c-0.053-3e-4 -0.069 0.01-0.1005 0.011-0.164 0.021-0.365 0.093-0.5376 0.217-1.735 1.263-3.43 2.528-4.96 3.918-0.3332 0.3106-0.4603 0.6178-0.2063 0.7236 0.1111 0.048 0.2222 0.072 0.4127 0.053 0.4391-0.048 0.9835-0.327 1.343-0.6307 1.693-1.383 2.974-2.678 4.216-3.991 0.1745-0.1889 0.053-0.2979-0.1641-0.2995zm5.115 0.4959c-0.1799 0-0.4074 0.079-0.5994 0.2277-1.672 1.263-3.293 2.534-4.753 3.939-0.3175 0.3033-0.4391 0.6108-0.1747 0.7237 0.1111 0.048 0.2117 0.061 0.4127 0.042 0.4286-0.048 0.9492-0.3166 1.302-0.6203 1.615-1.39 2.831-2.699 4.009-4.011 0.1746-0.1985 0.053-0.3043-0.1957-0.2996zm5.146 0.4859c-0.1799 0-0.4179 0.079-0.5995 0.2277-1.602 1.277-3.164 2.558-4.547 3.97-0.3015 0.3033-0.4021 0.6179-0.1428 0.7237 0.1111 0.048 0.2116 0.062 0.4021 0.042 0.4285-0.048 0.9497-0.3272 1.281-0.6306 1.545-1.39 2.696-2.712 3.803-4.032 0.1692-0.1985 0.053-0.3043-0.1958-0.2995zm5.053 0.496c-0.1642 0.021-0.3546 0.09-0.5081 0.217-1.538 1.285-3.021 2.572-4.34 3.991-0.2911 0.3032-0.3757 0.621-0.1112 0.734 0.1218 0.048 0.2381 0.061 0.4233 0.042 0.4286-0.048 0.9227-0.3202 1.24-0.6307 1.474-1.397 2.559-2.726 3.596-4.053 0.1746-0.2208-0.053-0.333-0.3015-0.2996zm5.218 0.4859c-0.1745 0-0.3968 0.079-0.5682 0.2276-1.467 1.292-2.902 2.575-4.144 4.001-0.275 0.3106-0.3492 0.6281-0.085 0.734 0.1216 0.048 0.2328 0.062 0.4233 0.042 0.4233-0.048 0.8957-0.3198 1.199-0.6307 1.404-1.405 2.426-2.736 3.4-4.063 0.1481-0.2022-1e-3 -0.3138-0.2276-0.3102zm5.136 0.4859c-0.1746 0-0.3968 0.087-0.5582 0.2377-1.404 1.292-2.766 2.582-3.937 4.022-0.2593 0.3108-0.3175 0.6141-0.053 0.734 0.1217 0.048 0.2222 0.068 0.4127 0.042 0.4179-0.048 0.8894-0.3196 1.178-0.6306 1.326-1.412 2.273-2.76 3.183-4.094 0.1324-0.2027 0-0.3154-0.2381-0.3102zm5.063 0.496c-0.1588 0.021-0.3334 0.0981-0.4655 0.2276-1.34 1.299-2.64 2.603-3.741 4.042-0.2381 0.3032-0.2803 0.6314 0 0.7444 0.1271 0.057 0.2275 0.062 0.4127 0.042 0.418-0.048 0.8688-0.3309 1.137-0.641 1.256-1.419 2.15-2.774 2.997-4.115 0.1374-0.2249-0.069-0.334-0.3282-0.2996zm5.208 0.4859c-0.1747 0-0.381 0.076-0.5292 0.2276-1.27 1.306-2.505 2.623-3.534 4.063-0.2275 0.3176-0.2539 0.6348 0.053 0.7548 0.1269 0.048 0.2381 0.062 0.4233 0.042 0.4074-0.057 0.8338-0.334 1.095-0.6512 1.185-1.426 2.014-2.777 2.79-4.125h-0.053c0.1164-0.2022-0.053-0.3156-0.2698-0.3102zm5.063 0.4964c-0.1536 0.021-0.3282 0.0951-0.4445 0.2277-1.206 1.313-2.368 2.627-3.328 4.073-0.2116 0.3176-0.2274 0.6417 0.063 0.7547 0.1218 0.057 0.2381 0.062 0.4127 0.042 0.4074-0.048 0.8243-0.3308 1.064-0.641 1.115-1.44 1.871-2.791 2.584-4.146 0.1164-0.225-0.095-0.3441-0.3492-0.3102zm5.219 0.486c-0.1694 0-0.3758 0.083-0.508 0.2376-1.143 1.32-2.242 2.64-3.131 4.094-0.1904 0.3176-0.1851 0.6348 0.1059 0.7548 0.1269 0.048 0.2275 0.062 0.4022 0.042 0.4021-0.057 0.8179-0.3304 1.043-0.641 1.044-1.447 1.734-2.815 2.377-4.177 0.095-0.2022-0.069-0.3144-0.2909-0.3102zm5.053 0.4959c-0.1535 0.021-0.307 0.095-0.4127 0.2276-1.072 1.327-2.113 2.654-2.924 4.115-0.1852 0.3246-0.1588 0.6451 0.1322 0.7652 0.1323 0.042 0.2328 0.053 0.4127 0.042 0.3968-0.048 0.7904-0.334 1.002-0.6513 0.9736-1.454 1.592-2.818 2.17-4.187v-0.011c0.095-0.2249-0.1323-0.3335-0.3808-0.2995zm5.146 0.4859c-0.1481 0.021-0.312 0.095-0.4127 0.2276-1.009 1.334-1.97 2.667-2.718 4.135-0.164 0.3245-0.1322 0.6554 0.164 0.7754 0.1324 0.048 0.2434 0.053 0.4233 0.032 0.3968-0.048 0.7641-0.3341 0.9615-0.6514 0.903-1.461 1.458-2.832 1.973-4.208 0.09-0.225-0.1322-0.3441-0.3809-0.3102zm5.208 0.4859c-0.1693 0-0.3545 0.08-0.4655 0.2377-0.9456 1.334-1.844 2.681-2.522 4.156-0.1482 0.3244-0.1006 0.6554 0.2064 0.7755 0.1321 0.042 0.2328 0.053 0.4127 0.021 0.3861-0.042 0.757-0.334 0.9401-0.6513 0.8253-1.468 1.313-2.842 1.757-4.218 0.069-0.2064-0.1112-0.3254-0.3281-0.3202zm5.063 0.496c-0.1481 0.021-0.2963 0.1026-0.3809 0.2376-0.882 1.348-1.715 2.688-2.315 4.177-0.1322 0.3176-0.063 0.6419 0.2381 0.7548 0.1323 0.057 0.2434 0.073 0.4127 0.053 0.3862-0.057 0.7297-0.351 0.8989-0.6616 0.755-1.468 1.19-2.859 1.571-4.249 0.063-0.2292-0.1693-0.3451-0.4127-0.3101zm5.208 0.4859c-0.1694 0-0.344 0.08-0.4339 0.2376-0.8111 1.355-1.583 2.701-2.118 4.197-0.1112 0.3246-0.058 0.6522 0.2698 0.7651 0.1428 0.048 0.2539 0.068 0.4233 0.042 0.381-0.048 0.7095-0.3373 0.8576-0.6617 0.6846-1.468 1.046-2.862 1.364-4.26v-0.011c0.053-0.2064-0.1481-0.315-0.3597-0.3102zm5.136 0.4859c-0.164 0-0.3386 0.08-0.4232 0.2376-0.7476 1.362-1.446 2.725-1.912 4.229-0.1006 0.3246 0 0.6521 0.3121 0.7651 0.1323 0.057 0.2541 0.062 0.4127 0.042 0.381-0.057 0.6927-0.3473 0.8264-0.672 0.6138-1.482 0.9038-2.876 1.158-4.28 0.053-0.2064-0.1587-0.3256-0.3704-0.3208zm5.136 0.4959c-0.1639 0-0.3386 0.08-0.4126 0.2377-0.6773 1.362-1.317 2.735-1.705 4.239-0.085 0.3244 0 0.6625 0.3386 0.7755 0.1429 0.048 0.2487 0.062 0.4127 0.042 0.3757-0.057 0.6761-0.3478 0.7953-0.672 0.5433-1.489 0.7782-2.896 0.9612-4.301 0.053-0.2107-0.1692-0.3266-0.3808-0.3208zm5.146 0.4859c-0.164 0-0.3333 0.091-0.4021 0.2483-0.6138 1.369-1.192 2.739-1.509 4.249-0.069 0.3319 0.058 0.6624 0.3811 0.7754 0.1427 0.057 0.2538 0.069 0.4126 0.042 0.365-0.057 0.6487-0.3399 0.7544-0.672 0.4656-1.496 0.6339-2.91 0.754-4.322 0.053-0.2107-0.1799-0.3266-0.3915-0.3203zm5.064 0.496c-0.1376 0.021-0.2645 0.1026-0.3228 0.2376-0.5433 1.376-1.056 2.763-1.302 4.28-0.058 0.3318 0.09 0.6555 0.4126 0.7755 0.1482 0.057 0.2487 0.062 0.4127 0.042 0.3651-0.057 0.6386-0.351 0.7234-0.6824 0.4021-1.503 0.5025-2.924 0.5475-4.342 0-0.234-0.2487-0.3468-0.4762-0.3102zm5.136 0.4959c-0.1374 0.021-0.2645 0.0951-0.3121 0.2276-0.4814 1.39-0.9089 2.776-1.085 4.301-0.053 0.3318 0.1111 0.6586 0.4444 0.7857 0.143 0.048 0.2487 0.068 0.4127 0.042 0.3599-0.057 0.6112-0.351 0.682-0.6823 0.3335-1.51 0.3651-2.927 0.3493-4.353v-0.011c0-0.2382-0.2592-0.3462-0.4868-0.3102zm5.218 0.4859c-0.164 0.01-0.3279 0.081-0.3703 0.2377-0.418 1.39-0.793 2.78-0.899 4.311 0 0.3318 0.1535 0.6761 0.4869 0.7961 0.148 0.057 0.254 0.062 0.4126 0.042 0.3598-0.057 0.6016-0.3541 0.6509-0.6926 0.2591-1.517 0.2328-2.941 0.1533-4.373 0-0.2144-0.2116-0.3277-0.4233-0.3208zm5.125 0.4859c-0.1588 0.01-0.3123 0.091-0.3493 0.2483-0.3545 1.397-0.6566 2.793-0.6919 4.332 0 0.3319 0.1797 0.669 0.5184 0.7961 0.1481 0.048 0.2592 0.058 0.4126 0.032 0.3598-0.057 0.5842-0.351 0.6196-0.6823 0.1905-1.532 0.085-2.964-0.064-4.404-0.053-0.2144-0.2434-0.3278-0.4444-0.3208zm5.074 0.496c-0.1323 0.021-0.2433 0.1026-0.2699 0.2377-0.2804 1.397-0.5238 2.804-0.4867 4.342 0 0.3388 0.2063 0.6864 0.5482 0.8065 0.148 0.057 0.2538 0.062 0.4127 0.042 0.3438-0.057 0.5607-0.361 0.5887-0.6927 0.1112-1.539-0.058-2.978-0.2698-4.425-0.053-0.2382-0.3068-0.3478-0.529-0.3102zm5.208 0.4859c-0.1586 0.01-0.3069 0.087-0.3281 0.2482-0.2169 1.397-0.3862 2.817-0.2803 4.363 0 0.3388 0.2275 0.6793 0.5782 0.8064 0.1482 0.048 0.2647 0.056 0.4127 0.042 0.3439-0.063 0.5402-0.361 0.5476-0.6926 0.053-1.546-0.1852-2.999-0.4655-4.446-0.053-0.2181-0.2593-0.3282-0.4657-0.3203zm5.136 0.4859c-0.1587 0.01-0.3015 0.088-0.3227 0.2482-0.1533 1.405-0.254 2.831-0.074 4.384 0.053 0.3457 0.2646 0.6968 0.6095 0.8168 0.1536 0.048 0.2646 0.058 0.4127 0.032 0.3386-0.048 0.5291-0.3542 0.5185-0.6927-0.053-1.546-0.3227-2.995-0.6719-4.456-0.053-0.2181-0.2751-0.3388-0.4762-0.3309zm5.063 0.496c-0.127 0.021-0.2169 0.1106-0.2275 0.2482-0.085 1.419-0.1323 2.844 0.1217 4.404 0.058 0.3457 0.2963 0.6897 0.6514 0.8167 0.1533 0.048 0.2644 0.053 0.4127 0.032 0.3385-0.057 0.5078-0.3542 0.4866-0.6927-0.1005-1.553-0.4707-3.019-0.8781-4.487-0.069-0.2425-0.3599-0.3595-0.5689-0.3208zm5.208 0.4859c-0.1535 0.01-0.2858 0.088-0.2911 0.2482 0 1.426 0 2.861 0.3281 4.435 0.063 0.3388 0.3227 0.6831 0.682 0.7961 0.1534 0.057 0.2751 0.08 0.4127 0.053 0.3387-0.057 0.4814-0.3642 0.4444-0.703-0.1693-1.56-0.5952-3.033-1.075-4.508-0.074-0.2181-0.3068-0.3282-0.5078-0.3208zm5.063 0.4959c-0.1217 0.026-0.2115 0.108-0.2063 0.2483 0.053 1.426 0.1428 2.872 0.537 4.446 0.09 0.3457 0.3545 0.6968 0.7133 0.8168 0.164 0.057 0.275 0.062 0.4233 0.042 0.3226-0.063 0.4655-0.3743 0.4127-0.7134-0.2487-1.567-0.7488-3.043-1.292-4.518-0.09-0.2472-0.3863-0.3605-0.5894-0.3208zm5.208 0.4859c-0.1536 0.01-0.2753 0.085-0.2594 0.2483 0.1058 1.433 0.2699 2.878 0.7338 4.466 0.1006 0.3457 0.3864 0.7071 0.754 0.8271 0.164 0.048 0.2646 0.058 0.4127 0.032 0.3227-0.057 0.4497-0.3642 0.3809-0.703-0.312-1.574-0.8814-3.057-1.488-4.539-0.09-0.2223-0.3386-0.3393-0.5374-0.3308zm5.136 0.4859c-0.1534 0.01-0.2697 0.095-0.2486 0.2583 0.1746 1.44 0.3968 2.892 0.9407 4.487 0.1112 0.3457 0.4232 0.6968 0.7957 0.8168 0.164 0.057 0.2645 0.069 0.4021 0.042 0.3227-0.063 0.4286-0.3748 0.344-0.7134-0.3809-1.581-1.014-3.07-1.685-4.559-0.095-0.2223-0.3493-0.3393-0.5477-0.3308zm5.074 0.496c-0.1163 0.026-0.1905 0.108-0.1641 0.2482 0.2381 1.454 0.5238 2.905 1.137 4.508 0.1269 0.3457 0.4444 0.7071 0.8265 0.8271 0.1639 0.057 0.2803 0.068 0.4126 0.042 0.3174-0.057 0.4074-0.3705 0.3121-0.7236-0.4497-1.581-1.151-3.066-1.892-4.57v-0.011c-0.1216-0.2472-0.4338-0.3605-0.6301-0.3208zm5.198 0.4859c-0.1481 0.01-0.2539 0.0911-0.2168 0.2583 0.312 1.454 0.6586 2.919 1.343 4.528 0.1482 0.3531 0.4868 0.6897 0.8577 0.8167 0.1693 0.057 0.2698 0.069 0.4127 0.042 0.3122-0.063 0.3915-0.3711 0.2805-0.7238-0.5292-1.588-1.294-3.087-2.098-4.59-0.1218-0.2265-0.3863-0.3399-0.579-0.3309zm5.136 0.4859c-0.1482 0.01-0.2487 0.091-0.2064 0.2583 0.3757 1.461 0.8021 2.933 1.55 4.549 0.1639 0.3531 0.5184 0.7 0.8994 0.8271 0.1694 0.057 0.2698 0.073 0.4127 0.053 0.3015-0.064 0.3651-0.3811 0.238-0.734-0.5994-1.595-1.43-3.101-2.304-4.611-0.1323-0.2265-0.3968-0.3499-0.5894-0.3414zm5.146 0.4959c-0.1482 0.01-0.2434 0.092-0.1958 0.2583 0.4444 1.468 0.928 2.936 1.746 4.559 0.1851 0.3531 0.5418 0.7104 0.9296 0.8374 0.1693 0.057 0.2857 0.069 0.4232 0.042 0.3016-0.063 0.3334-0.378 0.1852-0.7238-0.6629-1.609-1.552-3.125-2.49-4.642-0.1377-0.2261-0.4074-0.3399-0.5995-0.3309zm5.136 0.4859c-0.1482 0.01-0.2434 0.0921-0.1852 0.2583 0.508 1.475 1.064 2.96 1.953 4.59 0.1957 0.3531 0.5761 0.7104 0.9714 0.8374 0.1693 0.057 0.2751 0.062 0.4021 0.042 0.3016-0.063 0.3281-0.3812 0.164-0.7342-0.7407-1.616-1.688-3.135-2.697-4.652-0.1481-0.2303-0.418-0.3494-0.6095-0.3415zm5.074 0.4965c-0.111 0.026-0.164 0.1128-0.1057 0.2583 0.5713 1.475 1.19 2.963 2.15 4.601 0.2116 0.3531 0.6068 0.7104 1.002 0.8375 0.1746 0.063 0.275 0.069 0.4126 0.042 0.2962-0.063 0.3121-0.3811 0.1322-0.734-0.8116-1.616-1.838-3.142-2.904-4.673-0.1745-0.2556-0.508-0.3732-0.6921-0.3309zm5.198 0.4859c-0.1482 0.01-0.2275 0.089-0.1535 0.2583 0.6418 1.489 1.326 2.977 2.356 4.621 0.2275 0.3531 0.6312 0.7207 1.033 0.8478 0.1746 0.048 0.2858 0.062 0.4126 0.042 0.2964-0.063 0.2964-0.3812 0.106-0.7342-0.8889-1.623-1.975-3.155-3.111-4.694-0.1641-0.2302-0.4551-0.3504-0.6408-0.3409zm5.136 0.4859c-0.1427 0.01-0.2275 0.099-0.1427 0.2689 0.7051 1.496 1.455 2.987 2.562 4.632 0.2487 0.3669 0.6624 0.724 1.065 0.8581 0.1852 0.048 0.2962 0.061 0.4232 0.032 0.291-0.057 0.2699-0.3743 0.064-0.734-0.9591-1.63-2.118-3.169-3.317-4.714-0.1798-0.2303-0.4656-0.3505-0.6507-0.3415zm5.136 0.496c-0.143 0.01-0.2117 0.096-0.1218 0.2689 0.7693 1.496 1.58 3.001 2.759 4.652 0.254 0.3599 0.6969 0.731 1.106 0.8581 0.1851 0.048 0.2856 0.058 0.4126 0.032 0.2804-0.057 0.2541-0.3743 0.053-0.734-1.03-1.644-2.243-3.189-3.513-4.735-0.1852-0.2345-0.4867-0.351-0.672-0.3414zm5.136 0.4859c-0.1428 0.01-0.2116 0.096-0.1163 0.2689 0.8323 1.503 1.717 3.025 2.966 4.683 0.275 0.36 0.7269 0.7207 1.136 0.8478 0.1851 0.057 0.2964 0.068 0.4232 0.042 0.2752-0.057 0.2381-0.3843 0-0.7444-1.094-1.651-2.387-3.193-3.72-4.745v-0.011c-0.201-0.2345-0.4973-0.351-0.682-0.3409zm5.147 0.4859c-0.143 0.01-0.217 0.096-0.1165 0.2689 0.9031 1.51 1.856 3.038 3.182 4.704 0.2911 0.3599 0.752 0.738 1.168 0.8581 0.1852 0.057 0.2856 0.069 0.4127 0.042 0.275-0.064 0.2116-0.3949-0.053-0.7548-1.164-1.659-2.512-3.206-3.916-4.766-0.2064-0.2308-0.5026-0.3616-0.6819-0.3515zm5.136 0.4959c-0.1428 0.01-0.2063 0.096-0.095 0.2689 0.9665 1.525 1.982 3.042 3.379 4.714 0.3014 0.3669 0.775 0.7414 1.198 0.8685 0.1852 0.057 0.3017 0.069 0.4127 0.042 0.2753-0.07 0.2011-0.3949-0.074-0.7547-1.242-1.666-2.656-3.223-4.123-4.797-0.217-0.2345-0.5238-0.351-0.7027-0.3415zm5.136 0.4859c-0.1375 0.011-0.2011 0.1032-0.085 0.279 1.03 1.524 2.115 3.055 3.576 4.735 0.3175 0.3669 0.8275 0.7382 1.25 0.8581 0.1852 0.063 0.291 0.069 0.4021 0.042 0.2751-0.063 0.18-0.3949-0.1058-0.7548-1.312-1.673-2.799-3.234-4.33-4.807-0.2275-0.2382-0.5339-0.3621-0.7127-0.3515z" fill="#fff"/></g><g fill="#302e30"><path d="m1453 623.9-252.6-31.94 25.86-10.87 217.7 15.86z" opacity=".2"/><path d="m774 519.6 48.86 42.75 4.494 13.49-19.11-4.503-40.6-41.68z" opacity=".1"/><path d="m757.7 519.5 43.39 44.09 15.84 5.512-2.067-13.78-49.59-43.41s-5.51-2.068-7.576 7.58"/><path d="m731.8 770.5h-20.24l-41.21-28.67c-2.441 3.529-6.173 6.07-10.52 6.959v55.46l-6.271-0.5292-1.594 15.15-1.623-15.41-4-0.3388v-57.37c-4.092-3.084-6.751-7.99-6.751-13.5 0-3.988 1.397-7.658 3.725-10.55l-3.725-7.446 7.873-5.625 5.947 7.03c0.9877-0.1905 2.004-0.2821 3.048-0.2821 8.388 0 15.35 6.133 16.66 14.17l50.81 24.08z" opacity=".2"/><path d="m638.5 694-7.864 5.624 3.71 7.433c-2.323 2.892-3.72 6.559-3.72 10.56 0 5.518 2.652 10.43 6.748 13.51v57.37l13.5 1.117v-55.46c4.345-0.8853 8.088-3.44 10.52-6.968l41.2 28.69h20.24l-7.874-16.88-50.81-24.08c-1.295-8.032-8.256-14.17-16.65-14.17-1.044 0-2.067 0.097-3.059 0.279z"/></g><g><path d="m654.2 717.6c0-3.727-3.019-6.747-6.751-6.747-3.725 0-6.744 3.021-6.744 6.747s3.019 6.754 6.744 6.754c3.732 0 6.751-3.028 6.751-6.754" fill="#fff"/><path d="m940.9 303.9c-0.4582 7.029-7.45 11.06-8.826 17.8-2.282 8.483-7.609 17.66-16.93 19.44-9.817 1.658-18.04-5.312-25.75-10.27-20.16-12.75-40.74-27.17-52.5-48.54-1.878-4.238-5.237-8.59-4.238-13.45 3.203-4.655 5.631-9.588 8.484-14.65 4.659-6.96 11.98-13.26 20.69-13.59 6.751 2.333 1.74 9.366 1.995 14.28 0.355 2.32 5.796-3.128 8.132-3.448 6.225-3.126 12.82-7.894 20.15-6.31 6.076 0.0566 7.068 8.628 7.657 10.67 8.031-4.383 16.36-10.24 25.93-9.575 8.197 0.8695 13.69 9.961 11.43 17.73-2.032 8.733-8.154 15.6-12.97 22.92 8.953-0.1588 17.6 7.784 16.74 17.02" fill="#ccc"/><path d="m955.2 164.8c-1.495 0.0728-3.006 0.4476-4.539 1.227-26.64 18.1-58.9 27.69-91.11 27 5.823 6.819 15.22 9.844 23.92 11.05 21.84 2.446 42.46-8.052 59.99-19.97 5.132-1.822 9.811-9.936 15.59-6.99 17.07 14.42 34.13 28.92 50.91 43.7 7.824 4.731 13.26 16.53 23.01 15.9 17.43-10.81 30.67-28.15 37.16-47.58 2.645-6.172-6.755-5.403-9.918-8.377-6.991 7.251-11.01 16.9-18.11 24.11-5.75 6.62-17.67 11.01-24.58 3.777-10.61-16.25-26.93-27.54-43.9-36.34-5.819-2.485-11.94-7.823-18.42-7.507zm-98.04 105.8c-5.777 4.256-9.978 10.48-12.43 17.19-2.72 3.841-0.032 6.899 2.666 9.667 13.05 15.18 30.19 25.92 46.8 36.72 6.681 4.512 14.95 9.35 23.24 6.415 8.35-2.941 12.63-11.57 14.86-19.57 1.542-6.366 8.197-10.26 8.57-17.05 0.7378-7.888-5.539-14.99-13.02-16.62-2.335 14.96-15.35 27.66-30.48 29.16 1.568-9.567 5.437-18.76 11.25-26.52 1.215-1.249 5.78-6.733 1.789-5.106-7.336 8.105-15.82 16.74-27.18 18.29 0.9707-5.944 3.013-11.72 6.055-16.92 0.47-2.841 6.62-6.161 3.965-8.35-8.136 5.226-17.07 9.312-26.51 11.52-4.188 0.1445-10.15 4.008-13.25-0.0723-0.4862-4.001 0.4997-8.095 1.936-11.83 0.0176-2.242 5.05-6.086 1.752-6.931z" opacity=".2"/><path d="m778.4 184.7c2.194 2.865 4.451 6.098 6.102 9.556-6.102 8.251-9.968 13.78-9.968 13.78l-51.41-41.14c3.45-12.15 7.943-23.85 13.38-35.02 0.1835 0.2472 0.3809 0.4939 0.5714 0.7411 1.517 1.906 3.019 3.804 4.529 5.71 6.264 7.884 12.54 15.78 18.8 23.67 6.003 7.559 12.15 15.03 18 22.71" fill="#302e30" opacity=".1"/><path d="m462.6 412.1-272.4 279.5 0.3514 0.5997c7.319-6.132 16.04-10.23 25.72-11.53 31.7-4.263 61.52 22.98 66.61 60.84 2.316 17.22-0.8937 33.66-8.05 46.89l215.4-246.1c90.59-110.9-27.72-130.2-27.72-130.2z" fill="#00a5b2" style="mix-blend-mode:multiply"/></g></svg>
