<svg version="1.1" viewBox="0 0 1920 1256" xmlns="http://www.w3.org/2000/svg"><rect x="898" y="260.4" width="132.5" height="995.6" fill="#fff"/><path d="m1920 734.7c0 29.44-2.436 58.39-7.171 86.57-26.6 159.1-125.3 293.8-261.4 369.3-74.94 41.68-161.3 65.39-253.1 65.39-40.26 0-79.43-4.595-117-13.19-2.436-0.5356-4.842-1.12-7.278-1.733-2.806-0.6231-5.583-1.353-8.311-2.083-65.43-17.15-125.8-46.64-178.6-85.84h-0.039c-47.83-35.6-89.36-79.18-122.6-128.8-55.53-82.86-87.88-182.5-87.88-289.6 0-143.3 57.83-273 151.3-367.2 45.11-45.48 98.55-82.64 157.9-109 64.85-28.98 136.8-45.11 212.4-45.11 48.93 0 96.29 6.737 141.2 19.39 8.009 2.23 15.95 4.673 23.79 7.283 62.99 20.94 120.7 53.63 170.4 95.35 113.9 95.61 186.3 239 186.3 399.3" fill="#00a5b2"/><path d="m1734 335.4c-4.228 1.149-8.419 2.563-12.53 4.179-17.74 6.971-33.77 17.49-49.72 27.78-18.77 12.18-38.1 25-60.26 29.99-26.38 5.939-50.54-4.401-75.43-11.75-19.24-5.686-38.71-8.028-57.77-0.385-13.3 5.306-23.44 14.75-27.2 28.04-40.67-22-94.45-9.916-121.8 27.6-0.9061 1.236-0.6041 2.908 0 4.193 17.57 37.22 35.15 74.43 52.72 111.7 1.072 2.171 3.804 2.301 5.723 1.483 10.18-4.313 20.37-8.622 30.54-12.94 4.452 12.65 8.882 25.33 13.37 37.98 1.237 3.544 5.43 3.895 7.564 0.984 23.73-32.18 78.18-42.99 108-12.78 19.63 19.91 22.15 53.37 8.506 77.04-0.8962-0.1655-1.921 0.0965-2.768 1.041-3.546 3.885-7.062 7.772-10.62 11.67-15.47-0.6426-31-1.346-46.48-1.94-24.38-0.9833-55.42-5.977-77.44 7.858-21.38 13.46-16.07 36.76-5.166 55.35 9.578 16.41 18.29 31.31 15.21 51.14-2.777 17.99-11.84 34.44-20.69 50.07-1.111 2.015 0.013 4.07 2.012 4.849 46.19 18.25 105.7 44.29 117.9 98.05 3.04 13.2 2.343 27.7 9.748 39.58 7.395 11.97 21.8 17.81 28.09 30.63 6.538 13.42 4.288 29.57 10.32 43.33 4.229 9.785 10.94 18.15 18.34 25.73 18 18.5 43.18 33.89 48.87 60.81 0.5945 2.823 4.928 4.168 6.808 1.783 15.35-19.32 32.29-41.41 32.75-67.22 0.2534-12.99-5.042-24.52-9.32-36.52-2.864-7.945-5.18-16.2-2.997-24.7 2.173-8.295 8.16-15 13.37-21.49 30.45-37.65 47.99-83.75 50.3-131.8 59.74 4.148 123.8-0.9016 179.1-25.51 4.745-28.16 7.179-57.09 7.179-86.57 0-160.3-72.39-303.7-186.3-399.3zm-705.8 32.09c-93.52 94.22-151.3 223.9-151.3 367.2 0 171.4 82.75 323.4 210.5 418.5-3.166-15.25-4.272-30.77-2.469-46.36 1.715-14.53 6.4-28.53 13.84-41.1 6.674-11.33 15.4-21.37 21.47-33.07 8.165-15.81 10.79-36.83-1.227-50.81 15.61-7.769 27.53-21.83 31.38-39.18 2.64-12.18-0.4238-23.93-0.5992-36.11-0.1754-11.11 3.206-21.32 8.72-30.85 18.08-31.15 54.73-53.8 56.02-92.9 0.078-2.57-2.523-4.302-4.881-3.708-53.06 13.59-107.2 21.4-161.9 23.79 15.82-18.7 31.38-39.65 32.33-64.86 0.38-10.98-1.964-22.47-7.693-31.92-6.762-11.2-16.34-14.18-26.69-20.98-19.07-12.56-0.5125-34.19 11.8-43.11 9.792-7.088 21.44-13.54 27.55-24.49 7.268-13.07 2.518-35.97-13.77-37.98 3.722-17.22 24.71-24.03 35.11-36.84 7.307-9.016 13.6-23.76 5.852-34.34-4.102-5.569-10.43-6.814-16.54-8.985-16.04-5.686-8.95-22.47-4.41-33.76 8.759-21.92 20.39-42.47 34.21-61.61 0.8963-1.285 0.1218-3.096-1.028-3.865-28.65-19.01-62.05-29.81-96.21-32.59z" fill="#6da42b"/><path d="m1656 237.5c-3.732-0.0331-7.431 0.1667-10.99 0.5134-10.28 1.022-20.66 2.756-30.14 7.06-4.95 2.288-9.651 5.282-13.59 9.099-5.427 5.277-8.306 10.53-16.87 10.9-7.609 0.3602-16.61-9e-3 -19.05 9.085-2.29 8.597 4.418 15.37 10.58 20.11 6.411 4.839 13.11 9.494 19.81 13.93-0.1462 3.505 1.139 6.523 3.282 8.928-2.942 1.061-2.766 5.932 0.7991 5.747 2.913-0.1169 5.864-0.3246 8.777-0.4706 2.436 0.4381 4.964 0.2784 7.293-0.4421 6.596-0.3992 13.19-0.8732 19.75-1.341 7.609-0.5452 11.36-1.059 15.77-7.388 10.71-15.32 34.21-9.033 49.7-17.51 11.33-6.231 20.51-20.83 14.17-33.69-3.498-7.098-13.56-10.19-18.41-5.89-7.988-14.14-24.71-18.5-40.88-18.64zm120.1 48.15c-0.7425 0.0196-1.496 0.0819-2.241 0.1854-13.39 1.84-21.32 15.6-20.94 28.22-10.76 3.033-17.75 11.69-19.25 21.54 0.1491-0.0408 0.2932-0.1023 0.4423-0.1426 24.94 20.94 47.75 44.3 68.39 69.5 2.861-0.2893 5.616-1.242 8.092-3.123 4.657-3.524 6.893-9.281 5.48-14.7 8.058-0.331 15.64-6.064 16.74-14.45 0.9451-7.331-3.213-14.02-9.42-17.4 6.898-7.643 8.318-18.97 4.353-28.54-4.989-12.03-17.3-18.84-29.61-21.16-0.384-11.22-10.9-20.22-22.04-19.92zm-364.7 37.21c-9.826 0.0244-19.89 3.46-28.37 7.958-4.414 2.366-8.424 6.842-13.34 6.803-4.842-0.0681-9.583-1.679-14.57-1.426-19.56 0.9152-38.54 12.46-48.31 29.46-2.328 4.001-3.172 8.26-5.024 12.41-1.647 3.68-2.375 3.352-6.38 4.364-2.981 0.7594-5.819 1.816-8.635 3.052-7.064 3.174-19.08 9.547-18.61 18.83 0.5456 10.31 12.86 16.07 21.64 17.63 1.793 0.331 3.583 0.4744 5.366 0.5134 0 0.3602 0 0.7268 0.1424 1.155 2.475 7.244 8.811 11.44 16.5 11.69 9.84 0.3602 17.56-6.333 24.12-12.99 10.32 9.103 23.89 15.9 37.92 12.58 11.73-2.794 20.88-12.34 22.05-24.2 9.909-1.782 20-3.203 29.76-5.676 6.343-1.636 12.87-4.593 15.86-10.85 5.641-11.98-4.596-24.09-14.76-29.92 5.144-7.964 10.39-17.96 7.65-27.5-2.436-8.519-10.46-12.84-18.8-13.68-1.388-0.1424-2.792-0.2032-4.196-0.1997zm-329.2 199.4c-21.88 0.2306-42.81 14.33-49.03 37.99-7.726-5.277-17.52-6.947-26.56-3.423-8.311 3.242-14.83 10.84-10.93 19.98 4.628 10.92 18.98 16.76 29.57 19.7 11.05 3.096 22.49 3.4 33.6 1.326-2.66 8.324 7.213 18.52 14.5 22.89 7.259 4.333 16.43 6.376 23.68 3.68 13.87-0.2531 27.84-1.83 41.46-4.264 9.071-1.636 21.79-3.529 24.23-13.61 12.93-3.106 29.15-9.12 29.47-24.84 0.224-12.27-11.14-17.93-21.85-19.54 4.258-11.11-0.3099-24-10.03-31.2-13.59-10.05-31.83-5.68-44.94 2.995-9.994-8.112-21.71-11.8-33.17-11.68zm492.7 255.5c-17.04 0.366-32.16 12.9-43.96 24.93-11.16-12.36-32.39-4.369-44.42 3.352-9.285 5.929-17.19 13.76-24.12 22.28-3.137 3.855-6.043 7.871-8.849 11.98-1.461 2.152-2.688 4.947-4.481 6.846-4.511 4.761-7.75 3.828-13 1.94-10.49-3.758-21.8-4.748-32.8-2.966-8.486 1.392-19.71 4.292-23.75 12.85-8.311 17.78 17.19 29.87 30.2 33.43 13.08 3.602 26.67 4.227 39.86 2.154 0.6139 0.331 1.35 0.434 2.227 0.1712 21.75-6.766 43.64 4.162 65.65 0.6275 13.37-2.152 25.38-10.78 28.52-23.92 18.1 7.75 39.89 6.759 56.08-5.362 13.51-10.19 20.33-30.59 6.337-43.47-2.952-2.726-4.798-2.322-4.068-8.115 0.2825-2.434 1.63-4.618 1.884-7.159 0.3605-3.68-0.1794-7.33-1.456-10.8-2.981-7.964-9.696-14.27-17.78-16.91-4.119-1.365-8.143-1.938-12.07-1.854zm277.8 142c-1.023-0.0196-2.048-5e-3 -3.083 0.0429-7.356 0.3992-14.71 3.684-18 10.17-9.539-7.098-22.82-7.424-33.34-1.612-5.69 3.135-9.871 7.88-12.35 13.85-0.7989 1.957-1.128 5.424-2.54 7.06-5.066 5.861-6.704 0.6843-10.9 0.8984-3.498 0.146-6.349 0.3077-9.291 2.596-18.51 14.16 4.964 44.05 28.42 49.92-1.598 0.9444-2.546 3.229-0.871 5.02 7.317 7.818 16.57 15.68 28.04 14 9.47-1.353 14.28-7.825 15.81-16.74 0.6917-4.109 0.3-8.12 5.58-9.727 2.114-0.6134 5.786 0.5949 8.164 0.5559 6.187-0.0779 12.34-1.428 18.1-3.794 9.402-3.855 17.67-10.38 23.72-18.53 9.762-13.18 17.38-42.81-2.226-51.84-4.589-2.152-8.992-1.229-13.84-0.7131-7.298 0.7497-14.23-1.002-21.39-1.155zm-513.2 132.4c-3.774 0.059-7.634 0.9337-11.26 2.681-1.958 0.9055-3.748 2.027-5.423 3.38-1.637 1.314-3.68 4.81-5.395 5.648-7.034 3.456-13.73-3.496-20.04-6.047-10.39-4.264-21.82-5.685-32.93-4.079-20.04 2.872-37.1 15.81-46.5 33.46-16.47-2.765-34.1-2.866-50.2 1.982-12.02 3.602-12.03 13.31-6.893 23.55 2.913 5.822 7.289 10.85 12.53 14.7-2.182 1.967-1.884 5.938-1.484 8.742 0.3605 2.512 1.276 6.904 3.682 8.472 9.762 15.44 30.42 15.85 47.61 14.38 8.019-0.6815 16.8-1.734 23.06-7.273 5.388-4.771 7.208-11.49 8.192-18.3 15.96 8.801 36.77 12.87 52.39 1.44 11.74-8.519 17.6-23.8 12.74-37.35 17.16-1.889 44.82-2.596 42.85-25.49-1.089-12.89-11.63-20.06-22.95-19.9z" fill="#fff"/><g fill="#6da42b"><path d="m1776 285.6c-0.7425 0.0196-1.496 0.0819-2.241 0.1854-13.39 1.84-21.32 15.6-20.94 28.22-16.57 4.673-24.3 22.68-16.6 37.86-11.25 3.709-9.57 19.19-0.9274 25.53 7.58 5.569 22.9 7.176 27.69-2.239 4.501 27.87-3.801 56.93-23.71 77.77-0.8184 0.847 0.423 2.101 1.242 1.284 0.3605-0.3602 0.6956-0.7619 1.056-1.112-0.6917 2.551 2.82 5.734 5.324 7.302 8.886 5.618 19.05 8.611 29.41 9.769 0.8966 0.0973 1.81-0.8922 1.741-1.768-1.306-19.45-1.635-38.83-1.099-58.24 4.706-0.0975 9.243-2.926 11.1-8.115 7.142 3.135 15.81 4.762 22.44-0.271 4.657-3.524 6.893-9.281 5.48-14.7 8.058-0.331 15.64-6.064 16.74-14.45 0.945-7.331-3.213-14.02-9.42-17.4 6.898-7.643 8.318-18.97 4.353-28.54-4.989-12.03-17.3-18.84-29.61-21.16-0.3839-11.22-10.9-20.22-22.04-19.92zm-101.7 162.2c-0.6322 0.0167-1.278 0.0692-1.912 0.1569-11.39 1.567-18.13 13.28-17.8 24.03-14.11 3.972-20.7 19.3-14.14 32.23-9.578 3.154-8.15 16.33-0.7853 21.73 6.44 4.741 19.49 6.102 23.56-1.911 3.839 23.72-3.238 48.46-20.18 66.2-0.6915 0.7107 0.3693 1.771 1.071 1.07 0.302-0.3018 0.573-0.6395 0.8847-0.9413-0.5944 2.171 2.39 4.894 4.524 6.218 7.561 4.79 16.22 7.327 25.05 8.3 0.7599 0.0975 1.543-0.753 1.484-1.483-1.111-16.56-1.386-33.07-0.9275-49.59 4.004-0.0877 7.86-2.497 9.448-6.917 6.07 2.677 13.45 4.07 19.1-0.2139 3.966-3.008 5.851-7.902 4.653-12.51 6.859-0.2921 13.31-5.157 14.24-12.29 0.8087-6.25-2.716-11.96-8.007-14.82 5.875-6.504 7.068-16.16 3.696-24.3-4.248-10.24-14.73-16.04-25.2-18.01-0.3195-9.547-9.27-17.2-18.75-16.96zm113.5 47.33c-0.529 0.0136-1.053 0.0545-1.584 0.1283-9.548 1.305-15.22 11.12-14.94 20.12-11.82 3.339-17.32 16.17-11.83 27-8.029 2.648-6.824 13.71-0.6568 18.23 5.398 3.972 16.33 5.097 19.74-1.612 3.215 19.88-2.717 40.6-16.91 55.46-0.5845 0.5939 0.3147 1.497 0.8994 0.9127 0.2533-0.2531 0.4794-0.5455 0.7425-0.7986-0.4969 1.821 2.013 4.086 3.796 5.206 6.333 4.001 13.59 6.156 20.98 6.974 0.6333 0.0681 1.29-0.6417 1.242-1.255-0.9353-13.88-1.164-27.71-0.7853-41.54 3.362-0.0779 6.586-2.105 7.921-5.805 5.086 2.249 11.26 3.412 16-0.1712 3.313-2.522 4.9-6.617 3.897-10.48 5.748-0.2434 11.16-4.319 11.95-10.3 0.6724-5.238-2.289-10.02-6.722-12.42 4.92-5.462 5.923-13.54 3.097-20.35-3.556-8.587-12.33-13.42-21.11-15.09-0.2738-7.996-7.777-14.41-15.71-14.2zm-115.2 248.5c-0.3789 0.0107-0.7608 0.0468-1.142 0.0999-6.84 0.9444-10.89 7.973-10.69 14.42-8.476 2.385-12.43 11.58-8.492 19.34-5.748 1.889-4.895 9.817-0.4706 13.05 3.868 2.853 11.7 3.659 14.14-1.141 2.3 14.23-1.955 29.07-12.12 39.72-0.419 0.4284 0.2328 1.065 0.642 0.656 0.1852-0.185 0.3526-0.3952 0.5281-0.5704-0.3508 1.295 1.45 2.924 2.726 3.722 4.54 2.872 9.728 4.407 15.03 4.992 0.458 0.0487 0.9236-0.4506 0.8848-0.8985-0.6626-9.931-0.8389-19.85-0.5565-29.75 2.397-0.0585 4.726-1.502 5.68-4.15 3.644 1.606 8.07 2.437 11.46-0.1426 2.377-1.791 3.504-4.737 2.783-7.502 4.112-0.1752 7.984-3.099 8.549-7.373 0.4871-3.758-1.624-7.176-4.81-8.899 3.537-3.904 4.253-9.688 2.226-14.58-2.543-6.153-8.83-9.623-15.11-10.81-0.2007-5.732-5.572-10.34-11.26-10.18zm-587.4 144.7c-0.4706 0.0133-0.9402 0.0477-1.413 0.1141-8.486 1.168-13.52 9.89-13.27 17.91-10.51 2.96-15.41 14.36-10.53 23.99-7.142 2.366-6.07 12.18-0.5856 16.22 4.803 3.534 14.53 4.532 17.57-1.426 2.855 17.67-2.416 36.11-15.04 49.32-0.5163 0.5355 0.2592 1.339 0.7853 0.813 0.2241-0.2239 0.4365-0.48 0.6704-0.7136-0.4385 1.616 1.785 3.642 3.382 4.635 5.622 3.563 12.08 5.464 18.65 6.204 0.5651 0.058 1.148-0.5861 1.099-1.141-0.8282-12.33-1.04-24.62-0.6996-36.92 2.991-0.0681 5.862-1.872 7.05-5.163 4.531 1.996 10.02 3.046 14.23-0.1569 2.942-2.23 4.355-5.89 3.468-9.327 5.115-0.2142 9.912-3.84 10.6-9.156 0.6041-4.654-2.02-8.897-5.966-11.04 4.384-4.849 5.278-12.04 2.755-18.1-3.157-7.643-10.97-11.95-18.77-13.43-0.2465-7.11-6.923-12.81-13.99-12.62z" style="mix-blend-mode:multiply"/><path d="m1760 381c-2.543 0-2.553 3.965 0 3.965 2.543 0 2.553-3.965 0-3.965zm-717 5.448c-0.6343 0-1.264 0.2861-1.513 0.8557-0.3215 0.7789-0.494 1.34-0.5135 2.196-0.049 2.6 4.112 2.6 4.053 0-0.02-0.8568-0.1822-1.417-0.5135-2.196-0.2436-0.5696-0.8778-0.8557-1.513-0.8557zm677.9 2.196c-2.767 0-2.767 4.293 0 4.293s2.777-4.293 0-4.293zm-54.85 9.598c-2.063 0.1017-2.029 3.366 0.1 3.366 2.163 0 2.163-3.366 0-3.366-0.029 0-0.068-3e-3 -0.1 0zm76.86 0.1854c-0.3536 0.0323-0.6857 0.1722-0.8993 0.4279-0.9449 1.129-1.096 2.215-1.028 3.665 0.1067 2.687 4.075 2.697 4.182 0 0.059-1.451-0.096-2.536-1.042-3.665-0.2738-0.3286-0.7581-0.4689-1.213-0.4279zm-675.2 1.298c-0.5027 0.0292-0.9888 0.2807-1.199 0.7416-0.1656 0.3407-0.3195 0.6718-0.4852 1.013-0.6625 1.383 0.1179 3.095 1.784 3.095 1.666 0 2.432-1.712 1.77-3.095-0.1656-0.3408-0.3244-0.6718-0.4706-1.013-0.2435-0.5224-0.8291-0.7743-1.399-0.7416zm31.28 1.041c-2.146 0.1059-2.116 3.494 0.1004 3.494 2.251 0 2.251-3.494 0-3.494-0.039 0-0.068-3e-3 -0.1004 0zm451.2 5.99c-2.933 0-2.933 4.564 0 4.564 2.923 0 2.933-4.564 0-4.564zm242.5 0.1141c-2.787 0-2.787 4.321 0 4.321 2.787 0 2.796-4.321 0-4.321zm-739.3 0.271c-2.323 0.1148-2.284 3.794 0.114 3.794 2.436 0 2.436-3.794 0-3.794-0.039 0-0.078-3e-3 -0.114 0zm26.19 3.979c-2.348 0-2.348 3.651 0 3.651 2.338 0 2.348-3.651 0-3.651zm619.3 5.034c-0.04 8.5e-4 -0.088 0.012-0.1294 0.0145-0.8377 0.0681-1.39 0.2057-2.141 0.5562-1.091 0.5063-1.091 2.355 0 2.881 0.7501 0.3505 1.303 0.4738 2.141 0.5419 2.522 0.1917 2.581-4.047 0.1294-3.993zm75.24 6.461c-2.407 0.2415-2.334 4.107 0.2427 4.107 2.66 0 2.66-4.107 0-4.107-0.079 0-0.1647-8e-3 -0.2427 0zm-162.8 5.405c-2.286 0.0604-2.255 3.766 0.1146 3.708 0.6528-0.0107 1.108-0.0488 1.741-0.2139 1.618-0.3992 1.618-2.867 0-3.266-0.6333-0.1655-1.088-0.2185-1.741-0.2282-0.04-9e-4 -0.077-9.4e-4 -0.1146 0zm-215.2 0.271c-1.859 0.1868-1.806 3.18 0.185 3.18 2.046 0 2.056-3.18 0-3.18-0.068 0-0.1253-5e-3 -0.185 0zm191.7 0.6845c-1.011 0.1551-0.9665 1.811 0.1567 1.811 1.169 0 1.179-1.811 0-1.811-0.059 0-0.1067-8e-3 -0.1567 0zm-499.2 1.711c-1.009 0.0663-1.903 0.9451-1.641 2.253 0.4774 2.376 2.631 3.329 4.853 2.881 2.689-0.5452 1.547-4.701-1.142-4.107-0.1364-0.0292-0.2397-0.0977-0.3566-0.1854-0.4531-0.6317-1.107-0.8814-1.713-0.8415zm565.8 3.936c-0.7912-9.8e-4 -1.581 0.4268-1.727 1.284-0.1066 0.6036-0.1938 1.184-0.2426 1.797-0.2339 2.512 4.173 2.512 3.939 0-0.059-0.6134-0.145-1.193-0.2426-1.797-0.146-0.8519-0.9352-1.282-1.727-1.284zm-273.8 1.94c-3.137 0-3.137 4.863 0 4.863 3.127 0 3.137-4.863 0-4.863zm221.5 11.55c-0.877 0.08-1.551 1.062-1.056 1.982 0.3703 0.6815 0.725 1.246 1.242 1.84 1.452 1.655 4.068-0.9738 2.412-2.424-0.5847-0.516-1.159-0.8566-1.841-1.227-0.2584-0.1384-0.5107-0.1936-0.7561-0.1712zm194.1 2.396c-0.9788 0.0837-1.899 0.8124-2.041 2.168l-0.088 0.6418c-0.3117 2.979 4.97 2.989 4.638 0-0.02-0.2142-0.04-0.4276-0.068-0.6418-0.1607-1.531-1.331-2.262-2.44-2.168zm-363.5 0.4563c-0.4169 0-0.8319 0.2638-1.042 0.7701-0.2728 0.6718-0.2902 0.8671-0.3001 1.597-0.02 1.723 2.703 1.723 2.683 0-0.013-0.7302-0.029-0.9255-0.3001-1.597-0.2095-0.5063-0.6256-0.7701-1.042-0.7701zm318.1 1.455c-2.845 0-2.845 4.421 0 4.421 2.845 0 2.845-4.421 0-4.421zm-39.19 0.813c-1.71 0.0848-1.689 2.781 0.088 2.781 1.802 0 1.802-2.781 0-2.781-0.029 0-0.059-1e-3 -0.088 0zm-659.7 1.968c-2.499 0.1232-2.452 4.065 0.1285 4.065 2.621 0 2.631-4.065 0-4.065-0.039 0-0.088-3e-3 -0.1285 0zm19.57 8.486c-0.5622 0.0389-1.109 0.3731-1.242 0.9983l-0.2572 1.227c-0.5651 2.677 3.786 2.697 3.211 0l-0.2572-1.227c-0.1501-0.7086-0.8185-1.043-1.456-0.9983zm336.3 6.503c-0.2745 0.0224-0.5514 0.1602-0.7853 0.4279-0.7112 0.8276-1.259 1.765-1.727 2.738-0.8671 1.84 1.78 3.452 2.754 1.612 0.4969-0.9444 0.9749-2.001 1.199-3.052 0.2046-0.9054-0.6186-1.792-1.441-1.726zm359.9 2.467c-0.5757 0.0429-1.133 0.409-1.384 1.098-0.1461 0.3894-0.2825 0.7988-0.3995 1.198-0.9742 3.154 4.766 3.174 3.782 0-0.1173-0.3992-0.2437-0.8086-0.3996-1.198-0.2797-0.781-0.9461-1.147-1.598-1.098zm52.01 0.7274c-2.443 0.2455-2.372 4.179 0.2425 4.179 2.689 0 2.699-4.179 0-4.179-0.088 0-0.1636-8e-3 -0.2425 0zm-75.46 5.762c-0.4824 0.0292-0.9636 0.2813-1.256 0.7559-0.4385 0.7107-0.5311 1.245-0.5992 2.082-0.2144 2.502 4.106 2.512 3.882 0-0.059-0.8373-0.1509-1.371-0.5992-2.082-0.3264-0.5379-0.8807-0.7895-1.427-0.7559zm-357.2 2.781c-0.2203 0.0136-0.4316 0.0749-0.5856 0.1854-0.9743 0.7107-1.124 1.294-1.27 2.482-0.3312 2.522 4.246 2.531 3.925 0-0.156-1.168-0.31-1.761-1.285-2.482-0.1977-0.1424-0.5018-0.2032-0.7853-0.1854zm200.8 1.198c-1.794 0.0887-1.761 2.924 0.099 2.924 1.89 0 1.89-2.924 0-2.924-0.029 0-0.068-1e-3 -0.099 0zm61.4 0.7559c-0.1763 5e-3 -0.3691 0.0331-0.5708 0.0856-0.4092 0.1072-0.8039 0.2067-1.213 0.3138-1.588 0.4089-1.588 2.79 0 3.209 0.4091 0.1072 0.8038 0.2209 1.213 0.328 3.005 0.7667 3.214-4.025 0.5708-3.936zm-603.6 12.46c-0.9841 0.0681-1.885 0.2226-2.84 0.4563-0.8184 0.1752-0.8184 1.445 0 1.64 0.9646 0.2142 1.856 0.374 2.84 0.4421 1.627 0.1072 1.627-2.646 0-2.539zm646.5 2.867c-0.3857 0.0575-0.7609 0.3911-0.8564 0.7416-0.3506 1.334 0.4727 2.406 1.028 3.594 0.7795 1.655 3.36 0.205 2.484-1.44-0.6432-1.207-0.9878-2.307-2.284-2.852-0.1253-0.0487-0.2426-0.0624-0.3713-0.0429zm151.4 3.565c-0.1214 8e-3 -0.2495 0.0224-0.3848 0.0429-0.4094 0.0681-0.8839 0.5324-0.9423 0.9413-0.2144 1.451 0.2659 1.997 1.299 2.981 1.724 1.616 4.239-0.8867 2.612-2.61-0.8914-0.9441-1.414-1.431-2.583-1.355zm-406.9 2.51c-0.5534 0.0408-1.085 0.3936-1.313 1.055-0.2242 0.6523-0.2572 1.006-0.2572 1.697 0 2.171 3.382 2.181 3.382 0 0-0.6913-0.049-1.045-0.2709-1.697-0.2591-0.75-0.9139-1.102-1.541-1.055zm-378 2.467c-0.1102 8e-3 -0.2212 0.0292-0.343 0.0575-0.4092 0.0779-0.8282 0.1775-1.227 0.3138-1.189 0.3797-1.189 2.045 0 2.424 0.3994 0.1461 0.8184 0.2599 1.227 0.328 2.452 0.5568 2.572-3.277 0.343-3.123zm748.2 4.792c-0.7989 0.0575-1.566 0.5419-1.812 1.455-0.1174 0.3992-0.2214 0.813-0.3284 1.212-1.043 3.855 5.662 3.865 4.61 0-0.1066-0.3992-0.2114-0.813-0.3282-1.212-0.2798-1.034-1.235-1.519-2.141-1.455zm-723.8 1.883c-0.4726 0.0175-0.9705 0.1256-1.47 0.3423-1.452 0.6328-0.4053 2.88 1.056 2.51 0.5261-0.146 0.7668 0.1661 0.9421 0.5848 0.6333 1.499 3.166 0.4304 2.64-1.098-0.5407-1.577-1.752-2.392-3.168-2.339zm739.5 2.182c-0.2572 0.0185-0.5204 0.0916-0.7853 0.2282-0.7112 0.3602-1.303 0.8725-1.927 1.369-2.231 1.772 1.333 5.339 3.126 3.109 0.4968-0.6231 0.9998-1.2 1.37-1.911 0.7317-1.429-0.3956-2.897-1.784-2.795zm-216.3 2.681c-1.321 0.0945-2.383 1.774-1.199 3.052 0.7211 0.7789 1.064 1.332 2.155 1.497 1.218 0.185 2.055-0.6512 1.87-1.868-0.156-1.11-0.7288-1.471-1.499-2.182-0.4238-0.3919-0.8867-0.5308-1.327-0.4992zm-207.4 0.7701c-0.2134 0.0292-0.4249 0.1269-0.5709 0.2853-0.6431 0.6815-0.7171 1.086-0.7561 2.011-0.079 1.898 3.022 1.908 2.954 0-0.04-0.9152-0.1568-1.349-0.7705-2.011-0.2144-0.2312-0.5447-0.3286-0.8564-0.2853zm451.1 1.426c-2.676 0.1319-2.634 4.35 0.128 4.35 2.806 0 2.806-4.35 0-4.35-0.04 0-0.088-3e-3 -0.128 0zm-114.7 7.601c-2.946 0.1454-2.907 4.792 0.1424 4.792 3.098 0 3.098-4.792 0-4.792-0.049 0-0.096-3e-3 -0.1424 0zm91.24 4.307c-0.754 0.0564-1.475 0.5465-1.813 1.455-0.2532 0.6621-0.2989 1.139-0.3282 1.84-0.1267 2.969 4.722 2.979 4.596 0-0.029-0.701-0.088-1.178-0.3284-1.84-0.3828-1.029-1.272-1.519-2.127-1.455zm-371.5 1.369c-0.27 0.0459-0.5165 0.2612-0.5428 0.6275l-0.088 1.298c-0.059 0.9444 1.552 0.9541 1.484 0l-0.088-1.298c-0.029-0.471-0.4228-0.6864-0.7708-0.6275zm102.9 4.278c-0.3546 0.0331-0.7005 0.1923-0.9558 0.4563-0.7503 0.7692-0.9392 1.335-0.8711 2.396 0.156 2.551 3.807 2.551 3.953 0 0.069-1.051-0.1401-1.646-0.8709-2.396-0.3283-0.3396-0.7999-0.4988-1.256-0.4563zm300 4.336c-3.137 0-3.137 4.863 0 4.863 3.128 0 3.137-4.863 0-4.863zm-186.4 1.711c-0.8573 0.0779-1.396 0.1446-2.098 0.6703-0.9937 0.7692-0.9937 1.941 0 2.71 0.7016 0.5257 1.241 0.5924 2.098 0.6703 2.602 0.2142 2.611-4.264 0-4.05zm139.5 14.65c-0.3166 0-0.637 0.0819-0.8564 0.2424-1.072 0.7789-1.325 1.433-1.413 2.767-0.185 2.911 4.71 2.911 4.524 0-0.088-1.314-0.3411-1.978-1.413-2.767-0.2192-0.1606-0.525-0.2424-0.8418-0.2424zm-84.93 3.951c-0.4736 0.036-0.9267 0.2887-1.213 0.8272-0.5456 1.013-1.319 1.555-2.498 1.526-2.416-0.0585-2.338 3.48 0 3.694 2.592 0.2532 4.913-1.41 5.566-3.922 0.3285-1.238-0.8124-2.205-1.855-2.125zm41.79 1.198c-0.57 0.0341-1.117 0.3223-1.427 0.8699-0.4385 0.7692-0.572 1.305-0.5426 2.211 0.1066 2.677 4.084 2.687 4.182 0 0.04-0.9054-0.096-1.441-0.5427-2.211-0.3517-0.6206-1.024-0.9088-1.67-0.8699zm-155.2 3.68c-2.346 0.2353-2.282 4.008 0.2282 4.008 2.582 0 2.582-4.008 0-4.008-0.079 0-0.1531-8e-3 -0.2282 0zm259.7 3.337c-3.293 0-3.303 5.12 0 5.12 3.293 0 3.303-5.12 0-5.12zm-205 3.437c-0.3244 0.0107-0.6558 0.0419-0.9848 0.0856-2.114 0.2044-2.124 3.104 0 3.309 0.4385 0.0585 0.8701 0.0711 1.299 0.0711 2.231 0.0779 2.241-3.543 0-3.466-0.1067 0-0.2057-4e-3 -0.314 0zm176.4 12.56c-0.049 1e-3 -0.104 9e-3 -0.1569 0.0145-4.277 0.37-3.274 6.868 0.6421 5.719 1.121-0.331 1.806-1.628 1.67-2.738 0.2455-1.377-0.5544-3.035-2.155-2.995zm-107.1 4.264c-0.2892 9.7e-4 -0.5875 0.0896-0.8563 0.2852-0.4872 0.3505-0.9645 0.7049-1.442 1.055-2.738 1.996 0.8478 5.608 2.855 2.852 0.3506-0.4771 0.7102-0.9634 1.07-1.44 0.8466-1.171-0.3722-2.757-1.627-2.752zm-155.1 2.867c-0.3039 0.0633-0.2757 0.5704 0.068 0.5704 0.3703 0 0.3703-0.5704 0-0.5704-0.02 0-0.049-4e-3 -0.068 0zm271.1 1.84c-1.127 0.0477-2.222 0.8394-2.326 2.353-0.077 1.139 0.1647 1.956 1.042 2.695 0.8769 0.7399 1.906 0.7497 2.783 0 0.9061-0.7594 1.124-1.556 1.056-2.695-0.1107-1.611-1.355-2.404-2.555-2.353zm20.84 1.383c-2.797 0.1377-2.759 4.535 0.1293 4.535 2.933 0 2.933-4.535 0-4.535-0.049 0-0.088-3e-3 -0.1293 0zm-157.7 4.079c-2.583 0.1275-2.538 4.207 0.128 4.207 2.708 0 2.718-4.207 0-4.207-0.04 0-0.088-3e-3 -0.128 0zm-79.07 0.1283c-0.1094 5e-3 -0.2182 0.0283-0.3284 0.0429-2.484 0.1363-2.494 3.729 0 3.865 0.4385 0.0487 0.8701 0.0399 1.299-0.0283 2.446-0.2434 2.455-3.574 0-3.808-0.3215-0.0585-0.6422-0.0896-0.9704-0.0711zm140.3 4.721c-3.02 0.1491-2.984 4.92 0.1434 4.92 3.166 0 3.176-4.92 0-4.92-0.049 0-0.096-3e-3 -0.1434 0zm-169.4 8.742c-0.5184 0.0292-1.008 0.2813-1.213 0.7559-0.224 0.5063-0.4423 1.024-0.6567 1.54-1.335 3.271 5.298 3.291 3.953 0-0.2045-0.516-0.4276-1.034-0.642-1.54-0.2378-0.5379-0.8546-0.7895-1.441-0.7559zm-551.5 0.0711c-0.068 5e-3 -0.1383 0.0156-0.2143 0.0281-0.4092 0.0779-0.8321 0.1458-1.242 0.2139-1.198 0.2142-1.198 2.21 0 2.424 0.4092 0.0681 0.8321 0.136 1.242 0.2139 2.312 0.4056 2.399-3.054 0.2143-2.881zm766.7 1.768c-1.225-1e-3 -2.456 0.7676-2.384 2.296 0.013 0.2142 0.02 0.4418 0.029 0.656 0.156 3.018 4.549 3.018 4.696 0 0.013-0.2142 0.02-0.4418 0.029-0.656 0.068-1.524-1.144-2.295-2.369-2.296zm-781.1 5.491c-0.4033 0.0341-0.8057 0.2276-1.156 0.6133-0.682 0.7497-1.213 1.279-1.427 2.282-0.2533 1.227 0.7278 2.211 1.955 1.968 1.013-0.2142 1.543-0.7686 2.284-1.44 1.514-1.373-0.078-3.556-1.656-3.423zm626 1.469c-1.111 0.0681-1.77 0.2237-2.384 1.227-0.2241 0.37-0.2241 0.8754 0 1.255 0.6138 0.9736 1.253 1.149 2.384 1.227 2.387 0.1558 2.387-3.874 0-3.708zm226.7 2.111c-2.881 0.142-2.854 4.692 0.1293 4.692 3.03 0 3.03-4.692 0-4.692-0.049 0-0.079-3e-3 -0.1293 0zm-168.6 5.904c-0.8876 0.0848-1.48 0.6744-2.269 1.412-2.046 1.918 1.164 5.125 3.083 3.081 0.9841-1.051 1.712-1.747 1.313-3.266-0.1364-0.5355-0.5876-0.9904-1.113-1.127-0.3801-0.0972-0.7172-0.1279-1.014-0.0999zm-146.7 0.271c-0.8399-4e-3 -1.594 0.905-1.313 1.74 0.2924 0.8957 0.7279 1.514 1.342 2.225 1.549 1.733 4.299-1.005 2.555-2.553-0.7013-0.6134-1.325-1.039-2.212-1.341-0.1214-0.0399-0.2514-0.0711-0.3712-0.0711zm268.2 9.313c-2.917 0.2341-2.598 5.887 1.013 4.863 0.3995-0.1168 0.8037-0.2255 1.213-0.3423 2.007-0.5744 2.007-3.49 0-4.065-0.4092-0.1168-0.8135-0.2255-1.213-0.3423-0.3712-0.1049-0.7112-0.1383-1.013-0.1141zm-236.9 7.074c-2.465 0-2.475 3.851 0 3.851 2.475 0 2.475-3.851 0-3.851zm146 8.814c-1.641 0.1342-3.113 2.37-1.527 3.794 0.5944 0.5452 1.216 1.003 1.898 1.412 1.627 1.022 3.663-1.012 2.64-2.638-0.4192-0.6718-0.8771-1.303-1.413-1.897-0.4773-0.5282-1.052-0.715-1.598-0.6703zm-79.52 8.386c-0.1344-3e-3 -0.2621 0.0175-0.3996 0.0575-2.173 0.6231-3.137 2.526-2.64 4.678 0.5749 2.453 4.459 1.417 3.796-1.027-0.1267-0.4478 0.077-0.6784 0.4141-0.9413 1.183-0.9441 0.1253-2.749-1.17-2.767zm218.8 11.24c-1.234 0.1044-2.366 1.023-1.941 2.753 0.059 0.2531 0.1267 0.5028 0.1852 0.7559 0.2632 1.09 1.145 1.503 2.012 1.455 0.8671 0.0487 1.74-0.3642 2.012-1.455 0.059-0.2531 0.1173-0.5028 0.1849-0.7559 0.4766-1.945-1.056-2.871-2.455-2.753zm-251.5 0.0145c-2.62 0.1291-2.586 4.264 0.128 4.264 2.748 0 2.748-4.264 0-4.264-0.04 0-0.088-3e-3 -0.128 0zm71.68 3.979c-0.798 0.0585-1.573 0.5574-1.884 1.497-0.2241 0.6718-0.2853 1.167-0.2853 1.868-0.04 2.999 4.696 3.008 4.667 0-0.013-0.701-0.077-1.197-0.3-1.868-0.3576-1.065-1.293-1.564-2.198-1.497zm-100.6 0.0575c-0.233 0.0156-0.4531 0.0701-0.6704 0.1569-0.877-0.0292-1.825 0.4644-2.098 1.341-1.052 3.271 4.454 4.398 5.038 1.127 0.3126-1.766-1.013-2.706-2.269-2.624zm-74.27 7.887c-0.8146 0.0273-1.378 0.2255-1.984 0.8985-0.5458 0.6036-0.5554 1.459 0 2.082 0.7112 0.7789 1.318 0.9134 2.341 0.8842 2.494-0.0487 2.494-3.797 0-3.865-0.128-3e-3 -0.2406-4e-3 -0.3566 0zm30.34 0.4136c-0.9119-0.0133-1.774 1.008-1.442 1.911 0.3314 0.9054 0.7414 1.571 1.384 2.282 1.666 1.86 4.577-1.064 2.726-2.738-0.7112-0.6426-1.373-1.043-2.269-1.383-0.128-0.0477-0.269-0.0692-0.3996-0.0711zm-73.1 2.852c-0.4834 0.036-0.9414 0.3474-1.156 0.9271-0.1849 0.3894-0.3136 0.7838-0.3428 1.212-0.4677 2.648 3.665 2.668 3.197 0-0.04-0.4284-0.158-0.8228-0.3421-1.212-0.2436-0.6569-0.8087-0.968-1.356-0.9271zm-52.05 2.125c-0.7132 0-1.425 0.4317-1.727 1.284-0.2337 0.6718-0.2815 1.053-0.2425 1.783 0.1173 2.531 3.836 2.541 3.953 0 0.04-0.7302-0.013-1.111-0.2572-1.783-0.3021-0.8519-1.013-1.284-1.727-1.284zm-399.1 5.405c-1.832 0.1833-1.768 3.123 0.1861 3.123 2.017 0 2.017-3.123 0-3.123-0.058 0-0.1267-5e-3 -0.1861 0zm641.6 3.523c-0.9866 0-1.978 0.6589-2.012 1.954-0.02 0.701 0.029 1.101 0.2572 1.783 0.5553 1.714 2.946 1.723 3.511 0 0.2242-0.6815 0.2621-1.082 0.2428-1.783-0.04-1.295-1.012-1.954-1.998-1.954zm64.94 3.808c-2.398 0.2404-2.315 4.093 0.2426 4.093 2.64 0 2.64-4.093 0-4.093-0.079 0-0.1656-8e-3 -0.2426 0zm-11.75 12.29c-0.2973 4e-3 -0.5983 0.1358-0.8564 0.4279-1.111 1.266-2.047 2.668-3.011 4.05-1.072 1.558 1.469 3.017 2.54 1.469 0.8866-1.275 1.824-2.549 2.555-3.922 0.5194-0.9566-0.3362-2.037-1.227-2.025zm-100.9 3.508c-0.5689 0.0281-1.284 0.4028-1.513 0.9413-0.3217 0.7496-0.3217 1.123 0 1.883 0.2435 0.5744 1.042 0.9466 1.627 0.9271 0.2241-0.0107 0.4423-0.0185 0.6568-0.0283 2.377-0.0779 2.387-3.606 0-3.694l-0.6568-0.0281c-0.04-1e-3 -0.079-3e-3 -0.1147 0zm-586 0.7416c-1.327 0.1336-1.287 2.268 0.1286 2.268 1.461 0 1.461-2.268 0-2.268-0.049 0-0.088-4e-3 -0.1286 0zm439.4 1.212c-0.5015 0.0341-0.9898 0.3372-1.113 0.8985-0.097 0.4089-0.1832 0.8176-0.2709 1.226-0.5554 2.473 3.524 2.492 2.969 0-0.088-0.4089-0.1834-0.8176-0.2711-1.226-0.1451-0.631-0.7444-0.9368-1.313-0.8985zm100.5 3.58c-0.9355 0.0389-1.402 0.1463-2.055 0.7986-0.4093 0.3992-0.4093 1.098 0 1.497 0.6721 0.6815 1.12 0.7597 2.055 0.7987 1.997 0.0779 1.997-3.173 0-3.095zm-552.8 2.139c-0.3478 0.0283-0.6752 0.2658-0.6703 0.713 0 0.4381 0.011 0.874 0.011 1.312 0.019 0.9249 1.441 0.9249 1.441 0 0.011-0.4381 0.029-0.874 0.029-1.312 0.011-0.5068-0.419-0.7448-0.8136-0.713zm856.6 0.0575c-0.604 0.0585-1.19 0.1353-1.784 0.2424-1.695 0.331-1.695 3.116 0 3.437 0.5944 0.1265 1.18 0.184 1.784 0.2424 2.524 0.2434 2.533-4.156 0-3.922zm-361.2 2.467c-0.4764-4e-3 -0.9695 0.1758-1.413 0.5847 0.059-0.0487 0.02-0.1081-0.088-0.1568-1.919-1.266-3.453 1.409-2.255 2.938 1.413 1.801 3.73 1.552 5.338 0.2282 1.621-1.354 0.1187-3.581-1.584-3.594zm-72.97 6.86c-0.8079 0.0341-1.604 0.6224-1.756 1.754-0.059 0.4381-0.1133 0.8597-0.1716 1.298-0.3311 2.551 4.328 2.561 3.996 0-0.059-0.4381-0.1133-0.8597-0.1717-1.298-0.1558-1.2-1.038-1.79-1.898-1.754zm234.7 0.9555c-2.689 0.1558-2.689 4.047 0 4.193 0.9061 0.0487 1.428-0.0789 2.198-0.5562 1.15-0.7302 1.15-2.346 0-3.066-0.7698-0.4868-1.292-0.6094-2.198-0.5704zm-632.2 4.521c-0.9953 9e-3 -1.828 1.128-1.242 2.125 0.6917 1.227 1.58 2.182 2.555 3.195 1.627 1.675 4.279-0.9652 2.583-2.581-1.013-0.9736-1.969-1.852-3.197-2.553-0.2319-0.1315-0.4696-0.1873-0.6995-0.1854zm592.8 3.836c-1.113 0.0185-1.69 0.6504-2.512 1.426-1.929 1.801 1.08 4.809 2.883 2.881 0.8184-0.8762 1.491-1.477 1.413-2.752-0.049-0.8762-0.6792-1.492-1.556-1.54-0.079-4e-3 -0.154-0.0156-0.228-0.0145zm-160.3 14.5c-1.637 0.1634-1.589 2.781 0.1569 2.781 1.793 0 1.793-2.781 0-2.781-0.059 0-0.104-4e-3 -0.1569 0zm346.6 3.038c-0.4531 0.0389-0.9032 0.2392-1.299 0.6703-0.2728 0.3018-0.5554 0.6109-0.8282 0.9128-0.682 0.7399-0.8203 1.752-0.343 2.638 0.1851 0.3505 0.4346 0.5994 0.7854 0.7844 0.8964 0.4771 1.91 0.3295 2.64-0.3423 0.302-0.2726 0.6012-0.5351 0.9129-0.8272 1.685-1.552-0.097-3.987-1.87-3.836zm-250.1 3.48c-0.3079 0.0292-0.5992 0.165-0.8418 0.3993-0.76 0.7107-0.8692 1.279-0.9276 2.282-0.1461 2.453 3.957 2.463 3.811 0-0.059-1.003-0.1723-1.591-0.9128-2.282-0.3128-0.3012-0.7318-0.437-1.128-0.3993zm-554 3.109c-1.035 0.1035-1.004 1.768 0.099 1.768 1.14 0 1.14-1.768 0-1.768-0.039 0-0.068-4e-3 -0.099 0zm660.9 4.122c-0.6392 0.038-1.26 0.3673-1.584 0.9698-0.4287 0.8081-0.5806 1.391-0.571 2.296 0.029 2.931 4.514 2.94 4.553 0 0.013-0.9054-0.1422-1.488-0.5709-2.296-0.3625-0.6827-1.102-1.012-1.827-0.9698zm-241.1 4.193c-0.4072 0.0848-0.3798 0.7701 0.088 0.7701 0.4971 0 0.4971-0.7701 0-0.7701-0.029 0-0.059-5e-3 -0.088 0zm24.73 0.1283c-0.6024 0.0439-1.176 0.4193-1.413 1.127-0.1364 0.3992-0.2544 0.7988-0.3714 1.198-0.9158 3.184 4.736 3.203 3.811 0-0.1067-0.3992-0.2202-0.7989-0.3566-1.198-0.2638-0.8017-0.9868-1.177-1.67-1.127zm290.7 1.07c-0.6722 0.0507-1.331 0.4854-1.641 1.298-0.3994 1.042-0.5036 1.985-0.5426 3.095-0.1066 2.96 4.717 2.969 4.61 0-0.04-1.11-0.1293-2.063-0.5281-3.095-0.3516-0.9206-1.136-1.355-1.898-1.298zm-328.5 6.66c-0.6684 0.0468-1.306 0.445-1.484 1.198l-0.3001 1.212c-0.7503 3.184 4.575 3.203 3.825 0l-0.3001-1.212c-0.1967-0.8535-0.9835-1.251-1.741-1.198zm427.7 0.2568c-0.6139 0.0292-1.023 0.0876-1.627 0.2139-1.15 0.2629-1.15 2.076 0 2.339 0.6039 0.1265 1.013 0.1847 1.627 0.2139 1.773 0.0779 1.783-2.845 0-2.767zm-344.4 0.6275c-0.4151 0.0352-0.8409 0.2276-1.213 0.6133-0.7307 0.7594-1.186 1.304-1.556 2.268-0.4775 1.207 0.9753 2.664 2.184 2.196 0.984-0.3797 1.519-0.8483 2.269-1.569 1.514-1.466-0.06-3.645-1.684-3.508zm303.7 6.19c-0.4881 0.0408-0.9968 0.2515-1.456 0.6845-0.3021 0.2726-0.607 0.5689-0.8993 0.8415-2.299 2.161 1.301 5.745 3.454 3.437 0.2824-0.2921 0.5592-0.5824 0.8417-0.8842 1.693-1.8-0.029-4.24-1.941-4.079zm-134.1 0.9555-0.013 0.0145-0.013 0.0147c-0.04 0.0477-0.029 0.1522 0.013 0.1997l0.013 0.0145c0.02 7e-3 0.04 0 0.059 0s0.059-7e-3 0.068-0.0145c0.069-0.0487 0.049-0.18-0.013-0.2282-0.019-7e-3 -0.04 0-0.059 0-0.02 0-0.04-7e-3 -0.06 0zm-530.6 0.7844c-2.388 0.1179-2.36 3.893 0.114 3.893 2.514 0 2.514-3.893 0-3.893-0.04 0-0.078-3e-3 -0.114 0zm464.1 3.879c-2.426 0.1196-2.399 3.95 0.1147 3.95 2.543 0 2.553-3.95 0-3.95-0.04 0-0.079-3e-3 -0.1147 0zm96.47 1.284c-2.444 0.1207-2.418 3.979 0.1134 3.979 2.562 0 2.562-3.979 0-3.979-0.04 0-0.077-3e-3 -0.1134 0zm-7.75 7.773c-0.8915 0.0437-0.8778 1.455 0.04 1.455 0.9354 0 0.9354-1.455 0-1.455-0.013 0-0.029-7.2e-4 -0.04 0zm-267.3 3.294c-0.5445 0.0389-1.053 0.3679-1.213 0.984-0.096 0.4089-0.2066 0.8033-0.3138 1.212-0.7113 2.746 4.004 2.765 3.283 0-0.1067-0.4089-0.1929-0.8033-0.3-1.212-0.1813-0.6983-0.8389-1.028-1.456-0.984zm224.1 2.239c-2.018 0.2021-1.952 3.437 0.1997 3.437 2.221 0 2.221-3.437 0-3.437-0.068 0-0.1345-7e-3 -0.1997 0zm121.3 5.576c-0.456 0.0263-0.9023 0.255-1.084 0.6703-0.4776 1.081-0.7991 2.083-0.8284 3.28-0.059 2.58 4.069 2.59 4.011 0-0.029-1.188-0.3645-2.199-0.8417-3.28-0.2077-0.4706-0.7396-0.6997-1.256-0.6703zm-100.3 0.0999c-3.274 0-3.283 5.091 0 5.091 3.274 0 3.284-5.091 0-5.091zm-585.4 4.692c-2.165 0.1068-2.135 3.523 0.1002 3.523 2.27 0 2.28-3.523 0-3.523-0.039 0-0.068-3e-3 -0.1002 0zm30 4.036c-0.114 4e-3 -0.2309 0.0312-0.3566 0.0575-0.4092 0.0779-0.8184 0.1645-1.227 0.2424-1.335 0.2629-1.335 2.409 0 2.681 0.4092 0.0876 0.8184 0.1645 1.227 0.2424 2.535 0.5104 2.67-3.334 0.3566-3.223zm7.907 6.075c-2.67 0-2.679 4.15 0 4.15 2.67 0 2.679-4.15 0-4.15zm487.4 11.97c-0.7143 0.0525-1.401 0.5008-1.67 1.341-0.1267 0.3894-0.2445 0.7845-0.3712 1.184-1.169 3.661 5.575 3.68 4.396 0-0.1267-0.3992-0.263-0.7943-0.3994-1.184-0.3001-0.9517-1.146-1.4-1.955-1.341zm-517.5 11.15c-0.3653 0.0215-0.72 0.1997-0.8847 0.5419-0.2338 0.477-0.414 0.9244-0.5992 1.44-0.9548 2.599 4.09 2.619 3.126 0-0.1851-0.516-0.3653-0.9634-0.5992-1.44-0.1919-0.3879-0.6274-0.5662-1.042-0.5419zm555.4 20.38c-0.6869 0-1.376 0.3816-1.541 1.141-0.1267 0.5842-0.1891 1.132-0.2574 1.726-0.2726 2.317 3.884 2.327 3.611 0-0.059-0.5939-0.1441-1.142-0.2708-1.726-0.1657-0.7594-0.8544-1.141-1.541-1.141zm-117.5 1.184c-0.376 0.0351-0.7531 0.1894-1.056 0.4706-0.8184 0.7691-0.9596 1.434-0.999 2.524-0.096 2.843 4.517 2.843 4.41 0-0.04-1.09-0.186-1.775-0.9848-2.524-0.3888-0.3615-0.8865-0.5158-1.37-0.4706zm-456.3 18.24c-0.8223 0.0644-1.598 0.6287-1.584 1.683 0 0.2726 0 0.5358 0.011 0.7986 0 0.0487 0.011 0.08 0.011 0.1283 0.011 0.1947 0.049 0.3719 0.1287 0.5277 0.029 0.0877 0.078 0.1788 0.114 0.2567 0.049 0.0779 0.1033 0.1172 0.1715 0.1854 0.2631 0.3018 0.6138 0.479 1.013 0.5277 0.1072 0.0196 0.2212 0.0145 0.3283 0.0145 0.088 0 0.1696 0.0107 0.2573 0 0.3897-0.0487 0.7404-0.2161 1.013-0.5277 0.058-0.0681 0.1364-0.1219 0.1851-0.1997 0.039-0.0681 0.068-0.1503 0.1002-0.2282 0.088-0.1655 0.119-0.3518 0.1287-0.5562 0-0.0389 0.011-0.0799 0.011-0.1284l0.011-0.7986c0.011-1.19-0.9807-1.756-1.912-1.683zm491.3 1.098c-1.207 0.07-2.312 1.023-1.812 2.496 0.3701 1.12 0.8252 2.143 1.341 3.195 1.276 2.609 5.246 0.3176 3.911-2.282-0.4482-0.8762-0.9188-1.688-1.484-2.496-0.4677-0.6754-1.231-0.9545-1.955-0.9128zm-481 5.862c-0.029 4e-3 -0.049 0.0107-0.088 0.0145-0.4189 0.0292-0.8281 0.1249-1.227 0.271-0.9354 0.2921-0.9354 1.605 0 1.897 0.3995 0.146 0.8087 0.2417 1.227 0.2709 2.004 0.2875 2.036-2.649 0.088-2.453zm-25.98 0.87c-0.2318 0.0167-0.4735 0.0927-0.7132 0.2139-0.5358 0.2629-1.048 0.5404-1.584 0.813-3.303 1.762 1.319 6.41 3.083 3.081 0.2826-0.5257 0.5554-1.062 0.8282-1.597 0.6499-1.29-0.3595-2.6-1.613-2.51zm563.2 2.31c-2.407 0.1187-2.365 3.922 0.128 3.922 2.533 0 2.533-3.922 0-3.922-0.04 0-0.088-3e-3 -0.128 0zm-71.76 3.722c-0.9188 0.0615-1.785 0.5876-1.927 1.569l-0.1853 1.255c-0.5455 3.826 5.141 3.855 4.596 0-0.069-0.4186-0.1266-0.8364-0.1852-1.255-0.1549-1.112-1.257-1.638-2.298-1.569zm-525.4 0.1141c-0.5729 0.0273-1.12 0.3332-1.456 1.027-0.6138 1.275-1.569 2.609-1.013 4.05 0.2923 0.7594 1.017 1.323 1.884 1.07 1.549-0.4478 1.964-1.747 2.626-3.081 0.8223-1.629-0.6849-3.132-2.041-3.066zm503.3 4.393c-0.6234 0.0437-1.22 0.4239-1.399 1.127-0.3604 1.421-0.6048 2.865-0.5855 4.336 0.04 2.707 4.186 2.716 4.224 0 0.019-1.47-0.225-2.914-0.5856-4.336-0.2017-0.7965-0.948-1.176-1.655-1.127zm131.6 2.524c-0.3253 0.0273-0.6489 0.1827-0.9276 0.4991-0.6139 0.701-1.094 1.21-1.299 2.125-0.1948 0.8957 0.5456 1.631 1.442 1.426 0.9061-0.1947 1.445-0.6702 2.127-1.284 1.242-1.086-0.068-2.875-1.342-2.767zm-569.6 15.9c-0.8116 0.0711-1.466 0.8877-1.227 1.726 0.2046 0.7107 0.4657 1.35 0.8847 1.954 1.851 2.687 5.453-0.8884 2.754-2.738-0.6138-0.4284-1.244-0.6842-1.955-0.8985-0.1568-0.0429-0.3059-0.0555-0.4569-0.0429zm500.6 6.018c-0.757 0.0292-1.505 0.4425-1.827 1.341-0.088 0.2434-0.4813 0.2853-0.6568 0.2853-1.13 0.0107-2.026 1.64-1.013 2.439 2.104 1.636 4.502 0.6635 5.466-1.683 0.5903-1.436-0.7073-2.431-1.97-2.382zm23.14 1.127c-0.8506-0.0107-1.362 0.2821-2.069 0.87-0.6527 0.5355-0.643 1.799 0 2.325 0.8381 0.701 1.368 0.9486 2.469 0.8415 2.582-0.2434 2.582-3.764 0-4.008-0.1364-0.0136-0.278-0.0273-0.3996-0.0283zm-574.6 9.655c-0.5797 0.0429-1.142 0.4039-1.37 1.084-0.1364 0.3992-0.2542 0.7988-0.3712 1.198-0.9548 3.106 4.69 3.125 3.725 0-0.117-0.3992-0.2396-0.7988-0.3858-1.198-0.2533-0.7707-0.9412-1.132-1.598-1.084zm597.1 7.958c-0.4483 0.0263-0.8788 0.255-1.085 0.6703-0.1656 0.3408-0.3381 0.6673-0.5136 0.9983-0.6916 1.295 0.1444 2.952 1.684 2.952 1.539 0 2.38-1.657 1.698-2.952-0.1851-0.331-0.3478-0.6576-0.5136-0.9983-0.2376-0.4706-0.7628-0.6997-1.27-0.6703zm-606 15.39c-0.1607 0.0107-0.3176 0.0389-0.4852 0.0683-0.5066 0.1071-1.006 0.6017-1.113 1.098-0.2631 1.353 0.151 2.461 1.213 3.337 2.27 1.869 5.096-0.9405 3.226-3.209-0.7668-0.9288-1.715-1.384-2.84-1.298zm35.1 1.013c-1.394 0.1081-2.629 1.968-1.299 3.209 0.799 0.7497 1.481 1.415 2.64 1.269 0.76-0.0876 1.197-0.5141 1.284-1.284 0.1461-1.159-0.5106-1.826-1.27-2.624-0.4141-0.443-0.8915-0.6066-1.356-0.5705zm504.4 0.185c-1.134 0.1043-2.025 1.396-1.37 2.567 0.3117 0.5257 0.6052 1.011 0.9848 1.498 2.046 2.658 5.544-0.7925 2.854-2.867-0.4872-0.37-0.9577-0.6582-1.484-0.9697-0.3282-0.185-0.6673-0.257-0.9848-0.2278zm-513.5 10.21c-1.18 4e-3 -2.185 1.209-1.827 2.41 0.302 0.9931 0.7921 1.699 1.513 2.439 2.066 2.122 5.388-1.192 3.254-3.266-0.7404-0.7205-1.432-1.205-2.426-1.498-0.1715-0.0488-0.3449-0.0877-0.5135-0.0877zm560.6 7.117c-0.1106 3e-3 -0.2201 0.0292-0.3282 0.0681-0.8768 0.3602-1.363 0.7886-2.055 1.44-1.442 1.383 0.8145 3.637 2.198 2.196 0.6625-0.6913 1.081-1.177 1.442-2.054 0.3068-0.7584-0.4767-1.67-1.256-1.654zm-65.17 3.465c-0.1528-1e-4 -0.3029 0.019-0.4568 0.068-0.9549 0.3214-1.638 0.7838-2.398 1.426-2.144 1.85 1.26 5.261 3.111 3.109 0.6527-0.7595 1.101-1.437 1.413-2.382 0.3576-1.073-0.601-2.224-1.67-2.225zm45.61 4.236c-0.9089 0.029-1.583 0.8431-1.37 1.797 0.2143 0.954 0.6363 1.624 1.299 2.325 1.734 1.869 4.658-1.053 2.797-2.795-0.7014-0.6523-1.381-1.069-2.326-1.284-0.1373-0.029-0.2698-0.049-0.3994-0.039zm-525.5 21.98c-0.5378 0.029-1.056 0.2911-1.27 0.7847-0.2241 0.516-0.4423 1.029-0.6567 1.555-1.374 3.359 5.451 3.388 4.068 0-0.2144-0.5257-0.4326-1.039-0.6567-1.555-0.2436-0.5588-0.8749-0.8198-1.484-0.7847zm-61.4 4.806c-2.346 0.2346-2.268 3.993 0.2426 3.993 2.582 0 2.592-3.993 0-3.993-0.078 0-0.1666-0.011-0.2426 0zm593.2 6.361c-0.4217-0.011-0.8573 0.098-1.227 0.3135-1.286 0.088-2.17 1.304-1.927 2.638 0.4971 2.746 4.918 2.506 5.366-0.1432 0.2923-1.782-0.948-2.788-2.212-2.809zm-566.9 3.052c-0.2592-1e-4 -0.5359 0.068-0.8136 0.2142-1.111 0.5939-2.269 0.9761-2.883 2.125-0.3605 0.6815-0.1012 1.794 0.7853 1.94 1.481 0.2238 2.51-0.4606 3.825-1.084 1.708-0.8197 0.6703-3.194-0.9129-3.194zm594.5 8.914c-1.169 0.029-1.797 0.2336-2.469 1.226-0.2534 0.37-0.2534 0.9992 0 1.369 0.6624 0.9834 1.28 1.197 2.469 1.227 2.455 0.049 2.455-3.881 0-3.822zm-44.81 6.603c-2.78 0.097-2.971 5.86 0.9422 4.949 1.422-0.331 1.699-1.724 1.27-2.795 0.068-0.7107-0.179-1.441-0.871-1.811-0.4979-0.2541-0.944-0.3555-1.341-0.3428zm27.75 21.95c-2.481 0.1216-2.432 4.036 0.128 4.036 2.601 0 2.601-4.036 0-4.036h-0.128zm-576 15.86c-0.039 3e-4 -0.068 0.011-0.099 0.011-0.6917 0.049-1.055 0.088-1.698 0.3426-1.413 0.5647-1.413 2.306 0 2.881 0.6431 0.2434 1.007 0.2794 1.698 0.3281 2.254 0.1441 2.283-3.588 0.099-3.565z" style="mix-blend-mode:multiply"/><path d="m598.7 414.2v841.8h132.6v-841.8zm-299.3 153.8v688h132.6v-688zm-299.3 222.2v465.8h132.6v-465.8z"/><path d="m898 260.4v995.6h132.5v-995.6z" style="mix-blend-mode:multiply"/></g><path d="m1494 237.7c-0.5738 0.0419-1.112 0.341-1.441 0.9555-5.057 9.483-16.56 12.14-23.22 2.225-0.9159-1.353-2.805-1.402-3.711 0-4.989 7.73-11.79 17.44-22.86 12.69-1.491-0.6231-2.722 1.3-1.299 2.225 10.59 6.903 19.89-1.823 26.1-10.25 8.438 9.347 24.16 7.801 28.6-5.362 0.496-1.459-0.906-2.573-2.169-2.482zm-121.2 31.75c-0.5691-5.8e-4 -1.163 0.2698-1.599 0.927-1.344 2.035-2.497 4.256-3.939 6.232-3.264 4.449-13.6 11.64-16.8 1.497-0.5161-1.636-2.881-2.082-3.768-0.4849-5.622 10.14-20.05 11.13-27.56 2.596-0.8768-0.9931-2.674 0.3454-1.855 1.426 7.639 10.18 22.85 9.998 30.87 0.8557 2.582 3.622 7.076 5.314 11.86 4.35 7.074-1.421 11.76-8.428 14.51-14.53 0.6899-1.533-0.4755-2.865-1.727-2.867zm-112 30.36c-0.5056-0.0196-1.029 0.1943-1.47 0.7274-5.105 6.163-20.4 21.19-26.52 6.546-0.6916-1.665-2.629-1.975-3.711-0.4848-4.872 6.679-11.75 9.806-19.9 10.25-1.53 0.0876-1.471 2.159 0 2.325 8.34 0.9444 15.73-2.134 21.27-8.044 2.592 3.807 6.795 5.887 11.8 5.819 8.691-0.1267 14.97-7.254 20.1-13.38 1.323-1.585-0.059-3.706-1.57-3.765zm184.5 7.801c-1.074 7e-3 -2.155 1.167-1.498 2.439 2.835 5.501 7.795 9.124 13.97 10.1 2.903 0.4478 6.038 0.2831 8.863-0.6418 3.381-1.1 7.524-5.752 11.28-4.35 2.816 1.071 5.18 5.835 8.435 7.373 2.864 1.353 6.044 2.083 9.22 1.654 6.586-0.8957 11.64-6.292 11.45-12.89-0.059-2.093-3.416-2.762-3.825-0.5134-1.267 6.893-6.374 9.619-12.93 8.714-5.768-0.8081-5.924-4.517-9.334-7.331-1.764-1.451-3.185-2.845-5.709-2.553-4.443 0.5258-7.082 5.571-11.6 6.603-6.781 1.529-13.69-1.921-17.01-7.801-0.3226-0.572-0.8108-0.8018-1.299-0.7986zm-291.5 40.12c-0.7375-0.0615-1.525 0.2719-1.884 0.9413-2.28 4.303-5.317 7.809-9.662 10.13-2.738 1.46-5.642 2.342-8.72 2.624-3.449 0.7107-5.957-0.924-7.536-4.906 1.462-0.3116 1.153-2.736-0.3566-2.638-7.775 0.5452-4.394 9.037 1.228 10.68 10.51 3.067 21.42-3.159 27.13-11.79 9.909 8.733 28.08 9.619 35.87-2.424 1.062-1.645-1.187-3.025-2.512-1.954-9.87 7.993-22.93 10.2-32.37-0.0997-0.3108-0.3395-0.7414-0.5194-1.185-0.5562zm417.1 0.4278c-0.7366-0.0215-1.463 0.3064-1.77 1.027-3.06 7.175-8.961 11.24-16.76 11.59-1.559 0.0681-1.549 2.308 0 2.424 7.902 0.5257 14.47-2.768 18.65-8.999 8.018 10.34 27.64 14.13 35.14 1.426 0.8185-1.373-0.904-3.323-2.326-2.31-10.22 7.205-24.19 8.862-31.11-4.136-0.3411-0.6328-1.09-1.005-1.827-1.027zm-369.8 46.89c-0.7376-0.0615-1.531 0.2862-1.884 0.9556-2.29 4.303-5.331 7.794-9.677 10.11-2.728 1.47-5.642 2.342-8.72 2.624-3.439 0.7205-5.958-0.9143-7.536-4.906 1.462-0.3018 1.154-2.736-0.3565-2.638-7.775 0.5452-4.38 9.037 1.242 10.68 10.51 3.067 21.41-3.144 27.13-11.78 9.909 8.733 28.08 9.619 35.87-2.424 1.062-1.645-1.201-3.025-2.526-1.954-9.87 7.993-22.92 10.19-32.37-0.0999-0.3068-0.3395-0.7278-0.5336-1.17-0.5704zm-28.12 79c-0.5485 0.0545-1.061 0.5322-0.913 1.255 2.718 13.58 19.56 18.8 30.17 10.7 4.492-3.427 9.492-6.067 15.36-1.754 1.354 0.9931 2.273 2.521 3.725 3.466 2.436 1.587 4.738 2.089 7.593 1.398 5.817-1.392 9.685-7.149 7.892-12.86-0.5846-1.85-3.551-1.603-3.482 0.4707 0.5261 6.981-3.495 8.82-12.09 5.519-0.7404-0.886-1.536-1.731-2.355-2.539-1.15-0.847-1.804-1.829-3.197-2.51-2.952-1.451-5.57-1.143-8.463 0.1426-5.057 2.259-7.782 7.748-13.5 9.013-8.613 1.918-16.91-3.578-19.67-11.58-0.192-0.5495-0.6441-0.7559-1.07-0.713zm126.4 44.77c-0.9188 7e-3 -1.892 0.6786-1.941 1.768-4.56 2.473-9.113 4.948-13.67 7.43-0.7698-1.022-1.588-2.008-2.426-2.952-1.013-0.9931-0.9884-1.206-2.255-1.897-1.734-0.9152-3.178-1.224-5.195-0.7274-2.835 0.6912-4.716 3.217-6.908 4.892-6.226 4.761-13.18 6.005-20.78 4.164-1.861-0.4478-2.568 2.21-0.7854 2.852 5.583 2.006 11.45 2.165 17.04 0.0429 3.595-1.363 5.842-4.226 9.106-5.862 5.651-2.833 7.295 1.658 11.69 4.336 9.227 5.608 19.79-2.756 17.71-12.76-0.1871-0.8987-0.8691-1.289-1.584-1.284zm209.7 75.86c-0.4484 0.0303-0.8769 0.2867-1.142 0.8557-3.371 7.302-11.19 7.114-18.14 6.803-8.116-0.37-16.22-0.8206-24.35-0.8984-1.724-0.0107-1.646 2.463 0 2.638 10.48 1.1 22.1 3.057 32.63 1.811 5.68-0.6718 11.78-2.854 12.89-9.085 0.2075-1.165-0.8974-2.192-1.884-2.125zm-125.9 5.719c-0.9424-0.0555-1.867 0.5583-1.927 1.84-0.6626 13.78-15.78 19.03-25.4 9.741-1.286-1.236-3.164 0.6447-1.955 1.94 10.04 10.7 25.38 6.406 29.9-5.676 3.868 7.526 9.665 14.4 18.48 15.55 7.629 1.003 17.04-3.006 18.34-11.25 0.2924-1.84-2.346-3.399-3.311-1.383-3.42 7.107-10.05 10.51-17.88 7.601-7.366-2.736-11.59-10.15-14.43-17.03-0.3448-0.8392-1.08-1.283-1.812-1.326zm-123.9 0.0999c-1.163-0.0175-2.415 0.3821-3.825 1.269-2.095 1.314-3.37 3.725-5.095 5.419-3.283 3.232-7.142 5.533-11.57 6.789-9.519 2.697-19.44 0.4442-26.96-5.933-0.8768-0.7497-2.103 0.4268-1.284 1.284 12.59 13.16 30.38 10.08 43.22-0.328 3.361-2.726 2.918-5.283 9.348-0.9698 1.13 0.7789 1.923 2.229 3.112 3.066 2.67 1.869 6.009 2.635 9.234 2.596 6.323-0.0683 12.99-3.548 14.61-9.955 0.4481-1.782-1.928-2.726-2.912-1.226-6.362 9.678-15.4 8.926-22.51 1.098-1.736-1.917-3.428-3.081-5.366-3.109zm226 29.94c-0.7355 0.0235-1.485 0.3916-1.77 1.027-3.478 7.691-13.66 9.423-19.85 3.893-1.198-1.061-2.914 0.6099-1.784 1.768 6.888 7.01 17.69 5.704 23.61-1.383 5.271 5.228 14.93 10.49 17.81 0.3994 0.5846-2.045-2.474-3.392-3.497-1.455-4.209 7.906-10.79-0.784-13.03-3.637-0.3411-0.4344-0.9123-0.6312-1.484-0.6133zm-361.7 32.03c-0.3927 0.0292-0.7814 0.1994-1.099 0.5134-8.496 8.48-19.91 18.3-32.31 10.6-0.6041-0.37-1.346 0.5505-0.7707 0.9983 11.65 9.347 24.54 0.7468 33.95-7.587 3.556 5.618 8.048 11.22 15.23 11.59 8.632 0.4284 10.13-8.384 17.38-10.9 1.793-0.6134 1.643-3.577-0.4706-3.48-4.034 0.185-5.595 2.009-8.235 4.949-2.484 2.765-3.551 5.231-8.15 5.562-6.577 0.4868-10.92-6.902-13.82-11.38-0.3839-0.5963-1.058-0.9192-1.713-0.8699zm199.8 12.22c-0.5281 0.0399-1.029 0.3216-1.327 0.927-2.455 4.965-1.165 4.454-7.878 5.904-11.73 2.551-2.508 1.799-7.136-0.7131-1.695-0.9249-2.156-2.295-4.339-2.539-2.007-0.2142-3.435 0.7475-5.052 1.711-1.822 1.1-3.114 3.228-5.024 4.221-5.359 2.804-11.77 0.6504-15.13-4.179-0.7014-1.003-2.313-0.1163-1.67 0.9841 2.455 4.148 6.264 6.926 11.2 7.345 6.05 0.5063 12.61-6.793 18-3.58 3.673 2.191 4.121 5.883 9.577 4.949 6.206-1.051 9.332-7.212 10.86-12.66 0.382-1.365-0.9217-2.455-2.084-2.367zm-165.7 39.29c-0.4804 0.0437-0.9578 0.471-0.7561 1.013 5.222 13.96 22.42 21.16 36.24 15.46 1.812-0.7497 3.318-2.045 5.052-2.824 0.9839-0.6912 1.979-1.353 2.983-2.025 4.55-1.129 8.444-0.3572 11.69 2.31 3.888 1.645 6.954 3.757 11.29 4.293 7.444 0.9054 15.19-2.514 17.31-10.04 0.5261-1.869-2.175-3.04-3.14-1.326-7.356 13.1-18.62 5.344-28.16 0.6703-4.511-2.21-7.818-0.9737-11.83 1.626-6.635 4.313-12.5 6.988-20.62 5.576-8.574-1.509-15.34-6.685-19.32-14.35-0.153-0.2994-0.4404-0.4114-0.7278-0.3851zm193.3 16.04c-0.5592-3e-3 -1.124 0.2708-1.541 0.9127-6.888 10.61-19.4 11.95-27.4 1.683-0.4482-0.5842-1.675-0.7429-2.269-0.2853-5.3 4.079-20.18 13.29-22.45-0.2853-0.2242-1.324-2.535-1.025-2.369 0.328 1.744 14.27 17.07 9.351 25.39 4.065 9.022 10.48 26.02 10.01 32.34-3.608 0.6967-1.493-0.4696-2.805-1.698-2.81zm-213 20.94c-0.6558 0.0389-1.325 0.2975-2.041 0.813-1.12 0.8081-0.759 1.211-1.47 1.883-0.4969 2.59-2.509 3.408-6.066 2.424-1.15-1.032-2.109-2.235-2.869-3.608-0.4969-0.8081-1.901-1.214-2.583-0.328-2.835 3.661-9.917 12.19-14.27 4.221-0.5651-1.051-2.047-0.1244-1.57 0.9271 3.712 8.168 12.16 3.351 16.8-1.312 1.919 2.668 4.638 5.32 7.921 5.32 1.422 0 2.521-0.4098 3.554-1.383 0.7308-0.701 2.689-5.532 3.44-5.191 1.958 0.8957 3.428-1.601 1.684-2.867-0.8662-0.6244-1.684-0.9482-2.526-0.8986zm213.9 27.23c-0.7726 0.0771-1.546 0.7657-1.199 1.612 1.9 4.537 4.877 8.055 9.534 9.983 5.817 2.415 8.966 0.2505 14.53-0.4992 5.797-0.7789 10.05 5.097 15.84 2.41 3.79-1.772 5.265-5.172 4.71-9.056-0.2045-1.451-2.524-1.344-2.826 0-1.851 8.188-11.93 2.228-17.37 2.909-4.365 0.5549-6.552 3.114-11.59 2.082-4.969-1.042-8.42-4.369-10.48-8.828-0.2269-0.4856-0.6926-0.6592-1.156-0.6133zm-56.55 17.16c-0.8396 0.0107-1.743 0.6258-1.798 1.612-0.6431 12.24-11.09 20.16-22.44 13.29-0.5262-0.3115-1.353-0.37-1.87 0-8.486 6.221-20.86 1.562-23.18-8.7-0.3897-1.733-2.957-1-2.626 0.7131 1.15 5.929 4.955 10.45 10.55 12.81 2.748 1.159 5.839 1.75 8.82 1.526 2.582-0.2142 5.239-1.937 7.636-1.84 3.274 0.1265 6.179 2.189 9.677 2.111 3.488-0.0779 6.798-1.156 9.634-3.152 5.641-3.953 8.196-10.54 7.008-17.19-0.1492-0.8306-0.7601-1.191-1.413-1.184zm6.052 61.1c-0.8135 0.0817-1.544 0.7465-1.199 1.754 3.4 9.95 13.84 13.62 22.91 8.614 5.028-2.765 7.794-3.405 13.84-0.9128 2.455 1.013 3.316 2.472 6.151 2.482 4.375 0.0196 7.503-2.663 8.692-6.674 0.5652-1.937-2.226-3.102-3.24-1.369-2.835 4.849-15.08-2.448-20.04-1.055-2.738 0.7692-4.853 2.954-7.279 4.307-7.064 3.943-15.18 1.871-18.24-6.161-0.2854-0.7497-0.9656-1.048-1.598-0.9841zm-45.24 3.865c-1.8 0.0215-3.585 0.8118-5.295 2.154-2.679 2.113-4.297 6.175-7.279 7.801-5.797 3.145-13.2-0.2192-18.2-3.237-3.761-2.249-6.589-4.18-10.85-2.096-2.514 1.227-4.062 3.685-6.323 5.263-6.138 4.264-13.99 3.584-18.74-2.667-0.7795-1.032-2.53-0.0731-1.77 1.027 2.757 3.972 6.583 6.693 11.5 7.316 6.479 0.8275 8.898-2.55 13.92-5.305 7.843-4.284 16.2 4.809 24.59 5.091 2.748 0.0973 5.571-0.3964 8.007-1.74 3.858-2.132 8.107-10.44 13.17-8.714 2.173 0.7399 3.02-2.269 1.442-3.437-1.372-1.022-2.782-1.471-4.182-1.455zm547.6 5.662c-0.1939 0.0185-0.3985 0.0779-0.5991 0.1712-5.71 2.648-10.31 9.066-16.08 11.08-6.196 2.161-9.895-1.498-15.37-1.897-8.058-0.5744-13.65 16.46-20.3 12.88-1.588-0.8568-2.899 1.427-1.399 2.41 3.089 2.025 5.949 1.75 9.106-0.2853 6.801-4.362 6.038-12.32 16.76-9.085 4.384 1.324 6.177 3.403 10.99 1.212 6.226-2.843 13.59-8.8 18.21-13.83 1.1-1.201 0.049-2.78-1.313-2.653zm78.85 10.87c-0.5776 8e-3 -1.145 0.2676-1.456 0.87-1.569 3.038-8.98 0.1369-11.69 0.5847-1.696 0.2824-3.061 1.107-4.396 2.139-2.319 1.791-3.677 4.826-6.337 6.218-5.3 2.765-11.26-0.5981-13.5-5.505-0.6333-1.392-2.879-0.3946-2.441 1.027 2.3 7.604 11.62 11.54 18.58 7.288 2.007-1.236 3.232-3.831 5.181-4.892 4.267-2.337 8.108-0.244 12.29-0.5848 3.303-0.2726 5.621-2.048 5.709-5.348 0.029-1.107-0.9782-1.811-1.941-1.797zm-626.1 45.94c-0.3205 0.0292-0.6507 0.146-0.9567 0.3851-6.138 4.819-13.02 8.031-20.99 7.972-4.979-0.0292-10.47-3.486-15.26-3.009-3.4 0.3408-5.36 2.749-8.049 4.521-8.116 5.326-18.32 3.321-23.95-4.721-0.5847-0.8373-1.949-0.1023-1.413 0.813 5.69 9.785 18.21 12.73 27.67 6.418 5.953-3.972 8.669-2.187 15.13-0.9413 3.264 0.6328 6.626 0.6838 9.919 0.3138 7.385-0.8178 13.98-3.848 19.27-9.028 1.275-1.242 0.019-2.849-1.37-2.724zm136.4 10.94c-0.5768 0.0429-1.131 0.3184-1.484 0.8842-2.923 4.702-5.595 9.631-10.45 12.68-6.674 4.167-16.65 3.08-19.78-5.234-0.5749-1.529-2.958-2.261-3.825-0.4992-9.977 20.26-37.85 15.91-42.26-5.89-0.3312-1.636-2.713-0.8978-2.469 0.6989 3.702 24.01 33.58 29.12 46.41 10.41 3.556 5.306 9.799 8.1 16.57 7.117 9.227-1.344 16.25-9.499 19.37-17.78 0.5493-1.459-0.8147-2.477-2.084-2.382zm67.64 13.22c-0.6071 4e-3 -1.194 0.3125-1.313 0.9983-1.627 9.405 8.041 18.39 17.33 14.33 1.042-0.4479 1.889-1.21 2.883-1.726 0.789-0.5647 1.584-1.109 2.383-1.654 2.592 0.555 5.191 1.132 7.793 1.697 2.007 0.9346 2.845 2.556 5.281 2.81 3.137 0.3115 6.204-1.169 5.794-4.635-0.1656-1.382-1.936-2.095-2.754-0.7416-2.202 3.602-7.652-2.651-9.591-3.537-2.231-1.022-4.176-0.9799-6.437-0.1426-2.29 0.8568-3.822 2.986-5.994 3.979-7.083 3.252-14.91-2.063-13.89-9.997 0.1093-0.8872-0.7043-1.39-1.484-1.383zm-194.6 37.05c-0.4851 0.0389-0.9665 0.3048-1.299 0.8558-6.635 11-19.87 15.34-27.94 2.681-0.721-1.129-2.768-1.421-3.411 0-5.534 12.33-19.83 15.68-31.36 9.769-0.6236-0.3115-1.403 0.5209-0.7988 1.027 10.65 9.006 26.79 4.783 34.05-6.19 9.188 10.71 29.32 10.25 32.67-5.933 0.2679-1.312-0.8446-2.298-1.912-2.211zm128.6 11.25c-0.8527 0.0389-1.572 1.22-0.8703 2.111 6.957 8.743 16.84 10.01 26.85 6.503 3.459-1.217 7.216-2.798 11.13-1.883 1.608 0.3701 3.05 1.937 4.667 2.453 1.754 0.5745 3.411 0.8558 5.252 0.4567 3.478-0.7498 5.216-2.597 4.924-6.004-0.1462-1.772-2.493-2.151-3.097-0.4274-1.247 3.563-15.14-2.261-19.44-0.7127-4.677 1.694-8.006 4.804-13.32 4.892-5.944 0.088-11.32-2.719-15.26-7.002-0.268-0.295-0.5583-0.3982-0.8419-0.3856zm343.4 5.063c-1.646 0.068-2.954 0.7039-4.267 1.811-1.647 1.392-2.387 3.624-3.868 5.163-3.108 3.232-18.66 6.532-12.42-4.421 0.8573-1.499-1.416-2.825-2.312-1.355-2.163 3.563-3.713 8.541 0.4277 11.05 3.995 2.415 9.812 1.971 13.79-0.1713 1.998-1.071 3.024-2.754 4.739-4.108 7.395-5.774 7.676-0.3777 13.69-0.699 3.381-0.185 6.338-2.189 5.295-5.733-0.3995-1.344-2.1-1.452-2.84-0.3709-1.208 1.772-6.872-0.029-8.578-0.4274-0.9645-0.2239-1.912-0.6932-2.926-0.742-0.2492-0.011-0.493-0.011-0.7278 0zm-202.1 52.25c-0.3343 0.029-0.648 0.1987-0.9129 0.5423-2.874 3.71-4.692 9.172-9.134 11.11-2.046 2.308-4.323 2.375-6.836 0.2142-2.192-0.011-3.801-0.8227-4.824-2.439-0.7503-0.5354-2.374-2.176-2.969-2.624-0.7501-0.5744-2.069-0.3193-2.683 0.3427-6.489 7-18.8 18.16-27.39 6.575-0.7696-1.032-2.316-0.1607-1.741 1.027 6.976 14.32 22.54 4.703 30.8-3.066 4.306 3.836 7.033 7.864 14.09 6.004 6.976-1.85 11.75-8.929 13.42-15.56 0.27-1.081-0.8086-2.21-1.812-2.125zm231.2 4.507c-0.9071 0.068-1.709 0.8091-1.413 2.025-2.348 0.6524-4.692 1.33-7.05 1.982-0.8087-0.4673-1.645-0.8802-2.512-1.241-1.276-0.3116-2.314-1.04-3.639-1.284-2.212-0.3894-4.021-0.2219-6.008 0.9269-2.241 1.305-3.099 3.434-4.638 5.391-6.635 8.373-18.75 8.99-22.45-2.567-0.536-1.675-2.628-1.873-3.583-0.4703-2.066 3.359-4.946 5.58-8.649 6.66-1.871 0.7107-1.165 3.544 0.8418 3.038 3.722-0.9249 6.484-2.58 8.92-5.063 4.988 9.512 17.68 12.75 25.85 3.95 0.3703-0.3992 2.706-3.615 2.569-3.508 3.926-3.047 8.252-3.374 12.37-1.797 1.988 0.7594 3.675 1.244 5.809 0.8841 4.092-0.7107 7.105-3.708 5.409-7.787-0.3537-0.8431-1.121-1.198-1.827-1.141zm-230.2 65.66c-0.4519 0-0.9051 0.182-1.256 0.5131-7.454 7.088-16.57 10.15-26.8 9.598-1.422-0.068-1.344 2.016 0 2.182 6.762 0.8178 13.12 0.1421 19.38-2.681 1.783-0.7983 5.759-4.365 7.464-4.521 1.958-0.1947 1.55 0.2531 3.597 1.226 8.096 3.846 18.19 5.329 24.76-2.353 1.159-1.363-0.3558-3.768-2.041-2.638-7.941 5.296-16.6 6.324-23.86-0.8129-0.3458-0.3408-0.7901-0.516-1.242-0.5131zm-106.1 7.587c-0.7767 0.049-1.537 0.4985-1.87 1.44-3.127 8.831-14.21 9.56-18.81 1.868-0.6624-1.091-2.348-1.426-3.254-0.4138-6.508 7.321-17.31 7.606-24.22 0.7135-1.218-1.207-3.014 0.6027-1.884 1.868 7.19 8.013 19.02 8.559 27.1 1.997 7.151 9.512 21.52 7.235 25.09-4.935 0.4753-1.625-0.8604-2.627-2.155-2.539zm151.4 28.88c-0.4324 0-0.8759 0.1538-1.256 0.4995-9.714 8.86-22.91 12-33.64 2.538-0.7597-0.6815-2.233-0.9346-2.954 0-2.397 3.086-4.795 6.455-7.864 8.928-2.943 2.687-6.337 4.149-10.2 4.421-4.053 0.4866-6.861-1.371-8.449-5.576 0.7988-0.3019 0.5153-1.478-0.342-1.284l-1.099 0.2423c-0.2532 0.058-0.45 0.2697-0.528 0.5133-1.471 4.907 3.983 7.954 8.192 8.742 9.314 1.772 16.41-5.12 22.04-11.62 11.11 8.383 29.9 8.11 37.75-4.664 0.8544-1.38-0.344-2.734-1.642-2.738zm-388.4 15.29c-5.335-5e-4 -10.62 1.419-15.71 2.867-1.871 0.5355-1.072 3.222 0.799 2.881 6.723-1.227 14.07-2.919 20.85-1.098 4.589 1.227 8.54 4.977 13.37 5.405 5.573 0.4965 10.12-2.376 12-7.488 0.5359-1.46-1.598-2.665-2.612-1.526-7.892 8.879-16.52 0.3407-25-0.7983-1.235-0.1685-2.465-0.2424-3.697-0.2424zm205.6 18.83c-2.61 0-5.028 0.8236-7.707 2.082-3.001 1.412-6.112 3.941-9.405 4.564-6.352 1.188-8.806-3.258-13.87-5.205-3.41-1.305-6.334-0.9376-9.277 1.341-2.455 1.908-3.799 4.934-6.323 6.774-5.865 4.294-13.92 2.084-16.91-4.664-0.4773-1.061-2.351-0.2921-1.912 0.7983 1.92 4.761 5.516 7.962 10.72 8.828 6.362 1.052 9.025-2.154 13.49-5.804 10.31-8.422 12.79 3.038 22.61 2.21 7.96-0.662 13.52-8.116 21.86-7.045 1.939 0.2434 2.259-2.855 0.4569-3.351-1.312-0.3681-2.538-0.5296-3.725-0.5278z" fill="#00a5b2" style="mix-blend-mode:multiply"/><path d="m1451 530.6v-120.7l24.57 24.55v-25.64l28.45 28.43v-27.34l27.25 27.23v-22.63l25.4 25.38v-57.61h29.49v148.4z" fill="#302e30"/><path d="m1457 447v7.459h7.464v-7.459zm14.19 0v7.459h7.464v-7.459zm14.17 0v7.459h7.479v-7.459zm14.19 0v7.459h7.479v-7.459zm14.2 0v7.459h7.479v-7.459zm14.19 0v7.459h7.479v-7.459zm14.2 0v7.459h7.464v-7.459zm-85.13 14.92v7.473h7.464v-7.473zm14.19 0v7.473h7.464v-7.473zm14.17 0v7.473h7.479v-7.473zm14.19 0v7.473h7.479v-7.473zm14.2 0v7.473h7.479v-7.473zm14.19 0v7.473h7.479v-7.473zm14.2 0v7.473h7.464v-7.473zm-85.13 14.93v7.459h7.464v-7.459zm14.19 0v7.459h7.464v-7.459zm14.17 0v7.459h7.479v-7.459zm14.19 0v7.459h7.479v-7.459zm14.2 0v7.459h7.479v-7.459zm14.19 0v7.459h7.479v-7.459zm14.2 0v7.459h7.464v-7.459zm-85.13 14.92v7.473h7.464v-7.473zm14.19 0v7.473h7.464v-7.473zm14.17 0v7.473h7.479v-7.473zm14.19 0v7.473h7.479v-7.473zm14.2 0v7.473h7.479v-7.473zm14.19 0v7.473h7.479v-7.473zm14.2 0v7.473h7.464v-7.473zm-85.13 14.93v7.459h7.464v-7.459zm14.19 0v7.459h7.464v-7.459zm14.17 0v7.459h7.479v-7.459zm14.19 0v7.459h7.479v-7.459zm14.2 0v7.459h7.479v-7.459zm14.19 0v7.459h7.479v-7.459zm14.2 0v7.459h7.464v-7.459z" fill="#fff"/><path d="m1765 763.6v-105.9l21.56 21.55v-22.5l24.95 24.94v-23.99l23.91 23.89v-19.85l22.28 22.27v-50.54h25.88v130.2z" fill="#302e30"/><path d="m1770 690.3v6.546h6.537v-6.546zm12.45 0v6.546h6.551v-6.546zm12.45 0v6.546h6.551v-6.546zm12.45 0v6.546h6.551v-6.546zm12.46 0v6.546h6.537v-6.546zm12.43 0v6.546h6.551v-6.546zm12.46 0v6.546h6.551v-6.546zm-74.69 13.09v6.56h6.537v-6.56zm12.45 0v6.56h6.551v-6.56zm12.45 0v6.56h6.551v-6.56zm12.45 0v6.56h6.551v-6.56zm12.46 0v6.56h6.537v-6.56zm12.43 0v6.56h6.551v-6.56zm12.46 0v6.56h6.551v-6.56zm-74.69 13.09v6.546h6.537v-6.546zm12.45 0v6.546h6.551v-6.546zm12.45 0v6.546h6.551v-6.546zm12.45 0v6.546h6.551v-6.546zm12.46 0v6.546h6.537v-6.546zm12.43 0v6.546h6.551v-6.546zm12.46 0v6.546h6.551v-6.546zm-74.69 13.11v6.532h6.537v-6.532zm12.45 0v6.532h6.551v-6.532zm12.45 0v6.532h6.551v-6.532zm12.45 0v6.532h6.551v-6.532zm12.46 0v6.532h6.537v-6.532zm12.43 0v6.532h6.551v-6.532zm12.46 0v6.532h6.551v-6.532zm-74.69 13.09v6.532h6.537v-6.532zm12.45 0v6.532h6.551v-6.532zm12.45 0v6.532h6.551v-6.532zm12.45 0v6.532h6.551v-6.532zm12.46 0v6.532h6.537v-6.532zm12.43 0v6.532h6.551v-6.532zm12.46 0v6.532h6.551v-6.532z" fill="#fff"/><path d="m1008 858v-84.96l17.28 17.29v-18.05l20.02 20.01v-19.25l19.16 19.16v-15.92l17.88 17.86v-40.53h20.75v104.4z" fill="#302e30"/><path d="m1012 799.2v5.248h5.252v-5.248zm9.991 0v5.248h5.252v-5.248zm9.976 0v5.248h5.266v-5.248zm9.99 0v5.248h5.252v-5.248zm9.976 0v5.248h5.252v-5.248zm9.991 0v5.248h5.252v-5.248zm9.976 0v5.248h5.252v-5.248zm-59.9 10.5v5.234h5.252v-5.234zm9.991 0v5.234h5.252v-5.234zm9.976 0v5.234h5.266v-5.234zm9.99 0v5.234h5.252v-5.234zm9.976 0v5.234h5.252v-5.234zm9.991 0v5.234h5.252v-5.234zm9.976 0v5.234h5.252v-5.234zm-59.9 10.48v5.263h5.252v-5.263zm9.991 0v5.263h5.252v-5.263zm9.976 0v5.263h5.266v-5.263zm9.99 0v5.263h5.252v-5.263zm9.976 0v5.263h5.252v-5.263zm9.991 0v5.263h5.252v-5.263zm9.976 0v5.263h5.252v-5.263zm-59.9 10.51v5.248h5.252v-5.248zm9.991 0v5.248h5.252v-5.248zm9.976 0v5.248h5.266v-5.248zm9.99 0v5.248h5.252v-5.248zm9.976 0v5.248h5.252v-5.248zm9.991 0v5.248h5.252v-5.248zm9.976 0v5.248h5.252v-5.248zm-59.9 10.5v5.263h5.252v-5.263zm9.991 0v5.263h5.252v-5.263zm9.976 0v5.263h5.266v-5.263zm9.99 0v5.263h5.252v-5.263zm9.976 0v5.263h5.252v-5.263zm9.991 0v5.263h5.252v-5.263zm9.976 0v5.263h5.252v-5.263z" fill="#fff"/><path d="m964 281.7c-9.48 13.5-2.807 18.01-0.5564 19.07l0.0107-8.086c0-0.0585 9e-3 -0.1083 0.0292-0.1568 0.0683-0.3018 0.339-0.5277 0.6703-0.5277 0.38 0 0.6849 0.3048 0.6849 0.6845l-0.0107 8.044c10.35-4.926-0.8282-19.03-0.8282-19.03zm41.96 16.81c-16.26 2.843-14.72 10.74-13.89 13.06l5.737-5.705c0.0389-0.0292 0.0779-0.0663 0.1287-0.0856 0.2631-0.1655 0.6177-0.124 0.8418 0.0999 0.2728 0.2726 0.2728 0.7114 0 0.9841l-5.695 5.662c10.81 3.836 12.87-14.02 12.87-14.02zm-83.86 2.068c2.845 16.25 10.76 14.7 13.09 13.88l-5.709-5.733c-0.0389-0.0389-0.0809-0.0799-0.0999-0.1283-0.1656-0.2628-0.1243-0.6318 0.0999-0.8557 0.2728-0.2726 0.7119-0.2726 0.9848 0l5.666 5.705c3.839-10.8-14.03-12.86-14.03-12.86zm43.7 11.54c-0.3478 5e-3 -0.7093 0.0565-1.056 0.1712l-21.25 7.088c-1.861 0.6134-2.864 2.628-2.241 4.478 0.4969 1.48 1.873 2.424 3.354 2.424 0.3702 0 0.7573-0.0585 1.128-0.1854l21.25-7.074c1.851-0.6231 2.855-2.628 2.241-4.478-0.5066-1.503-1.918-2.45-3.425-2.424zm21.25 7.074c-0.3488 8e-3 -0.6947 0.0681-1.042 0.1854l-42.52 14.18c-1.861 0.6134-2.864 2.619-2.241 4.478 0.4969 1.48 1.873 2.41 3.354 2.41 0.3702 0 0.7573-0.0584 1.128-0.1854l42.52-14.16c1.851-0.6134 2.855-2.609 2.241-4.478-0.4988-1.503-1.93-2.458-3.44-2.425zm0 14.16c-0.3478 5e-3 -0.6947 0.0701-1.042 0.1854l-42.52 14.16c-1.647 0.555-2.666 2.213-2.383 3.936 0.2728 1.704 1.753 2.966 3.497 2.966 5.261 0 9.614 3.838 10.46 8.842h-3.368c-0.6528 0-1.23 0.3727-1.541 0.8984-0.1169 0.2045-0.1946 0.4269-0.214 0.6703-0.0107 0.0681-0.0283 0.136-0.0283 0.2139 0 0.146 0.0283 0.2773 0.0575 0.4136 0.1462 1.752 0.5649 3.415 1.227 4.963 0.4872 1.139 1.106 2.211 1.827 3.195 0.7697 1.032 1.642 1.963 2.626 2.781 1.276 1.061 2.732 1.934 4.31 2.567 1.822 0.7205 3.824 1.127 5.909 1.127 4.881 0 9.241-2.201 12.17-5.648 1.013-1.198 1.87-2.552 2.483-4.022 0.6625-1.529 1.091-3.192 1.227-4.935v-0.0147c0.0488-0.1947 0.0585-0.4133 0.0389-0.6275v-0.0145c-0.0292-0.2434-0.1111-0.4659-0.228-0.6703-0.302-0.5257-0.8837-0.8984-1.527-0.8984h-3.383c0.8379-5.004 5.21-8.842 10.46-8.842 1.958 0 3.554-1.58 3.554-3.537 0-1.947-1.605-3.537-3.554-3.537-9.168 0-16.74 6.988-17.63 15.92h-7.264c-0.4969-4.965-3.061-9.345-6.822-12.24l32.84-10.94c1.851-0.6231 2.864-2.628 2.241-4.478-0.5066-1.511-1.932-2.466-3.44-2.439zm-64.71 9.085c-5.672 0.1722-12.03 5.22-12.03 5.22 13.51 9.473 18.02 2.8 19.08 0.5704l-8.092-0.0283c-0.0681 0-0.1129-4e-3 -0.1713-0.0145-0.302-0.0779-0.5137-0.3535-0.5137-0.6845 0-0.3797 0.305-0.6845 0.685-0.6845l8.035 0.0145c-1.618-3.393-4.223-4.477-6.993-4.393zm80.48 0c-4.222 0.1496-6.077 3.049-6.708 4.378l8.092 0.0145c0.059 0 0.1228 9e-3 0.1715 0.0283 0.3118 0.0779 0.5134 0.349 0.5134 0.6703 0 0.3894-0.3049 0.6845-0.6849 0.6845l-8.035-0.0145c4.93 10.34 19.02-0.8272 19.02-0.8272-5.49-3.848-9.485-5.037-12.37-4.935z" fill="#fff"/><path d="m782.4 54.96c72.53 28.45 110.6 106.8 90.37 180.2l16.12 19.3-24.22 3.096c-32.91 72.64-117.4 107.5-192.5 78.04-13.34-5.228-25.52-12.14-36.36-20.41-23.57-17.92-40.95-42.2-50.64-69.33-11.81-33.08-12.17-70.41 1.686-105.7 11.86-30.17 32.36-54.37 57.54-70.89 22.89-15 49.64-23.68 77.3-24.71 20.14-0.7691 40.77 2.522 60.72 10.36" fill="#00a5b2"/><path d="m765 0c-0.5164 4.196-1.129 8.304-1.47 12.42-0.1461 1.597-0.789 2.175-2.241 2.467-6.508 1.363-12.52 3.997-18.14 7.502-1.286 0.7984-2.053 0.6915-3.154-0.2139-3.244-2.658-6.59-5.198-9.591-7.544-4.969 4.965-9.733 9.755-14.61 14.63 2.787 3.573 5.734 7.336 8.706 11.15-3.702 5.91-6.837 12.02-8.249 18.81-0.4872 2.298-1.435 3.345-3.725 3.237-0.3605-0.0096-0.7099 0.04187-1.07 0.07108-3.449 0.4381-6.899 0.874-10.32 1.312v20.55c4.326 0.5355 8.568 1.125 12.82 1.583 1.179 0.1266 1.575 0.5528 1.955 1.711 1.442 4.469 2.994 8.916 4.767 13.28 0.9743 2.405 2.477 4.609 3.754 6.945-2.991 3.816-5.915 7.58-8.692 11.12 4.911 4.946 9.681 9.759 14.57 14.68 3.254-2.561 6.644-5.176 9.976-7.872 0.9158-0.7399 1.584-0.8189 2.626-0.1568 5.729 3.593 11.85 6.3 18.51 7.673 1.393 0.2824 1.976 0.8921 2.112 2.382 0.3702 4.177 0.9634 8.327 1.47 12.46h20.64c0.4092-3.359 1.074-6.608 1.113-9.869 0.0585-3.505 1.412-4.976 4.91-5.648 3.615-0.701 7.033-2.407 10.83-3.779-4.833-5.326-9.234-10.22-13.72-15.02-0.38-0.3992-1.399-0.5032-2.012-0.328-5.602 1.519-11.29 1.997-17.01 1.169-22.71-3.32-38.13-23.29-35.04-46.01 2.221-16.37 11.52-27.84 27.09-33.2 15.97-5.501 30.68-2.199 42.65 9.883 11.31 11.41 14.36 25.26 10.12 40.75-0.1949 0.6913-0.1906 1.875 0.2284 2.196 5.076 4.04 10.25 7.957 15.83 12.25 1.442-4.469 2.835-8.578 4.053-12.74 0.3508-1.198 0.7106-1.77 2.055-1.897 4.258-0.4284 8.496-1.033 12.8-1.569v-20.57c-4.852-0.6036-9.597-1.193-14.43-1.797-1.53-7.867-4.773-14.98-8.991-21.64 3.059-3.914 6.019-7.67 8.806-11.22-4.93-4.926-9.718-9.707-14.63-14.6-3.157 2.463-6.522 4.991-9.776 7.659-1.052 0.8665-1.79 0.9396-2.969 0.1997-5.612-3.505-11.62-6.163-18.13-7.516-1.598-0.3213-2.209-1.017-2.355-2.653-0.3605-4.099-0.9446-8.176-1.441-12.27zm7.607 45.24c-1.279-0.03213-2.563 0.05063-3.853 0.2567 3.811 5.317 7.644 10.61 11.43 15.94 3.894 3.897 1.492 9.935-3.126 11.94-4.108 2.728-9.714 8.775-14.69 4.207-4.814-5.72-8.822-12.1-13.3-18.1-1.075 2.25-1.865 4.646-2.226 7.117-2.051 12.71 7.459 25.89 20.24 27.77 4.313 1.245 8.801-0.7677 12.94-0.1854 17.76 18.5 35.48 37.05 53.22 55.56 3.353 5.244 11.37 6.281 15.3 1.112 4.725-3.499 8.411-10.63 3.168-15.43-17.43-16.95-35.13-33.64-52.69-50.46-7.245-3.409-2.489-10.04-2.797-15.84 0.0263-12.6-11.26-23.58-23.62-23.89zm-164.6 13.02c-4.344-0.06427-8.694 0.3755-12.92 1.284-3.951 1.441-10.25 1.264-11.66 5.976 0.7555 9.89 2.57 19.7 3.625 29.58 0.5281 7.447 2.37 14.91 1.698 22.38l-0.6994 0.0856-0.5708-1.013c-3.759-9.889-4.851-20.54-7.236-30.81-2.344-5.106-0.3323-14.87-5.58-17.21-13.34 8.552-22.07 23.49-24.35 39.06 1.727 7.416-8.126 7.064-7.835 13.59 0.1532 4.928-0.8527 10.18 0.8136 14.87 3.139 5.079 9.892 1.716 14.3 4.578 4.319 4.32 9.497 7.986 15.64 9.37 15.94 3.534 32.44 3.534 48.67 2.638 11.11-0.5178 23.14-1.811 31.76-9.612 3.499-4.356 9.141-3.334 13.92-4.364 6.182-2.598 3.529-10.36 4.053-15.57 2.058-7.162-7.038-7.014-7.507-13.04-1.577-12.71-6.786-25.14-15.94-34.27-3.143-2.152-6.833-8.726-10.79-6.489-3.079 12.25-4.909 24.85-7.95 37.14-0.5863 2.688-3.294 15.62-4.453 8.086 0.2498-10.54 2.472-20.94 3.568-31.42-0.3025-6.558 4.408-14.57 0.4852-20.27-6.571-2.983-13.8-4.471-21.04-4.578zm233.3 77.04c2.434 0.1037 4.627 1.613 4.681 5.134 0.236 5.33-7.212 7.686-10.09 3.18-3.371-4.769 1.353-8.487 5.409-8.315zm-132.1 37.49c-1.413 0.1558-2.854 1.78-3.896 3.095-0.4969 0.6329-0.1427 1.954-0.1427 2.966-0.0107 38.37-0.0107 76.74 0 115.1 0 1.013-0.3451 2.334 0.1713 2.966 1.043 1.305 2.493 2.925 3.896 3.052 1.043 0.1072 2.555-1.776 3.354-3.081 0.5261-0.847 0.1427-2.25 0.1427-3.409v-114.2c0-1.149 0.3834-2.562-0.1427-3.409-0.8087-1.295-2.35-3.169-3.383-3.052zm-16.66 19.51c-3.488-0.0487-4.052 2.59-3.925 5.462 0.0292 0.8568 0 1.729 0 2.596v73.13c0 1.013-0.3581 2.246 0.0999 2.966 0.9646 1.509 2.193 3.621 3.625 3.893 2.446 0.477 3.834-1.446 3.853-4.036 0.0107-1.159 0.0145-2.303 0.0145-3.451v-65.79c0-3.164-0.0633-6.343 0.0145-9.527 0.0681-2.726-0.4962-5.19-3.682-5.248zm32.94 2.339c-1.208-0.0487-2.812 1.228-3.611 2.367-0.6333 0.9054-0.4139 2.49-0.4139 3.765-0.0196 11.82 0 23.64 0 35.45v25.94c0 3.885 0.0196 7.767 0 11.65-0.0196 2.473 0.768 4.367 3.525 4.464 2.991 0.1168 3.962-1.816 4.01-4.464 0.0196-0.7204 0.0283-1.443 0.0283-2.154 0-23.49-4e-3 -46.99-0.0145-70.48-2e-5 -1.285 0.2842-2.805-0.2712-3.808-0.682-1.207-2.104-2.699-3.254-2.738zm-66.04 0.0429c-1.296 0.0389-2.785 1.921-3.711 3.323-0.5359 0.8081-0.1427 2.245-0.1427 3.394v48.42c0 8.061 0.0107 16.13 0 24.2-0.0107 2.551 1.031 4.283 3.711 4.293 2.699 0.0196 3.757-1.758 3.825-4.25 0.0196-0.5744 0.0145-1.151 0.0145-1.726v-71.78c0-0.8568 0.3048-1.979-0.1141-2.524-1.013-1.344-2.403-3.381-3.582-3.352zm-32.84 10.07c-3.498-0.0389-3.882 2.662-3.882 5.505 0.0389 17.46 0.0389 34.91 0 52.37 0 2.862 0.479 5.488 3.996 5.391 3.254-0.0876 3.645-2.599 3.625-5.277-0.0389-8.801-0.0145-17.62-0.0145-26.41 0-8.665-0.0205-17.31 0.0283-25.97 0.0107-2.794-0.2169-5.576-3.754-5.605zm48.83 0c-2.705 0.1906-3.354 2.377-3.354 5.006 0.0389 17.74 0.0487 35.49 0 53.24-0.0107 2.804 0.7103 5.103 3.896 5.034 3.196-0.0683 3.749-2.518 3.739-5.234-0.0488-8.665-0.0281-17.3-0.0281-25.96 0-8.947-0.0205-17.89 0.0281-26.84 0.0107-2.707-0.5195-5.161-3.725-5.248-0.1991-4e-3 -0.3763-0.0133-0.5566 0zm65.4 8.814c-2.056 0.1048-2.894 2.09-2.869 4.492 0.0681 6.046 0.0283 12.08 0.0283 18.11 0 6.192 0.0244 12.37-0.0147 18.55-0.0196 2.707 1.086 4.952 3.854 4.407 1.461-0.2823 3.529-2.708 3.568-4.207 0.2923-12.36 0.2923-24.74 0-37.11-0.0389-1.49-2.14-3.906-3.611-4.179-0.3447-0.0663-0.6625-0.0867-0.9563-0.0711zm-98.09 3.066c-2.476 0.1501-3.463 1.942-3.454 4.507 0.0292 10.11 0.0196 20.22 0 30.33 0 2.658 0.9598 4.707 3.853 4.678 2.884-0.0389 3.788-2.052 3.739-4.749-0.0877-4.907-0.0283-9.825-0.0283-14.73 0-5.189-0.0439-10.39 0.0147-15.6 0.0292-2.551-0.9757-4.357-3.597-4.435-0.1784-4e-3 -0.363-0.0107-0.5281 0zm132 5.206c-1.306 1.402-3.467 2.658-3.739 4.236-0.5846 3.349-0.1855 6.865-0.1855 10.31 0 3.31 0.0196 6.616 0 9.926-0.0196 2.531 1.011 4.207 3.739 4.207 2.767 0 3.687-1.845 3.696-4.279 0.0292-6.757 0.2133-13.51-0.157-20.24-0.0779-1.451-2.185-2.792-3.354-4.164zm-164.6 0.0856c-2.767-0.0107-3.977 1.91-3.968 4.607 0.0107 3.174 0 6.344 0 9.498 0 3.31 0.0147 6.616-0.0145 9.926-0.0196 2.677 1.057 4.966 3.854 4.421 1.452-0.2921 3.471-2.664 3.568-4.193 0.3897-6.591 0.1563-13.22 0.1855-19.84 0.0107-2.512-1.033-4.411-3.625-4.421zm-65.65 0.328c-1.393 1.314-3.918 2.558-3.996 3.95-0.419 6.727-0.38 13.51 0 20.25 0.0681 1.334 2.396 2.556 3.682 3.822 1.228-1.324 3.267-2.518 3.511-4.008 0.5456-3.213 0.1713-6.583 0.1713-9.883 0-3.31 0.3639-6.689-0.1427-9.912-0.2436-1.538-2.095-2.82-3.226-4.221zm33.2 3.052c-0.0301-2.4e-4 -0.0585 0.0107-0.0856 0.0147-1.53 0.2725-3.578 1.882-3.968 3.323-0.6626 2.415-0.1855 5.14-0.1855 7.73h-0.0283c0 2.599-0.4576 5.32 0.1855 7.744 0.3897 1.441 2.41 3.122 3.911 3.366 0.9256 0.1363 3.118-2.16 3.226-3.494 0.3897-5.004 0.3943-10.09 0.0145-15.12-0.1037-1.292-2.144-3.558-3.069-3.565zm180.5 1.811c-1.267 0.0389-3.008 1.929-3.554 3.38-0.6138 1.636-0.1427 3.678-0.1427 5.548 0 2.006-0.4711 4.174 0.1427 5.976 0.4774 1.441 2.25 3.341 3.497 3.38 1.247 0.0389 3.512-1.849 3.668-3.095 0.4774-3.972 0.4774-8.06 0-12.02-0.1461-1.266-2.393-3.215-3.611-3.166zm-230.1 0.927c-1.393 0.1558-3.135 1.688-3.768 3.081-0.6528 1.412-0.157 3.368-0.157 5.091h-0.0281c0 1.86-0.4568 3.884 0.157 5.519 0.5261 1.412 2.274 3.242 3.511 3.252 1.218 0.0107 3.336-1.891 3.511-3.166 0.4872-3.515 0.4482-7.186 0-10.71-0.1461-1.217-2.212-3.173-3.226-3.066zm65.52 0.4279c-1.325 1.402-2.927 2.624-3.882 4.25-0.5651 0.9541-0.1778 2.527-0.0999 3.822 0.185 2.969-1.158 7.247 3.597 7.345 5.086 0.1072 3.71-4.362 3.953-6.903 0-1.84 0.4262-3.356-0.0999-4.378-0.8087-1.558-2.279-2.773-3.468-4.136zm-33.47 2.039c-0.1916-6.1e-4 -0.346 0.0408-0.4282 0.114-1.598 1.402-2.583 3.486-4.025 5.648 1.374 2.502 2.102 4.669 3.554 6.061 0.5943 0.5842 3.933-0.2826 4.01-0.7986 0.4774-3.135 0.6167-6.382 0.2855-9.527-0.0575-0.5422-2.362-1.494-3.397-1.497zm230.1 0.1997c-0.3612 9e-3 -0.6494 0.076-0.8136 0.2139-1.413 1.188-1.962 3.367-3.083 5.548 1.14 2.093 1.722 4.285 3.154 5.434 0.7697 0.6036 4.218-0.3856 4.296-0.9698 0.4384-3.018 0.4106-6.157-0.0575-9.156-0.0681-0.4412-2.207-1.103-3.497-1.07zm-279.2 0.5562c-1.617 2.405-3.381 3.893-3.226 5.12 0.1754 1.314 2.184 2.392 3.383 3.58 1.247-1.275 3.204-2.409 3.497-3.879 0.2046-1.042-1.832-2.542-3.654-4.82z" fill="#302e30"/></svg>
