<?xml version="1.0" encoding="UTF-8" standalone="no"?>
<!-- Created with Inkscape (http://www.inkscape.org/) -->

<svg
    width="1920"
    height="530"
    viewBox="0 0 1920 530"
    version="1.1"
    id="svg5"
    inkscape:version="1.2 (dc2aedaf03, 2022-05-15)"
    sodipodi:docname="logo-humanstxt-org.svg"
    xml:space="preserve"
    xmlns:inkscape="http://www.inkscape.org/namespaces/inkscape"
    xmlns:sodipodi="http://sodipodi.sourceforge.net/DTD/sodipodi-0.dtd"
    xmlns="http://www.w3.org/2000/svg"
    xmlns:svg="http://www.w3.org/2000/svg"><sodipodi:namedview
       id="namedview7"
       pagecolor="#000000"
       bordercolor="#000000"
       borderopacity="0.25"
       inkscape:showpageshadow="true"
       inkscape:pageopacity="1"
       inkscape:pagecheckerboard="true"
       inkscape:deskcolor="#4c4c4c"
       inkscape:document-units="px"
       showgrid="false"
       showborder="true"
       borderlayer="true"
       shape-rendering="auto"
       inkscape:zoom="0.5"
       inkscape:cx="1225"
       inkscape:cy="489"
       inkscape:window-width="2560"
       inkscape:window-height="1361"
       inkscape:window-x="-9"
       inkscape:window-y="-9"
       inkscape:window-maximized="1"
       inkscape:current-layer="layer1"
       showguides="false" /><defs
       id="defs2" /><g
       inkscape:label="Layer 1"
       inkscape:groupmode="layer"
       id="layer1"><path
          style="fill:#e64b07"
          d="m 296.6926,0.04212 c -5.27918,-0.16136 -10.99706,0.13896 -17.19192,0.93441 L 51.114781,31.10302 C 23.284621,34.67476 -7.2089196,53.58928 1.5207804,110.06578 L 31.919141,287.88221 c 4.78634,36.63849 18.42325,62.37969 66.21484,62.37969 H 389.4171 C 377.73957,251.80023 364.26621,154.25663 352.58812,55.79504 348.8991,24.69099 333.64631,1.17345 296.6926,0.04212 Z"
          id="path8439" /><path
          style="fill:#ffffff;stroke-width:5.47009"
          d="m 93.652891,4.43487 v 52.60604 h 19.766699 c 6.91473,0 10.85811,3.40178 10.85811,10.70807 V 350.2619 h 62.73587 V 236.28586 c 0,-11.69007 0.98899,-22.40405 3.95268,-32.14577 9.38557,-30.19931 35.06981,-51.63936 68.16492,-51.63936 31.61327,0 40.0071,20.46271 40.0071,50.66202 v 25.52971 a 19.194813,26.388807 30.86124 0 1 28.56698,-11.11627 19.194813,26.388807 30.86124 0 1 3.37121,32.3176 19.194813,26.388807 30.86124 0 1 -29.9673,13.26424 19.194813,26.388807 30.86124 0 1 -1.97089,-1.37468 v 55.35545 c 0,23.3801 9.88555,33.1231 33.10168,33.1231 h 59.76286 v -52.1227 h -19.75574 c -6.91529,0 -10.86907,-3.88881 -10.86907,-10.70805 v -96.93127 c 0,-65.75644 -31.60889,-94.49315 -87.92068,-94.49315 -43.46804,0 -74.58898,25.32342 -86.44375,49.19056 h -0.99118 c 0,0 0.99118,-8.76641 0.99118,-20.94358 V 37.06393 c 0,-22.4059 -10.37129,-32.62906 -33.58742,-32.62906 z M 232.78287,180.4148 a 16.435305,16.387065 0 0 1 16.43815,16.38968 16.435305,16.387065 0 0 1 -16.43815,16.38975 16.435305,16.387065 0 0 1 -16.43761,-16.38975 16.435305,16.387065 0 0 1 16.43761,-16.38968 z m 41.52615,6.47629 a 16.435305,16.387065 0 0 1 16.42666,16.37902 16.435305,16.387065 0 0 1 -16.42666,16.38975 16.435305,16.387065 0 0 1 -16.43816,-16.38975 16.435305,16.387065 0 0 1 16.43816,-16.37902 z m -62.00397,47.16073 c 1.09183,0.0618 2.37676,0.87216 3.8575,2.59911 8.38072,9.77582 31.64828,13.36451 62.89669,0.0437 19.26399,-11.34813 -16.0744,57.15117 -43.24923,61.88557 -26.39863,4.5991 -34.05566,-65.12517 -23.50496,-64.52774 z"
          id="path8441" /><path
          style="fill:#4e4e4e"
          d="m 954.82711,295.75236 c 0,38.70774 31.2997,60.33864 65.61579,60.33864 43.3668,0 58.0742,-34.154 58.0742,-34.154 h 0.7538 c 0,0 -0.383,3.4154 -0.383,8.3487 0,11.3847 6.7879,21.2514 24.5114,21.2514 h 42.99 v -40.6053 h -15.0848 c -5.2786,0 -8.2959,-3.0359 -8.2959,-8.3487 v -72.10274 c 0,-43.26161 -18.8548,-77.03605 -82.9625,-77.03605 -19.9861,0 -70.51819,3.79489 -70.51819,39.84625 v 20.49236 h 44.49859 v -10.24624 c 0,-10.62564 16.9699,-12.90257 25.6426,-12.90257 32.6433,-1.06207 35.1645,19.95833 35.4478,39.46678 -79.14659,3.78821 -116.65729,18.7416 -120.29599,65.65147 z m 48.26899,-2.27693 c 1.7149,-30.29573 38.9486,-30.14344 72.7812,-30.35907 -1.477,30.31777 -22.5112,54.56464 -43.7438,55.40524 -19.6097,0 -29.0374,-12.1436 -29.0374,-25.04617 z M 630.59041,351.5371 h 47.5148 v -85.00538 c 2.2422,-43.39425 22.1106,-68.21027 49.4004,-69.06677 23.0039,0 26.0201,17.83591 26.0201,38.70773 V 351.5371 h 47.8922 v -85.00538 c 1.0628,-37.80284 21.3448,-68.1861 49.0235,-69.06677 22.249,0 26.3969,16.69747 26.3969,38.70773 v 89.55922 c 0,18.2153 7.5422,25.8052 25.6432,25.8052 h 45.2531 v -40.6053 h -14.7076 c -5.2796,0 -8.2963,-3.0359 -8.2963,-8.3487 V 227.065 c 0,-50.8514 -23.0035,-73.62069 -62.9767,-73.62069 -30.5455,0 -55.4333,18.97442 -65.6153,39.84625 h -0.7543 c -8.2965,-26.18465 -27.1519,-39.84625 -56.1882,-39.84625 -30.1686,0 -53.1714,21.25141 -62.2222,40.22575 h -0.7543 c 0.4102,-5.06967 0.3829,-8.80551 0.3829,-14.04104 0,-13.6616 -8.2965,-21.63091 -25.2663,-21.63091 h -44.1212 v 40.98478 h 15.0843 c 5.2797,0 8.2965,2.65643 8.2965,8.34872 z m -228.8295,-69.06682 c 0,52.74882 25.26578,73.62072 66.37018,73.62072 33.18532,0 57.31942,-20.113 66.37022,-40.2258 h 0.7543 c -0.3993,5.1679 -0.3829,8.7293 -0.3829,14.0411 0,13.6615 8.6728,21.6308 25.2658,21.6308 h 44.1217 v -40.6053 h -15.0849 c -5.2792,0 -8.2959,-3.0359 -8.2959,-8.3487 V 157.99811 h -47.8917 v 88.80028 c 0,34.53334 -19.2328,65.27191 -53.9263,65.27191 -23.75767,0 -29.79118,-15.93853 -29.79118,-39.46668 v -89.17979 c 0,-17.45641 -7.5416,-25.42572 -25.26576,-25.42572 h -45.62982 v 40.98478 h 15.08431 c 5.27972,0 8.29647,2.65643 8.29647,8.34872 z m 968.92719,37.52242 c 0,0 26.927,33.8858 79.2849,33.8858 41.512,0 73.3008,-22.3423 73.3008,-58.08982 0,-63.30283 -101.3491,-57.34494 -101.3491,-87.13458 0,-11.17106 11.5927,-17.12895 28.4221,-17.12895 10.4724,0 23.9354,4.46845 23.9354,13.40531 v 9.3092 h 41.886 v -19.73552 c 0,-30.90674 -41.1383,-39.47126 -66.9433,-39.47126 -39.6424,0 -74.0491,17.50138 -74.0491,55.48314 0,61.44103 100.6019,61.06863 100.6019,87.87928 0,12.6606 -11.2197,18.6185 -25.8047,18.6185 -32.5371,0 -56.8461,-27.92772 -56.8461,-27.92772 z M 1167.8562,349.41 h 47.1225 v -87.13462 c 0.5361,-47.59314 25.6974,-63.35074 54.9761,-64.04758 23.9348,0 29.9186,15.63957 29.9186,38.72645 v 87.13455 c 0,17.8737 7.4792,25.3212 25.4311,25.3212 h 45.2522 v -39.8436 h -14.9595 c -5.236,0 -8.2276,-2.9789 -8.2276,-8.1922 v -74.10157 c 0,-50.26997 -24.309,-72.23975 -66.5693,-72.23975 -38.5208,0 -59.0901,23.45924 -67.3176,39.47126 h -0.7478 c 0.7998,-4.96289 0.7478,-8.61488 0.7478,-13.77771 0,-13.40539 -8.2281,-21.22515 -25.0573,-21.22515 h -43.7564 v 40.21597 h 14.9597 c 5.2365,0 8.2275,2.60659 8.2275,8.19217 z"
          id="path8443" /><path
          style="fill:#7a7a7a"
          d="m 1588.3171,108.68025 v 52.61681 h -26.3976 v 21.56648 h 26.0114 v 99.55193 c 0,63.58773 46.0881,70.77863 68.9393,70.77863 6.6982,0 11.4342,-0.7626 11.4342,-0.7626 v -0.7518 h 19.4729 l 55.1561,-81.37932 h 0.7937 l 54.7593,81.37932 h 31.5248 l -69.347,-99.16525 42.9488,-61.31642 c 4.3339,-6.4344 10.2405,-7.57191 18.5141,-7.57191 l 17.4987,-0.76258 v 99.55193 c 0,63.58773 46.0997,70.77863 68.9499,70.77863 6.6981,0 11.4243,-0.7626 11.4243,-0.7626 v -23.0809 c 0,0 -3.538,0.7518 -9.0536,0.7518 -14.9727,0 -44.5259,-5.6769 -44.5259,-50.33986 v -96.899 h 49.6427 v -21.56648 h -49.6427 v -52.61681 h -26.3974 v 52.61681 h -26.3976 v 0.0553 c -18.5294,0.2724 -23.4776,4.03326 -34.8329,20.76099 l -35.0655,53.74453 h -0.7937 l -35.0649,-53.74453 c -11.8198,-17.78943 -16.9458,-20.81471 -37.0385,-20.81465 h -6.4728 -49.6427 v -52.61675 z m 26.3974,74.18329 h 41.5383 v 0.76258 h 8.2812 c 7.8796,0 13.388,1.51335 18.1169,7.94775 l 42.9483,60.94058 -57.2948,82.39955 v -5.5634 c 0,0 -3.5478,0.7518 -9.0634,0.7518 -14.9716,0 -44.5265,-5.6769 -44.5265,-50.33986 z m -79.5071,168.81486 h 29.6358 v -30.2799 h -29.6358 z"
          id="path8445" /><path
          d="m 1851.2601,493.4137 c 0,0 8.1937,11.6652 25.5061,11.6652 13.2157,0 23.2587,-7.5559 23.2587,-18.6908 0,-22.13744 -37.2677,-18.69084 -37.2677,-33.67004 0,-6.4954 5.5505,-9.6768 14.8021,-9.6768 4.3607,0 11.497,1.8558 11.497,6.7605 v 3.1814 h 8.4577 v -5.7 c 0,-9.4118 -13.4797,-12.063 -20.2195,-12.063 -13.3475,0 -23.6555,5.9653 -23.6555,18.0281 0,21.4746 37.2672,18.8234 37.2672,33.40484 0,7.0257 -6.6073,10.6048 -14.0083,10.6048 -13.0834,0 -20.4838,-10.0745 -20.4838,-10.0745 z m -70.9678,-23.19784 c 0,20.54664 15.0664,34.86304 34.7571,34.86304 15.0656,0 24.7126,-9.5443 24.7126,-9.5443 l -4.3607,-6.7604 c 0,0 -7.7975,8.2187 -19.9559,8.2187 -13.7437,0 -25.5055,-9.6769 -25.7696,-26.51194 h 51.0112 c 0,0 0.2626,-2.9163 0.2626,-4.507 0,-16.5699 -9.5153,-30.7538 -27.8848,-30.7538 -17.8412,0 -32.7747,13.1234 -32.7747,34.9957 z m 9.7795,-6.8931 c 2.2466,-13.3885 11.8942,-20.5467 22.8627,-20.5467 9.7801,0 18.2378,6.7606 18.7663,20.5467 z m -83.9187,40.16544 h 8.9868 v -31.94674 c 0,-3.1815 0.2626,-6.2303 1.0568,-9.0141 3.0402,-11.0024 12.8191,-18.8234 24.1848,-18.8234 12.8192,0 14.405,9.2792 14.405,19.7513 v 31.94684 c 0,5.7001 2.3783,8.0861 8.0606,8.0861 h 9.3835 v -7.8209 h -5.55 c -1.8506,0 -2.9079,-0.928 -2.9079,-2.9164 v -31.68164 c 0,-16.4373 -5.8146,-25.8491 -22.3339,-25.8491 -15.594,0 -24.0523,10.7374 -26.4309,16.8351 h -0.2625 c 0.2899,-2.901 0.2572,-4.7974 0.2625,-7.821 0,-5.0372 -2.5112,-7.4234 -8.0623,-7.4234 h -9.2498 v 7.8211 h 5.5499 c 1.8499,0 2.9074,1.0604 2.9074,2.9163 z m -32.7741,-81.78894 h 8.7216 v -11.4001 h -8.7216 z m 0.2626,73.70284 c 0,5.7001 2.3789,8.0861 8.0619,8.0861 h 9.3833 v -7.8209 h -5.5505 c -1.8505,0 -2.908,-0.928 -2.908,-2.9164 v -47.85384 c 0,-5.7 -2.3783,-8.0862 -8.0612,-8.0862 h -9.3833 v 7.8211 h 5.5504 c 1.8506,0 2.9074,1.0604 2.9074,2.9163 z m -81.0119,8.0861 h 8.9862 v -31.94674 c 0,-3.1815 0.2626,-6.2303 1.0573,-8.8815 3.0397,-11.135 12.8197,-18.956 24.0531,-18.956 12.9509,0 14.5367,9.2792 14.5367,19.7513 v 31.94684 c 0,5.7001 2.3789,8.0861 8.0614,8.0861 h 9.3828 v -7.8209 h -5.5506 c -1.8498,0 -2.9068,-0.928 -2.9068,-2.9164 v -31.68164 c 0,-16.4373 -5.8151,-25.8491 -22.3342,-25.8491 -14.9346,0 -23.7883,10.2072 -26.2997,16.57 h -0.2626 c 0.3993,-6.4935 0.2626,-12.2215 0.2626,-33.6701 0,-5.4348 -2.3784,-7.8209 -8.0608,-7.8209 h -9.3833 v 7.8209 h 5.5505 c 1.8504,0 2.9074,1.0605 2.9074,2.9164 z m -75.1962,-33.27234 c 0,20.67924 15.0656,34.86304 34.8888,34.86304 17.0479,0 26.0347,-10.8699 26.0347,-10.8699 l -4.2288,-6.7604 c 0,0 -7.7977,9.4116 -21.4094,9.4116 -14.0084,0 -26.0343,-10.2071 -26.0343,-26.64434 0,-16.1723 11.497,-26.9094 25.7701,-26.9094 5.5505,0 15.1981,2.6511 15.1981,8.2185 v 3.8443 h 8.4579 v -5.9652 c 0,-11.0024 -16.1237,-14.1839 -23.656,-14.1839 -19.8236,0 -35.0211,14.5816 -35.0211,34.9957 z m -69.9105,15.11164 c 0,13.256 11.4976,19.7514 22.5985,19.7514 16.6521,0 22.2021,-14.4489 22.0702,-14.4489 h 0.2626 c 0,0 -0.1314,1.9884 -0.1314,4.9046 0,5.435 2.2471,7.9536 7.9294,7.9536 h 9.1191 v -7.8209 h -5.5509 c -1.8501,0 -2.9074,-0.928 -2.9074,-2.9164 v -31.94674 c 0,-14.3163 -5.0221,-25.584 -26.0349,-25.584 -5.8142,0 -21.6731,1.9885 -21.6731,11.2677 v 6.3628 h 8.5897 v -4.2419 c 0,-4.9048 9.6481,-5.8327 12.9517,-5.8327 15.6366,0.2631 17.0451,9.4842 17.1804,19.6188 -26.5721,2.2838 -44.4046,8.4162 -44.4046,22.93264 z m 9.251,-0.53 c 0,-14.97924 20.8798,-15.24444 31.3207,-15.24444 h 3.8329 v 3.0489 c 0,11.53274 -7.6659,24.78854 -20.3526,24.78854 -9.9112,0 -14.801,-6.3628 -14.801,-12.593 z m -123.3012,18.6907 h 8.8544 c 5.6829,0 7.6647,-2.386 8.0614,-8.0861 1.3194,-23.29604 4.5139,-46.51084 4.7584,-69.85864 h 0.2625 c 7.2074,20.7605 17.5208,40.5027 26.828,60.57954 h 8.3254 c 8.6752,-20.20924 19.9883,-39.36454 26.8277,-60.31444 h 0.2625 c 0.5306,22.99 2.9665,46.3374 4.7584,69.59354 0.3993,5.7001 2.3789,8.0861 8.0617,8.0861 h 8.9864 v -8.2187 h -5.022 c -1.8506,0 -2.7757,-0.9279 -2.9074,-2.9163 l -6.4756,-82.05404 h -9.3833 c -9.4249,21.8488 -20.3937,43.0547 -29.074,65.219 h -0.2626 c -8.9086,-21.4302 -19.3252,-43.4243 -29.2065,-65.219 h -9.3827 l -6.4756,82.05404 c -0.1314,1.9884 -1.0573,2.9163 -2.9079,2.9163 h -4.8898 z m -70.8353,-24.2583 c 0,22.2699 15.4629,24.7886 23.1275,24.7886 2.2466,0 3.8328,-0.2659 3.8328,-0.2659 v -8.086 c 0,0 -1.1897,0.2653 -3.0403,0.2653 -5.0215,0 -14.9333,-1.9884 -14.9333,-17.6304 v -33.93514 h 16.652 v -7.5559 h -16.652 v -18.4256 h -8.8544 v 18.4256 h -8.8539 v 7.5559 h 8.7216 z m -87.7506,-9.41174 c 0,20.14904 15.7264,35.26074 35.1529,35.26074 19.2947,0 35.0211,-15.1117 35.0211,-35.26074 0,-19.7513 -15.7264,-34.598 -35.1534,-34.598 -19.2942,0 -35.0206,14.8467 -35.0206,34.598 z m 9.2505,0 c 0,-15.1118 11.6299,-26.3792 25.9024,-26.3792 14.1407,0 25.7701,11.2674 25.7701,26.3792 0,15.50934 -11.6294,27.17474 -25.7701,27.17474 -14.2725,0 -25.9024,-11.6654 -25.9024,-27.17474 z M 1075.374,503.4882 h 9.7789 c 5.6828,0 8.0623,-2.386 8.0623,-8.0861 -0.7855,-23.42994 1.418,-47.01674 -0.7931,-70.38894 h 0.2626 c 16.8986,26.6499 36.5138,52.4463 55.1083,78.47504 h 8.4583 v -82.05414 c 0,-1.9884 1.057,-2.9163 2.9068,-2.9163 h 5.6829 v -8.2187 h -9.7793 c -5.6829,0 -8.0619,2.3861 -8.0619,8.0861 0.6383,23.4857 -1.1592,47.0751 0.6613,70.52154 h -0.2626 c -16.6273,-26.84454 -36.3776,-52.57324 -54.9759,-78.60764 h -8.4584 v 82.05414 c 0,1.9884 -1.0574,2.9163 -2.9074,2.9163 h -5.6823 z m -59.3385,-10.8698 -7.5327,23.728 h 7.5327 l 9.6478,-23.728 z m -77.70739,-22.40254 c 0,20.54664 15.0664,34.86304 34.7569,34.86304 15.0663,0 24.71278,-9.5443 24.71278,-9.5443 l -4.36078,-6.7604 c 0,0 -7.7971,8.2187 -19.9555,8.2187 -13.7445,0 -25.5064,-9.6769 -25.7701,-26.51194 h 51.01188 c 0,0 0.2626,-2.9163 0.2626,-4.507 0,-16.5699 -9.51578,-30.7538 -27.88488,-30.7538 -17.8407,0 -32.7751,13.1234 -32.7751,34.9957 z m 9.7795,-6.8931 c 2.2464,-13.3885 11.8942,-20.5467 22.8633,-20.5467 9.7793,0 18.2372,6.7606 18.7657,20.5467 z m -36.0781,32.07934 c 0,5.7001 2.3784,8.0861 8.0609,8.0861 h 9.3833 v -7.8209 h -5.5506 c -1.8498,0 -2.9073,-0.928 -2.9073,-2.9164 v -74.36564 c 0,-5.7 -2.3784,-8.0861 -8.0612,-8.0861 h -9.3833 v 7.8209 h 5.5503 c 1.8506,0 2.9079,1.0605 2.9079,2.9164 z M 835.77551,530 h 8.9868 c -0.2735,-12.4969 0.4978,-25.0328 -0.2626,-37.5142 h 0.2626 c 0,0 5.55,12.5931 21.8054,12.5931 17.181,0 29.7348,-13.7861 29.7348,-34.86304 0,-20.6792 -11.1004,-34.9957 -28.9416,-34.9957 -17.5771,0 -22.8633,13.1234 -22.8633,13.1234 h -0.2626 c 0,0 0.1312,-1.8557 0.1312,-4.5071 0,-4.6394 -2.2466,-7.0256 -7.9289,-7.0256 h -9.1197 v 7.8211 h 5.551 c 1.85,0 2.9074,1.0604 2.9074,2.9163 z m 8.7221,-59.65154 c 0,-18.956 10.4402,-26.9095 21.5422,-26.9095 12.4215,0 21.0123,10.4721 21.0123,26.7769 0,16.96754 -9.6471,26.90954 -21.4094,26.90954 -13.8759,0 -21.1451,-13.3885 -21.1451,-26.77694 z m -95.68,-0.5301 c 0,20.14904 15.7265,35.26074 35.1535,35.26074 19.2941,0 35.0211,-15.1117 35.0211,-35.26074 0,-19.7513 -15.727,-34.5979 -35.1535,-34.5979 -19.2946,0 -35.0211,14.8466 -35.0211,34.5979 z m 9.2504,0 c 0,-15.1117 11.63,-26.3792 25.9031,-26.3792 14.1401,0 25.7695,11.2675 25.7695,26.3792 0,15.50934 -11.6294,27.17474 -25.7695,27.17474 -14.2731,0 -25.9031,-11.6654 -25.9031,-27.17474 z m -81.6722,0.3977 c 0,20.54664 15.0663,34.86304 34.7569,34.86304 15.0663,0 24.7139,-9.5443 24.7139,-9.5443 l -4.3619,-6.7605 c 0,0 -7.797,8.2187 -19.9554,8.2187 -13.7441,0 -25.5053,-9.6768 -25.7701,-26.51184 h 51.0124 c 0,0 0.2625,-2.9163 0.2625,-4.507 0,-16.5699 -9.5157,-30.7538 -27.8848,-30.7538 -17.8407,0 -32.7751,13.1234 -32.7751,34.9957 z m 9.7794,-6.8931 c 2.2471,-13.3885 11.8942,-20.5467 22.8639,-20.5467 9.7789,0 18.2367,6.7605 18.7657,20.5467 z m -74.7995,40.16544 h 9.251 v -36.58634 h 21.4093 c 16.5191,0 28.6775,-11.135 28.6775,-28.5002 0,-17.2327 -12.1584,-28.1025 -28.6775,-28.1025 h -39.2506 v 8.2186 h 8.5903 z m 9.251,-44.80504 v -40.1654 h 20.352 c 12.1583,0 20.2201,7.2907 20.2201,19.8839 0,12.7256 -8.0618,20.2815 -20.3531,20.2815 z m -126.4733,11.5327 c 0,20.54664 15.0662,34.86304 34.7574,34.86304 15.0657,0 24.7128,-9.5443 24.7128,-9.5443 l -4.3613,-6.7605 c 0,0 -7.7971,8.2187 -19.9554,8.2187 -13.7436,0 -25.5054,-9.6768 -25.7701,-26.51184 h 51.0123 c 0,0 0.2626,-2.9163 0.2626,-4.507 0,-16.5699 -9.5147,-30.7538 -27.8843,-30.7538 -17.8407,0 -32.7751,13.1234 -32.7751,34.9957 z m 9.7799,-6.8931 c 2.2466,-13.3885 11.8942,-20.5467 22.8633,-20.5467 9.7789,0 18.2368,6.7605 18.7663,20.5467 z m -48.76522,40.16544 h 8.9868 v -28.10254 c 0,-4.242 0.53059,-8.7489 1.84997,-12.9909 2.90735,-9.8094 9.91179,-17.2327 19.29464,-17.2327 1.71816,0 3.30341,0.2659 3.30341,0.2659 v -8.8815 c 0,0 -1.71708,-0.3977 -3.56761,-0.3977 -10.44022,0 -17.84069,7.6884 -21.01224,17.7629 h -0.26257 c 0.32821,-3.4033 0.26257,-5.8913 0.26257,-9.5442 0,-5.3024 -2.51132,-7.5559 -8.06181,-7.5559 h -9.25102 v 7.821 h 5.55051 c 1.84998,0 2.90735,1.0604 2.90735,2.9163 z m -96.73737,0 h 4.36074 c 6.60788,0 8.45786,-1.3256 10.83625,-7.6884 l 8.19419,-22.00494 h 36.87111 L 426.75483,495.8 c 2.37894,6.3628 4.36074,7.6884 10.9686,7.6884 h 4.22892 v -8.2187 h -1.58522 c -2.51132,0 -3.83345,-0.3977 -4.75788,-2.9163 l -30.39562,-82.05404 h -9.91181 L 364.9062,492.3534 c -0.92499,2.5186 -2.37894,2.9163 -4.75733,2.9163 h -1.71815 z m 25.90194,-37.77934 c 5.36014,-15.0806 11.5397,-29.8757 15.72704,-45.3352 h 0.26258 c 4.13319,15.3927 10.27993,30.2347 15.85832,45.3352 z m -130.56929,4.507 c 0,20.54664 15.06516,34.86304 34.75693,34.86304 15.06516,0 24.71329,-9.5443 24.71329,-9.5443 l -4.3613,-6.7605 c 0,0 -7.79705,8.2187 -19.95542,8.2187 -13.74413,0 -25.50592,-9.6768 -25.77066,-26.51184 h 51.01183 c 0,0 0.26256,-2.9163 0.26256,-4.507 0,-16.5699 -9.51467,-30.7538 -27.8843,-30.7538 -17.84124,0 -32.77456,13.1234 -32.77456,34.9957 z m 9.77943,-6.8931 c 2.24709,-13.3885 11.89359,-20.5467 22.86277,-20.5467 9.77996,0 18.2378,6.7605 18.76621,20.5467 z M 160.59415,503.4884 h 10.96861 l 22.33436,-78.60754 h 0.26256 l 20.35309,78.60754 h 10.96862 l 21.40882,-82.05414 c 0.66079,-2.5186 2.24656,-2.9163 4.88971,-2.9163 h 1.45395 v -8.2186 h -4.0971 c -6.60786,0 -9.64758,1.193 -11.23282,7.6884 L 219.6667,492.2208 h -0.26258 l -20.74856,-81.52384 h -9.11809 l -22.99515,81.52384 h -0.26256 l -18.10544,-74.23304 c -1.58578,-6.4954 -4.62497,-7.6884 -11.23283,-7.6884 h -4.09654 v 8.2186 h 1.58522 c 2.51132,0 4.22948,0.3977 4.88973,2.9163 z"
          style="fill:#4e4e4e"
          id="path8447" /></g></svg>
