<svg version="1.1" viewBox="0 0 208 256" xmlns="http://www.w3.org/2000/svg"><g stroke-width="2.026"><path d="m165.1 0h-91.52l-73.61 73.71v139.3c0 23.67 19.24 42.95 42.89 42.95h122.2c23.65 0 42.87-19.27 42.87-42.95v-170.1c0-23.69-19.24-42.95-42.87-42.95z" fill="#a32724"/><path d="m192 213.1c0 14.94-12.09 27.04-27 27.04h-122.2c-14.92 0-27.02-12.11-27.02-27.04v-132.8h41.8c12.43 0 22.52-10.09 22.52-22.53v-41.85h84.94c14.91 0 27 12.11 27 27.04z" fill="#fff"/><path d="m156.5 126.4h-22.38c-2.712 0-4.344 1.766-4.344 4.413v36.88c0 3.194 2.106 5.299 5.02 5.299 2.845 0 4.95-2.105 4.95-5.299v-13.18c0-0.269 0.1323-0.4049 0.4045-0.4049h13.03c2.914 0 4.608-1.766 4.608-4.281 0-2.515-1.694-4.277-4.608-4.277h-13.03c-0.2722 0-0.4045-0.1359-0.4045-0.4084v-9.712c0-0.2724 0.1323-0.408 0.4045-0.408h16.34c2.783 0 4.616-1.833 4.616-4.277 0-2.515-1.834-4.348-4.616-4.348zm-55.41 0h-10.92c-2.712 0-4.338 1.766-4.338 4.413v37.42c0 2.649 1.624 4.346 4.338 4.346h10.92c9.831 0 15.94-3.125 18.38-10.66 0.8788-2.649 1.359-5.841 1.359-12.43s-0.4812-9.779-1.359-12.43c-2.441-7.538-8.548-10.66-18.38-10.66zm8.821 32.06c-1.157 3.665-4.477 5.23-9.091 5.23h-4.608c-0.272 0-0.4114-0.1359-0.4114-0.408v-27.57c0-0.2725 0.1393-0.4086 0.4114-0.4086h4.608c4.616 0 7.934 1.564 9.091 5.23 0.4744 1.564 0.8088 4.281 0.8088 8.964 0 4.685-0.335 7.402-0.8088 8.964zm-47.88-32.06h-14.24c-2.712 0-4.338 1.766-4.338 4.413v36.88c0 3.194 2.098 5.299 5.014 5.299 2.851 0 4.95-2.105 4.95-5.299v-11.2c0-0.2725 0.1393-0.4086 0.4114-0.4086h8.207c10.03 0 16.07-6.114 16.07-14.81 6.26e-4 -8.83-5.967-14.87-16.07-14.87zm-0.6131 21.05h-7.593c-0.2722 0-0.4114-0.1359-0.4114-0.4049v-11.62c0-0.2725 0.1393-0.408 0.4114-0.408h7.593c4.204 0 6.715 2.513 6.715 6.25 6.46e-4 3.734-2.51 6.179-6.715 6.179z"/></g></svg>
